G04*
G04 #@! TF.GenerationSoftware,Altium Limited,Altium Designer,25.5.2 (35)*
G04*
G04 Layer_Color=8421504*
%FSLAX43Y43*%
%MOMM*%
G71*
G04*
G04 #@! TF.SameCoordinates,4F66119B-7B72-4549-9651-36E21DA7A037*
G04*
G04*
G04 #@! TF.FilePolarity,Positive*
G04*
G01*
G75*
%ADD19C,0.500*%
%ADD21R,1.800X1.600*%
%ADD22R,1.500X1.300*%
%ADD23R,0.650X0.650*%
%ADD24R,0.650X0.650*%
%ADD25R,1.300X1.500*%
%ADD26R,0.860X0.540*%
%ADD27R,0.540X0.860*%
%ADD28R,1.300X3.400*%
%ADD29R,0.229X0.711*%
G04:AMPARAMS|DCode=30|XSize=0.45mm|YSize=1.4mm|CornerRadius=0.05mm|HoleSize=0mm|Usage=FLASHONLY|Rotation=90.000|XOffset=0mm|YOffset=0mm|HoleType=Round|Shape=RoundedRectangle|*
%AMROUNDEDRECTD30*
21,1,0.450,1.301,0,0,90.0*
21,1,0.351,1.400,0,0,90.0*
1,1,0.099,0.651,0.176*
1,1,0.099,0.651,-0.176*
1,1,0.099,-0.651,-0.176*
1,1,0.099,-0.651,0.176*
%
%ADD30ROUNDEDRECTD30*%
%ADD31R,1.800X1.300*%
G04:AMPARAMS|DCode=32|XSize=1.3mm|YSize=2.7mm|CornerRadius=0.13mm|HoleSize=0mm|Usage=FLASHONLY|Rotation=90.000|XOffset=0mm|YOffset=0mm|HoleType=Round|Shape=RoundedRectangle|*
%AMROUNDEDRECTD32*
21,1,1.300,2.440,0,0,90.0*
21,1,1.040,2.700,0,0,90.0*
1,1,0.260,1.220,0.520*
1,1,0.260,1.220,-0.520*
1,1,0.260,-1.220,-0.520*
1,1,0.260,-1.220,0.520*
%
%ADD32ROUNDEDRECTD32*%
G04:AMPARAMS|DCode=33|XSize=2.469mm|YSize=0.622mm|CornerRadius=0.311mm|HoleSize=0mm|Usage=FLASHONLY|Rotation=270.000|XOffset=0mm|YOffset=0mm|HoleType=Round|Shape=RoundedRectangle|*
%AMROUNDEDRECTD33*
21,1,2.469,0.000,0,0,270.0*
21,1,1.847,0.622,0,0,270.0*
1,1,0.622,0.000,-0.924*
1,1,0.622,0.000,0.924*
1,1,0.622,0.000,0.924*
1,1,0.622,0.000,-0.924*
%
%ADD33ROUNDEDRECTD33*%
%ADD34O,1.700X0.300*%
G04:AMPARAMS|DCode=35|XSize=0.515mm|YSize=0.35mm|CornerRadius=0.025mm|HoleSize=0mm|Usage=FLASHONLY|Rotation=90.000|XOffset=0mm|YOffset=0mm|HoleType=Round|Shape=RoundedRectangle|*
%AMROUNDEDRECTD35*
21,1,0.515,0.300,0,0,90.0*
21,1,0.465,0.350,0,0,90.0*
1,1,0.050,0.150,0.233*
1,1,0.050,0.150,-0.233*
1,1,0.050,-0.150,-0.233*
1,1,0.050,-0.150,0.233*
%
%ADD35ROUNDEDRECTD35*%
%ADD36R,1.300X1.800*%
%ADD37R,0.622X2.469*%
G04:AMPARAMS|DCode=38|XSize=0.565mm|YSize=0.2mm|CornerRadius=0.05mm|HoleSize=0mm|Usage=FLASHONLY|Rotation=90.000|XOffset=0mm|YOffset=0mm|HoleType=Round|Shape=RoundedRectangle|*
%AMROUNDEDRECTD38*
21,1,0.565,0.100,0,0,90.0*
21,1,0.465,0.200,0,0,90.0*
1,1,0.100,0.050,0.233*
1,1,0.100,0.050,-0.233*
1,1,0.100,-0.050,-0.233*
1,1,0.100,-0.050,0.233*
%
%ADD38ROUNDEDRECTD38*%
D19*
X2500Y110000D02*
G03*
X-0Y107500I0J-2500D01*
G01*
X200000D02*
G03*
X197500Y110000I-2500J0D01*
G01*
X197500Y-0D02*
G03*
X200000Y2500I0J2500D01*
G01*
X0Y2500D02*
G03*
X2500Y0I2500J0D01*
G01*
X2500Y110000D02*
X197500Y110000D01*
X2500Y0D02*
X197500D01*
X-0Y107500D02*
X0Y2500D01*
X200000Y2500D02*
X200000Y107500D01*
D21*
X33500Y22100D02*
D03*
Y24900D02*
D03*
D22*
X35750Y22550D02*
D03*
Y24450D02*
D03*
X42250Y29300D02*
D03*
Y31200D02*
D03*
X25500Y24700D02*
D03*
Y22800D02*
D03*
X27750Y24700D02*
D03*
Y22800D02*
D03*
X19000Y36950D02*
D03*
Y35050D02*
D03*
X188500Y82450D02*
D03*
X148000Y81950D02*
D03*
X188500Y80550D02*
D03*
X155000Y80050D02*
D03*
X148000D02*
D03*
X115000D02*
D03*
X54250Y102050D02*
D03*
X9000Y94700D02*
D03*
X11000Y67550D02*
D03*
X24250Y9050D02*
D03*
Y10950D02*
D03*
X11000Y69450D02*
D03*
X9000Y92800D02*
D03*
X54250Y103950D02*
D03*
X115000Y81950D02*
D03*
X155000D02*
D03*
D23*
X34750Y26750D02*
D03*
X33850D02*
D03*
X26300Y26500D02*
D03*
X27200D02*
D03*
X19300Y28750D02*
D03*
X20200D02*
D03*
X31800Y19250D02*
D03*
X32700D02*
D03*
X29200Y19500D02*
D03*
X28300D02*
D03*
X101550Y45250D02*
D03*
X101300Y55750D02*
D03*
X102200D02*
D03*
X102450Y45250D02*
D03*
X94277Y45790D02*
D03*
X97450Y36500D02*
D03*
X16340Y72310D02*
D03*
X41300Y16750D02*
D03*
X152950Y90750D02*
D03*
X152050D02*
D03*
X149550Y92500D02*
D03*
Y90750D02*
D03*
X25550Y62500D02*
D03*
X15440Y72310D02*
D03*
X74050Y37250D02*
D03*
X95177Y45790D02*
D03*
X96550Y36500D02*
D03*
X150450Y90750D02*
D03*
X152050Y92500D02*
D03*
X152950D02*
D03*
X150450D02*
D03*
X67260Y35865D02*
D03*
X68160D02*
D03*
X68160Y33960D02*
D03*
X67260D02*
D03*
X65620Y35865D02*
D03*
X64720D02*
D03*
Y33960D02*
D03*
X65620D02*
D03*
X41050Y11500D02*
D03*
X41950D02*
D03*
X74950Y37250D02*
D03*
X26450Y62500D02*
D03*
X62050Y32500D02*
D03*
X62950D02*
D03*
X42200Y16750D02*
D03*
D24*
X44750Y30800D02*
D03*
Y31700D02*
D03*
X21000Y35950D02*
D03*
Y35050D02*
D03*
X30500Y19650D02*
D03*
Y18750D02*
D03*
X152000Y13200D02*
D03*
X155250Y14450D02*
D03*
X156750D02*
D03*
X64250Y31550D02*
D03*
X20000Y65950D02*
D03*
X43750Y12500D02*
D03*
X18000Y15200D02*
D03*
X19500D02*
D03*
X43750Y13400D02*
D03*
X64250Y32450D02*
D03*
X156750Y13550D02*
D03*
X155250D02*
D03*
X152000Y12300D02*
D03*
X18000Y14300D02*
D03*
X19500D02*
D03*
X20000Y65050D02*
D03*
D25*
X17050Y26500D02*
D03*
X18950D02*
D03*
X118950Y13000D02*
D03*
X94050Y87000D02*
D03*
X117050Y13000D02*
D03*
X95950Y87000D02*
D03*
D26*
X25930Y10500D02*
D03*
X28070D02*
D03*
X17930Y23500D02*
D03*
X20070D02*
D03*
D27*
X38750Y29820D02*
D03*
Y27680D02*
D03*
X21500Y13930D02*
D03*
Y16070D02*
D03*
X17500Y28430D02*
D03*
Y30570D02*
D03*
D28*
X29350Y28100D02*
D03*
X31450D02*
D03*
D29*
X31150Y23300D02*
D03*
X29650Y23300D02*
D03*
X30150Y24900D02*
D03*
X30650D02*
D03*
X29650Y24900D02*
D03*
X30650Y23300D02*
D03*
X30150Y23300D02*
D03*
X31150Y24900D02*
D03*
D30*
X100950Y43275D02*
D03*
Y53275D02*
D03*
Y50025D02*
D03*
X95050Y49375D02*
D03*
Y50025D02*
D03*
X100950Y49375D02*
D03*
Y48725D02*
D03*
Y48075D02*
D03*
X95050Y48725D02*
D03*
X100950Y38075D02*
D03*
X95050Y43275D02*
D03*
Y53275D02*
D03*
Y48075D02*
D03*
Y38075D02*
D03*
Y50675D02*
D03*
Y53925D02*
D03*
Y52625D02*
D03*
X100950Y53925D02*
D03*
Y51325D02*
D03*
Y52625D02*
D03*
Y51975D02*
D03*
X95050Y51325D02*
D03*
X100950Y50675D02*
D03*
X95050Y51975D02*
D03*
X100950Y38725D02*
D03*
Y39375D02*
D03*
Y40025D02*
D03*
Y40675D02*
D03*
Y41325D02*
D03*
Y41975D02*
D03*
Y42625D02*
D03*
Y43925D02*
D03*
X95050Y38725D02*
D03*
Y39375D02*
D03*
Y40025D02*
D03*
Y42625D02*
D03*
Y41975D02*
D03*
Y41325D02*
D03*
Y43925D02*
D03*
Y40675D02*
D03*
D31*
X164750Y13950D02*
D03*
X164750Y11050D02*
D03*
D32*
X144860Y82663D02*
D03*
X184847Y82632D02*
D03*
Y80092D02*
D03*
X159087D02*
D03*
X144860Y80123D02*
D03*
X119100D02*
D03*
X184847Y90252D02*
D03*
X144860Y85203D02*
D03*
Y87743D02*
D03*
Y90283D02*
D03*
Y92823D02*
D03*
Y95363D02*
D03*
Y97903D02*
D03*
X119100Y95363D02*
D03*
Y90283D02*
D03*
Y85203D02*
D03*
Y97903D02*
D03*
Y87743D02*
D03*
Y92823D02*
D03*
Y82663D02*
D03*
X184847Y85172D02*
D03*
Y87712D02*
D03*
Y92792D02*
D03*
Y95332D02*
D03*
Y97872D02*
D03*
X159087Y95332D02*
D03*
Y90252D02*
D03*
Y85172D02*
D03*
Y97872D02*
D03*
Y87712D02*
D03*
Y92792D02*
D03*
Y82632D02*
D03*
D33*
X16805Y69580D02*
D03*
X15535D02*
D03*
Y64752D02*
D03*
X16805D02*
D03*
X14265D02*
D03*
X18075D02*
D03*
X14265Y69580D02*
D03*
D34*
X37700Y14250D02*
D03*
X41800Y13750D02*
D03*
Y13250D02*
D03*
Y14250D02*
D03*
Y14750D02*
D03*
Y15250D02*
D03*
X37700Y13250D02*
D03*
X37700Y13750D02*
D03*
Y14750D02*
D03*
Y15250D02*
D03*
D35*
X17405Y12983D02*
D03*
Y12148D02*
D03*
D36*
X17375Y53975D02*
D03*
X20275D02*
D03*
D37*
X18075Y69580D02*
D03*
D38*
X16905Y12148D02*
D03*
Y12983D02*
D03*
X16405D02*
D03*
Y12148D02*
D03*
X17905D02*
D03*
X18405D02*
D03*
Y12983D02*
D03*
X17905D02*
D03*
M02*
