G04*
G04 #@! TF.GenerationSoftware,Altium Limited,Altium Designer,25.5.2 (35)*
G04*
G04 Layer_Color=16711935*
%FSLAX43Y43*%
%MOMM*%
G71*
G04*
G04 #@! TF.SameCoordinates,737B1F3F-4E3A-4C0A-B37F-581FB9ED70DE*
G04*
G04*
G04 #@! TF.FilePolarity,Negative*
G04*
G01*
G75*
%ADD18C,0.500*%
%ADD46C,2.600*%
G04:AMPARAMS|DCode=47|XSize=1.7mm|YSize=1.7mm|CornerRadius=0.45mm|HoleSize=0mm|Usage=FLASHONLY|Rotation=0.000|XOffset=0mm|YOffset=0mm|HoleType=Round|Shape=RoundedRectangle|*
%AMROUNDEDRECTD47*
21,1,1.700,0.800,0,0,0.0*
21,1,0.800,1.700,0,0,0.0*
1,1,0.900,0.400,-0.400*
1,1,0.900,-0.400,-0.400*
1,1,0.900,-0.400,0.400*
1,1,0.900,0.400,0.400*
%
%ADD47ROUNDEDRECTD47*%
%ADD48C,1.650*%
%ADD49R,1.650X1.650*%
%ADD50C,1.878*%
%ADD51C,1.751*%
%ADD52C,1.300*%
%ADD53R,1.751X1.751*%
%ADD54C,1.570*%
%ADD55R,1.570X1.570*%
G04:AMPARAMS|DCode=56|XSize=0.9mm|YSize=2.4mm|CornerRadius=0.45mm|HoleSize=0mm|Usage=FLASHONLY|Rotation=0.000|XOffset=0mm|YOffset=0mm|HoleType=Round|Shape=RoundedRectangle|*
%AMROUNDEDRECTD56*
21,1,0.900,1.500,0,0,0.0*
21,1,0.000,2.400,0,0,0.0*
1,1,0.900,0.000,-0.750*
1,1,0.900,0.000,-0.750*
1,1,0.900,0.000,0.750*
1,1,0.900,0.000,0.750*
%
%ADD56ROUNDEDRECTD56*%
%ADD57C,10.200*%
G04:AMPARAMS|DCode=58|XSize=0.9mm|YSize=1.7mm|CornerRadius=0.45mm|HoleSize=0mm|Usage=FLASHONLY|Rotation=0.000|XOffset=0mm|YOffset=0mm|HoleType=Round|Shape=RoundedRectangle|*
%AMROUNDEDRECTD58*
21,1,0.900,0.800,0,0,0.0*
21,1,0.000,1.700,0,0,0.0*
1,1,0.900,0.000,-0.400*
1,1,0.900,0.000,-0.400*
1,1,0.900,0.000,0.400*
1,1,0.900,0.000,0.400*
%
%ADD58ROUNDEDRECTD58*%
%ADD59C,0.650*%
G04:AMPARAMS|DCode=60|XSize=4.1mm|YSize=1.9mm|CornerRadius=0.5mm|HoleSize=0mm|Usage=FLASHONLY|Rotation=90.000|XOffset=0mm|YOffset=0mm|HoleType=Round|Shape=RoundedRectangle|*
%AMROUNDEDRECTD60*
21,1,4.100,0.900,0,0,90.0*
21,1,3.100,1.900,0,0,90.0*
1,1,1.000,0.450,1.550*
1,1,1.000,0.450,-1.550*
1,1,1.000,-0.450,-1.550*
1,1,1.000,-0.450,1.550*
%
%ADD60ROUNDEDRECTD60*%
G04:AMPARAMS|DCode=61|XSize=1.7mm|YSize=1.7mm|CornerRadius=0.45mm|HoleSize=0mm|Usage=FLASHONLY|Rotation=90.000|XOffset=0mm|YOffset=0mm|HoleType=Round|Shape=RoundedRectangle|*
%AMROUNDEDRECTD61*
21,1,1.700,0.800,0,0,90.0*
21,1,0.800,1.700,0,0,90.0*
1,1,0.900,0.400,0.400*
1,1,0.900,0.400,-0.400*
1,1,0.900,-0.400,-0.400*
1,1,0.900,-0.400,0.400*
%
%ADD61ROUNDEDRECTD61*%
%ADD62C,1.700*%
%ADD63R,1.878X1.878*%
%ADD64C,1.200*%
G04:AMPARAMS|DCode=65|XSize=9.901mm|YSize=7.2mm|CornerRadius=0mm|HoleSize=0mm|Usage=FLASHONLY|Rotation=75.800|XOffset=0mm|YOffset=0mm|HoleType=Round|Shape=Round|*
%AMOVALD65*
21,1,2.701,7.200,0.000,0.000,75.8*
1,1,7.200,-0.331,-1.309*
1,1,7.200,0.331,1.309*
%
%ADD65OVALD65*%

%ADD66C,7.200*%
%ADD67R,1.650X1.650*%
%ADD68R,1.200X1.200*%
G04:AMPARAMS|DCode=69|XSize=4.1mm|YSize=1.9mm|CornerRadius=0.5mm|HoleSize=0mm|Usage=FLASHONLY|Rotation=180.000|XOffset=0mm|YOffset=0mm|HoleType=Round|Shape=RoundedRectangle|*
%AMROUNDEDRECTD69*
21,1,4.100,0.900,0,0,180.0*
21,1,3.100,1.900,0,0,180.0*
1,1,1.000,-1.550,0.450*
1,1,1.000,1.550,0.450*
1,1,1.000,1.550,-0.450*
1,1,1.000,-1.550,-0.450*
%
%ADD69ROUNDEDRECTD69*%
D18*
X2500Y110000D02*
G03*
X-0Y107500I0J-2500D01*
G01*
X200000D02*
G03*
X197500Y110000I-2500J0D01*
G01*
X197500Y-0D02*
G03*
X200000Y2500I0J2500D01*
G01*
X0Y2500D02*
G03*
X2500Y0I2500J0D01*
G01*
X2500Y110000D02*
X197500Y110000D01*
X2500Y0D02*
X197500D01*
X-0Y107500D02*
X0Y2500D01*
X200000Y2500D02*
X200000Y107500D01*
D46*
X7381Y55006D02*
D03*
Y50006D02*
D03*
Y60006D02*
D03*
X7500Y28500D02*
D03*
Y33500D02*
D03*
D47*
X17185Y57975D02*
D03*
D48*
X109310Y82610D02*
D03*
X99150D02*
D03*
X104230D02*
D03*
X106770D02*
D03*
X101690D02*
D03*
X5000Y89850D02*
D03*
X12620D02*
D03*
X59130Y103750D02*
D03*
X99150Y91500D02*
D03*
X65960Y27940D02*
D03*
X5000Y87310D02*
D03*
X12620D02*
D03*
X63420Y27940D02*
D03*
X61670Y103750D02*
D03*
X101690Y91500D02*
D03*
X12620Y82230D02*
D03*
Y84770D02*
D03*
Y79690D02*
D03*
X106770Y91500D02*
D03*
X104230D02*
D03*
X109310D02*
D03*
X5000Y82230D02*
D03*
Y84770D02*
D03*
Y79690D02*
D03*
X66750Y103750D02*
D03*
X64210D02*
D03*
X69290D02*
D03*
X58340Y27940D02*
D03*
X60880D02*
D03*
X55800D02*
D03*
D49*
X111850Y82610D02*
D03*
X111850Y91500D02*
D03*
X71830Y103750D02*
D03*
X68500Y27940D02*
D03*
D50*
X80010Y81280D02*
D03*
X31750Y88900D02*
D03*
X29210Y91440D02*
D03*
X31750Y40640D02*
D03*
X29210D02*
D03*
X31750Y91440D02*
D03*
X80010Y78740D02*
D03*
X82550Y48260D02*
D03*
X29210Y38100D02*
D03*
X31750Y38100D02*
D03*
X82550Y81280D02*
D03*
X82550Y83820D02*
D03*
X31750Y63500D02*
D03*
Y53340D02*
D03*
X29210Y35560D02*
D03*
X29210Y96520D02*
D03*
X80010Y35560D02*
D03*
X82550Y40640D02*
D03*
X80010Y96520D02*
D03*
X31750Y96520D02*
D03*
X82550Y63500D02*
D03*
Y96520D02*
D03*
Y43180D02*
D03*
Y66040D02*
D03*
X29210Y58420D02*
D03*
X80010Y45720D02*
D03*
X82550Y78740D02*
D03*
X80010Y83820D02*
D03*
X31750Y50800D02*
D03*
X29210Y50800D02*
D03*
X82550Y60960D02*
D03*
X29210Y76200D02*
D03*
X82550Y58420D02*
D03*
X31750Y73660D02*
D03*
X29210Y68580D02*
D03*
X31750Y76200D02*
D03*
X31750Y71120D02*
D03*
X31750Y86360D02*
D03*
X29210Y66040D02*
D03*
X29210Y86360D02*
D03*
Y71120D02*
D03*
X31750Y68580D02*
D03*
X29210Y73660D02*
D03*
X31750Y58420D02*
D03*
Y81280D02*
D03*
X29210Y45720D02*
D03*
X31750Y83820D02*
D03*
X31750Y60960D02*
D03*
X29210Y81280D02*
D03*
X29210Y60960D02*
D03*
Y55880D02*
D03*
X31750Y55880D02*
D03*
X29210Y93980D02*
D03*
X31750Y93980D02*
D03*
X29210Y88900D02*
D03*
Y83820D02*
D03*
Y78740D02*
D03*
X31750Y78740D02*
D03*
Y66040D02*
D03*
X29210Y63500D02*
D03*
X29210Y53340D02*
D03*
X29210Y48260D02*
D03*
X31750Y48260D02*
D03*
Y45720D02*
D03*
X29210Y43180D02*
D03*
X31750D02*
D03*
X82550Y73660D02*
D03*
X80010Y68580D02*
D03*
X82550Y88900D02*
D03*
Y76200D02*
D03*
X82550Y71120D02*
D03*
X82550Y86360D02*
D03*
X80010Y66040D02*
D03*
X80010Y86360D02*
D03*
Y71120D02*
D03*
X82550Y68580D02*
D03*
X80010Y73660D02*
D03*
X80010Y60960D02*
D03*
X80010Y58420D02*
D03*
X80010Y55880D02*
D03*
X82550Y53340D02*
D03*
Y55880D02*
D03*
X80010Y93980D02*
D03*
X82550Y93980D02*
D03*
X80010Y91440D02*
D03*
X82550D02*
D03*
X80010Y88900D02*
D03*
Y76200D02*
D03*
X80010Y63500D02*
D03*
X80010Y53340D02*
D03*
X80010Y50800D02*
D03*
X82550Y50800D02*
D03*
X80010Y48260D02*
D03*
X82550Y45720D02*
D03*
X80010Y43180D02*
D03*
Y40640D02*
D03*
X80010Y38100D02*
D03*
X82550Y38100D02*
D03*
D51*
X183430Y87730D02*
D03*
X183430Y85190D02*
D03*
X160570Y82650D02*
D03*
X120570Y82650D02*
D03*
X143430Y80110D02*
D03*
X120570D02*
D03*
Y90270D02*
D03*
Y87730D02*
D03*
X143430Y82650D02*
D03*
X120570Y85190D02*
D03*
X143430Y90270D02*
D03*
Y92810D02*
D03*
X120570Y95350D02*
D03*
X143430Y87730D02*
D03*
X143430Y85190D02*
D03*
X143430Y95350D02*
D03*
X120570Y92810D02*
D03*
X183430Y82650D02*
D03*
X160570Y90270D02*
D03*
Y85190D02*
D03*
Y80110D02*
D03*
X183430D02*
D03*
X160570Y87730D02*
D03*
X183430Y92810D02*
D03*
Y90270D02*
D03*
X160570Y95350D02*
D03*
X183430D02*
D03*
X160570Y92810D02*
D03*
D52*
X18500Y44000D02*
D03*
X13500Y41500D02*
D03*
X16000Y44000D02*
D03*
X11000D02*
D03*
X13500D02*
D03*
X29250Y101750D02*
D03*
X26500Y2750D02*
D03*
X23750D02*
D03*
X16000Y41500D02*
D03*
X11000D02*
D03*
X31750Y101750D02*
D03*
D53*
X143430Y97890D02*
D03*
X120570D02*
D03*
X160570D02*
D03*
X183430D02*
D03*
D54*
X164661Y5009D02*
D03*
X118941D02*
D03*
X167201Y7539D02*
D03*
X121481D02*
D03*
X139261Y5009D02*
D03*
X136721D02*
D03*
X146881Y5009D02*
D03*
X159581Y5009D02*
D03*
X144341D02*
D03*
X134181Y5009D02*
D03*
X131641Y5009D02*
D03*
X129101D02*
D03*
X151961D02*
D03*
X141801D02*
D03*
X157041Y5009D02*
D03*
X149421Y5009D02*
D03*
X154501D02*
D03*
X121481Y5009D02*
D03*
X126561Y5009D02*
D03*
X162121D02*
D03*
X124021D02*
D03*
X146881Y7539D02*
D03*
X149421D02*
D03*
X139261Y7539D02*
D03*
X126561Y7539D02*
D03*
X141801D02*
D03*
X151961Y7539D02*
D03*
X154501Y7539D02*
D03*
X157041D02*
D03*
X134181D02*
D03*
X144341D02*
D03*
X129101Y7539D02*
D03*
X136721Y7539D02*
D03*
X131641D02*
D03*
X164661Y7539D02*
D03*
X159581Y7539D02*
D03*
X124021D02*
D03*
X162121D02*
D03*
D55*
X118941D02*
D03*
X167201Y5009D02*
D03*
D56*
X12675Y8545D02*
D03*
X21325D02*
D03*
D57*
X6000Y6000D02*
D03*
Y104000D02*
D03*
X100000Y25000D02*
D03*
Y104000D02*
D03*
X194000D02*
D03*
D58*
X12675Y5165D02*
D03*
X21325D02*
D03*
D59*
X14025Y8175D02*
D03*
X14025Y9525D02*
D03*
X19975Y8175D02*
D03*
X19975Y9525D02*
D03*
X14875Y9525D02*
D03*
X15725Y9525D02*
D03*
X16575D02*
D03*
X17425D02*
D03*
X18275D02*
D03*
X19125Y9525D02*
D03*
Y8175D02*
D03*
X18275D02*
D03*
X17425D02*
D03*
X16575D02*
D03*
X15725D02*
D03*
X14875D02*
D03*
D60*
X9000Y19500D02*
D03*
X14800D02*
D03*
D61*
X29210Y5080D02*
D03*
X82550D02*
D03*
D62*
X29210Y7620D02*
D03*
X82550D02*
D03*
X19725Y57975D02*
D03*
D63*
X31750Y35560D02*
D03*
X82550Y35560D02*
D03*
D64*
X98740Y9670D02*
D03*
Y12210D02*
D03*
D65*
X107750Y6250D02*
D03*
D66*
X195441Y5009D02*
D03*
X178066Y7509D02*
D03*
X108066Y57184D02*
D03*
X107441Y70009D02*
D03*
X178066Y57209D02*
D03*
X195441Y70009D02*
D03*
D67*
X12620Y77150D02*
D03*
X5000D02*
D03*
D68*
X98740Y14750D02*
D03*
D69*
X11800Y14700D02*
D03*
M02*
