G04*
G04 #@! TF.GenerationSoftware,Altium Limited,Altium Designer,25.5.2 (35)*
G04*
G04 Layer_Color=8388736*
%FSLAX43Y43*%
%MOMM*%
G71*
G04*
G04 #@! TF.SameCoordinates,1D4EA8C4-C697-48FC-A00C-E0A8CAE886F4*
G04*
G04*
G04 #@! TF.FilePolarity,Negative*
G04*
G01*
G75*
%ADD18C,0.500*%
%ADD25R,0.540X0.860*%
G04:AMPARAMS|DCode=26|XSize=2.469mm|YSize=0.622mm|CornerRadius=0.311mm|HoleSize=0mm|Usage=FLASHONLY|Rotation=270.000|XOffset=0mm|YOffset=0mm|HoleType=Round|Shape=RoundedRectangle|*
%AMROUNDEDRECTD26*
21,1,2.469,0.000,0,0,270.0*
21,1,1.847,0.622,0,0,270.0*
1,1,0.622,0.000,-0.924*
1,1,0.622,0.000,0.924*
1,1,0.622,0.000,0.924*
1,1,0.622,0.000,-0.924*
%
%ADD26ROUNDEDRECTD26*%
%ADD27R,0.622X2.469*%
%ADD28R,1.604X0.952*%
%ADD32R,0.860X0.540*%
G04:AMPARAMS|DCode=34|XSize=0.565mm|YSize=0.2mm|CornerRadius=0.05mm|HoleSize=0mm|Usage=FLASHONLY|Rotation=90.000|XOffset=0mm|YOffset=0mm|HoleType=Round|Shape=RoundedRectangle|*
%AMROUNDEDRECTD34*
21,1,0.565,0.100,0,0,90.0*
21,1,0.465,0.200,0,0,90.0*
1,1,0.100,0.050,0.233*
1,1,0.100,0.050,-0.233*
1,1,0.100,-0.050,-0.233*
1,1,0.100,-0.050,0.233*
%
%ADD34ROUNDEDRECTD34*%
G04:AMPARAMS|DCode=35|XSize=1.604mm|YSize=0.952mm|CornerRadius=0.476mm|HoleSize=0mm|Usage=FLASHONLY|Rotation=0.000|XOffset=0mm|YOffset=0mm|HoleType=Round|Shape=RoundedRectangle|*
%AMROUNDEDRECTD35*
21,1,1.604,0.000,0,0,0.0*
21,1,0.652,0.952,0,0,0.0*
1,1,0.952,0.326,0.000*
1,1,0.952,-0.326,0.000*
1,1,0.952,-0.326,0.000*
1,1,0.952,0.326,0.000*
%
%ADD35ROUNDEDRECTD35*%
G04:AMPARAMS|DCode=36|XSize=1.604mm|YSize=3.262mm|CornerRadius=0.473mm|HoleSize=0mm|Usage=FLASHONLY|Rotation=0.000|XOffset=0mm|YOffset=0mm|HoleType=Round|Shape=RoundedRectangle|*
%AMROUNDEDRECTD36*
21,1,1.604,2.316,0,0,0.0*
21,1,0.658,3.262,0,0,0.0*
1,1,0.947,0.329,-1.158*
1,1,0.947,-0.329,-1.158*
1,1,0.947,-0.329,1.158*
1,1,0.947,0.329,1.158*
%
%ADD36ROUNDEDRECTD36*%
%ADD37R,0.800X0.800*%
G04:AMPARAMS|DCode=38|XSize=0.55mm|YSize=1.5mm|CornerRadius=0.1mm|HoleSize=0mm|Usage=FLASHONLY|Rotation=90.000|XOffset=0mm|YOffset=0mm|HoleType=Round|Shape=RoundedRectangle|*
%AMROUNDEDRECTD38*
21,1,0.550,1.301,0,0,90.0*
21,1,0.351,1.500,0,0,90.0*
1,1,0.199,0.651,0.176*
1,1,0.199,0.651,-0.176*
1,1,0.199,-0.651,-0.176*
1,1,0.199,-0.651,0.176*
%
%ADD38ROUNDEDRECTD38*%
%ADD39R,1.600X1.400*%
%ADD40R,1.400X1.600*%
%ADD41R,0.800X0.800*%
%ADD42O,1.800X0.400*%
G04:AMPARAMS|DCode=43|XSize=0.565mm|YSize=0.4mm|CornerRadius=0.05mm|HoleSize=0mm|Usage=FLASHONLY|Rotation=90.000|XOffset=0mm|YOffset=0mm|HoleType=Round|Shape=RoundedRectangle|*
%AMROUNDEDRECTD43*
21,1,0.565,0.300,0,0,90.0*
21,1,0.465,0.400,0,0,90.0*
1,1,0.100,0.150,0.233*
1,1,0.100,0.150,-0.233*
1,1,0.100,-0.150,-0.233*
1,1,0.100,-0.150,0.233*
%
%ADD43ROUNDEDRECTD43*%
%ADD44R,1.900X1.400*%
%ADD45R,1.400X1.900*%
%ADD46C,1.878*%
%ADD47R,1.878X1.878*%
%ADD48C,1.700*%
G04:AMPARAMS|DCode=49|XSize=1.7mm|YSize=1.7mm|CornerRadius=0.45mm|HoleSize=0mm|Usage=FLASHONLY|Rotation=90.000|XOffset=0mm|YOffset=0mm|HoleType=Round|Shape=RoundedRectangle|*
%AMROUNDEDRECTD49*
21,1,1.700,0.800,0,0,90.0*
21,1,0.800,1.700,0,0,90.0*
1,1,0.900,0.400,0.400*
1,1,0.900,0.400,-0.400*
1,1,0.900,-0.400,-0.400*
1,1,0.900,-0.400,0.400*
%
%ADD49ROUNDEDRECTD49*%
%ADD50R,1.751X1.751*%
%ADD51C,1.751*%
%ADD52C,1.650*%
%ADD53C,1.300*%
%ADD54R,1.650X1.650*%
%ADD55C,10.200*%
%ADD56C,7.200*%
%ADD57R,1.570X1.570*%
%ADD58C,1.570*%
G04:AMPARAMS|DCode=59|XSize=9.901mm|YSize=7.2mm|CornerRadius=0mm|HoleSize=0mm|Usage=FLASHONLY|Rotation=75.800|XOffset=0mm|YOffset=0mm|HoleType=Round|Shape=Round|*
%AMOVALD59*
21,1,2.701,7.200,0.000,0.000,75.8*
1,1,7.200,-0.331,-1.309*
1,1,7.200,0.331,1.309*
%
%ADD59OVALD59*%

%ADD60C,1.200*%
%ADD61C,2.600*%
G04:AMPARAMS|DCode=62|XSize=4.1mm|YSize=1.9mm|CornerRadius=0.5mm|HoleSize=0mm|Usage=FLASHONLY|Rotation=90.000|XOffset=0mm|YOffset=0mm|HoleType=Round|Shape=RoundedRectangle|*
%AMROUNDEDRECTD62*
21,1,4.100,0.900,0,0,90.0*
21,1,3.100,1.900,0,0,90.0*
1,1,1.000,0.450,1.550*
1,1,1.000,0.450,-1.550*
1,1,1.000,-0.450,-1.550*
1,1,1.000,-0.450,1.550*
%
%ADD62ROUNDEDRECTD62*%
%ADD63C,0.650*%
G04:AMPARAMS|DCode=64|XSize=0.9mm|YSize=2.4mm|CornerRadius=0.45mm|HoleSize=0mm|Usage=FLASHONLY|Rotation=0.000|XOffset=0mm|YOffset=0mm|HoleType=Round|Shape=RoundedRectangle|*
%AMROUNDEDRECTD64*
21,1,0.900,1.500,0,0,0.0*
21,1,0.000,2.400,0,0,0.0*
1,1,0.900,0.000,-0.750*
1,1,0.900,0.000,-0.750*
1,1,0.900,0.000,0.750*
1,1,0.900,0.000,0.750*
%
%ADD64ROUNDEDRECTD64*%
G04:AMPARAMS|DCode=65|XSize=0.9mm|YSize=1.7mm|CornerRadius=0.45mm|HoleSize=0mm|Usage=FLASHONLY|Rotation=0.000|XOffset=0mm|YOffset=0mm|HoleType=Round|Shape=RoundedRectangle|*
%AMROUNDEDRECTD65*
21,1,0.900,0.800,0,0,0.0*
21,1,0.000,1.700,0,0,0.0*
1,1,0.900,0.000,-0.400*
1,1,0.900,0.000,-0.400*
1,1,0.900,0.000,0.400*
1,1,0.900,0.000,0.400*
%
%ADD65ROUNDEDRECTD65*%
%ADD66R,1.650X1.650*%
G04:AMPARAMS|DCode=67|XSize=1.7mm|YSize=1.7mm|CornerRadius=0.45mm|HoleSize=0mm|Usage=FLASHONLY|Rotation=0.000|XOffset=0mm|YOffset=0mm|HoleType=Round|Shape=RoundedRectangle|*
%AMROUNDEDRECTD67*
21,1,1.700,0.800,0,0,0.0*
21,1,0.800,1.700,0,0,0.0*
1,1,0.900,0.400,-0.400*
1,1,0.900,-0.400,-0.400*
1,1,0.900,-0.400,0.400*
1,1,0.900,0.400,0.400*
%
%ADD67ROUNDEDRECTD67*%
%ADD68R,1.200X1.200*%
G04:AMPARAMS|DCode=69|XSize=4.1mm|YSize=1.9mm|CornerRadius=0.5mm|HoleSize=0mm|Usage=FLASHONLY|Rotation=180.000|XOffset=0mm|YOffset=0mm|HoleType=Round|Shape=RoundedRectangle|*
%AMROUNDEDRECTD69*
21,1,4.100,0.900,0,0,180.0*
21,1,3.100,1.900,0,0,180.0*
1,1,1.000,-1.550,0.450*
1,1,1.000,1.550,0.450*
1,1,1.000,1.550,-0.450*
1,1,1.000,-1.550,-0.450*
%
%ADD69ROUNDEDRECTD69*%
D18*
X2500Y110000D02*
G03*
X-0Y107500I0J-2500D01*
G01*
X200000D02*
G03*
X197500Y110000I-2500J0D01*
G01*
X197500Y-0D02*
G03*
X200000Y2500I0J2500D01*
G01*
X0Y2500D02*
G03*
X2500Y0I2500J0D01*
G01*
X2500Y110000D02*
X197500Y110000D01*
X2500Y0D02*
X197500D01*
X-0Y107500D02*
X0Y2500D01*
X200000Y2500D02*
X200000Y107500D01*
D25*
X40000Y32070D02*
D03*
X17500Y30570D02*
D03*
X21500Y13930D02*
D03*
Y16070D02*
D03*
X17500Y28430D02*
D03*
X40000Y29930D02*
D03*
D26*
X15535Y69580D02*
D03*
X16805D02*
D03*
X14265D02*
D03*
X15535Y64752D02*
D03*
X16805D02*
D03*
X14265D02*
D03*
X18075D02*
D03*
D27*
Y69580D02*
D03*
D28*
X32605Y27290D02*
D03*
D32*
X28070Y10500D02*
D03*
X17930Y23500D02*
D03*
X20070D02*
D03*
X25930Y10500D02*
D03*
D34*
X16905Y12148D02*
D03*
Y12983D02*
D03*
X16405D02*
D03*
Y12148D02*
D03*
X17905D02*
D03*
X18405D02*
D03*
Y12983D02*
D03*
X17905D02*
D03*
D35*
X32605Y22710D02*
D03*
Y25000D02*
D03*
D36*
X39395D02*
D03*
D37*
X66500Y31250D02*
D03*
Y32150D02*
D03*
X45500Y32450D02*
D03*
X156750Y14450D02*
D03*
X20000Y65950D02*
D03*
X21000Y35950D02*
D03*
X45500Y31550D02*
D03*
X29500Y27450D02*
D03*
X33000Y14000D02*
D03*
X24750Y22050D02*
D03*
X19500Y15200D02*
D03*
X18000D02*
D03*
X155250Y14450D02*
D03*
X152000Y13200D02*
D03*
X21000Y35050D02*
D03*
X152000Y12300D02*
D03*
X18000Y14300D02*
D03*
X19500D02*
D03*
X20000Y65050D02*
D03*
X155250Y13550D02*
D03*
X156750D02*
D03*
X33000Y14900D02*
D03*
X29500Y26550D02*
D03*
X24750Y22950D02*
D03*
D38*
X95050Y43925D02*
D03*
Y39375D02*
D03*
Y53275D02*
D03*
Y43275D02*
D03*
Y48075D02*
D03*
Y38075D02*
D03*
X100950Y49375D02*
D03*
X95050Y50025D02*
D03*
X100950D02*
D03*
X95050Y49375D02*
D03*
X100950Y48075D02*
D03*
Y48725D02*
D03*
X95050D02*
D03*
X100950Y38075D02*
D03*
X95050Y50675D02*
D03*
Y40025D02*
D03*
Y40675D02*
D03*
Y42625D02*
D03*
Y51975D02*
D03*
X100950Y53275D02*
D03*
Y43275D02*
D03*
X95050Y41975D02*
D03*
Y52625D02*
D03*
Y51325D02*
D03*
Y38725D02*
D03*
Y41325D02*
D03*
Y53925D02*
D03*
X100950Y43925D02*
D03*
Y52625D02*
D03*
Y41325D02*
D03*
Y51975D02*
D03*
Y38725D02*
D03*
Y40675D02*
D03*
Y42625D02*
D03*
Y40025D02*
D03*
Y51325D02*
D03*
Y41975D02*
D03*
Y50675D02*
D03*
Y53925D02*
D03*
Y39375D02*
D03*
D39*
X156000Y81950D02*
D03*
X116000D02*
D03*
X54250Y103950D02*
D03*
X43000Y31950D02*
D03*
X9000Y92800D02*
D03*
X11000Y69450D02*
D03*
X187000Y80050D02*
D03*
X156000D02*
D03*
X147000D02*
D03*
X116000D02*
D03*
X54250Y102050D02*
D03*
X9000Y94700D02*
D03*
X19000Y36950D02*
D03*
X11000Y67550D02*
D03*
X43000Y30050D02*
D03*
X29250Y21550D02*
D03*
X25000Y28000D02*
D03*
X27500D02*
D03*
X26750Y21550D02*
D03*
X24250Y9050D02*
D03*
X147000Y81950D02*
D03*
X187000D02*
D03*
X19000Y35050D02*
D03*
X24250Y10950D02*
D03*
X29250Y23450D02*
D03*
X26750D02*
D03*
X25000Y26100D02*
D03*
X27500Y26100D02*
D03*
D40*
X95950Y87000D02*
D03*
X117050Y13000D02*
D03*
X94050Y87000D02*
D03*
X18950Y26500D02*
D03*
X118950Y13000D02*
D03*
X17050Y26500D02*
D03*
D41*
X95177Y45790D02*
D03*
X96550Y36500D02*
D03*
X74050Y37250D02*
D03*
X25550Y62500D02*
D03*
X15440Y72310D02*
D03*
X102200Y55750D02*
D03*
X102450Y45250D02*
D03*
X94277Y45790D02*
D03*
X97450Y36500D02*
D03*
X16340Y72310D02*
D03*
X30550Y18250D02*
D03*
X20200Y28750D02*
D03*
X150450Y92500D02*
D03*
X152050D02*
D03*
X101300Y55750D02*
D03*
X101550Y45250D02*
D03*
X65620Y35865D02*
D03*
X67260D02*
D03*
X74950Y37250D02*
D03*
X26450Y62500D02*
D03*
X150450Y91000D02*
D03*
X152050D02*
D03*
X62950Y32500D02*
D03*
X65620Y33960D02*
D03*
X67260Y33960D02*
D03*
X149550Y92500D02*
D03*
Y91000D02*
D03*
X152950D02*
D03*
Y92500D02*
D03*
X68160Y35865D02*
D03*
X68160Y33960D02*
D03*
X64720Y35865D02*
D03*
Y33960D02*
D03*
X30300Y13000D02*
D03*
X31200D02*
D03*
X62050Y32500D02*
D03*
X31450Y18250D02*
D03*
X19300Y28750D02*
D03*
D42*
X26950Y15750D02*
D03*
X31050Y14750D02*
D03*
Y15250D02*
D03*
Y15750D02*
D03*
Y16250D02*
D03*
Y16750D02*
D03*
X26950Y14750D02*
D03*
X26950Y15250D02*
D03*
Y16250D02*
D03*
Y16750D02*
D03*
D43*
X17405Y12983D02*
D03*
Y12148D02*
D03*
D44*
X164750Y13950D02*
D03*
X164750Y11050D02*
D03*
D45*
X17375Y53975D02*
D03*
X20275D02*
D03*
D46*
X82550Y38100D02*
D03*
X80010Y38100D02*
D03*
X80010Y40640D02*
D03*
Y43180D02*
D03*
X82550Y45720D02*
D03*
X80010Y48260D02*
D03*
X82550Y50800D02*
D03*
X80010Y50800D02*
D03*
X80010Y53340D02*
D03*
X80010Y63500D02*
D03*
X80010Y76200D02*
D03*
Y88900D02*
D03*
X82550Y91440D02*
D03*
X80010D02*
D03*
X82550Y93980D02*
D03*
X80010Y93980D02*
D03*
X82550Y55880D02*
D03*
Y53340D02*
D03*
X80010Y55880D02*
D03*
X80010Y58420D02*
D03*
X80010Y60960D02*
D03*
X80010Y73660D02*
D03*
X82550Y68580D02*
D03*
X80010Y71120D02*
D03*
Y86360D02*
D03*
X80010Y66040D02*
D03*
X82550Y86360D02*
D03*
X82550Y71120D02*
D03*
X82550Y76200D02*
D03*
Y88900D02*
D03*
X80010Y68580D02*
D03*
X82550Y73660D02*
D03*
Y58420D02*
D03*
X82550Y60960D02*
D03*
X80010Y83820D02*
D03*
X82550Y78740D02*
D03*
X80010Y45720D02*
D03*
X82550Y66040D02*
D03*
Y43180D02*
D03*
Y96520D02*
D03*
Y63500D02*
D03*
X80010Y96520D02*
D03*
X82550Y40640D02*
D03*
X80010Y35560D02*
D03*
X82550Y83820D02*
D03*
X82550Y81280D02*
D03*
X82550Y48260D02*
D03*
X80010Y78740D02*
D03*
X80010Y81280D02*
D03*
X31750Y43180D02*
D03*
X29210D02*
D03*
X31750Y45720D02*
D03*
Y48260D02*
D03*
X29210Y48260D02*
D03*
X29210Y53340D02*
D03*
X29210Y63500D02*
D03*
X31750Y66040D02*
D03*
Y78740D02*
D03*
X29210Y78740D02*
D03*
Y83820D02*
D03*
Y88900D02*
D03*
X31750Y93980D02*
D03*
X29210Y93980D02*
D03*
X31750Y55880D02*
D03*
X29210Y55880D02*
D03*
Y60960D02*
D03*
X29210Y81280D02*
D03*
X31750Y60960D02*
D03*
X31750Y83820D02*
D03*
X29210Y45720D02*
D03*
X31750Y81280D02*
D03*
Y58420D02*
D03*
X29210Y73660D02*
D03*
X31750Y68580D02*
D03*
X29210Y71120D02*
D03*
Y86360D02*
D03*
X29210Y66040D02*
D03*
X31750Y86360D02*
D03*
X31750Y71120D02*
D03*
X31750Y76200D02*
D03*
X29210Y68580D02*
D03*
X31750Y73660D02*
D03*
X29210Y76200D02*
D03*
X29210Y50800D02*
D03*
X31750Y50800D02*
D03*
X29210Y58420D02*
D03*
X31750Y96520D02*
D03*
X29210Y96520D02*
D03*
X29210Y35560D02*
D03*
X31750Y53340D02*
D03*
Y63500D02*
D03*
Y38100D02*
D03*
X29210Y38100D02*
D03*
X31750Y91440D02*
D03*
X29210Y40640D02*
D03*
X31750D02*
D03*
X29210Y91440D02*
D03*
X31750Y88900D02*
D03*
D47*
X82550Y35560D02*
D03*
X31750Y35560D02*
D03*
D48*
X82550Y7620D02*
D03*
X29210D02*
D03*
X19725Y57975D02*
D03*
D49*
X82550Y5080D02*
D03*
X29210D02*
D03*
D50*
X120570Y97890D02*
D03*
X143430D02*
D03*
X160570D02*
D03*
X183430D02*
D03*
D51*
X183430Y85190D02*
D03*
X160570Y82650D02*
D03*
X120570Y82650D02*
D03*
X143430Y87730D02*
D03*
X120570Y92810D02*
D03*
X143430Y95350D02*
D03*
X143430Y85190D02*
D03*
X183430Y80110D02*
D03*
X160570D02*
D03*
X143430Y80110D02*
D03*
X120570D02*
D03*
X183430Y95350D02*
D03*
X160570Y90270D02*
D03*
X120570Y90270D02*
D03*
X183430Y82650D02*
D03*
X143430Y82650D02*
D03*
X160570Y95350D02*
D03*
Y87730D02*
D03*
X120570Y87730D02*
D03*
X183430Y87730D02*
D03*
X120570Y95350D02*
D03*
X160570Y85190D02*
D03*
X120570Y85190D02*
D03*
X160570Y92810D02*
D03*
X143430Y90270D02*
D03*
Y92810D02*
D03*
X183430Y92810D02*
D03*
Y90270D02*
D03*
D52*
X104230Y82610D02*
D03*
X99150Y91500D02*
D03*
Y82610D02*
D03*
X59130Y103750D02*
D03*
X12620Y89850D02*
D03*
X5000D02*
D03*
X69290Y103750D02*
D03*
X101690Y91500D02*
D03*
X101690Y82610D02*
D03*
X61670Y103750D02*
D03*
X12620Y87310D02*
D03*
X5000D02*
D03*
X63420Y27940D02*
D03*
X12620Y84770D02*
D03*
X66750Y103750D02*
D03*
X109310Y82610D02*
D03*
X12620Y82230D02*
D03*
X64210Y103750D02*
D03*
X65960Y27940D02*
D03*
X5000Y79690D02*
D03*
X58340Y27940D02*
D03*
X106770Y82610D02*
D03*
X5000Y82230D02*
D03*
Y84770D02*
D03*
X12620Y79690D02*
D03*
X104230Y91500D02*
D03*
X106770D02*
D03*
X109310D02*
D03*
X60880Y27940D02*
D03*
X55800D02*
D03*
D53*
X18500Y44000D02*
D03*
X29250Y101750D02*
D03*
X13500Y44000D02*
D03*
X16000D02*
D03*
X11000D02*
D03*
X13500Y41500D02*
D03*
X31750Y101750D02*
D03*
X26500Y2750D02*
D03*
X23750D02*
D03*
X16000Y41500D02*
D03*
X11000D02*
D03*
D54*
X111850Y91500D02*
D03*
X71830Y103750D02*
D03*
X111850Y82610D02*
D03*
X68500Y27940D02*
D03*
D55*
X194000Y104000D02*
D03*
X100000D02*
D03*
Y25000D02*
D03*
X6000Y104000D02*
D03*
Y6000D02*
D03*
D56*
X195441Y70009D02*
D03*
X107441D02*
D03*
X178066Y57209D02*
D03*
X195441Y5009D02*
D03*
X178066Y7509D02*
D03*
X108066Y57184D02*
D03*
D57*
X167201Y5009D02*
D03*
X118941Y7539D02*
D03*
D58*
X167201D02*
D03*
X121481D02*
D03*
X118941Y5009D02*
D03*
X164661D02*
D03*
X139261D02*
D03*
X136721D02*
D03*
X146881Y5009D02*
D03*
X159581Y5009D02*
D03*
X144341D02*
D03*
X134181Y5009D02*
D03*
X131641Y5009D02*
D03*
X129101D02*
D03*
X151961D02*
D03*
X141801D02*
D03*
X157041Y5009D02*
D03*
X149421Y5009D02*
D03*
X154501D02*
D03*
X121481Y5009D02*
D03*
X126561Y5009D02*
D03*
X162121D02*
D03*
X124021D02*
D03*
X146881Y7539D02*
D03*
X149421D02*
D03*
X139261Y7539D02*
D03*
X126561Y7539D02*
D03*
X141801D02*
D03*
X151961Y7539D02*
D03*
X154501Y7539D02*
D03*
X157041D02*
D03*
X134181D02*
D03*
X144341D02*
D03*
X129101Y7539D02*
D03*
X136721Y7539D02*
D03*
X131641D02*
D03*
X164661Y7539D02*
D03*
X159581Y7539D02*
D03*
X124021D02*
D03*
X162121D02*
D03*
D59*
X107750Y6250D02*
D03*
D60*
X98740Y9670D02*
D03*
Y12210D02*
D03*
D61*
X7381Y60006D02*
D03*
X7500Y28500D02*
D03*
X7381Y55006D02*
D03*
Y50006D02*
D03*
X7500Y33500D02*
D03*
D62*
X9000Y19500D02*
D03*
X14800D02*
D03*
D63*
X19975Y9525D02*
D03*
X19975Y8175D02*
D03*
X14025Y9525D02*
D03*
X14025Y8175D02*
D03*
X14875Y9525D02*
D03*
X15725Y9525D02*
D03*
X16575D02*
D03*
X17425D02*
D03*
X18275D02*
D03*
X19125Y9525D02*
D03*
Y8175D02*
D03*
X18275D02*
D03*
X17425D02*
D03*
X16575D02*
D03*
X15725D02*
D03*
X14875D02*
D03*
D64*
X21325Y8545D02*
D03*
X12675D02*
D03*
D65*
X21325Y5165D02*
D03*
X12675D02*
D03*
D66*
X5000Y77150D02*
D03*
X12620D02*
D03*
D67*
X17185Y57975D02*
D03*
D68*
X98740Y14750D02*
D03*
D69*
X11800Y14700D02*
D03*
M02*
