G04*
G04 #@! TF.GenerationSoftware,Altium Limited,Altium Designer,25.5.2 (35)*
G04*
G04 Layer_Color=8421504*
%FSLAX43Y43*%
%MOMM*%
G71*
G04*
G04 #@! TF.SameCoordinates,737B1F3F-4E3A-4C0A-B37F-581FB9ED70DE*
G04*
G04*
G04 #@! TF.FilePolarity,Positive*
G04*
G01*
G75*
%ADD18C,0.500*%
G04:AMPARAMS|DCode=20|XSize=2.469mm|YSize=0.622mm|CornerRadius=0.311mm|HoleSize=0mm|Usage=FLASHONLY|Rotation=270.000|XOffset=0mm|YOffset=0mm|HoleType=Round|Shape=RoundedRectangle|*
%AMROUNDEDRECTD20*
21,1,2.469,0.000,0,0,270.0*
21,1,1.847,0.622,0,0,270.0*
1,1,0.622,0.000,-0.924*
1,1,0.622,0.000,0.924*
1,1,0.622,0.000,0.924*
1,1,0.622,0.000,-0.924*
%
%ADD20ROUNDEDRECTD20*%
%ADD21R,1.300X1.800*%
%ADD22R,0.540X0.860*%
%ADD23R,0.650X0.650*%
%ADD24R,1.500X1.300*%
%ADD25R,0.650X0.650*%
G04:AMPARAMS|DCode=26|XSize=0.45mm|YSize=1.4mm|CornerRadius=0.05mm|HoleSize=0mm|Usage=FLASHONLY|Rotation=90.000|XOffset=0mm|YOffset=0mm|HoleType=Round|Shape=RoundedRectangle|*
%AMROUNDEDRECTD26*
21,1,0.450,1.301,0,0,90.0*
21,1,0.351,1.400,0,0,90.0*
1,1,0.099,0.651,0.176*
1,1,0.099,0.651,-0.176*
1,1,0.099,-0.651,-0.176*
1,1,0.099,-0.651,0.176*
%
%ADD26ROUNDEDRECTD26*%
%ADD27R,1.300X1.500*%
%ADD28R,0.860X0.540*%
%ADD29R,1.800X1.300*%
G04:AMPARAMS|DCode=30|XSize=0.515mm|YSize=0.35mm|CornerRadius=0.025mm|HoleSize=0mm|Usage=FLASHONLY|Rotation=90.000|XOffset=0mm|YOffset=0mm|HoleType=Round|Shape=RoundedRectangle|*
%AMROUNDEDRECTD30*
21,1,0.515,0.300,0,0,90.0*
21,1,0.465,0.350,0,0,90.0*
1,1,0.050,0.150,0.233*
1,1,0.050,0.150,-0.233*
1,1,0.050,-0.150,-0.233*
1,1,0.050,-0.150,0.233*
%
%ADD30ROUNDEDRECTD30*%
%ADD31O,1.700X0.300*%
%ADD32R,1.604X0.952*%
%ADD33R,0.622X2.469*%
G04:AMPARAMS|DCode=34|XSize=0.565mm|YSize=0.2mm|CornerRadius=0.05mm|HoleSize=0mm|Usage=FLASHONLY|Rotation=90.000|XOffset=0mm|YOffset=0mm|HoleType=Round|Shape=RoundedRectangle|*
%AMROUNDEDRECTD34*
21,1,0.565,0.100,0,0,90.0*
21,1,0.465,0.200,0,0,90.0*
1,1,0.100,0.050,0.233*
1,1,0.100,0.050,-0.233*
1,1,0.100,-0.050,-0.233*
1,1,0.100,-0.050,0.233*
%
%ADD34ROUNDEDRECTD34*%
G04:AMPARAMS|DCode=35|XSize=1.604mm|YSize=0.952mm|CornerRadius=0.476mm|HoleSize=0mm|Usage=FLASHONLY|Rotation=0.000|XOffset=0mm|YOffset=0mm|HoleType=Round|Shape=RoundedRectangle|*
%AMROUNDEDRECTD35*
21,1,1.604,0.000,0,0,0.0*
21,1,0.652,0.952,0,0,0.0*
1,1,0.952,0.326,0.000*
1,1,0.952,-0.326,0.000*
1,1,0.952,-0.326,0.000*
1,1,0.952,0.326,0.000*
%
%ADD35ROUNDEDRECTD35*%
G04:AMPARAMS|DCode=36|XSize=1.604mm|YSize=3.262mm|CornerRadius=0.473mm|HoleSize=0mm|Usage=FLASHONLY|Rotation=0.000|XOffset=0mm|YOffset=0mm|HoleType=Round|Shape=RoundedRectangle|*
%AMROUNDEDRECTD36*
21,1,1.604,2.316,0,0,0.0*
21,1,0.658,3.262,0,0,0.0*
1,1,0.947,0.329,-1.158*
1,1,0.947,-0.329,-1.158*
1,1,0.947,-0.329,1.158*
1,1,0.947,0.329,1.158*
%
%ADD36ROUNDEDRECTD36*%
D18*
X2500Y110000D02*
G03*
X-0Y107500I0J-2500D01*
G01*
X200000D02*
G03*
X197500Y110000I-2500J0D01*
G01*
X197500Y-0D02*
G03*
X200000Y2500I0J2500D01*
G01*
X0Y2500D02*
G03*
X2500Y0I2500J0D01*
G01*
X2500Y110000D02*
X197500Y110000D01*
X2500Y0D02*
X197500D01*
X-0Y107500D02*
X0Y2500D01*
X200000Y2500D02*
X200000Y107500D01*
D20*
X15535Y64752D02*
D03*
X16805D02*
D03*
X15535Y69580D02*
D03*
X16805D02*
D03*
X14265Y64752D02*
D03*
X18075D02*
D03*
X14265Y69580D02*
D03*
D21*
X17375Y53975D02*
D03*
X20275D02*
D03*
D22*
X40000Y32070D02*
D03*
X17500Y30570D02*
D03*
X21500Y13930D02*
D03*
Y16070D02*
D03*
X17500Y28430D02*
D03*
X40000Y29930D02*
D03*
D23*
X25550Y62500D02*
D03*
X15440Y72310D02*
D03*
X74050Y37250D02*
D03*
X95177Y45790D02*
D03*
X96550Y36500D02*
D03*
X149550Y92500D02*
D03*
X101300Y55750D02*
D03*
X101550Y45250D02*
D03*
X149550Y91000D02*
D03*
X30550Y18250D02*
D03*
X20200Y28750D02*
D03*
X16340Y72310D02*
D03*
X94277Y45790D02*
D03*
X97450Y36500D02*
D03*
X102450Y45250D02*
D03*
X102200Y55750D02*
D03*
X152050Y91000D02*
D03*
X152950D02*
D03*
X150450D02*
D03*
X152050Y92500D02*
D03*
X152950D02*
D03*
X150450D02*
D03*
X67260Y35865D02*
D03*
X68160D02*
D03*
X68160Y33960D02*
D03*
X67260D02*
D03*
X65620Y35865D02*
D03*
X64720D02*
D03*
Y33960D02*
D03*
X65620D02*
D03*
X30300Y13000D02*
D03*
X31200D02*
D03*
X74950Y37250D02*
D03*
X26450Y62500D02*
D03*
X62050Y32500D02*
D03*
X62950D02*
D03*
X31450Y18250D02*
D03*
X19300Y28750D02*
D03*
D24*
X43000Y31950D02*
D03*
X11000Y69450D02*
D03*
X9000Y92800D02*
D03*
X54250Y103950D02*
D03*
X116000Y81950D02*
D03*
X156000D02*
D03*
X147000D02*
D03*
X187000D02*
D03*
X19000Y35050D02*
D03*
X24250Y9050D02*
D03*
X19000Y36950D02*
D03*
X11000Y67550D02*
D03*
X9000Y94700D02*
D03*
X26750Y21550D02*
D03*
X29250D02*
D03*
X25000Y28000D02*
D03*
X27500D02*
D03*
X43000Y30050D02*
D03*
X54250Y102050D02*
D03*
X116000Y80050D02*
D03*
X147000D02*
D03*
X187000D02*
D03*
X156000D02*
D03*
X24250Y10950D02*
D03*
X29250Y23450D02*
D03*
X26750D02*
D03*
X25000Y26100D02*
D03*
X27500Y26100D02*
D03*
D25*
X45500Y32450D02*
D03*
X155250Y14450D02*
D03*
X21000Y35050D02*
D03*
X152000Y13200D02*
D03*
X18000Y15200D02*
D03*
X19500D02*
D03*
X21000Y35950D02*
D03*
X20000Y65950D02*
D03*
X24750Y22050D02*
D03*
X29500Y27450D02*
D03*
X33000Y14000D02*
D03*
X45500Y31550D02*
D03*
X156750Y14450D02*
D03*
X152000Y12300D02*
D03*
X18000Y14300D02*
D03*
X19500D02*
D03*
X20000Y65050D02*
D03*
X155250Y13550D02*
D03*
X156750D02*
D03*
X33000Y14900D02*
D03*
X29500Y26550D02*
D03*
X24750Y22950D02*
D03*
D26*
X95050Y43275D02*
D03*
Y38075D02*
D03*
Y53275D02*
D03*
Y48075D02*
D03*
X100950Y53275D02*
D03*
Y43275D02*
D03*
X95050Y48725D02*
D03*
X100950Y38075D02*
D03*
Y48725D02*
D03*
Y48075D02*
D03*
X95050Y49375D02*
D03*
X100950D02*
D03*
Y50025D02*
D03*
X95050D02*
D03*
X100950Y43925D02*
D03*
Y52625D02*
D03*
Y41325D02*
D03*
Y51975D02*
D03*
Y38725D02*
D03*
Y40675D02*
D03*
Y42625D02*
D03*
Y40025D02*
D03*
Y51325D02*
D03*
Y41975D02*
D03*
Y50675D02*
D03*
Y53925D02*
D03*
Y39375D02*
D03*
X95050Y52625D02*
D03*
Y38725D02*
D03*
Y40675D02*
D03*
Y42625D02*
D03*
Y51975D02*
D03*
Y40025D02*
D03*
Y50675D02*
D03*
Y41975D02*
D03*
Y51325D02*
D03*
Y41325D02*
D03*
Y39375D02*
D03*
Y53925D02*
D03*
Y43925D02*
D03*
D27*
X95950Y87000D02*
D03*
X118950Y13000D02*
D03*
X18950Y26500D02*
D03*
X117050Y13000D02*
D03*
X94050Y87000D02*
D03*
X17050Y26500D02*
D03*
D28*
X28070Y10500D02*
D03*
X17930Y23500D02*
D03*
X20070D02*
D03*
X25930Y10500D02*
D03*
D29*
X164750Y13950D02*
D03*
X164750Y11050D02*
D03*
D30*
X17405Y12148D02*
D03*
Y12983D02*
D03*
D31*
X26950Y15750D02*
D03*
X31050Y14750D02*
D03*
Y15250D02*
D03*
Y15750D02*
D03*
Y16250D02*
D03*
Y16750D02*
D03*
X26950Y14750D02*
D03*
X26950Y15250D02*
D03*
Y16250D02*
D03*
Y16750D02*
D03*
D32*
X32605Y27290D02*
D03*
D33*
X18075Y69580D02*
D03*
D34*
X16905Y12148D02*
D03*
Y12983D02*
D03*
X16405D02*
D03*
Y12148D02*
D03*
X17905D02*
D03*
X18405D02*
D03*
Y12983D02*
D03*
X17905D02*
D03*
D35*
X32605Y22710D02*
D03*
Y25000D02*
D03*
D36*
X39395D02*
D03*
M02*
