G04*
G04 #@! TF.GenerationSoftware,Altium Limited,Altium Designer,25.5.2 (35)*
G04*
G04 Layer_Physical_Order=3*
G04 Layer_Color=128*
%FSLAX43Y43*%
%MOMM*%
G71*
G04*
G04 #@! TF.SameCoordinates,63F32C08-AF9D-475E-98F0-C5E4A992C089*
G04*
G04*
G04 #@! TF.FilePolarity,Negative*
G04*
G01*
G75*
%ADD18C,0.500*%
%ADD61C,1.700*%
%ADD94C,1.016*%
%ADD95C,2.300*%
%ADD97C,2.000*%
G04:AMPARAMS|DCode=98|XSize=2mm|YSize=2mm|CornerRadius=0mm|HoleSize=0mm|Usage=FLASHONLY|Rotation=0.000|XOffset=0mm|YOffset=0mm|HoleType=Round|Shape=Relief|Width=0.5mm|Gap=0.25mm|Entries=4|*
%AMTHD98*
7,0,0,2.000,1.500,0.500,45*
%
%ADD98THD98*%
%ADD99C,1.610*%
G04:AMPARAMS|DCode=105|XSize=1.61mm|YSize=1.61mm|CornerRadius=0mm|HoleSize=0mm|Usage=FLASHONLY|Rotation=0.000|XOffset=0mm|YOffset=0mm|HoleType=Round|Shape=Relief|Width=0.5mm|Gap=0.25mm|Entries=4|*
%AMTHD105*
7,0,0,1.610,1.110,0.500,45*
%
%ADD105THD105*%
%ADD109O,1.800X4.000*%
%ADD110O,4.000X1.800*%
%ADD111C,1.400*%
%ADD112C,1.300*%
%ADD113C,1.500*%
%ADD114O,1.600X3.100*%
%ADD115C,4.700*%
%ADD116O,1.600X2.400*%
G04:AMPARAMS|DCode=117|XSize=6.403mm|YSize=3.85mm|CornerRadius=0mm|HoleSize=0mm|Usage=FLASHONLY|Rotation=75.800|XOffset=0mm|YOffset=0mm|HoleType=Round|Shape=Round|*
%AMOVALD117*
21,1,2.553,3.850,0.000,0.000,75.8*
1,1,3.850,-0.313,-1.238*
1,1,3.850,0.313,1.238*
%
%ADD117OVALD117*%

%ADD118C,3.850*%
D18*
X13325Y8864D02*
X20456D01*
X183000Y86500D02*
X200000D01*
X168000Y71500D02*
X183000Y86500D01*
X155500Y71500D02*
X168000D01*
X150500Y76500D02*
X155500Y71500D01*
X150500Y76500D02*
Y82917D01*
X148917Y84500D02*
X150500Y82917D01*
X141500Y84500D02*
X148917D01*
X122000Y65000D02*
X141500Y84500D01*
X104500Y65000D02*
X122000D01*
X98500Y59000D02*
X104500Y65000D01*
X98500Y35000D02*
Y59000D01*
X94500Y31000D02*
X98500Y35000D01*
X49000Y31000D02*
X94500D01*
X38000D02*
X49000D01*
X36500Y32500D02*
X38000Y31000D01*
X36500Y32500D02*
Y36500D01*
X33500Y39500D02*
X36500Y36500D01*
X16000Y39500D02*
X33500D01*
X16000Y39000D02*
Y39500D01*
X0Y39000D02*
X16000D01*
X2500Y110000D02*
G03*
X-0Y107500I0J-2500D01*
G01*
X200000D02*
G03*
X197500Y110000I-2500J0D01*
G01*
X197500Y-0D02*
G03*
X200000Y2500I0J2500D01*
G01*
X0Y2500D02*
G03*
X2500Y0I2500J0D01*
G01*
X2500Y110000D02*
X197500Y110000D01*
X2500Y0D02*
X197500D01*
X-0Y107500D02*
X0Y2500D01*
X200000Y2500D02*
X200000Y107500D01*
D61*
X98740Y9670D02*
D03*
Y12210D02*
D03*
Y14750D02*
D03*
D94*
X197500Y-0D02*
G03*
X200000Y2500I0J2500D01*
G01*
X200000Y107500D02*
G03*
X197500Y110000I-2500J0D01*
G01*
X2500D02*
G03*
X-0Y107500I-0J-2500D01*
G01*
X0Y2500D02*
G03*
X2500Y0I2500J0D01*
G01*
X197500Y-0D01*
X200000Y2500D02*
X200000Y107500D01*
X2500Y110000D02*
X197500Y110000D01*
X-0Y107500D02*
X0Y2500D01*
D95*
X7381Y55006D02*
D03*
Y50006D02*
D03*
Y60006D02*
D03*
X7500Y28500D02*
D03*
Y33500D02*
D03*
D97*
X17185Y57975D02*
D03*
X109310Y82610D02*
D03*
X111850D02*
D03*
X104230D02*
D03*
X106770D02*
D03*
X101690D02*
D03*
X80010Y81280D02*
D03*
X183430Y87730D02*
D03*
X31750Y88900D02*
D03*
X183430Y85190D02*
D03*
X29210Y91440D02*
D03*
X31750D02*
D03*
X143430Y80110D02*
D03*
X120570D02*
D03*
Y90270D02*
D03*
Y87730D02*
D03*
Y85190D02*
D03*
X143430Y90270D02*
D03*
Y92810D02*
D03*
X120570Y95350D02*
D03*
X143430Y87730D02*
D03*
Y97890D02*
D03*
X143430Y85190D02*
D03*
X143430Y95350D02*
D03*
X120570Y97890D02*
D03*
X120570Y92810D02*
D03*
X80010Y78740D02*
D03*
X82550Y48260D02*
D03*
X160570Y90270D02*
D03*
X82550Y81280D02*
D03*
X160570Y85190D02*
D03*
X82550Y83820D02*
D03*
X31750Y63500D02*
D03*
Y53340D02*
D03*
X160570Y80110D02*
D03*
X183430D02*
D03*
X30480Y6350D02*
D03*
X27940D02*
D03*
X5000Y87310D02*
D03*
X12620D02*
D03*
X29210Y35560D02*
D03*
X29210Y96520D02*
D03*
X58420Y27940D02*
D03*
X83820Y6350D02*
D03*
X81280D02*
D03*
X31750Y35560D02*
D03*
X82550Y35560D02*
D03*
X80010Y35560D02*
D03*
X82550Y40640D02*
D03*
X118941Y5009D02*
D03*
X167201D02*
D03*
Y7539D02*
D03*
X121481D02*
D03*
X80010Y96520D02*
D03*
X31750Y96520D02*
D03*
X82550Y63500D02*
D03*
Y96520D02*
D03*
X61670Y103750D02*
D03*
X101690Y91500D02*
D03*
X82550Y43180D02*
D03*
Y66040D02*
D03*
X29210Y58420D02*
D03*
X160570Y87730D02*
D03*
X80010Y45720D02*
D03*
X82550Y78740D02*
D03*
X80010Y83820D02*
D03*
X183430Y92810D02*
D03*
Y90270D02*
D03*
X160570Y95350D02*
D03*
Y97890D02*
D03*
X183430Y95350D02*
D03*
X160570Y92810D02*
D03*
X183430Y97890D02*
D03*
X31750Y50800D02*
D03*
X29210Y50800D02*
D03*
X82550Y60960D02*
D03*
X29210Y76200D02*
D03*
X82550Y58420D02*
D03*
X12620Y82230D02*
D03*
Y77150D02*
D03*
Y84770D02*
D03*
Y79690D02*
D03*
X106770Y91500D02*
D03*
X111850D02*
D03*
X104230D02*
D03*
X109310D02*
D03*
X5000Y82230D02*
D03*
Y77150D02*
D03*
Y84770D02*
D03*
Y79690D02*
D03*
X66750Y103750D02*
D03*
X71830D02*
D03*
X64210D02*
D03*
X69290D02*
D03*
X19725Y57975D02*
D03*
X139261Y5009D02*
D03*
X136721D02*
D03*
X146881Y5009D02*
D03*
X159581Y5009D02*
D03*
X144341D02*
D03*
X134181Y5009D02*
D03*
X131641Y5009D02*
D03*
X129101D02*
D03*
X151961D02*
D03*
X141801D02*
D03*
X157041Y5009D02*
D03*
X149421Y5009D02*
D03*
X154501D02*
D03*
X121481Y5009D02*
D03*
X126561Y5009D02*
D03*
X162121D02*
D03*
X124021D02*
D03*
X146881Y7539D02*
D03*
X149421D02*
D03*
X139261Y7539D02*
D03*
X126561Y7539D02*
D03*
X141801D02*
D03*
X151961Y7539D02*
D03*
X154501Y7539D02*
D03*
X157041D02*
D03*
X134181D02*
D03*
X144341D02*
D03*
X129101Y7539D02*
D03*
X136721Y7539D02*
D03*
X131641D02*
D03*
X164661Y7539D02*
D03*
X159581Y7539D02*
D03*
X124021D02*
D03*
X162121D02*
D03*
X31750Y73660D02*
D03*
X29210Y68580D02*
D03*
X31750Y76200D02*
D03*
X31750Y71120D02*
D03*
X31750Y86360D02*
D03*
X29210Y66040D02*
D03*
X29210Y86360D02*
D03*
Y71120D02*
D03*
X31750Y68580D02*
D03*
X29210Y73660D02*
D03*
X31750Y58420D02*
D03*
Y81280D02*
D03*
X29210Y45720D02*
D03*
X31750Y83820D02*
D03*
X31750Y60960D02*
D03*
X29210Y81280D02*
D03*
X29210Y60960D02*
D03*
Y55880D02*
D03*
X31750Y55880D02*
D03*
X29210Y93980D02*
D03*
X31750Y93980D02*
D03*
X29210Y88900D02*
D03*
Y83820D02*
D03*
Y78740D02*
D03*
X31750Y78740D02*
D03*
Y66040D02*
D03*
X29210Y63500D02*
D03*
X29210Y53340D02*
D03*
X29210Y48260D02*
D03*
X31750Y48260D02*
D03*
Y45720D02*
D03*
X29210Y43180D02*
D03*
X31750D02*
D03*
X82550Y73660D02*
D03*
X80010Y68580D02*
D03*
X82550Y88900D02*
D03*
Y76200D02*
D03*
X82550Y71120D02*
D03*
X82550Y86360D02*
D03*
X80010Y66040D02*
D03*
X80010Y86360D02*
D03*
Y71120D02*
D03*
X82550Y68580D02*
D03*
X80010Y73660D02*
D03*
X80010Y60960D02*
D03*
X80010Y58420D02*
D03*
X80010Y55880D02*
D03*
X82550Y53340D02*
D03*
Y55880D02*
D03*
X80010Y93980D02*
D03*
X82550Y93980D02*
D03*
X80010Y91440D02*
D03*
X82550D02*
D03*
X80010Y88900D02*
D03*
Y76200D02*
D03*
X80010Y63500D02*
D03*
X80010Y53340D02*
D03*
X80010Y50800D02*
D03*
X82550Y50800D02*
D03*
X80010Y48260D02*
D03*
X82550Y45720D02*
D03*
X80010Y43180D02*
D03*
Y40640D02*
D03*
X80010Y38100D02*
D03*
X82550Y38100D02*
D03*
X53340Y27940D02*
D03*
X63500D02*
D03*
X55880D02*
D03*
X50800D02*
D03*
D98*
X99150Y82610D02*
D03*
X160570Y82650D02*
D03*
X120570Y82650D02*
D03*
X31750Y40640D02*
D03*
X29210D02*
D03*
X5000Y89850D02*
D03*
X12620D02*
D03*
X59130Y103750D02*
D03*
X99150Y91500D02*
D03*
X143430Y82650D02*
D03*
X183430Y82650D02*
D03*
X164661Y5009D02*
D03*
X118941Y7539D02*
D03*
X29210Y38100D02*
D03*
X31750Y38100D02*
D03*
X60960Y27940D02*
D03*
D99*
X13500Y41500D02*
D03*
X16000Y44000D02*
D03*
X11000D02*
D03*
X13500D02*
D03*
X29250Y101750D02*
D03*
X26500Y2750D02*
D03*
X23750D02*
D03*
X16000Y41500D02*
D03*
X11000D02*
D03*
X31750Y101750D02*
D03*
D105*
X18500Y44000D02*
D03*
D109*
X9000Y19500D02*
D03*
X14800D02*
D03*
D110*
X11800Y14700D02*
D03*
D111*
X14025Y8175D02*
D03*
X14025Y9525D02*
D03*
X19975Y8175D02*
D03*
X19975Y9525D02*
D03*
X14875Y9525D02*
D03*
X15725Y9525D02*
D03*
X16575D02*
D03*
X17425D02*
D03*
X18275D02*
D03*
X19125Y9525D02*
D03*
Y8175D02*
D03*
X18275D02*
D03*
X17425D02*
D03*
X16575D02*
D03*
X15725D02*
D03*
X14875D02*
D03*
D112*
X12500Y57500D02*
D03*
Y51000D02*
D03*
X109250Y87250D02*
D03*
X64000Y72500D02*
D03*
Y75000D02*
D03*
X72500Y86500D02*
D03*
X101250Y70500D02*
D03*
X105250Y75000D02*
D03*
X113250Y70250D02*
D03*
X108750Y75000D02*
D03*
X116250D02*
D03*
X93750Y81000D02*
D03*
X52500Y12500D02*
D03*
X148500Y93000D02*
D03*
Y90500D02*
D03*
X91065Y95113D02*
D03*
X90000Y98000D02*
D03*
X152500Y17500D02*
D03*
X162500D02*
D03*
X165000D02*
D03*
Y22500D02*
D03*
X160000D02*
D03*
X157500Y25000D02*
D03*
X165000Y27500D02*
D03*
X160000D02*
D03*
X152500D02*
D03*
X165000Y32500D02*
D03*
X160000D02*
D03*
X155000D02*
D03*
X150000D02*
D03*
X145000Y40000D02*
D03*
X140000Y45000D02*
D03*
X135000Y50000D02*
D03*
X155000Y37500D02*
D03*
X160000D02*
D03*
X165000D02*
D03*
Y42500D02*
D03*
X160000D02*
D03*
X155000D02*
D03*
X150000D02*
D03*
X145000Y47500D02*
D03*
X150000D02*
D03*
X165000D02*
D03*
X160000D02*
D03*
X155000D02*
D03*
X132500Y55000D02*
D03*
X122500D02*
D03*
X127500D02*
D03*
X140000Y52500D02*
D03*
X145000D02*
D03*
X150000D02*
D03*
X155000D02*
D03*
X160000D02*
D03*
X165000D02*
D03*
X112500Y55000D02*
D03*
X115000Y60000D02*
D03*
Y57500D02*
D03*
X122500D02*
D03*
X125000D02*
D03*
X130000D02*
D03*
X135000D02*
D03*
X140000D02*
D03*
X145000D02*
D03*
X150000D02*
D03*
X155000D02*
D03*
X160000D02*
D03*
X165000D02*
D03*
X170000D02*
D03*
X190000Y75000D02*
D03*
X187500Y72500D02*
D03*
X190000Y85000D02*
D03*
Y90000D02*
D03*
Y95000D02*
D03*
X130000Y75000D02*
D03*
X137500Y82500D02*
D03*
X132500Y77500D02*
D03*
X127500Y85000D02*
D03*
X130000Y87500D02*
D03*
X127500Y95000D02*
D03*
X130000Y97500D02*
D03*
X127500D02*
D03*
X107500Y100000D02*
D03*
X110000Y102500D02*
D03*
X90000D02*
D03*
X85000D02*
D03*
X80000D02*
D03*
X95000Y80000D02*
D03*
X117500Y90000D02*
D03*
X115000D02*
D03*
X140000Y75000D02*
D03*
X135000D02*
D03*
X130000Y67500D02*
D03*
X135000D02*
D03*
X140000D02*
D03*
X145000D02*
D03*
X150000D02*
D03*
X155000D02*
D03*
X160000D02*
D03*
X165000D02*
D03*
X170000D02*
D03*
Y70000D02*
D03*
X175000D02*
D03*
X180000Y75000D02*
D03*
Y77500D02*
D03*
X177500D02*
D03*
X175000Y75000D02*
D03*
X165000D02*
D03*
X167500Y77500D02*
D03*
X162500Y75000D02*
D03*
X157500D02*
D03*
X147500D02*
D03*
X152500D02*
D03*
Y80000D02*
D03*
X155000Y85000D02*
D03*
X152500Y87500D02*
D03*
X167500Y80000D02*
D03*
X162500Y77500D02*
D03*
Y80000D02*
D03*
Y82500D02*
D03*
Y85000D02*
D03*
Y87500D02*
D03*
Y90000D02*
D03*
X167500D02*
D03*
Y85000D02*
D03*
X172500D02*
D03*
Y90000D02*
D03*
X180000Y97500D02*
D03*
X177500Y95000D02*
D03*
X172500D02*
D03*
X167500D02*
D03*
X162500D02*
D03*
X155000Y102500D02*
D03*
X160000D02*
D03*
X165000D02*
D03*
X170000D02*
D03*
X175000D02*
D03*
X180000D02*
D03*
X185000D02*
D03*
X192500Y95000D02*
D03*
Y90000D02*
D03*
Y85000D02*
D03*
Y80000D02*
D03*
Y75000D02*
D03*
X187500Y70000D02*
D03*
X192500Y65000D02*
D03*
X187500D02*
D03*
X182500D02*
D03*
X172500Y55000D02*
D03*
X167500Y10000D02*
D03*
X172500Y5000D02*
D03*
Y10000D02*
D03*
X177500Y15000D02*
D03*
X172500D02*
D03*
X177500Y20000D02*
D03*
X172500D02*
D03*
X177500Y25000D02*
D03*
X172500D02*
D03*
X177500Y30000D02*
D03*
X172500D02*
D03*
X177500Y35000D02*
D03*
X172500D02*
D03*
X177500Y40000D02*
D03*
X172500D02*
D03*
X177500Y45000D02*
D03*
X172500D02*
D03*
X177500Y50000D02*
D03*
X172500D02*
D03*
X192500Y10000D02*
D03*
X187500D02*
D03*
X182500D02*
D03*
X192500Y15000D02*
D03*
X187500D02*
D03*
X182500D02*
D03*
X192500Y20000D02*
D03*
X187500D02*
D03*
X182500D02*
D03*
X192500Y25000D02*
D03*
X187500D02*
D03*
X182500D02*
D03*
X192500Y30000D02*
D03*
X187500D02*
D03*
X182500D02*
D03*
X192500Y35000D02*
D03*
X187500D02*
D03*
X182500D02*
D03*
X192500Y40000D02*
D03*
X187500D02*
D03*
X182500D02*
D03*
X192500Y45000D02*
D03*
X187500D02*
D03*
X182500D02*
D03*
X192500Y50000D02*
D03*
X187500D02*
D03*
X182500D02*
D03*
X192500Y55000D02*
D03*
X187500D02*
D03*
X182500D02*
D03*
Y60000D02*
D03*
X187500D02*
D03*
X192500D02*
D03*
X110000Y15000D02*
D03*
X125000Y37500D02*
D03*
X120000Y42500D02*
D03*
X125000D02*
D03*
X130000Y37500D02*
D03*
X135000Y32500D02*
D03*
X140000Y27500D02*
D03*
X145000Y22500D02*
D03*
X125000Y17500D02*
D03*
X117500Y20000D02*
D03*
X112500D02*
D03*
Y25000D02*
D03*
X107500D02*
D03*
Y30000D02*
D03*
Y20000D02*
D03*
X45000Y60000D02*
D03*
Y70000D02*
D03*
X42500Y72500D02*
D03*
Y65000D02*
D03*
X47500D02*
D03*
X52500D02*
D03*
X57500D02*
D03*
X55000Y67500D02*
D03*
Y60000D02*
D03*
X67500Y65000D02*
D03*
X72500Y57500D02*
D03*
X65000D02*
D03*
X88490Y56428D02*
D03*
X92500Y40000D02*
D03*
X90000Y42500D02*
D03*
Y35000D02*
D03*
X92500Y27500D02*
D03*
Y22500D02*
D03*
Y17500D02*
D03*
Y12500D02*
D03*
Y7500D02*
D03*
X87500D02*
D03*
X82500Y12500D02*
D03*
Y17500D02*
D03*
Y22500D02*
D03*
Y27500D02*
D03*
X77500D02*
D03*
Y22500D02*
D03*
Y17500D02*
D03*
Y12500D02*
D03*
Y7500D02*
D03*
X72500D02*
D03*
Y12500D02*
D03*
Y17500D02*
D03*
Y22500D02*
D03*
Y27500D02*
D03*
X67500D02*
D03*
Y22500D02*
D03*
X62500D02*
D03*
X57500D02*
D03*
X52500D02*
D03*
X67500Y17500D02*
D03*
Y12500D02*
D03*
Y7500D02*
D03*
X62500D02*
D03*
Y12500D02*
D03*
Y17500D02*
D03*
X57500D02*
D03*
X52500D02*
D03*
X57500Y12500D02*
D03*
Y7500D02*
D03*
X52500D02*
D03*
X47500D02*
D03*
Y12500D02*
D03*
Y17500D02*
D03*
Y22500D02*
D03*
X42500Y17500D02*
D03*
X37500Y12500D02*
D03*
X42500D02*
D03*
Y7500D02*
D03*
X37500D02*
D03*
X25000Y17500D02*
D03*
X35000Y20000D02*
D03*
X32500Y30000D02*
D03*
X35000Y32500D02*
D03*
X30000D02*
D03*
X25000D02*
D03*
X37500Y35000D02*
D03*
X42500D02*
D03*
X47500D02*
D03*
X52500D02*
D03*
X67500D02*
D03*
X72500D02*
D03*
X77500D02*
D03*
Y40000D02*
D03*
X72500D02*
D03*
X67500D02*
D03*
X60000Y45000D02*
D03*
X55000D02*
D03*
X57500Y47500D02*
D03*
X62500Y40000D02*
D03*
X57500D02*
D03*
X52500D02*
D03*
X47500D02*
D03*
X42500D02*
D03*
X37500D02*
D03*
X50000Y55000D02*
D03*
X45000D02*
D03*
X40000D02*
D03*
X35000D02*
D03*
X38727Y62271D02*
D03*
X35000Y60000D02*
D03*
Y65000D02*
D03*
X37500Y70000D02*
D03*
X35000Y72500D02*
D03*
Y82500D02*
D03*
Y77500D02*
D03*
X37500Y82500D02*
D03*
X40000Y77500D02*
D03*
Y80000D02*
D03*
X52500Y77500D02*
D03*
X57500D02*
D03*
X65000Y80000D02*
D03*
X60000D02*
D03*
X55000D02*
D03*
X67500Y87500D02*
D03*
X71409Y100296D02*
D03*
X69421Y97024D02*
D03*
X65000Y92500D02*
D03*
X62500Y87500D02*
D03*
X57500D02*
D03*
X52500D02*
D03*
X47500D02*
D03*
X42500D02*
D03*
X60000Y92500D02*
D03*
X55000D02*
D03*
X50000D02*
D03*
X45000D02*
D03*
X40000D02*
D03*
X60000Y100000D02*
D03*
X62500Y97500D02*
D03*
X57500D02*
D03*
X52500D02*
D03*
X47500D02*
D03*
X42500D02*
D03*
X37500D02*
D03*
X50000Y102500D02*
D03*
X45000D02*
D03*
X40000D02*
D03*
X35000D02*
D03*
X25000D02*
D03*
X20000D02*
D03*
X15000D02*
D03*
X20000Y92500D02*
D03*
X17500Y87500D02*
D03*
X22500D02*
D03*
Y97500D02*
D03*
X12500D02*
D03*
X17500D02*
D03*
X10000Y75000D02*
D03*
X7500Y70000D02*
D03*
X12500Y62500D02*
D03*
X20000D02*
D03*
X25000Y57500D02*
D03*
Y52500D02*
D03*
X22500Y42500D02*
D03*
X20000Y47500D02*
D03*
X16500Y52000D02*
D03*
X2500Y37500D02*
D03*
Y32500D02*
D03*
Y27500D02*
D03*
Y22500D02*
D03*
Y17500D02*
D03*
Y12500D02*
D03*
X12500Y2500D02*
D03*
X17500D02*
D03*
X32500D02*
D03*
X37500D02*
D03*
X42500D02*
D03*
X47500D02*
D03*
X52500D02*
D03*
X57500D02*
D03*
X62500D02*
D03*
X67500D02*
D03*
X72500D02*
D03*
X77500D02*
D03*
X82500D02*
D03*
X87500D02*
D03*
X92500D02*
D03*
X97500D02*
D03*
X102500D02*
D03*
X117500D02*
D03*
X112500D02*
D03*
X165000D02*
D03*
X170000D02*
D03*
X175000D02*
D03*
X180000D02*
D03*
X185000D02*
D03*
X190000D02*
D03*
X197500Y10000D02*
D03*
Y15000D02*
D03*
Y20000D02*
D03*
Y25000D02*
D03*
Y30000D02*
D03*
Y35000D02*
D03*
Y40000D02*
D03*
Y45000D02*
D03*
Y50000D02*
D03*
Y55000D02*
D03*
Y60000D02*
D03*
Y65000D02*
D03*
Y77500D02*
D03*
Y82500D02*
D03*
Y87500D02*
D03*
Y92500D02*
D03*
Y97500D02*
D03*
X187500Y107500D02*
D03*
X182500D02*
D03*
X177500D02*
D03*
X172500D02*
D03*
X167500D02*
D03*
X162500D02*
D03*
X157500D02*
D03*
X152500D02*
D03*
X147500D02*
D03*
X142500D02*
D03*
X137500D02*
D03*
X132500D02*
D03*
X127500D02*
D03*
X122500D02*
D03*
X117500D02*
D03*
X112500D02*
D03*
X107500D02*
D03*
X92500D02*
D03*
X87500D02*
D03*
X82500D02*
D03*
X77500D02*
D03*
X72500D02*
D03*
X67500D02*
D03*
X62500D02*
D03*
X57500D02*
D03*
X52500D02*
D03*
X47500D02*
D03*
X42500D02*
D03*
X37500D02*
D03*
X32500D02*
D03*
X27500D02*
D03*
X22500D02*
D03*
X17500D02*
D03*
X12500D02*
D03*
X2500Y97500D02*
D03*
Y92500D02*
D03*
Y87500D02*
D03*
Y82500D02*
D03*
Y77500D02*
D03*
Y72500D02*
D03*
Y67500D02*
D03*
Y62500D02*
D03*
Y57500D02*
D03*
Y52500D02*
D03*
Y45000D02*
D03*
Y40000D02*
D03*
X17500Y11000D02*
D03*
X18750Y16250D02*
D03*
X25250Y14250D02*
D03*
X28750Y15500D02*
D03*
X29500Y17250D02*
D03*
X33750Y12200D02*
D03*
X94000Y47000D02*
D03*
X101000Y37000D02*
D03*
X158000Y14500D02*
D03*
X97500Y37500D02*
D03*
X101000Y47000D02*
D03*
X100500Y79960D02*
D03*
X97750Y78960D02*
D03*
X158000Y92250D02*
D03*
X147250Y89000D02*
D03*
X64000Y70000D02*
D03*
X74000D02*
D03*
X71000Y93250D02*
D03*
X70250Y91500D02*
D03*
X73250Y92750D02*
D03*
X73350Y88900D02*
D03*
X21250Y81000D02*
D03*
X23250Y80500D02*
D03*
X120500Y67250D02*
D03*
X119250Y66250D02*
D03*
X64250Y36000D02*
D03*
X42750Y60500D02*
D03*
X48000D02*
D03*
X65500Y33000D02*
D03*
X117750Y53750D02*
D03*
X120500D02*
D03*
X149500Y29500D02*
D03*
X147000Y34750D02*
D03*
X154250Y24750D02*
D03*
X159750Y20250D02*
D03*
X157000Y22500D02*
D03*
X126500Y35750D02*
D03*
X134250Y29250D02*
D03*
X144250Y20250D02*
D03*
X136750Y27000D02*
D03*
X129250Y33500D02*
D03*
X139250Y24750D02*
D03*
X131750Y31500D02*
D03*
X141750Y22500D02*
D03*
X29250Y14250D02*
D03*
X19500Y13000D02*
D03*
X18750Y11000D02*
D03*
X19750Y71000D02*
D03*
X87250Y52500D02*
D03*
X87750Y50750D02*
D03*
X75500Y76750D02*
D03*
X92905Y52767D02*
D03*
X93700Y76200D02*
D03*
X102000Y61412D02*
D03*
X96000Y63000D02*
D03*
X94000Y61500D02*
D03*
X66500Y50500D02*
D03*
X93000Y51500D02*
D03*
X100500Y62500D02*
D03*
X61000Y50000D02*
D03*
X92750Y48500D02*
D03*
X93000Y62500D02*
D03*
X64500Y49500D02*
D03*
X92500Y50000D02*
D03*
X96000Y61500D02*
D03*
X99000D02*
D03*
X59000Y49500D02*
D03*
X93500Y55500D02*
D03*
X91500Y62000D02*
D03*
D113*
X25700Y7523D02*
D03*
X28000Y19500D02*
D03*
X31000Y20500D02*
D03*
X17199Y37402D02*
D03*
X11000Y65500D02*
D03*
X9000Y96300D02*
D03*
X20000Y67500D02*
D03*
X16500Y73500D02*
D03*
X23500Y21000D02*
D03*
X21000Y26500D02*
D03*
X23000Y28000D02*
D03*
X21000Y37500D02*
D03*
X21500Y29500D02*
D03*
X25000D02*
D03*
X27500D02*
D03*
X31000Y28000D02*
D03*
X43000Y28500D02*
D03*
X45050Y30050D02*
D03*
X117000Y14750D02*
D03*
X103000Y46500D02*
D03*
X94000Y88750D02*
D03*
Y85250D02*
D03*
X103250Y55000D02*
D03*
X116000Y78500D02*
D03*
X156000D02*
D03*
X149000Y80000D02*
D03*
X189000D02*
D03*
X57500Y101250D02*
D03*
X143500Y77750D02*
D03*
X160500Y78000D02*
D03*
X158315Y80110D02*
D03*
X120570Y78320D02*
D03*
X118750Y80000D02*
D03*
X145500Y77750D02*
D03*
X185376Y80115D02*
D03*
X183500Y78000D02*
D03*
X10567Y94658D02*
D03*
X7000Y95500D02*
D03*
X115500Y11750D02*
D03*
X23000Y12750D02*
D03*
X21786Y11317D02*
D03*
X20500Y12000D02*
D03*
D114*
X12675Y8545D02*
D03*
X21325D02*
D03*
D115*
X6000Y6000D02*
D03*
Y104000D02*
D03*
X100000Y25000D02*
D03*
Y104000D02*
D03*
X194000D02*
D03*
D116*
X12675Y5165D02*
D03*
X21325D02*
D03*
D117*
X107750Y6250D02*
D03*
D118*
X195441Y5009D02*
D03*
X178066Y7509D02*
D03*
X108066Y57184D02*
D03*
X107441Y70009D02*
D03*
X178066Y57209D02*
D03*
X195441Y70009D02*
D03*
M02*
