G04*
G04 #@! TF.GenerationSoftware,Altium Limited,Altium Designer,25.5.2 (35)*
G04*
G04 Layer_Physical_Order=2*
G04 Layer_Color=16711680*
%FSLAX43Y43*%
%MOMM*%
G71*
G04*
G04 #@! TF.SameCoordinates,1D4EA8C4-C697-48FC-A00C-E0A8CAE886F4*
G04*
G04*
G04 #@! TF.FilePolarity,Positive*
G04*
G01*
G75*
%ADD14C,0.600*%
%ADD15C,0.150*%
%ADD18C,0.500*%
%ADD19C,0.300*%
%ADD57R,1.570X1.570*%
%ADD58C,1.570*%
%ADD60C,1.200*%
%ADD63C,0.650*%
G04:AMPARAMS|DCode=64|XSize=0.9mm|YSize=2.4mm|CornerRadius=0.45mm|HoleSize=0mm|Usage=FLASHONLY|Rotation=0.000|XOffset=0mm|YOffset=0mm|HoleType=Round|Shape=RoundedRectangle|*
%AMROUNDEDRECTD64*
21,1,0.900,1.500,0,0,0.0*
21,1,0.000,2.400,0,0,0.0*
1,1,0.900,0.000,-0.750*
1,1,0.900,0.000,-0.750*
1,1,0.900,0.000,0.750*
1,1,0.900,0.000,0.750*
%
%ADD64ROUNDEDRECTD64*%
G04:AMPARAMS|DCode=65|XSize=0.9mm|YSize=1.7mm|CornerRadius=0.45mm|HoleSize=0mm|Usage=FLASHONLY|Rotation=0.000|XOffset=0mm|YOffset=0mm|HoleType=Round|Shape=RoundedRectangle|*
%AMROUNDEDRECTD65*
21,1,0.900,0.800,0,0,0.0*
21,1,0.000,1.700,0,0,0.0*
1,1,0.900,0.000,-0.400*
1,1,0.900,0.000,-0.400*
1,1,0.900,0.000,0.400*
1,1,0.900,0.000,0.400*
%
%ADD65ROUNDEDRECTD65*%
%ADD68R,1.200X1.200*%
%ADD70C,2.000*%
%ADD71C,1.000*%
%ADD72C,0.800*%
%ADD75C,1.500*%
%ADD76C,0.125*%
%ADD78C,1.778*%
%ADD79R,1.778X1.778*%
%ADD80C,1.600*%
G04:AMPARAMS|DCode=81|XSize=1.6mm|YSize=1.6mm|CornerRadius=0.4mm|HoleSize=0mm|Usage=FLASHONLY|Rotation=90.000|XOffset=0mm|YOffset=0mm|HoleType=Round|Shape=RoundedRectangle|*
%AMROUNDEDRECTD81*
21,1,1.600,0.800,0,0,90.0*
21,1,0.800,1.600,0,0,90.0*
1,1,0.800,0.400,0.400*
1,1,0.800,0.400,-0.400*
1,1,0.800,-0.400,-0.400*
1,1,0.800,-0.400,0.400*
%
%ADD81ROUNDEDRECTD81*%
%ADD82R,1.651X1.651*%
%ADD83C,1.651*%
%ADD84C,1.550*%
%ADD85R,1.550X1.550*%
%ADD86C,10.100*%
%ADD87C,7.100*%
G04:AMPARAMS|DCode=88|XSize=9.801mm|YSize=7.1mm|CornerRadius=0mm|HoleSize=0mm|Usage=FLASHONLY|Rotation=75.800|XOffset=0mm|YOffset=0mm|HoleType=Round|Shape=Round|*
%AMOVALD88*
21,1,2.701,7.100,0.000,0.000,75.8*
1,1,7.100,-0.331,-1.309*
1,1,7.100,0.331,1.309*
%
%ADD88OVALD88*%

%ADD89C,2.500*%
G04:AMPARAMS|DCode=90|XSize=4mm|YSize=1.8mm|CornerRadius=0.45mm|HoleSize=0mm|Usage=FLASHONLY|Rotation=90.000|XOffset=0mm|YOffset=0mm|HoleType=Round|Shape=RoundedRectangle|*
%AMROUNDEDRECTD90*
21,1,4.000,0.900,0,0,90.0*
21,1,3.100,1.800,0,0,90.0*
1,1,0.900,0.450,1.550*
1,1,0.900,0.450,-1.550*
1,1,0.900,-0.450,-1.550*
1,1,0.900,-0.450,1.550*
%
%ADD90ROUNDEDRECTD90*%
%ADD91R,1.550X1.550*%
G04:AMPARAMS|DCode=92|XSize=1.6mm|YSize=1.6mm|CornerRadius=0.4mm|HoleSize=0mm|Usage=FLASHONLY|Rotation=0.000|XOffset=0mm|YOffset=0mm|HoleType=Round|Shape=RoundedRectangle|*
%AMROUNDEDRECTD92*
21,1,1.600,0.800,0,0,0.0*
21,1,0.800,1.600,0,0,0.0*
1,1,0.800,0.400,-0.400*
1,1,0.800,-0.400,-0.400*
1,1,0.800,-0.400,0.400*
1,1,0.800,0.400,0.400*
%
%ADD92ROUNDEDRECTD92*%
G04:AMPARAMS|DCode=93|XSize=4mm|YSize=1.8mm|CornerRadius=0.45mm|HoleSize=0mm|Usage=FLASHONLY|Rotation=180.000|XOffset=0mm|YOffset=0mm|HoleType=Round|Shape=RoundedRectangle|*
%AMROUNDEDRECTD93*
21,1,4.000,0.900,0,0,180.0*
21,1,3.100,1.800,0,0,180.0*
1,1,0.900,-1.550,0.450*
1,1,0.900,1.550,0.450*
1,1,0.900,1.550,-0.450*
1,1,0.900,-1.550,-0.450*
%
%ADD93ROUNDEDRECTD93*%
%ADD94C,0.700*%
%ADD95C,1.000*%
%ADD96C,0.600*%
G36*
X98660Y109490D02*
X98699Y109190D01*
X98277Y109077D01*
X97629Y108809D01*
X97021Y108458D01*
X96465Y108031D01*
X95969Y107535D01*
X95542Y106979D01*
X95191Y106371D01*
X94923Y105723D01*
X94742Y105046D01*
X94650Y104351D01*
Y104150D01*
X100000D01*
Y104000D01*
D01*
Y104150D01*
X105350D01*
Y104351D01*
X105258Y105046D01*
X105077Y105723D01*
X104809Y106371D01*
X104458Y106979D01*
X104031Y107535D01*
X103535Y108031D01*
X102979Y108458D01*
X102371Y108809D01*
X101723Y109077D01*
X101301Y109190D01*
X101340Y109490D01*
X192660D01*
X192699Y109190D01*
X192277Y109077D01*
X191629Y108809D01*
X191021Y108458D01*
X190465Y108031D01*
X189969Y107535D01*
X189542Y106979D01*
X189191Y106371D01*
X188923Y105723D01*
X188742Y105046D01*
X188650Y104351D01*
Y104150D01*
X194000D01*
Y104000D01*
X194150D01*
Y98650D01*
X194351D01*
X195046Y98742D01*
X195723Y98923D01*
X196371Y99191D01*
X196979Y99542D01*
X197535Y99969D01*
X198031Y100465D01*
X198458Y101021D01*
X198809Y101629D01*
X199077Y102277D01*
X199190Y102699D01*
X199490Y102660D01*
X199490Y70960D01*
X199196Y70910D01*
X199008Y71487D01*
X198733Y72027D01*
X198377Y72517D01*
X197949Y72945D01*
X197458Y73302D01*
X196918Y73577D01*
X196342Y73764D01*
X195744Y73859D01*
X195591D01*
Y70009D01*
Y66159D01*
X195744D01*
X196342Y66254D01*
X196918Y66441D01*
X197458Y66716D01*
X197949Y67072D01*
X198377Y67501D01*
X198733Y67991D01*
X199008Y68531D01*
X199196Y69107D01*
X199490Y69057D01*
X199490Y5960D01*
X199196Y5910D01*
X199008Y6487D01*
X198733Y7027D01*
X198377Y7517D01*
X197949Y7945D01*
X197458Y8302D01*
X196918Y8577D01*
X196342Y8764D01*
X195744Y8859D01*
X195591D01*
Y5009D01*
Y1159D01*
X195744D01*
X196342Y1254D01*
X196918Y1441D01*
X197458Y1716D01*
X197949Y2072D01*
X198377Y2501D01*
X198733Y2991D01*
X199008Y3531D01*
X199196Y4107D01*
X199490Y4057D01*
Y2304D01*
X199414Y1919D01*
X199264Y1557D01*
X199046Y1231D01*
X198769Y954D01*
X198443Y736D01*
X198081Y586D01*
X197696Y510D01*
X197500Y510D01*
X7340Y510D01*
X7301Y810D01*
X7723Y923D01*
X8371Y1191D01*
X8979Y1542D01*
X9535Y1969D01*
X10031Y2465D01*
X10458Y3021D01*
X10809Y3629D01*
X11077Y4277D01*
X11258Y4954D01*
X11350Y5649D01*
Y5850D01*
X6000D01*
Y6000D01*
X5850D01*
Y11350D01*
X5649D01*
X4954Y11258D01*
X4277Y11077D01*
X3629Y10809D01*
X3021Y10458D01*
X2465Y10031D01*
X1969Y9535D01*
X1542Y8979D01*
X1191Y8371D01*
X923Y7723D01*
X810Y7301D01*
X510Y7340D01*
X510Y102660D01*
X810Y102700D01*
X923Y102277D01*
X1191Y101629D01*
X1542Y101021D01*
X1969Y100465D01*
X2465Y99969D01*
X3021Y99542D01*
X3629Y99191D01*
X4277Y98923D01*
X4954Y98742D01*
X5649Y98650D01*
X5850D01*
Y104000D01*
X6000D01*
Y104150D01*
X11350D01*
Y104351D01*
X11258Y105046D01*
X11077Y105723D01*
X10809Y106371D01*
X10458Y106979D01*
X10031Y107535D01*
X9535Y108031D01*
X8979Y108458D01*
X8371Y108809D01*
X7723Y109077D01*
X7301Y109190D01*
X7340Y109490D01*
X98660D01*
D02*
G37*
%LPC*%
G36*
X54349Y106500D02*
X54151D01*
X53961Y106449D01*
X53789Y106350D01*
X53650Y106211D01*
X53551Y106039D01*
X53500Y105849D01*
Y105651D01*
X53551Y105461D01*
X53650Y105289D01*
X53789Y105150D01*
X53961Y105051D01*
X54151Y105000D01*
X54349D01*
X54539Y105051D01*
X54711Y105150D01*
X54850Y105289D01*
X54949Y105461D01*
X55000Y105651D01*
Y105849D01*
X54949Y106039D01*
X54850Y106211D01*
X54711Y106350D01*
X54539Y106449D01*
X54349Y106500D01*
D02*
G37*
G36*
X61820Y104823D02*
Y103900D01*
X62743D01*
X62672Y104165D01*
X62530Y104410D01*
X62330Y104610D01*
X62085Y104752D01*
X61820Y104823D01*
D02*
G37*
G36*
X61520Y104823D02*
X61255Y104752D01*
X61010Y104610D01*
X60810Y104410D01*
X60668Y104165D01*
X60597Y103900D01*
X61520D01*
Y104823D01*
D02*
G37*
G36*
X72855Y104775D02*
X70805D01*
Y102725D01*
X72855D01*
Y104775D01*
D02*
G37*
G36*
X69425D02*
X69155D01*
X68894Y104705D01*
X68661Y104570D01*
X68470Y104379D01*
X68335Y104146D01*
X68265Y103885D01*
Y103615D01*
X68335Y103354D01*
X68470Y103121D01*
X68661Y102930D01*
X68894Y102795D01*
X69155Y102725D01*
X69425D01*
X69686Y102795D01*
X69919Y102930D01*
X70110Y103121D01*
X70245Y103354D01*
X70315Y103615D01*
Y103885D01*
X70245Y104146D01*
X70110Y104379D01*
X69919Y104570D01*
X69686Y104705D01*
X69425Y104775D01*
D02*
G37*
G36*
X66885D02*
X66615D01*
X66354Y104705D01*
X66121Y104570D01*
X65930Y104379D01*
X65795Y104146D01*
X65725Y103885D01*
Y103615D01*
X65795Y103354D01*
X65930Y103121D01*
X66121Y102930D01*
X66354Y102795D01*
X66615Y102725D01*
X66885D01*
X67146Y102795D01*
X67379Y102930D01*
X67570Y103121D01*
X67705Y103354D01*
X67775Y103615D01*
Y103885D01*
X67705Y104146D01*
X67570Y104379D01*
X67379Y104570D01*
X67146Y104705D01*
X66885Y104775D01*
D02*
G37*
G36*
X64345D02*
X64075D01*
X63814Y104705D01*
X63581Y104570D01*
X63390Y104379D01*
X63255Y104146D01*
X63185Y103885D01*
Y103615D01*
X63255Y103354D01*
X63390Y103121D01*
X63581Y102930D01*
X63814Y102795D01*
X64075Y102725D01*
X64345D01*
X64606Y102795D01*
X64839Y102930D01*
X65030Y103121D01*
X65165Y103354D01*
X65235Y103615D01*
Y103885D01*
X65165Y104146D01*
X65030Y104379D01*
X64839Y104570D01*
X64606Y104705D01*
X64345Y104775D01*
D02*
G37*
G36*
X59265D02*
X58995D01*
X58734Y104705D01*
X58501Y104570D01*
X58310Y104379D01*
X58175Y104146D01*
X58105Y103885D01*
Y103615D01*
X58175Y103354D01*
X58310Y103121D01*
X58501Y102930D01*
X58734Y102795D01*
X58995Y102725D01*
X59265D01*
X59526Y102795D01*
X59759Y102930D01*
X59950Y103121D01*
X60085Y103354D01*
X60155Y103615D01*
Y103885D01*
X60085Y104146D01*
X59950Y104379D01*
X59759Y104570D01*
X59526Y104705D01*
X59265Y104775D01*
D02*
G37*
G36*
X62743Y103600D02*
X61820D01*
Y102677D01*
X62085Y102748D01*
X62330Y102890D01*
X62530Y103090D01*
X62672Y103335D01*
X62743Y103600D01*
D02*
G37*
G36*
X61520D02*
X60597D01*
X60668Y103335D01*
X60810Y103090D01*
X61010Y102890D01*
X61255Y102748D01*
X61520Y102677D01*
Y103600D01*
D02*
G37*
G36*
X29400Y102642D02*
Y101900D01*
X30142D01*
X30089Y102097D01*
X29970Y102303D01*
X29803Y102470D01*
X29597Y102589D01*
X29400Y102642D01*
D02*
G37*
G36*
X29100D02*
X28903Y102589D01*
X28697Y102470D01*
X28530Y102303D01*
X28411Y102097D01*
X28358Y101900D01*
X29100D01*
Y102642D01*
D02*
G37*
G36*
X31862Y102600D02*
X31638D01*
X31422Y102542D01*
X31228Y102430D01*
X31070Y102272D01*
X30958Y102078D01*
X30900Y101862D01*
Y101638D01*
X30958Y101422D01*
X31070Y101228D01*
X31228Y101070D01*
X31422Y100958D01*
X31638Y100900D01*
X31862D01*
X32078Y100958D01*
X32272Y101070D01*
X32430Y101228D01*
X32542Y101422D01*
X32600Y101638D01*
Y101862D01*
X32542Y102078D01*
X32430Y102272D01*
X32272Y102430D01*
X32078Y102542D01*
X31862Y102600D01*
D02*
G37*
G36*
X30142Y101600D02*
X29400D01*
Y100858D01*
X29597Y100911D01*
X29803Y101030D01*
X29970Y101197D01*
X30089Y101403D01*
X30142Y101600D01*
D02*
G37*
G36*
X29100D02*
X28358D01*
X28411Y101403D01*
X28530Y101197D01*
X28697Y101030D01*
X28903Y100911D01*
X29100Y100858D01*
Y101600D01*
D02*
G37*
G36*
X193850Y103850D02*
X188650D01*
Y103649D01*
X188742Y102954D01*
X188923Y102277D01*
X189191Y101629D01*
X189542Y101021D01*
X189969Y100465D01*
X190465Y99969D01*
X191021Y99542D01*
X191629Y99191D01*
X192277Y98923D01*
X192954Y98742D01*
X193649Y98650D01*
X193850D01*
Y103850D01*
D02*
G37*
G36*
X105350Y103850D02*
X100150D01*
Y98650D01*
X100351D01*
X101046Y98742D01*
X101723Y98923D01*
X102371Y99191D01*
X102979Y99542D01*
X103535Y99969D01*
X104031Y100465D01*
X104458Y101021D01*
X104809Y101629D01*
X105077Y102277D01*
X105258Y102954D01*
X105350Y103649D01*
Y103850D01*
D02*
G37*
G36*
X99850D02*
X94650D01*
Y103649D01*
X94742Y102954D01*
X94923Y102277D01*
X95191Y101629D01*
X95542Y101021D01*
X95969Y100465D01*
X96465Y99969D01*
X97021Y99542D01*
X97629Y99191D01*
X98277Y98923D01*
X98954Y98742D01*
X99649Y98650D01*
X99850D01*
Y103850D01*
D02*
G37*
G36*
X11350Y103850D02*
X6150D01*
Y98650D01*
X6351D01*
X7046Y98742D01*
X7723Y98923D01*
X8371Y99191D01*
X8979Y99542D01*
X9535Y99969D01*
X10031Y100465D01*
X10458Y101021D01*
X10809Y101629D01*
X11077Y102277D01*
X11258Y102954D01*
X11350Y103649D01*
Y103850D01*
D02*
G37*
G36*
X121646Y98965D02*
X119494D01*
Y96814D01*
X121646D01*
Y98965D01*
D02*
G37*
G36*
X31907Y97709D02*
X31900D01*
Y96670D01*
X32939D01*
Y96677D01*
X32858Y96979D01*
X32701Y97250D01*
X32480Y97471D01*
X32209Y97628D01*
X31907Y97709D01*
D02*
G37*
G36*
X29060Y97709D02*
X29053D01*
X28751Y97628D01*
X28480Y97471D01*
X28259Y97250D01*
X28102Y96979D01*
X28021Y96677D01*
Y96670D01*
X29060D01*
Y97709D01*
D02*
G37*
G36*
X148221Y106331D02*
X119000D01*
X118873Y106306D01*
X118766Y106234D01*
X113266Y100734D01*
X113194Y100627D01*
X113169Y100500D01*
Y92540D01*
X112875Y92525D01*
Y92525D01*
X110825D01*
Y90475D01*
X110546Y90423D01*
X110092D01*
X110020Y90545D01*
X109983Y90723D01*
X110130Y90871D01*
X110265Y91104D01*
X110335Y91365D01*
Y91635D01*
X110265Y91896D01*
X110130Y92129D01*
X109939Y92320D01*
X109706Y92455D01*
X109445Y92525D01*
X109175D01*
X108914Y92455D01*
X108681Y92320D01*
X108490Y92129D01*
X108355Y91896D01*
X108285Y91635D01*
Y91365D01*
X108355Y91104D01*
X108490Y90871D01*
X108637Y90723D01*
X108600Y90545D01*
X108528Y90423D01*
X107552D01*
X107480Y90545D01*
X107443Y90723D01*
X107590Y90871D01*
X107725Y91104D01*
X107795Y91365D01*
Y91635D01*
X107725Y91896D01*
X107590Y92129D01*
X107399Y92320D01*
X107166Y92455D01*
X106905Y92525D01*
X106635D01*
X106374Y92455D01*
X106141Y92320D01*
X105950Y92129D01*
X105815Y91896D01*
X105745Y91635D01*
Y91365D01*
X105815Y91104D01*
X105950Y90871D01*
X106097Y90723D01*
X106060Y90545D01*
X105988Y90423D01*
X105012D01*
X104940Y90545D01*
X104903Y90723D01*
X105050Y90871D01*
X105185Y91104D01*
X105255Y91365D01*
Y91635D01*
X105185Y91896D01*
X105050Y92129D01*
X104859Y92320D01*
X104626Y92455D01*
X104365Y92525D01*
X104095D01*
X103834Y92455D01*
X103601Y92320D01*
X103410Y92129D01*
X103275Y91896D01*
X103205Y91635D01*
Y91365D01*
X103275Y91104D01*
X103410Y90871D01*
X103557Y90723D01*
X103520Y90545D01*
X103448Y90423D01*
X102552D01*
X102434Y90723D01*
X102550Y90840D01*
X102692Y91085D01*
X102763Y91350D01*
X101690D01*
Y91500D01*
X101540D01*
Y92573D01*
X101275Y92502D01*
X101030Y92360D01*
X100830Y92160D01*
X100462Y92122D01*
X100411Y92161D01*
Y93350D01*
X100411Y93350D01*
X100368Y93676D01*
X100242Y93980D01*
X100042Y94242D01*
X94511Y99772D01*
Y101750D01*
X94468Y102076D01*
X94342Y102380D01*
X94142Y102642D01*
X93392Y103392D01*
X93392Y103392D01*
X93130Y103592D01*
X92826Y103718D01*
X92500Y103761D01*
X92174Y103718D01*
X91870Y103592D01*
X91608Y103392D01*
X91408Y103130D01*
X91282Y102826D01*
X91239Y102500D01*
X91282Y102174D01*
X91408Y101870D01*
X91608Y101608D01*
X91989Y101228D01*
Y99250D01*
X92032Y98924D01*
X92158Y98620D01*
X92358Y98358D01*
X97889Y92828D01*
Y91500D01*
X97916Y91294D01*
X97632Y91154D01*
X88552Y100234D01*
X88444Y100306D01*
X88318Y100331D01*
X76250D01*
X76123Y100306D01*
X76016Y100234D01*
X66016Y90234D01*
X65944Y90127D01*
X65919Y90000D01*
Y68887D01*
X48163Y51131D01*
X32840D01*
X32811Y51240D01*
X32661Y51499D01*
X32449Y51711D01*
X32190Y51861D01*
X31991Y51915D01*
Y52225D01*
X32190Y52279D01*
X32449Y52429D01*
X32661Y52641D01*
X32811Y52900D01*
X32889Y53190D01*
Y53490D01*
X32811Y53780D01*
X32661Y54039D01*
X32449Y54251D01*
X32190Y54401D01*
X31991Y54455D01*
Y54765D01*
X32190Y54819D01*
X32449Y54969D01*
X32661Y55181D01*
X32811Y55440D01*
X32889Y55730D01*
Y56030D01*
X32811Y56320D01*
X32661Y56579D01*
X32449Y56791D01*
X32190Y56941D01*
X31991Y56995D01*
Y57305D01*
X32190Y57359D01*
X32449Y57509D01*
X32661Y57721D01*
X32811Y57980D01*
X32840Y58089D01*
X45920D01*
X46047Y58114D01*
X46154Y58186D01*
X47872Y59904D01*
X47881Y59900D01*
X48119D01*
X48340Y59991D01*
X48509Y60160D01*
X48600Y60381D01*
Y60619D01*
X48509Y60840D01*
X48340Y61009D01*
X48119Y61100D01*
X47881D01*
X47660Y61009D01*
X47491Y60840D01*
X47400Y60619D01*
Y60381D01*
X47404Y60372D01*
X45783Y58751D01*
X32840D01*
X32811Y58860D01*
X32661Y59119D01*
X32449Y59331D01*
X32190Y59481D01*
X31991Y59535D01*
Y59845D01*
X32190Y59899D01*
X32449Y60049D01*
X32661Y60261D01*
X32811Y60520D01*
X32889Y60810D01*
Y61110D01*
X32811Y61400D01*
X32661Y61659D01*
X32449Y61871D01*
X32190Y62021D01*
X31991Y62075D01*
Y62385D01*
X32190Y62439D01*
X32449Y62589D01*
X32661Y62801D01*
X32811Y63060D01*
X32889Y63350D01*
Y63650D01*
X32811Y63940D01*
X32661Y64199D01*
X32449Y64411D01*
X32190Y64561D01*
X31991Y64615D01*
Y64925D01*
X32190Y64979D01*
X32449Y65129D01*
X32661Y65341D01*
X32811Y65600D01*
X32889Y65890D01*
Y66190D01*
X32811Y66480D01*
X32661Y66739D01*
X32449Y66951D01*
X32190Y67101D01*
X31991Y67155D01*
Y67465D01*
X32190Y67519D01*
X32449Y67669D01*
X32661Y67881D01*
X32811Y68140D01*
X32840Y68249D01*
X34783D01*
X38451Y64580D01*
Y64468D01*
X38476Y64341D01*
X38548Y64233D01*
X42154Y60628D01*
X42150Y60619D01*
Y60381D01*
X42241Y60160D01*
X42410Y59991D01*
X42631Y59900D01*
X42869D01*
X43090Y59991D01*
X43259Y60160D01*
X43350Y60381D01*
Y60619D01*
X43259Y60840D01*
X43090Y61009D01*
X42869Y61100D01*
X42631D01*
X42622Y61096D01*
X39114Y64605D01*
Y64718D01*
X39089Y64844D01*
X39017Y64952D01*
X35154Y68814D01*
X35047Y68886D01*
X34920Y68911D01*
X32840D01*
X32811Y69020D01*
X32661Y69279D01*
X32449Y69491D01*
X32190Y69641D01*
X31991Y69695D01*
Y70005D01*
X32190Y70059D01*
X32449Y70209D01*
X32661Y70421D01*
X32811Y70680D01*
X32889Y70970D01*
Y71270D01*
X32811Y71560D01*
X32661Y71819D01*
X32449Y72031D01*
X32190Y72181D01*
X31991Y72235D01*
Y72545D01*
X32190Y72599D01*
X32449Y72749D01*
X32661Y72961D01*
X32811Y73220D01*
X32889Y73510D01*
Y73810D01*
X32811Y74100D01*
X32717Y74263D01*
X32851Y74563D01*
X44468D01*
X49266Y69766D01*
X49373Y69694D01*
X49500Y69669D01*
X63488D01*
X63491Y69660D01*
X63660Y69491D01*
X63881Y69400D01*
X64119D01*
X64340Y69491D01*
X64509Y69660D01*
X64600Y69881D01*
Y70119D01*
X64509Y70340D01*
X64340Y70509D01*
X64119Y70600D01*
X63881D01*
X63660Y70509D01*
X63491Y70340D01*
X63488Y70331D01*
X49637D01*
X44840Y75129D01*
X44732Y75201D01*
X44605Y75226D01*
X32811D01*
X32705Y75420D01*
X32676Y75526D01*
X32811Y75760D01*
X32889Y76050D01*
Y76350D01*
X32811Y76640D01*
X32661Y76899D01*
X32449Y77111D01*
X32190Y77261D01*
X31991Y77315D01*
Y77625D01*
X32190Y77679D01*
X32449Y77829D01*
X32661Y78041D01*
X32811Y78300D01*
X32889Y78590D01*
Y78890D01*
X32811Y79180D01*
X32661Y79439D01*
X32449Y79651D01*
X32190Y79801D01*
X31991Y79855D01*
Y80165D01*
X32190Y80219D01*
X32449Y80369D01*
X32661Y80581D01*
X32811Y80840D01*
X32889Y81130D01*
Y81430D01*
X32811Y81720D01*
X32661Y81979D01*
X32449Y82191D01*
X32190Y82341D01*
X31991Y82395D01*
Y82705D01*
X32190Y82759D01*
X32449Y82909D01*
X32661Y83121D01*
X32811Y83380D01*
X32889Y83670D01*
Y83970D01*
X32811Y84260D01*
X32661Y84519D01*
X32449Y84731D01*
X32190Y84881D01*
X31991Y84935D01*
Y85245D01*
X32190Y85299D01*
X32449Y85449D01*
X32661Y85661D01*
X32811Y85920D01*
X32889Y86210D01*
Y86510D01*
X32811Y86800D01*
X32661Y87059D01*
X32449Y87271D01*
X32190Y87421D01*
X31991Y87475D01*
Y87785D01*
X32190Y87839D01*
X32449Y87989D01*
X32661Y88201D01*
X32811Y88460D01*
X32840Y88569D01*
X33930D01*
X50233Y72266D01*
X50341Y72194D01*
X50468Y72169D01*
X63488D01*
X63491Y72160D01*
X63660Y71991D01*
X63881Y71900D01*
X64119D01*
X64340Y71991D01*
X64509Y72160D01*
X64600Y72381D01*
Y72619D01*
X64509Y72840D01*
X64340Y73009D01*
X64119Y73100D01*
X63881D01*
X63660Y73009D01*
X63491Y72840D01*
X63488Y72831D01*
X50605D01*
X34302Y89134D01*
X34194Y89206D01*
X34068Y89231D01*
X32840D01*
X32811Y89340D01*
X32689Y89551D01*
X32747Y89723D01*
X32834Y89851D01*
X36180D01*
X51266Y74766D01*
X51373Y74694D01*
X51500Y74669D01*
X63488D01*
X63491Y74660D01*
X63660Y74491D01*
X63881Y74400D01*
X64119D01*
X64340Y74491D01*
X64509Y74660D01*
X64600Y74881D01*
Y75119D01*
X64509Y75340D01*
X64340Y75509D01*
X64119Y75600D01*
X63881D01*
X63660Y75509D01*
X63491Y75340D01*
X63488Y75331D01*
X51637D01*
X36552Y90417D01*
X36444Y90488D01*
X36318Y90514D01*
X32859D01*
X32790Y90593D01*
X32704Y90814D01*
X32811Y91000D01*
X32889Y91290D01*
Y91590D01*
X32811Y91880D01*
X32661Y92139D01*
X32449Y92351D01*
X32190Y92501D01*
X31991Y92555D01*
Y92865D01*
X32190Y92919D01*
X32449Y93069D01*
X32661Y93281D01*
X32811Y93540D01*
X32889Y93830D01*
Y94130D01*
X32811Y94420D01*
X32661Y94679D01*
X32449Y94891D01*
X32190Y95041D01*
X32087Y95069D01*
X32087Y95379D01*
X32209Y95412D01*
X32480Y95569D01*
X32701Y95790D01*
X32858Y96061D01*
X32939Y96363D01*
Y96370D01*
X31750D01*
Y96520D01*
X31600D01*
Y97709D01*
X31593D01*
X31291Y97628D01*
X31020Y97471D01*
X30799Y97250D01*
X30642Y96979D01*
X30635Y96954D01*
X30325D01*
X30318Y96979D01*
X30161Y97250D01*
X29940Y97471D01*
X29669Y97628D01*
X29367Y97709D01*
X29360D01*
Y96520D01*
X29210D01*
Y96370D01*
X28021D01*
Y96363D01*
X28102Y96061D01*
X28259Y95790D01*
X28480Y95569D01*
X28751Y95412D01*
X28873Y95379D01*
Y95069D01*
X28770Y95041D01*
X28511Y94891D01*
X28299Y94679D01*
X28149Y94420D01*
X28071Y94130D01*
Y93830D01*
X28149Y93540D01*
X28299Y93281D01*
X28511Y93069D01*
X28770Y92919D01*
X28969Y92865D01*
Y92555D01*
X28770Y92501D01*
X28511Y92351D01*
X28299Y92139D01*
X28149Y91880D01*
X28071Y91590D01*
Y91290D01*
X28149Y91000D01*
X28299Y90741D01*
X28511Y90529D01*
X28770Y90379D01*
X28969Y90325D01*
Y90015D01*
X28770Y89961D01*
X28511Y89811D01*
X28299Y89599D01*
X28149Y89340D01*
X28071Y89050D01*
Y88750D01*
X28149Y88460D01*
X28299Y88201D01*
X28511Y87989D01*
X28770Y87839D01*
X28969Y87785D01*
Y87475D01*
X28770Y87421D01*
X28511Y87271D01*
X28299Y87059D01*
X28149Y86800D01*
X28071Y86510D01*
Y86210D01*
X28149Y85920D01*
X28299Y85661D01*
X28511Y85449D01*
X28770Y85299D01*
X28969Y85245D01*
Y84935D01*
X28770Y84881D01*
X28511Y84731D01*
X28299Y84519D01*
X28149Y84260D01*
X28071Y83970D01*
Y83670D01*
X28149Y83380D01*
X28299Y83121D01*
X28511Y82909D01*
X28770Y82759D01*
X28969Y82705D01*
Y82395D01*
X28770Y82341D01*
X28511Y82191D01*
X28299Y81979D01*
X28149Y81720D01*
X28071Y81430D01*
Y81130D01*
X28149Y80840D01*
X28299Y80581D01*
X28511Y80369D01*
X28770Y80219D01*
X28969Y80165D01*
Y79855D01*
X28770Y79801D01*
X28511Y79651D01*
X28299Y79439D01*
X28149Y79180D01*
X28071Y78890D01*
Y78590D01*
X28149Y78300D01*
X28299Y78041D01*
X28511Y77829D01*
X28770Y77679D01*
X28969Y77625D01*
Y77315D01*
X28770Y77261D01*
X28511Y77111D01*
X28299Y76899D01*
X28149Y76640D01*
X28071Y76350D01*
Y76050D01*
X28149Y75760D01*
X28299Y75501D01*
X28511Y75289D01*
X28770Y75139D01*
X28969Y75085D01*
Y74775D01*
X28770Y74721D01*
X28511Y74571D01*
X28299Y74359D01*
X28149Y74100D01*
X28071Y73810D01*
Y73510D01*
X28149Y73220D01*
X28299Y72961D01*
X28511Y72749D01*
X28770Y72599D01*
X28969Y72545D01*
Y72235D01*
X28770Y72181D01*
X28511Y72031D01*
X28299Y71819D01*
X28149Y71560D01*
X28071Y71270D01*
Y70970D01*
X28149Y70680D01*
X28299Y70421D01*
X28511Y70209D01*
X28770Y70059D01*
X28969Y70005D01*
Y69695D01*
X28770Y69641D01*
X28511Y69491D01*
X28299Y69279D01*
X28149Y69020D01*
X28071Y68730D01*
Y68430D01*
X28149Y68140D01*
X28299Y67881D01*
X28511Y67669D01*
X28770Y67519D01*
X28969Y67465D01*
Y67155D01*
X28770Y67101D01*
X28673Y67045D01*
X27331Y68387D01*
Y76750D01*
X27306Y76877D01*
X27234Y76984D01*
X23846Y80372D01*
X23850Y80381D01*
Y80619D01*
X23759Y80840D01*
X23590Y81009D01*
X23369Y81100D01*
X23131D01*
X22910Y81009D01*
X22741Y80840D01*
X22650Y80619D01*
Y80525D01*
X22350Y80401D01*
X21850Y80901D01*
Y81119D01*
X21759Y81340D01*
X21590Y81509D01*
X21369Y81600D01*
X21131D01*
X20910Y81509D01*
X20741Y81340D01*
X20650Y81119D01*
Y80881D01*
X20741Y80660D01*
X20910Y80491D01*
X21131Y80400D01*
X21369D01*
X21401Y80413D01*
X25669Y76145D01*
Y66710D01*
X25694Y66583D01*
X25766Y66476D01*
X28205Y64037D01*
X28149Y63940D01*
X28071Y63650D01*
Y63350D01*
X28149Y63060D01*
X28299Y62801D01*
X28511Y62589D01*
X28770Y62439D01*
X28969Y62385D01*
Y62075D01*
X28770Y62021D01*
X28511Y61871D01*
X28299Y61659D01*
X28149Y61400D01*
X28071Y61110D01*
Y60810D01*
X28149Y60520D01*
X28299Y60261D01*
X28511Y60049D01*
X28770Y59899D01*
X28969Y59845D01*
Y59535D01*
X28770Y59481D01*
X28511Y59331D01*
X28299Y59119D01*
X28149Y58860D01*
X28071Y58570D01*
Y58270D01*
X28149Y57980D01*
X28299Y57721D01*
X28511Y57509D01*
X28770Y57359D01*
X28969Y57305D01*
Y56995D01*
X28770Y56941D01*
X28511Y56791D01*
X28299Y56579D01*
X28149Y56320D01*
X28071Y56030D01*
Y55730D01*
X28149Y55440D01*
X28299Y55181D01*
X28511Y54969D01*
X28770Y54819D01*
X28969Y54765D01*
Y54455D01*
X28770Y54401D01*
X28511Y54251D01*
X28299Y54039D01*
X28149Y53780D01*
X28071Y53490D01*
Y53190D01*
X28149Y52900D01*
X28299Y52641D01*
X28511Y52429D01*
X28770Y52279D01*
X28969Y52225D01*
Y51915D01*
X28770Y51861D01*
X28511Y51711D01*
X28299Y51499D01*
X28149Y51240D01*
X28071Y50950D01*
Y50650D01*
X28149Y50360D01*
X28299Y50101D01*
X28511Y49889D01*
X28770Y49739D01*
X28969Y49685D01*
Y49375D01*
X28770Y49321D01*
X28511Y49171D01*
X28299Y48959D01*
X28149Y48700D01*
X28071Y48410D01*
Y48110D01*
X28149Y47820D01*
X28244Y47654D01*
X28112Y47354D01*
X27735D01*
X23055Y52034D01*
Y76526D01*
X23030Y76653D01*
X22958Y76760D01*
X17254Y82464D01*
X17147Y82536D01*
X17020Y82561D01*
X13592D01*
X13575Y82626D01*
X13440Y82859D01*
X13249Y83050D01*
X13016Y83185D01*
X12755Y83255D01*
X12485D01*
X12224Y83185D01*
X11991Y83050D01*
X11800Y82859D01*
X11665Y82626D01*
X11595Y82365D01*
Y82095D01*
X11665Y81834D01*
X11800Y81601D01*
X11991Y81410D01*
X12224Y81275D01*
X12485Y81205D01*
X12755D01*
X13016Y81275D01*
X13249Y81410D01*
X13440Y81601D01*
X13575Y81834D01*
X13592Y81899D01*
X16883D01*
X22393Y76389D01*
Y75915D01*
X22093Y75790D01*
X17959Y79924D01*
X17851Y79996D01*
X17724Y80021D01*
X13592D01*
X13575Y80086D01*
X13440Y80319D01*
X13249Y80510D01*
X13016Y80645D01*
X12755Y80715D01*
X12485D01*
X12224Y80645D01*
X11991Y80510D01*
X11800Y80319D01*
X11665Y80086D01*
X11595Y79825D01*
Y79555D01*
X11665Y79294D01*
X11752Y79143D01*
X11619Y78860D01*
X11383Y78836D01*
X10581Y79637D01*
Y82263D01*
X12167Y83848D01*
X12224Y83815D01*
X12485Y83745D01*
X12755D01*
X13016Y83815D01*
X13249Y83950D01*
X13440Y84141D01*
X13575Y84374D01*
X13645Y84635D01*
Y84905D01*
X13575Y85166D01*
X13440Y85399D01*
X13249Y85590D01*
X13016Y85725D01*
X12755Y85795D01*
X12485D01*
X12224Y85725D01*
X11991Y85590D01*
X11800Y85399D01*
X11665Y85166D01*
X11595Y84905D01*
Y84635D01*
X11665Y84374D01*
X11698Y84317D01*
X10016Y82634D01*
X9944Y82527D01*
X9919Y82400D01*
Y79500D01*
X9944Y79373D01*
X10016Y79266D01*
X11067Y78214D01*
X11175Y78142D01*
X11301Y78117D01*
X11595D01*
Y76125D01*
X13645D01*
Y76819D01*
X16213D01*
X19419Y73613D01*
Y71512D01*
X19410Y71509D01*
X19241Y71340D01*
X19150Y71119D01*
Y70881D01*
X19241Y70660D01*
X19410Y70491D01*
X19631Y70400D01*
X19869D01*
X20090Y70491D01*
X20259Y70660D01*
X20350Y70881D01*
Y71119D01*
X20259Y71340D01*
X20090Y71509D01*
X20081Y71512D01*
Y73750D01*
X20056Y73877D01*
X19984Y73984D01*
X16584Y77384D01*
X16477Y77456D01*
X16350Y77481D01*
X13645D01*
Y78117D01*
X17070D01*
X20887Y74300D01*
Y62202D01*
X20607Y62134D01*
X20587Y62137D01*
X20392Y62392D01*
X20130Y62592D01*
X19826Y62718D01*
X19500Y62761D01*
X15761D01*
Y73500D01*
X15718Y73826D01*
X15592Y74130D01*
X15392Y74392D01*
X15130Y74592D01*
X14826Y74718D01*
X14500Y74761D01*
X14174Y74718D01*
X13870Y74592D01*
X13608Y74392D01*
X13408Y74130D01*
X13282Y73826D01*
X13239Y73500D01*
Y73309D01*
X12187Y72256D01*
X9563D01*
X9256Y72563D01*
Y88437D01*
X9452Y88633D01*
X10438D01*
X10608Y88655D01*
X10766Y88720D01*
X10902Y88825D01*
X11272Y89194D01*
X11826D01*
X11991Y89030D01*
X12224Y88895D01*
X12485Y88825D01*
X12755D01*
X13016Y88895D01*
X13249Y89030D01*
X13440Y89221D01*
X13575Y89454D01*
X13645Y89715D01*
Y89985D01*
X13575Y90246D01*
X13440Y90479D01*
X13249Y90670D01*
X13016Y90805D01*
X12755Y90875D01*
X12485D01*
X12224Y90805D01*
X11991Y90670D01*
X11826Y90506D01*
X10722D01*
X9989Y91239D01*
X9989Y91239D01*
X9989Y91239D01*
X9721Y91506D01*
X9699Y91589D01*
X9600Y91761D01*
X9461Y91900D01*
X9289Y91999D01*
X9099Y92050D01*
X8901D01*
X8711Y91999D01*
X8539Y91900D01*
X8400Y91761D01*
X8301Y91589D01*
X8279Y91506D01*
X7811Y91039D01*
X7811Y91039D01*
X7278Y90506D01*
X5794D01*
X5629Y90670D01*
X5396Y90805D01*
X5135Y90875D01*
X4865D01*
X4604Y90805D01*
X4371Y90670D01*
X4180Y90479D01*
X4045Y90246D01*
X3975Y89985D01*
Y89715D01*
X4045Y89454D01*
X4180Y89221D01*
X4371Y89030D01*
X4604Y88895D01*
X4865Y88825D01*
X5135D01*
X5396Y88895D01*
X5629Y89030D01*
X5794Y89194D01*
X7278D01*
X7648Y88825D01*
X7744Y88751D01*
X7744Y88750D01*
Y72250D01*
X7769Y72054D01*
X7845Y71872D01*
X7965Y71715D01*
X8715Y70965D01*
X8715Y70965D01*
X8872Y70845D01*
X9054Y70769D01*
X9250Y70744D01*
X12500D01*
X12696Y70769D01*
X12878Y70845D01*
X12939Y70892D01*
X13239Y70765D01*
Y61875D01*
Y50250D01*
X13282Y49924D01*
X13408Y49620D01*
X13608Y49358D01*
X17239Y45728D01*
Y44000D01*
X17282Y43674D01*
X17408Y43370D01*
X17608Y43108D01*
X21118Y39598D01*
X21380Y39398D01*
X21684Y39272D01*
X22010Y39229D01*
X23548D01*
X23696Y38929D01*
X23658Y38880D01*
X23532Y38576D01*
X23489Y38250D01*
X23532Y37924D01*
X23658Y37620D01*
X23858Y37358D01*
X24467Y36750D01*
X21608Y33892D01*
X21608Y33891D01*
X21478Y33761D01*
X16000D01*
X15674Y33718D01*
X15370Y33592D01*
X15108Y33392D01*
X15045Y33309D01*
X14745Y33411D01*
Y35819D01*
X16713Y37787D01*
X16874Y37996D01*
X16974Y38239D01*
X17009Y38500D01*
Y41500D01*
X16974Y41761D01*
X16874Y42004D01*
X16713Y42213D01*
X16504Y42374D01*
X16261Y42474D01*
X16000Y42509D01*
X15739Y42474D01*
X15496Y42374D01*
X15287Y42213D01*
X15127Y42004D01*
X15026Y41761D01*
X14991Y41500D01*
Y38918D01*
X14531Y38458D01*
X14199Y38539D01*
X14100Y38711D01*
X13961Y38850D01*
X13789Y38949D01*
X13599Y39000D01*
X13401D01*
X13211Y38949D01*
X13039Y38850D01*
X12900Y38711D01*
X12801Y38539D01*
X12750Y38349D01*
Y38151D01*
X12801Y37961D01*
X12900Y37789D01*
X13039Y37650D01*
X13211Y37551D01*
X13292Y37219D01*
X13023Y36950D01*
X12863Y36741D01*
X12762Y36498D01*
X12728Y36237D01*
Y27763D01*
X12762Y27502D01*
X12863Y27259D01*
X13023Y27050D01*
X20777Y19297D01*
Y13368D01*
X20400Y12991D01*
X20100Y13115D01*
Y13119D01*
X20009Y13340D01*
X19840Y13509D01*
X19619Y13600D01*
X19381D01*
X19160Y13509D01*
X18991Y13340D01*
X18988Y13331D01*
X16409D01*
X16282Y13306D01*
X16174Y13234D01*
X13167Y10227D01*
X13095Y10119D01*
X12871Y10026D01*
X12825Y10032D01*
Y8545D01*
Y7058D01*
X12871Y7064D01*
X13053Y7140D01*
X13210Y7260D01*
X13268Y7264D01*
X13766Y6766D01*
X13873Y6694D01*
X14000Y6669D01*
X17419D01*
Y6250D01*
X17444Y6123D01*
X17516Y6016D01*
X21016Y2516D01*
X21123Y2444D01*
X21250Y2419D01*
X22960D01*
X23070Y2228D01*
X23228Y2070D01*
X23422Y1958D01*
X23638Y1900D01*
X23862D01*
X24078Y1958D01*
X24272Y2070D01*
X24430Y2228D01*
X24542Y2422D01*
X24600Y2638D01*
Y2862D01*
X24542Y3078D01*
X24430Y3272D01*
X24272Y3430D01*
X24078Y3542D01*
X23862Y3600D01*
X23638D01*
X23422Y3542D01*
X23228Y3430D01*
X23070Y3272D01*
X22960Y3081D01*
X21387D01*
X18081Y6387D01*
Y6863D01*
X18509Y7291D01*
X18581Y7398D01*
X18596Y7472D01*
X18643Y7522D01*
X18715Y7568D01*
X18906Y7643D01*
X19011Y7600D01*
X19239D01*
X19451Y7688D01*
X19515Y7751D01*
X19621Y7645D01*
X19825Y7561D01*
Y8175D01*
X20125D01*
Y7561D01*
X20288Y7628D01*
X20393Y7618D01*
X20627Y7519D01*
X20670Y7417D01*
X20790Y7260D01*
X20947Y7140D01*
X21129Y7064D01*
X21175Y7058D01*
Y8545D01*
X21325D01*
Y8695D01*
X22081D01*
Y9276D01*
X22123Y9312D01*
X22369Y9413D01*
X23669Y8113D01*
Y5250D01*
X23694Y5123D01*
X23766Y5016D01*
X25707Y3074D01*
X25650Y2862D01*
Y2638D01*
X25708Y2422D01*
X25820Y2228D01*
X25978Y2070D01*
X26172Y1958D01*
X26388Y1900D01*
X26612D01*
X26828Y1958D01*
X27022Y2070D01*
X27180Y2228D01*
X27292Y2422D01*
X27350Y2638D01*
Y2862D01*
X27292Y3078D01*
X27180Y3272D01*
X27022Y3430D01*
X26828Y3542D01*
X26612Y3600D01*
X26388D01*
X26176Y3543D01*
X24331Y5387D01*
Y8250D01*
X24306Y8377D01*
X24234Y8484D01*
X22387Y10332D01*
X22387Y10699D01*
X22403Y10727D01*
X22997Y11320D01*
X23713Y12037D01*
X23874Y12246D01*
X23974Y12489D01*
X23999Y12680D01*
X24563Y13244D01*
X26376D01*
X26572Y13269D01*
X26651Y13302D01*
X26802Y13040D01*
X26608Y12892D01*
X26408Y12630D01*
X26282Y12326D01*
X26239Y12000D01*
Y9486D01*
X26158Y9380D01*
X26032Y9076D01*
X25989Y8750D01*
X26032Y8424D01*
X26158Y8120D01*
X26358Y7858D01*
X26620Y7658D01*
X26924Y7532D01*
X27250Y7489D01*
X27576Y7532D01*
X27810Y7629D01*
X28052Y7522D01*
X28110Y7475D01*
X28185Y7195D01*
X28330Y6945D01*
X28535Y6740D01*
X28785Y6595D01*
X29060Y6521D01*
Y7620D01*
X29360D01*
Y6521D01*
X29635Y6595D01*
X29885Y6740D01*
X30090Y6945D01*
X30235Y7195D01*
X30310Y7475D01*
Y7518D01*
X30610Y7665D01*
X30620Y7658D01*
X30924Y7532D01*
X31250Y7489D01*
X32500D01*
X32826Y7532D01*
X33130Y7658D01*
X33392Y7858D01*
X34142Y8608D01*
X34342Y8870D01*
X34468Y9174D01*
X34511Y9500D01*
X34468Y9826D01*
X34342Y10130D01*
X34142Y10392D01*
X33142Y11392D01*
X32880Y11592D01*
X32576Y11718D01*
X32250Y11761D01*
X31011D01*
Y12443D01*
X33892Y15324D01*
X34092Y15585D01*
X34218Y15889D01*
X34261Y16215D01*
X34261Y16215D01*
Y22500D01*
X34259Y22514D01*
X34457Y22739D01*
X40500D01*
X40826Y22782D01*
X41130Y22908D01*
X41392Y23108D01*
X42022Y23739D01*
X84228D01*
X88858Y19108D01*
X89120Y18908D01*
X89424Y18782D01*
X89750Y18739D01*
X92478D01*
X94608Y16608D01*
X94608Y16608D01*
X94870Y16408D01*
X95174Y16282D01*
X95500Y16239D01*
X95500Y16239D01*
X101228D01*
X105608Y11858D01*
X105870Y11658D01*
X106174Y11532D01*
X106500Y11489D01*
X106744D01*
X106789Y11189D01*
X106647Y11145D01*
X106104Y10876D01*
X105609Y10526D01*
X105176Y10103D01*
X104813Y9617D01*
X104532Y9081D01*
X104337Y8507D01*
X104043Y7343D01*
X107787Y6395D01*
X111531Y5448D01*
X111825Y6612D01*
X111927Y7209D01*
X111935Y7815D01*
X111847Y8415D01*
X111667Y8993D01*
X111399Y9537D01*
X111048Y10031D01*
X110625Y10465D01*
X110139Y10827D01*
X109603Y11109D01*
X109365Y11189D01*
X109415Y11489D01*
X110478D01*
X114608Y7358D01*
X114870Y7158D01*
X115174Y7032D01*
X115500Y6989D01*
X117707D01*
X117906Y6791D01*
Y6504D01*
X118236D01*
X118310Y6447D01*
X118564Y6342D01*
X118589Y6181D01*
X118563Y6031D01*
X118522Y6020D01*
X118274Y5877D01*
X118072Y5675D01*
X117929Y5428D01*
X117857Y5159D01*
X118941D01*
X120024D01*
X119952Y5428D01*
X119809Y5675D01*
X119607Y5877D01*
X119359Y6020D01*
X119319Y6031D01*
X119292Y6181D01*
X119317Y6342D01*
X119571Y6447D01*
X119645Y6504D01*
X119976D01*
Y6834D01*
X120032Y6908D01*
X120144Y7177D01*
X120244Y7201D01*
X120455Y7173D01*
X120469Y7120D01*
X120612Y6873D01*
X120814Y6671D01*
X121062Y6528D01*
X121331Y6456D01*
Y7539D01*
Y8622D01*
X121062Y8550D01*
X120814Y8407D01*
X120612Y8205D01*
X120501Y8013D01*
X120268Y8037D01*
X120201Y8063D01*
Y10384D01*
X120218Y10424D01*
X120261Y10750D01*
X120218Y11076D01*
X120092Y11380D01*
X119892Y11642D01*
X119630Y11842D01*
X119326Y11968D01*
X119000Y12011D01*
X118674Y11968D01*
X118370Y11842D01*
X118264Y11761D01*
X117000D01*
X116674Y11718D01*
X116370Y11592D01*
X116108Y11392D01*
X115908Y11130D01*
X115782Y10826D01*
X115739Y10500D01*
Y10272D01*
X115500Y10033D01*
X111892Y13642D01*
X111630Y13842D01*
X111326Y13968D01*
X111000Y14011D01*
X107022D01*
X102642Y18392D01*
X102380Y18592D01*
X102076Y18718D01*
X101750Y18761D01*
X96022D01*
X93892Y20892D01*
X93630Y21092D01*
X93326Y21218D01*
X93000Y21261D01*
X90272D01*
X85642Y25892D01*
X85380Y26092D01*
X85076Y26218D01*
X84750Y26261D01*
X67261D01*
Y26708D01*
X67475Y26915D01*
X67561Y26915D01*
X69525D01*
Y28965D01*
X67475D01*
Y28389D01*
X67175Y28330D01*
X67092Y28530D01*
X66892Y28792D01*
X66892Y28792D01*
X66852Y28832D01*
X66590Y29032D01*
X66286Y29158D01*
X65960Y29201D01*
X65634Y29158D01*
X65330Y29032D01*
X65068Y28832D01*
X64868Y28570D01*
X64751Y28287D01*
X64721Y28277D01*
X64423Y28349D01*
X64422Y28355D01*
X64280Y28600D01*
X64080Y28800D01*
X63835Y28942D01*
X63570Y29013D01*
Y27940D01*
Y26867D01*
X63835Y26938D01*
X64080Y27080D01*
X64280Y27280D01*
X64422Y27525D01*
X64439Y27590D01*
X64739Y27551D01*
Y26694D01*
X64306Y26261D01*
X41500D01*
X41174Y26218D01*
X40870Y26092D01*
X40608Y25892D01*
X39978Y25261D01*
X21272D01*
X18511Y28022D01*
Y30239D01*
X22500D01*
X22826Y30282D01*
X23130Y30408D01*
X23392Y30608D01*
X23592Y30870D01*
X23718Y31174D01*
X23761Y31500D01*
Y32478D01*
X27022Y35739D01*
X27738D01*
X27769Y35737D01*
X28021Y35470D01*
Y35403D01*
X28102Y35101D01*
X28259Y34830D01*
X28480Y34609D01*
X28751Y34452D01*
X29053Y34371D01*
X29060D01*
Y35560D01*
X29360D01*
Y34371D01*
X29367D01*
X29669Y34452D01*
X29940Y34609D01*
X30161Y34830D01*
X30261Y35002D01*
X30561Y34922D01*
Y34371D01*
X31600D01*
Y35560D01*
X31750D01*
Y35710D01*
X32939D01*
Y36749D01*
X32513D01*
X32470Y36833D01*
X32434Y37049D01*
X32642Y37208D01*
X32842Y37470D01*
X32968Y37774D01*
X33011Y38100D01*
X32968Y38426D01*
X32842Y38730D01*
X32678Y38944D01*
X32701Y39121D01*
X32775Y39282D01*
X32815Y39293D01*
X32935Y39282D01*
X34608Y37608D01*
X34870Y37408D01*
X35174Y37282D01*
X35500Y37239D01*
X36353D01*
X37483Y36108D01*
X37739Y35912D01*
Y33500D01*
X37739Y33500D01*
X37782Y33174D01*
X37908Y32870D01*
X38108Y32608D01*
X38370Y32408D01*
X38674Y32282D01*
X39000Y32239D01*
X48750D01*
X49076Y32282D01*
X49380Y32408D01*
X49642Y32608D01*
X53022Y35989D01*
X58500D01*
X58826Y36032D01*
X59130Y36158D01*
X59392Y36358D01*
X59669Y36636D01*
X68613D01*
X68741Y36340D01*
X68650Y36119D01*
Y35881D01*
X68654Y35872D01*
X68266Y35484D01*
X68194Y35377D01*
X68169Y35250D01*
Y33000D01*
X68194Y32873D01*
X68266Y32766D01*
X71016Y30016D01*
X71123Y29944D01*
X71250Y29919D01*
X90500D01*
X90627Y29944D01*
X90734Y30016D01*
X92887Y32169D01*
X106000D01*
X106127Y32194D01*
X106234Y32266D01*
X120734Y46766D01*
X120806Y46873D01*
X120831Y47000D01*
Y53238D01*
X120840Y53241D01*
X121009Y53410D01*
X121100Y53631D01*
Y53869D01*
X121009Y54090D01*
X120840Y54259D01*
X120619Y54350D01*
X120381D01*
X120160Y54259D01*
X119991Y54090D01*
X119900Y53869D01*
Y53631D01*
X119991Y53410D01*
X120160Y53241D01*
X120169Y53238D01*
Y47137D01*
X105863Y32831D01*
X104692D01*
X104577Y33109D01*
X117984Y46516D01*
X118056Y46623D01*
X118081Y46750D01*
Y53238D01*
X118090Y53241D01*
X118259Y53410D01*
X118350Y53631D01*
Y53869D01*
X118259Y54090D01*
X118090Y54259D01*
X117869Y54350D01*
X117631D01*
X117410Y54259D01*
X117241Y54090D01*
X117150Y53869D01*
Y53631D01*
X117241Y53410D01*
X117410Y53241D01*
X117419Y53238D01*
Y46887D01*
X103863Y33331D01*
X98535D01*
X98436Y33539D01*
X98426Y33631D01*
X100110Y35315D01*
X100110Y35315D01*
X100310Y35576D01*
X100436Y35880D01*
X100479Y36206D01*
Y43696D01*
X100732Y43949D01*
X101965Y42715D01*
X102122Y42595D01*
X102304Y42519D01*
X102500Y42494D01*
X102696Y42519D01*
X102878Y42595D01*
X103035Y42715D01*
X103155Y42872D01*
X103231Y43054D01*
X103256Y43250D01*
X103231Y43446D01*
X103155Y43628D01*
X103035Y43785D01*
X101502Y45318D01*
X101468Y45576D01*
X101342Y45880D01*
X101142Y46142D01*
X100880Y46342D01*
X100576Y46468D01*
X100250Y46511D01*
X100006Y46765D01*
Y53887D01*
X100685Y54565D01*
X100715Y54604D01*
X100750Y54639D01*
X100775Y54682D01*
X100805Y54722D01*
X100824Y54768D01*
X100849Y54811D01*
X100862Y54858D01*
X100881Y54904D01*
X100887Y54953D01*
X100900Y55001D01*
Y55051D01*
X100906Y55100D01*
X100900Y55149D01*
Y55199D01*
X100887Y55247D01*
X100881Y55296D01*
X100862Y55342D01*
X100849Y55389D01*
X100824Y55432D01*
X100805Y55478D01*
X100775Y55518D01*
X100750Y55561D01*
X100715Y55596D01*
X100685Y55635D01*
X100646Y55665D01*
X100611Y55700D01*
X100568Y55725D01*
X100528Y55755D01*
X100482Y55774D01*
X100439Y55799D01*
X100392Y55812D01*
X100346Y55831D01*
X100347Y56128D01*
X100348Y56134D01*
X101147D01*
X101669Y55613D01*
Y52481D01*
X101694Y52355D01*
X101766Y52247D01*
X102266Y51747D01*
X102373Y51675D01*
X102500Y51650D01*
X113731D01*
X113858Y51675D01*
X113966Y51747D01*
X121887Y59669D01*
X171321D01*
X171448Y59694D01*
X171556Y59766D01*
X191734Y79944D01*
X191806Y80052D01*
X191831Y80179D01*
Y95500D01*
X191806Y95627D01*
X191734Y95734D01*
X186734Y100734D01*
X186627Y100806D01*
X186500Y100831D01*
X181000D01*
X180873Y100806D01*
X180766Y100734D01*
X178253Y98221D01*
X163747D01*
X163734Y98234D01*
X163627Y98306D01*
X163500Y98331D01*
X163373Y98306D01*
X163266Y98234D01*
X163257Y98221D01*
X161645D01*
Y98965D01*
X159495D01*
Y96814D01*
X161645D01*
Y97559D01*
X178390D01*
X178517Y97584D01*
X178624Y97656D01*
X181137Y100169D01*
X186363D01*
X191169Y95363D01*
Y80316D01*
X171184Y60331D01*
X121750D01*
X121623Y60306D01*
X121516Y60234D01*
X113594Y52313D01*
X102637D01*
X102331Y52619D01*
Y55750D01*
X102306Y55877D01*
X102234Y55984D01*
X101519Y56700D01*
X101411Y56771D01*
X101285Y56797D01*
X95853D01*
X93995Y58654D01*
X93887Y58726D01*
X93761Y58751D01*
X83640D01*
X83611Y58860D01*
X83461Y59119D01*
X83249Y59331D01*
X82990Y59481D01*
X82791Y59535D01*
Y59845D01*
X82990Y59899D01*
X83087Y59955D01*
X83776Y59266D01*
X83883Y59194D01*
X84010Y59169D01*
X103300D01*
X103427Y59194D01*
X103534Y59266D01*
X106437Y62169D01*
X171624D01*
X171751Y62194D01*
X171859Y62266D01*
X187234Y77641D01*
X187306Y77749D01*
X187331Y77876D01*
Y96500D01*
X187306Y96627D01*
X187234Y96734D01*
X185844Y98124D01*
X185737Y98196D01*
X185610Y98221D01*
X184505D01*
Y98965D01*
X182355D01*
Y96814D01*
X184505D01*
Y97559D01*
X185473D01*
X186669Y96363D01*
Y94692D01*
X186391Y94577D01*
X185384Y95584D01*
X185277Y95656D01*
X185150Y95681D01*
X184455D01*
X184432Y95765D01*
X184291Y96010D01*
X184090Y96211D01*
X183845Y96352D01*
X183572Y96425D01*
X183288D01*
X183015Y96352D01*
X182770Y96211D01*
X182569Y96010D01*
X182428Y95765D01*
X182355Y95492D01*
Y95208D01*
X182428Y94935D01*
X182569Y94690D01*
X182770Y94489D01*
X183015Y94348D01*
X183288Y94274D01*
X183572D01*
X183845Y94348D01*
X184090Y94489D01*
X184291Y94690D01*
X184432Y94935D01*
X184455Y95019D01*
X185013D01*
X186169Y93863D01*
Y83564D01*
X186118Y83512D01*
X185869Y83403D01*
X185789Y83449D01*
X185599Y83500D01*
X185401D01*
X185211Y83449D01*
X185039Y83350D01*
X184900Y83211D01*
X184801Y83039D01*
X184775Y82943D01*
X184465D01*
X184432Y83065D01*
X184291Y83310D01*
X184090Y83511D01*
X183845Y83652D01*
X183572Y83726D01*
X183288D01*
X183015Y83652D01*
X182770Y83511D01*
X182569Y83310D01*
X182428Y83065D01*
X182355Y82792D01*
Y82508D01*
X182428Y82235D01*
X182569Y81990D01*
X182770Y81789D01*
X183015Y81648D01*
X183288Y81575D01*
X183572D01*
X183845Y81648D01*
X184090Y81789D01*
X184291Y81990D01*
X184432Y82235D01*
X184492Y82457D01*
X184644Y82496D01*
X184795Y82483D01*
X184801Y82461D01*
X184900Y82289D01*
X185039Y82150D01*
X185211Y82051D01*
X185401Y82000D01*
X185599D01*
X185789Y82051D01*
X185869Y82097D01*
X186118Y81988D01*
X186169Y81936D01*
Y79137D01*
X171613Y64581D01*
X106747D01*
X106621Y64556D01*
X106513Y64484D01*
X102954Y60925D01*
X102720Y60926D01*
X102658Y61013D01*
X102572Y61225D01*
X102600Y61293D01*
Y61532D01*
X102509Y61752D01*
X102340Y61921D01*
X102331Y61924D01*
Y67900D01*
X102306Y68027D01*
X102234Y68134D01*
X94296Y76072D01*
X94300Y76081D01*
Y76319D01*
X94209Y76540D01*
X94040Y76709D01*
X93819Y76800D01*
X93581D01*
X93360Y76709D01*
X93191Y76540D01*
X93100Y76319D01*
Y76081D01*
X93191Y75860D01*
X93360Y75691D01*
X93581Y75600D01*
X93819D01*
X93828Y75604D01*
X101669Y67763D01*
Y61924D01*
X101660Y61921D01*
X101491Y61752D01*
X101400Y61532D01*
Y61293D01*
X101467Y61131D01*
X101381Y60927D01*
X101308Y60831D01*
X99604D01*
X99480Y61131D01*
X99509Y61160D01*
X99600Y61381D01*
Y61619D01*
X99509Y61840D01*
X99340Y62009D01*
X99331Y62012D01*
Y66175D01*
X99306Y66302D01*
X99234Y66410D01*
X93074Y72570D01*
X92967Y72642D01*
X92840Y72667D01*
X83592D01*
X83461Y72961D01*
X83611Y73220D01*
X83640Y73329D01*
X93252D01*
X100169Y66412D01*
Y63012D01*
X100160Y63009D01*
X99991Y62840D01*
X99900Y62619D01*
Y62381D01*
X99991Y62160D01*
X100160Y61991D01*
X100381Y61900D01*
X100619D01*
X100840Y61991D01*
X101009Y62160D01*
X101100Y62381D01*
Y62619D01*
X101009Y62840D01*
X100840Y63009D01*
X100831Y63012D01*
Y66549D01*
X100806Y66676D01*
X100734Y66783D01*
X93623Y73894D01*
X93516Y73966D01*
X93389Y73991D01*
X83640D01*
X83611Y74100D01*
X83488Y74314D01*
X83541Y74479D01*
X83631Y74614D01*
X86446D01*
X86572Y74639D01*
X86680Y74711D01*
X92562Y80594D01*
X93308D01*
X93410Y80491D01*
X93631Y80400D01*
X93869D01*
X94090Y80491D01*
X94259Y80660D01*
X94350Y80881D01*
Y81119D01*
X94259Y81340D01*
X94090Y81509D01*
X93869Y81600D01*
X93631D01*
X93410Y81509D01*
X93241Y81340D01*
X93207Y81256D01*
X92425D01*
X92298Y81231D01*
X92191Y81159D01*
X86308Y75277D01*
X83662D01*
X83596Y75351D01*
X83505Y75577D01*
X83611Y75760D01*
X83689Y76050D01*
Y76350D01*
X83611Y76640D01*
X83479Y76869D01*
X83515Y76992D01*
X83616Y77169D01*
X87356D01*
X87483Y77194D01*
X87591Y77266D01*
X92243Y81919D01*
X95304D01*
X96831Y80391D01*
X96939Y80319D01*
X97065Y80294D01*
X99520D01*
X99647Y80319D01*
X99685Y80345D01*
X99934Y80161D01*
X99900Y80079D01*
Y79841D01*
X99991Y79620D01*
X100020Y79591D01*
X99896Y79291D01*
X98262D01*
X98259Y79300D01*
X98090Y79469D01*
X97869Y79560D01*
X97631D01*
X97410Y79469D01*
X97241Y79300D01*
X97150Y79079D01*
Y78841D01*
X97241Y78620D01*
X97410Y78451D01*
X97631Y78360D01*
X97869D01*
X98090Y78451D01*
X98259Y78620D01*
X98262Y78629D01*
X105466D01*
X118579Y65516D01*
X118686Y65444D01*
X118813Y65419D01*
X123988D01*
X123991Y65410D01*
X124160Y65241D01*
X124381Y65150D01*
X124619D01*
X124840Y65241D01*
X125009Y65410D01*
X125100Y65631D01*
Y65869D01*
X125009Y66090D01*
X124980Y66119D01*
X125104Y66419D01*
X125488D01*
X125491Y66410D01*
X125660Y66241D01*
X125881Y66150D01*
X126119D01*
X126340Y66241D01*
X126509Y66410D01*
X126600Y66631D01*
Y66869D01*
X126509Y67090D01*
X126340Y67259D01*
X126119Y67350D01*
X125881D01*
X125660Y67259D01*
X125491Y67090D01*
X125488Y67081D01*
X120387D01*
X107565Y79903D01*
X107690Y80203D01*
X108284D01*
X113146Y75341D01*
X113254Y75269D01*
X113381Y75244D01*
X128050D01*
X133028Y70266D01*
X133136Y70194D01*
X133263Y70169D01*
X166500D01*
X166627Y70194D01*
X166734Y70266D01*
X181327Y84859D01*
X182405D01*
X182428Y84775D01*
X182569Y84530D01*
X182770Y84329D01*
X183015Y84188D01*
X183288Y84115D01*
X183572D01*
X183845Y84188D01*
X184090Y84329D01*
X184291Y84530D01*
X184432Y84775D01*
X184505Y85048D01*
Y85332D01*
X184432Y85605D01*
X184291Y85850D01*
X184090Y86051D01*
X183845Y86192D01*
X183572Y86266D01*
X183288D01*
X183015Y86192D01*
X182770Y86051D01*
X182569Y85850D01*
X182428Y85605D01*
X182405Y85521D01*
X181190D01*
X181063Y85496D01*
X180956Y85424D01*
X166363Y70831D01*
X133400D01*
X130415Y73816D01*
X130530Y74094D01*
X167925D01*
X168052Y74119D01*
X168159Y74191D01*
X181367Y87399D01*
X182405D01*
X182428Y87315D01*
X182569Y87070D01*
X182770Y86869D01*
X183015Y86728D01*
X183288Y86655D01*
X183572D01*
X183845Y86728D01*
X184090Y86869D01*
X184291Y87070D01*
X184432Y87315D01*
X184505Y87588D01*
Y87872D01*
X184432Y88145D01*
X184291Y88390D01*
X184090Y88591D01*
X183845Y88732D01*
X183572Y88805D01*
X183288D01*
X183015Y88732D01*
X182770Y88591D01*
X182569Y88390D01*
X182428Y88145D01*
X182405Y88061D01*
X181230D01*
X181103Y88036D01*
X180996Y87964D01*
X167788Y74756D01*
X147249D01*
X147234Y74783D01*
X147172Y75056D01*
X147370Y75208D01*
X148640Y76479D01*
X152361D01*
X152687Y76522D01*
X152991Y76647D01*
X153252Y76848D01*
X156892Y80487D01*
X157092Y80748D01*
X157218Y81052D01*
X157261Y81379D01*
X157261Y81379D01*
Y82744D01*
X158187D01*
X158691Y82240D01*
X158691Y82240D01*
X158847Y82119D01*
X159030Y82044D01*
X159225Y82018D01*
X159693D01*
X159709Y81990D01*
X159910Y81789D01*
X160155Y81648D01*
X160428Y81575D01*
X160712D01*
X160985Y81648D01*
X161230Y81789D01*
X161431Y81990D01*
X161572Y82235D01*
X161645Y82508D01*
Y82792D01*
X161572Y83065D01*
X161431Y83310D01*
X161230Y83511D01*
X160985Y83652D01*
X160712Y83726D01*
X160428D01*
X160155Y83652D01*
X159945Y83531D01*
X159539D01*
X159035Y84035D01*
X158996Y84065D01*
X158961Y84100D01*
X158918Y84125D01*
X158878Y84155D01*
X158832Y84174D01*
X158789Y84199D01*
X158742Y84212D01*
X158696Y84231D01*
X158647Y84237D01*
X158599Y84250D01*
X158549D01*
X158500Y84256D01*
X156995D01*
X156892Y84392D01*
X156630Y84592D01*
X156326Y84718D01*
X156000Y84761D01*
X155674Y84718D01*
X155370Y84592D01*
X155108Y84392D01*
X154908Y84130D01*
X154782Y83826D01*
X154739Y83500D01*
Y81901D01*
X151838Y79000D01*
X148118D01*
X148118Y79000D01*
X147792Y78957D01*
X147488Y78831D01*
X147227Y78631D01*
X147227Y78631D01*
X145956Y77361D01*
X141544D01*
X135927Y82977D01*
X135666Y83177D01*
X135362Y83303D01*
X135036Y83346D01*
X121950D01*
X121935Y83369D01*
X122095Y83669D01*
X132000D01*
X132127Y83694D01*
X132234Y83766D01*
X137137Y88669D01*
X142423D01*
X142532Y88462D01*
X142557Y88369D01*
X142428Y88145D01*
X142355Y87872D01*
Y87588D01*
X142428Y87315D01*
X142569Y87070D01*
X142770Y86869D01*
X143015Y86728D01*
X143288Y86655D01*
X143572D01*
X143845Y86728D01*
X144090Y86869D01*
X144291Y87070D01*
X144432Y87315D01*
X144505Y87588D01*
Y87872D01*
X144432Y88145D01*
X144303Y88369D01*
X144328Y88462D01*
X144437Y88669D01*
X146738D01*
X146741Y88660D01*
X146910Y88491D01*
X147131Y88400D01*
X147369D01*
X147590Y88491D01*
X147759Y88660D01*
X147850Y88881D01*
Y89119D01*
X147759Y89340D01*
X147590Y89509D01*
X147369Y89600D01*
X147131D01*
X146910Y89509D01*
X146741Y89340D01*
X146738Y89331D01*
X144437D01*
X144328Y89538D01*
X144303Y89631D01*
X144432Y89855D01*
X144488Y90063D01*
X148088D01*
X148160Y89991D01*
X148381Y89900D01*
X148619D01*
X148840Y89991D01*
X149009Y90160D01*
X149100Y90381D01*
Y90619D01*
X149009Y90840D01*
X148840Y91009D01*
X148619Y91100D01*
X148381D01*
X148160Y91009D01*
X147991Y90840D01*
X147944Y90726D01*
X144409D01*
X144291Y90930D01*
X144090Y91131D01*
X143845Y91272D01*
X143572Y91345D01*
X143288D01*
X143015Y91272D01*
X142770Y91131D01*
X142569Y90930D01*
X142428Y90685D01*
X142355Y90412D01*
Y90128D01*
X142428Y89855D01*
X142557Y89631D01*
X142532Y89538D01*
X142423Y89331D01*
X137000D01*
X136873Y89306D01*
X136766Y89234D01*
X131863Y84331D01*
X121628D01*
X121506Y84595D01*
X121652Y84859D01*
X124190D01*
X124317Y84884D01*
X124424Y84956D01*
X139508Y100039D01*
X143688D01*
X144462Y99266D01*
X144338Y98965D01*
X144281Y98965D01*
X144281Y98965D01*
X144275Y98965D01*
X142355D01*
Y96814D01*
X144505D01*
X144505Y98735D01*
Y98741D01*
D01*
X144505Y98798D01*
X144603Y98838D01*
X144805Y98922D01*
X158772Y84956D01*
X158880Y84884D01*
X159006Y84859D01*
X159545D01*
X159568Y84775D01*
X159709Y84530D01*
X159910Y84329D01*
X160155Y84188D01*
X160428Y84115D01*
X160712D01*
X160985Y84188D01*
X161230Y84329D01*
X161431Y84530D01*
X161572Y84775D01*
X161645Y85048D01*
Y85332D01*
X161572Y85605D01*
X161431Y85850D01*
X161230Y86051D01*
X160985Y86192D01*
X160712Y86266D01*
X160428D01*
X160155Y86192D01*
X159910Y86051D01*
X159709Y85850D01*
X159568Y85605D01*
X159545Y85521D01*
X159144D01*
X144060Y100605D01*
X143953Y100677D01*
X143826Y100702D01*
X139371D01*
X139244Y100677D01*
X139136Y100605D01*
X124053Y85521D01*
X121595D01*
X121572Y85605D01*
X121431Y85850D01*
X121230Y86051D01*
X120985Y86192D01*
X120712Y86266D01*
X120428D01*
X120155Y86192D01*
X119910Y86051D01*
X119709Y85850D01*
X119568Y85605D01*
X119494Y85332D01*
Y85048D01*
X119549Y84843D01*
X119300Y84669D01*
X117341Y86628D01*
X117234Y86699D01*
X117107Y86725D01*
X109982D01*
X109952Y86749D01*
X109806Y87025D01*
X109850Y87131D01*
Y87369D01*
X109759Y87590D01*
X109590Y87759D01*
X109369Y87850D01*
X109131D01*
X108910Y87759D01*
X108771Y87620D01*
X91648D01*
X91521Y87595D01*
X91413Y87523D01*
X84222Y80331D01*
X83636D01*
X83551Y80453D01*
X83491Y80631D01*
X83611Y80840D01*
X83689Y81130D01*
Y81430D01*
X83611Y81720D01*
X83461Y81979D01*
X83249Y82191D01*
X82990Y82341D01*
X82791Y82395D01*
Y82705D01*
X82990Y82759D01*
X83249Y82909D01*
X83461Y83121D01*
X83611Y83380D01*
X83689Y83670D01*
Y83970D01*
X83611Y84260D01*
X83493Y84465D01*
X83557Y84651D01*
X83640Y84765D01*
X86346D01*
X86473Y84790D01*
X86581Y84862D01*
X87984Y86266D01*
X87984Y86266D01*
X90883Y89164D01*
X95047D01*
X95254Y88864D01*
X95250Y88849D01*
Y88651D01*
X95301Y88461D01*
X95400Y88289D01*
X95539Y88150D01*
X95711Y88051D01*
X95901Y88000D01*
X96099D01*
X96289Y88051D01*
X96461Y88150D01*
X96600Y88289D01*
X96699Y88461D01*
X96750Y88651D01*
Y88849D01*
X96954Y89048D01*
X97215Y89066D01*
X97766Y88516D01*
X97873Y88444D01*
X98000Y88419D01*
X115500D01*
X115627Y88444D01*
X115734Y88516D01*
X116734Y89516D01*
X116806Y89623D01*
X116831Y89750D01*
Y97916D01*
X122387Y103472D01*
X146309D01*
X157404Y92378D01*
X157400Y92369D01*
Y92131D01*
X157491Y91910D01*
X157660Y91741D01*
X157881Y91650D01*
X158119D01*
X158340Y91741D01*
X158509Y91910D01*
X158600Y92131D01*
Y92369D01*
X158509Y92590D01*
X158340Y92759D01*
X158119Y92850D01*
X157881D01*
X157872Y92846D01*
X146681Y104038D01*
X146574Y104109D01*
X146447Y104135D01*
X122250D01*
X122123Y104109D01*
X122016Y104038D01*
X116266Y98288D01*
X116194Y98180D01*
X116169Y98053D01*
Y89887D01*
X115363Y89081D01*
X113974D01*
X113850Y89381D01*
X114325Y89856D01*
X114397Y89964D01*
X114422Y90090D01*
Y99668D01*
X119241Y104487D01*
X147449D01*
X159360Y92576D01*
X159468Y92504D01*
X159543Y92489D01*
X159568Y92395D01*
X159709Y92150D01*
X159910Y91949D01*
X160155Y91808D01*
X160428Y91734D01*
X160712D01*
X160985Y91808D01*
X161230Y91949D01*
X161431Y92150D01*
X161572Y92395D01*
X161645Y92668D01*
Y92952D01*
X161572Y93225D01*
X161431Y93470D01*
X161230Y93671D01*
X160985Y93812D01*
X160712Y93885D01*
X160428D01*
X160155Y93812D01*
X159910Y93671D01*
X159709Y93470D01*
X159439Y93435D01*
X147820Y105053D01*
X147713Y105125D01*
X147586Y105150D01*
X119103D01*
X118972Y105430D01*
X118970Y105438D01*
X119181Y105669D01*
X148084D01*
X158636Y95116D01*
X158744Y95044D01*
X158871Y95019D01*
X159545D01*
X159568Y94935D01*
X159709Y94690D01*
X159910Y94489D01*
X160155Y94348D01*
X160428Y94274D01*
X160712D01*
X160985Y94348D01*
X161230Y94489D01*
X161431Y94690D01*
X161572Y94935D01*
X161645Y95208D01*
Y95492D01*
X161572Y95765D01*
X161431Y96010D01*
X161230Y96211D01*
X160985Y96352D01*
X160712Y96425D01*
X160428D01*
X160155Y96352D01*
X159910Y96211D01*
X159709Y96010D01*
X159568Y95765D01*
X159545Y95681D01*
X159008D01*
X148455Y106234D01*
X148348Y106306D01*
X148327Y106310D01*
X148221Y106331D01*
D02*
G37*
G36*
X143572Y96425D02*
X143288D01*
X143015Y96352D01*
X142770Y96211D01*
X142569Y96010D01*
X142428Y95765D01*
X142355Y95492D01*
Y95208D01*
X142428Y94935D01*
X142569Y94690D01*
X142770Y94489D01*
X143015Y94348D01*
X143288Y94274D01*
X143572D01*
X143845Y94348D01*
X144090Y94489D01*
X144291Y94690D01*
X144432Y94935D01*
X144505Y95208D01*
Y95492D01*
X144432Y95765D01*
X144291Y96010D01*
X144090Y96211D01*
X143845Y96352D01*
X143572Y96425D01*
D02*
G37*
G36*
X120712D02*
X120428D01*
X120155Y96352D01*
X119910Y96211D01*
X119709Y96010D01*
X119568Y95765D01*
X119494Y95492D01*
Y95208D01*
X119568Y94935D01*
X119709Y94690D01*
X119910Y94489D01*
X120155Y94348D01*
X120428Y94274D01*
X120712D01*
X120985Y94348D01*
X121230Y94489D01*
X121431Y94690D01*
X121572Y94935D01*
X121646Y95208D01*
Y95492D01*
X121572Y95765D01*
X121431Y96010D01*
X121230Y96211D01*
X120985Y96352D01*
X120712Y96425D01*
D02*
G37*
G36*
X143572Y93885D02*
X143288D01*
X143015Y93812D01*
X142770Y93671D01*
X142569Y93470D01*
X142428Y93225D01*
X142355Y92952D01*
Y92668D01*
X142428Y92395D01*
X142569Y92150D01*
X142770Y91949D01*
X143015Y91808D01*
X143288Y91734D01*
X143572D01*
X143845Y91808D01*
X144090Y91949D01*
X144291Y92150D01*
X144432Y92395D01*
X144455Y92479D01*
X148161D01*
X148181Y92483D01*
X148381Y92400D01*
X148619D01*
X148840Y92491D01*
X149009Y92660D01*
X149100Y92881D01*
Y93119D01*
X149009Y93340D01*
X148840Y93509D01*
X148619Y93600D01*
X148381D01*
X148160Y93509D01*
X147991Y93340D01*
X147909Y93141D01*
X144455D01*
X144432Y93225D01*
X144291Y93470D01*
X144090Y93671D01*
X143845Y93812D01*
X143572Y93885D01*
D02*
G37*
G36*
X183572Y93885D02*
X183288D01*
X183015Y93812D01*
X182770Y93671D01*
X182569Y93470D01*
X182428Y93225D01*
X182355Y92952D01*
Y92668D01*
X182428Y92395D01*
X182569Y92150D01*
X182770Y91949D01*
X183015Y91808D01*
X183288Y91734D01*
X183572D01*
X183845Y91808D01*
X184090Y91949D01*
X184291Y92150D01*
X184432Y92395D01*
X184505Y92668D01*
Y92952D01*
X184432Y93225D01*
X184291Y93470D01*
X184090Y93671D01*
X183845Y93812D01*
X183572Y93885D01*
D02*
G37*
G36*
X120712Y93885D02*
X120428D01*
X120155Y93812D01*
X119910Y93671D01*
X119709Y93470D01*
X119568Y93225D01*
X119494Y92952D01*
Y92668D01*
X119568Y92395D01*
X119709Y92150D01*
X119910Y91949D01*
X120155Y91808D01*
X120428Y91734D01*
X120712D01*
X120985Y91808D01*
X121230Y91949D01*
X121431Y92150D01*
X121572Y92395D01*
X121646Y92668D01*
Y92952D01*
X121572Y93225D01*
X121431Y93470D01*
X121230Y93671D01*
X120985Y93812D01*
X120712Y93885D01*
D02*
G37*
G36*
X101840Y92573D02*
Y91650D01*
X102763D01*
X102692Y91915D01*
X102550Y92160D01*
X102350Y92360D01*
X102105Y92502D01*
X101840Y92573D01*
D02*
G37*
G36*
X183572Y91345D02*
X183288D01*
X183015Y91272D01*
X182770Y91131D01*
X182569Y90930D01*
X182428Y90685D01*
X182355Y90412D01*
Y90128D01*
X182428Y89855D01*
X182569Y89610D01*
X182770Y89409D01*
X183015Y89268D01*
X183288Y89195D01*
X183572D01*
X183845Y89268D01*
X184090Y89409D01*
X184291Y89610D01*
X184432Y89855D01*
X184505Y90128D01*
Y90412D01*
X184432Y90685D01*
X184291Y90930D01*
X184090Y91131D01*
X183845Y91272D01*
X183572Y91345D01*
D02*
G37*
G36*
X145250Y103081D02*
X136750D01*
X136623Y103056D01*
X136516Y102984D01*
X124133Y90601D01*
X121595D01*
X121572Y90685D01*
X121431Y90930D01*
X121230Y91131D01*
X120985Y91272D01*
X120712Y91345D01*
X120428D01*
X120155Y91272D01*
X119910Y91131D01*
X119709Y90930D01*
X119568Y90685D01*
X119494Y90412D01*
Y90128D01*
X119568Y89855D01*
X119709Y89610D01*
X119910Y89409D01*
X120155Y89268D01*
X120428Y89195D01*
X120712D01*
X120985Y89268D01*
X121230Y89409D01*
X121431Y89610D01*
X121572Y89855D01*
X121595Y89939D01*
X124270D01*
X124397Y89964D01*
X124504Y90036D01*
X136887Y102419D01*
X145113D01*
X157496Y90036D01*
X157603Y89964D01*
X157730Y89939D01*
X159545D01*
X159568Y89855D01*
X159709Y89610D01*
X159910Y89409D01*
X160155Y89268D01*
X160428Y89195D01*
X160712D01*
X160985Y89268D01*
X161230Y89409D01*
X161431Y89610D01*
X161572Y89855D01*
X161645Y90128D01*
Y90412D01*
X161572Y90685D01*
X161431Y90930D01*
X161230Y91131D01*
X160985Y91272D01*
X160712Y91345D01*
X160428D01*
X160155Y91272D01*
X159910Y91131D01*
X159709Y90930D01*
X159568Y90685D01*
X159545Y90601D01*
X157867D01*
X145484Y102984D01*
X145377Y103056D01*
X145356Y103060D01*
X145250Y103081D01*
D02*
G37*
G36*
X12770Y88383D02*
Y87460D01*
X13693D01*
X13622Y87725D01*
X13480Y87970D01*
X13280Y88170D01*
X13035Y88312D01*
X12770Y88383D01*
D02*
G37*
G36*
X5150D02*
Y87460D01*
X6073D01*
X6002Y87725D01*
X5860Y87970D01*
X5660Y88170D01*
X5415Y88312D01*
X5150Y88383D01*
D02*
G37*
G36*
X4850D02*
X4585Y88312D01*
X4340Y88170D01*
X4140Y87970D01*
X3998Y87725D01*
X3927Y87460D01*
X4850D01*
Y88383D01*
D02*
G37*
G36*
X12470D02*
X12205Y88312D01*
X11960Y88170D01*
X11760Y87970D01*
X11618Y87725D01*
X11547Y87460D01*
X12470D01*
Y88383D01*
D02*
G37*
G36*
X144309Y102023D02*
X137248D01*
X137121Y101998D01*
X137014Y101926D01*
X123150Y88061D01*
X121595D01*
X121572Y88145D01*
X121431Y88390D01*
X121230Y88591D01*
X120985Y88732D01*
X120712Y88806D01*
X120428D01*
X120155Y88732D01*
X119910Y88591D01*
X119709Y88390D01*
X119568Y88145D01*
X119494Y87872D01*
Y87588D01*
X119568Y87315D01*
X119709Y87070D01*
X119910Y86869D01*
X120155Y86728D01*
X120428Y86655D01*
X120712D01*
X120985Y86728D01*
X121230Y86869D01*
X121431Y87070D01*
X121572Y87315D01*
X121595Y87399D01*
X123287D01*
X123414Y87424D01*
X123521Y87496D01*
X137386Y101360D01*
X144171D01*
X158036Y87496D01*
X158143Y87424D01*
X158270Y87399D01*
X159545D01*
X159568Y87315D01*
X159709Y87070D01*
X159910Y86869D01*
X160155Y86728D01*
X160428Y86655D01*
X160712D01*
X160985Y86728D01*
X161230Y86869D01*
X161431Y87070D01*
X161572Y87315D01*
X161645Y87588D01*
Y87872D01*
X161572Y88145D01*
X161431Y88390D01*
X161230Y88591D01*
X160985Y88732D01*
X160712Y88805D01*
X160428D01*
X160155Y88732D01*
X159910Y88591D01*
X159709Y88390D01*
X159568Y88145D01*
X159545Y88061D01*
X158407D01*
X144543Y101926D01*
X144435Y101998D01*
X144414Y102002D01*
X144309Y102023D01*
D02*
G37*
G36*
X13693Y87160D02*
X12770D01*
Y86237D01*
X13035Y86308D01*
X13280Y86450D01*
X13480Y86650D01*
X13622Y86895D01*
X13693Y87160D01*
D02*
G37*
G36*
X6073D02*
X5150D01*
Y86237D01*
X5415Y86308D01*
X5660Y86450D01*
X5860Y86650D01*
X6002Y86895D01*
X6073Y87160D01*
D02*
G37*
G36*
X12470D02*
X11547D01*
X11618Y86895D01*
X11760Y86650D01*
X11960Y86450D01*
X12205Y86308D01*
X12470Y86237D01*
Y87160D01*
D02*
G37*
G36*
X4850D02*
X3927D01*
X3998Y86895D01*
X4140Y86650D01*
X4340Y86450D01*
X4585Y86308D01*
X4850Y86237D01*
Y87160D01*
D02*
G37*
G36*
X143572Y86266D02*
X143288D01*
X143015Y86192D01*
X142770Y86051D01*
X142569Y85850D01*
X142428Y85605D01*
X142355Y85332D01*
Y85048D01*
X142428Y84775D01*
X142569Y84530D01*
X142770Y84329D01*
X143015Y84188D01*
X143288Y84115D01*
X143572D01*
X143845Y84188D01*
X144090Y84329D01*
X144291Y84530D01*
X144432Y84775D01*
X144505Y85048D01*
Y85332D01*
X144432Y85605D01*
X144291Y85850D01*
X144090Y86051D01*
X143845Y86192D01*
X143572Y86266D01*
D02*
G37*
G36*
X5135Y85795D02*
X4865D01*
X4604Y85725D01*
X4371Y85590D01*
X4180Y85399D01*
X4045Y85166D01*
X3975Y84905D01*
Y84635D01*
X4045Y84374D01*
X4180Y84141D01*
X4371Y83950D01*
X4604Y83815D01*
X4865Y83745D01*
X5135D01*
X5396Y83815D01*
X5629Y83950D01*
X5820Y84141D01*
X5955Y84374D01*
X6025Y84635D01*
Y84905D01*
X5955Y85166D01*
X5820Y85399D01*
X5629Y85590D01*
X5396Y85725D01*
X5135Y85795D01*
D02*
G37*
G36*
X147099Y84250D02*
X146901D01*
X146711Y84199D01*
X146539Y84100D01*
X146400Y83961D01*
X146301Y83789D01*
X146250Y83599D01*
Y83401D01*
X146301Y83211D01*
X146400Y83039D01*
X146539Y82900D01*
X146711Y82801D01*
X146901Y82750D01*
X147099D01*
X147289Y82801D01*
X147461Y82900D01*
X147600Y83039D01*
X147699Y83211D01*
X147750Y83401D01*
Y83599D01*
X147699Y83789D01*
X147600Y83961D01*
X147461Y84100D01*
X147289Y84199D01*
X147099Y84250D01*
D02*
G37*
G36*
X143572Y83726D02*
X143288D01*
X143015Y83652D01*
X142770Y83511D01*
X142569Y83310D01*
X142428Y83065D01*
X142355Y82792D01*
Y82508D01*
X142428Y82235D01*
X142569Y81990D01*
X142770Y81789D01*
X143015Y81648D01*
X143288Y81575D01*
X143572D01*
X143845Y81648D01*
X144090Y81789D01*
X144291Y81990D01*
X144432Y82235D01*
X144505Y82508D01*
Y82792D01*
X144432Y83065D01*
X144291Y83310D01*
X144090Y83511D01*
X143845Y83652D01*
X143572Y83726D01*
D02*
G37*
G36*
X189099Y82750D02*
X188901D01*
X188711Y82699D01*
X188539Y82600D01*
X188400Y82461D01*
X188301Y82289D01*
X188250Y82099D01*
Y81901D01*
X188301Y81711D01*
X188400Y81539D01*
X188539Y81400D01*
X188711Y81301D01*
X188901Y81250D01*
X189099D01*
X189289Y81301D01*
X189461Y81400D01*
X189600Y81539D01*
X189699Y81711D01*
X189750Y81901D01*
Y82099D01*
X189699Y82289D01*
X189600Y82461D01*
X189461Y82600D01*
X189289Y82699D01*
X189099Y82750D01*
D02*
G37*
G36*
X149099D02*
X148901D01*
X148711Y82699D01*
X148539Y82600D01*
X148400Y82461D01*
X148301Y82289D01*
X148250Y82099D01*
Y81901D01*
X148301Y81711D01*
X148400Y81539D01*
X148539Y81400D01*
X148711Y81301D01*
X148901Y81250D01*
X149099D01*
X149289Y81301D01*
X149461Y81400D01*
X149600Y81539D01*
X149699Y81711D01*
X149750Y81901D01*
Y82099D01*
X149699Y82289D01*
X149600Y82461D01*
X149461Y82600D01*
X149289Y82699D01*
X149099Y82750D01*
D02*
G37*
G36*
X5135Y83255D02*
X4865D01*
X4604Y83185D01*
X4371Y83050D01*
X4180Y82859D01*
X4045Y82626D01*
X3975Y82365D01*
Y82095D01*
X4045Y81834D01*
X4180Y81601D01*
X4371Y81410D01*
X4604Y81275D01*
X4865Y81205D01*
X5135D01*
X5396Y81275D01*
X5629Y81410D01*
X5820Y81601D01*
X5955Y81834D01*
X6025Y82095D01*
Y82365D01*
X5955Y82626D01*
X5820Y82859D01*
X5629Y83050D01*
X5396Y83185D01*
X5135Y83255D01*
D02*
G37*
G36*
X181599Y82250D02*
X181401D01*
X181211Y82199D01*
X181039Y82100D01*
X180900Y81961D01*
X180801Y81789D01*
X180750Y81599D01*
Y81401D01*
X180801Y81211D01*
X180900Y81039D01*
X181039Y80900D01*
X181211Y80801D01*
X181401Y80750D01*
X181599D01*
X181789Y80801D01*
X181961Y80900D01*
X182100Y81039D01*
X182199Y81211D01*
X182250Y81401D01*
Y81599D01*
X182199Y81789D01*
X182100Y81961D01*
X181961Y82100D01*
X181789Y82199D01*
X181599Y82250D01*
D02*
G37*
G36*
X143580Y81235D02*
Y80260D01*
X144555D01*
X144479Y80544D01*
X144331Y80801D01*
X144121Y81011D01*
X143864Y81159D01*
X143580Y81235D01*
D02*
G37*
G36*
X143280Y81235D02*
X142996Y81159D01*
X142739Y81011D01*
X142529Y80801D01*
X142381Y80544D01*
X142305Y80260D01*
X143280D01*
Y81235D01*
D02*
G37*
G36*
X183580Y81235D02*
Y80260D01*
X184555D01*
X184479Y80544D01*
X184331Y80801D01*
X184121Y81011D01*
X183864Y81159D01*
X183580Y81235D01*
D02*
G37*
G36*
X160720D02*
Y80260D01*
X161695D01*
X161619Y80544D01*
X161471Y80801D01*
X161261Y81011D01*
X161004Y81159D01*
X160720Y81235D01*
D02*
G37*
G36*
X183280Y81235D02*
X182996Y81159D01*
X182739Y81011D01*
X182529Y80801D01*
X182381Y80544D01*
X182305Y80260D01*
X183280D01*
Y81235D01*
D02*
G37*
G36*
X160420D02*
X160136Y81159D01*
X159879Y81011D01*
X159669Y80801D01*
X159521Y80544D01*
X159445Y80260D01*
X160420D01*
Y81235D01*
D02*
G37*
G36*
X143280Y79960D02*
X142305D01*
X142381Y79676D01*
X142529Y79419D01*
X142739Y79209D01*
X142996Y79061D01*
X143280Y78985D01*
Y79960D01*
D02*
G37*
G36*
X184555Y79960D02*
X183580D01*
Y78985D01*
X183864Y79061D01*
X184121Y79209D01*
X184331Y79419D01*
X184479Y79676D01*
X184555Y79960D01*
D02*
G37*
G36*
X161695D02*
X160720D01*
Y78985D01*
X161004Y79061D01*
X161261Y79209D01*
X161471Y79419D01*
X161619Y79676D01*
X161695Y79960D01*
D02*
G37*
G36*
X144555Y79960D02*
X143580D01*
Y78985D01*
X143864Y79061D01*
X144121Y79209D01*
X144331Y79419D01*
X144479Y79676D01*
X144555Y79960D01*
D02*
G37*
G36*
X183280Y79960D02*
X182305D01*
X182381Y79676D01*
X182529Y79419D01*
X182739Y79209D01*
X182996Y79061D01*
X183280Y78985D01*
Y79960D01*
D02*
G37*
G36*
X160420D02*
X159445D01*
X159521Y79676D01*
X159669Y79419D01*
X159879Y79209D01*
X160136Y79061D01*
X160420Y78985D01*
Y79960D01*
D02*
G37*
G36*
X5135Y80715D02*
X4865D01*
X4604Y80645D01*
X4371Y80510D01*
X4180Y80319D01*
X4045Y80086D01*
X3975Y79825D01*
Y79555D01*
X4045Y79294D01*
X4180Y79061D01*
X4371Y78870D01*
X4604Y78735D01*
X4865Y78665D01*
X5135D01*
X5396Y78735D01*
X5629Y78870D01*
X5820Y79061D01*
X5955Y79294D01*
X6025Y79555D01*
Y79825D01*
X5955Y80086D01*
X5820Y80319D01*
X5629Y80510D01*
X5396Y80645D01*
X5135Y80715D01*
D02*
G37*
G36*
X6025Y78175D02*
X3975D01*
Y76125D01*
X6025D01*
Y78175D01*
D02*
G37*
G36*
X107744Y73859D02*
X107591D01*
Y70159D01*
X111291D01*
Y70312D01*
X111196Y70910D01*
X111008Y71487D01*
X110733Y72027D01*
X110377Y72517D01*
X109949Y72945D01*
X109458Y73302D01*
X108918Y73577D01*
X108342Y73764D01*
X107744Y73859D01*
D02*
G37*
G36*
X107291D02*
X107138D01*
X106539Y73764D01*
X105963Y73577D01*
X105423Y73302D01*
X104932Y72945D01*
X104504Y72517D01*
X104148Y72027D01*
X103873Y71487D01*
X103685Y70910D01*
X103591Y70312D01*
Y70159D01*
X107291D01*
Y73859D01*
D02*
G37*
G36*
X195291D02*
X195138D01*
X194539Y73764D01*
X193963Y73577D01*
X193423Y73302D01*
X192932Y72945D01*
X192504Y72517D01*
X192148Y72027D01*
X191873Y71487D01*
X191685Y70910D01*
X191591Y70312D01*
Y70159D01*
X195291D01*
Y73859D01*
D02*
G37*
G36*
Y69859D02*
X191591D01*
Y69706D01*
X191685Y69107D01*
X191873Y68531D01*
X192148Y67991D01*
X192504Y67501D01*
X192932Y67072D01*
X193423Y66716D01*
X193963Y66441D01*
X194539Y66254D01*
X195138Y66159D01*
X195291D01*
Y69859D01*
D02*
G37*
G36*
X111291Y69859D02*
X107591D01*
Y66159D01*
X107744D01*
X108342Y66254D01*
X108918Y66441D01*
X109458Y66716D01*
X109949Y67072D01*
X110377Y67501D01*
X110733Y67991D01*
X111008Y68531D01*
X111196Y69107D01*
X111291Y69706D01*
Y69859D01*
D02*
G37*
G36*
X107291D02*
X103591D01*
Y69706D01*
X103685Y69107D01*
X103873Y68531D01*
X104148Y67991D01*
X104504Y67501D01*
X104932Y67072D01*
X105423Y66716D01*
X105963Y66441D01*
X106539Y66254D01*
X107138Y66159D01*
X107291D01*
Y69859D01*
D02*
G37*
G36*
X24699Y64711D02*
X24501D01*
X24311Y64659D01*
X24140Y64561D01*
X24000Y64421D01*
X23901Y64250D01*
X23850Y64059D01*
Y63862D01*
X23901Y63671D01*
X23990Y63517D01*
X23999Y63490D01*
X23988Y63406D01*
X23907Y63168D01*
X23789Y63100D01*
X23650Y62961D01*
X23551Y62789D01*
X23500Y62599D01*
Y62401D01*
X23551Y62211D01*
X23650Y62039D01*
X23789Y61900D01*
X23961Y61801D01*
X24151Y61750D01*
X24349D01*
X24539Y61801D01*
X24711Y61900D01*
X24850Y62039D01*
X24949Y62211D01*
X25000Y62401D01*
Y62599D01*
X24949Y62789D01*
X24860Y62943D01*
X24851Y62971D01*
X24862Y63054D01*
X24943Y63292D01*
X25061Y63360D01*
X25200Y63500D01*
X25299Y63671D01*
X25350Y63862D01*
Y64059D01*
X25299Y64250D01*
X25200Y64421D01*
X25061Y64561D01*
X24890Y64659D01*
X24699Y64711D01*
D02*
G37*
G36*
X7534Y61556D02*
X7531D01*
Y60156D01*
X8931D01*
Y60159D01*
X8872Y60458D01*
X8755Y60740D01*
X8585Y60994D01*
X8369Y61210D01*
X8116Y61380D01*
X7833Y61496D01*
X7534Y61556D01*
D02*
G37*
G36*
X7231D02*
X7229D01*
X6929Y61496D01*
X6647Y61380D01*
X6393Y61210D01*
X6177Y60994D01*
X6008Y60740D01*
X5891Y60458D01*
X5831Y60159D01*
Y60156D01*
X7231D01*
Y61556D01*
D02*
G37*
G36*
X8931Y59856D02*
X7531D01*
Y58456D01*
X7534D01*
X7833Y58515D01*
X8116Y58632D01*
X8369Y58802D01*
X8585Y59018D01*
X8755Y59272D01*
X8872Y59554D01*
X8931Y59853D01*
Y59856D01*
D02*
G37*
G36*
X7231D02*
X5831D01*
Y59853D01*
X5891Y59554D01*
X6008Y59272D01*
X6177Y59018D01*
X6393Y58802D01*
X6647Y58632D01*
X6929Y58515D01*
X7229Y58456D01*
X7231D01*
Y59856D01*
D02*
G37*
G36*
X178369Y61059D02*
X178216D01*
Y57359D01*
X181916D01*
Y57512D01*
X181821Y58110D01*
X181633Y58687D01*
X181358Y59227D01*
X181002Y59717D01*
X180574Y60145D01*
X180083Y60502D01*
X179543Y60777D01*
X178967Y60964D01*
X178369Y61059D01*
D02*
G37*
G36*
X177916D02*
X177763D01*
X177164Y60964D01*
X176588Y60777D01*
X176048Y60502D01*
X175557Y60145D01*
X175129Y59717D01*
X174773Y59227D01*
X174498Y58687D01*
X174310Y58110D01*
X174216Y57512D01*
Y57359D01*
X177916D01*
Y61059D01*
D02*
G37*
G36*
X108369Y61034D02*
X108216D01*
Y57334D01*
X111916D01*
Y57487D01*
X111821Y58085D01*
X111633Y58662D01*
X111358Y59202D01*
X111002Y59692D01*
X110574Y60120D01*
X110083Y60477D01*
X109543Y60752D01*
X108967Y60939D01*
X108369Y61034D01*
D02*
G37*
G36*
X107916D02*
X107763D01*
X107164Y60939D01*
X106588Y60752D01*
X106048Y60477D01*
X105557Y60120D01*
X105129Y59692D01*
X104773Y59202D01*
X104498Y58662D01*
X104310Y58085D01*
X104216Y57487D01*
Y57334D01*
X107916D01*
Y61034D01*
D02*
G37*
G36*
X7562Y56381D02*
X7200D01*
X6851Y56287D01*
X6537Y56106D01*
X6281Y55850D01*
X6100Y55537D01*
X6006Y55187D01*
Y54825D01*
X6100Y54475D01*
X6281Y54162D01*
X6537Y53906D01*
X6851Y53725D01*
X7200Y53631D01*
X7562D01*
X7912Y53725D01*
X8226Y53906D01*
X8482Y54162D01*
X8663Y54475D01*
X8756Y54825D01*
Y55187D01*
X8663Y55537D01*
X8482Y55850D01*
X8226Y56106D01*
X7912Y56287D01*
X7562Y56381D01*
D02*
G37*
G36*
X181916Y57059D02*
X178216D01*
Y53359D01*
X178369D01*
X178967Y53454D01*
X179543Y53641D01*
X180083Y53916D01*
X180574Y54272D01*
X181002Y54701D01*
X181358Y55191D01*
X181633Y55731D01*
X181821Y56307D01*
X181916Y56906D01*
Y57059D01*
D02*
G37*
G36*
X177916D02*
X174216D01*
Y56906D01*
X174310Y56307D01*
X174498Y55731D01*
X174773Y55191D01*
X175129Y54701D01*
X175557Y54272D01*
X176048Y53916D01*
X176588Y53641D01*
X177164Y53454D01*
X177763Y53359D01*
X177916D01*
Y57059D01*
D02*
G37*
G36*
X111916Y57034D02*
X108216D01*
Y53334D01*
X108369D01*
X108967Y53429D01*
X109543Y53616D01*
X110083Y53891D01*
X110574Y54247D01*
X111002Y54676D01*
X111358Y55166D01*
X111633Y55706D01*
X111821Y56282D01*
X111916Y56881D01*
Y57034D01*
D02*
G37*
G36*
X107916D02*
X104216D01*
Y56881D01*
X104310Y56282D01*
X104498Y55706D01*
X104773Y55166D01*
X105129Y54676D01*
X105557Y54247D01*
X106048Y53891D01*
X106588Y53616D01*
X107164Y53429D01*
X107763Y53334D01*
X107916D01*
Y57034D01*
D02*
G37*
G36*
X7562Y51381D02*
X7200D01*
X6851Y51287D01*
X6537Y51106D01*
X6281Y50850D01*
X6100Y50537D01*
X6006Y50187D01*
Y49825D01*
X6100Y49475D01*
X6281Y49162D01*
X6537Y48906D01*
X6851Y48725D01*
X7200Y48631D01*
X7562D01*
X7912Y48725D01*
X8226Y48906D01*
X8482Y49162D01*
X8663Y49475D01*
X8756Y49825D01*
Y50187D01*
X8663Y50537D01*
X8482Y50850D01*
X8226Y51106D01*
X7912Y51287D01*
X7562Y51381D01*
D02*
G37*
G36*
X13650Y44892D02*
Y44150D01*
X14392D01*
X14339Y44347D01*
X14220Y44553D01*
X14053Y44720D01*
X13847Y44839D01*
X13650Y44892D01*
D02*
G37*
G36*
X13350Y44892D02*
X13153Y44839D01*
X12947Y44720D01*
X12780Y44553D01*
X12661Y44347D01*
X12608Y44150D01*
X13350D01*
Y44892D01*
D02*
G37*
G36*
X16150Y44892D02*
Y44150D01*
X16892D01*
X16839Y44347D01*
X16720Y44553D01*
X16553Y44720D01*
X16347Y44839D01*
X16150Y44892D01*
D02*
G37*
G36*
X15850D02*
X15653Y44839D01*
X15447Y44720D01*
X15280Y44553D01*
X15161Y44347D01*
X15108Y44150D01*
X15850D01*
Y44892D01*
D02*
G37*
G36*
X11150D02*
Y44150D01*
X11892D01*
X11839Y44347D01*
X11720Y44553D01*
X11553Y44720D01*
X11347Y44839D01*
X11150Y44892D01*
D02*
G37*
G36*
X10850D02*
X10653Y44839D01*
X10447Y44720D01*
X10280Y44553D01*
X10161Y44347D01*
X10108Y44150D01*
X10850D01*
Y44892D01*
D02*
G37*
G36*
X13350Y43850D02*
X12608D01*
X12661Y43653D01*
X12780Y43447D01*
X12947Y43280D01*
X13153Y43161D01*
X13350Y43108D01*
Y43850D01*
D02*
G37*
G36*
X16892Y43850D02*
X16150D01*
Y43108D01*
X16347Y43161D01*
X16553Y43280D01*
X16720Y43447D01*
X16839Y43653D01*
X16892Y43850D01*
D02*
G37*
G36*
X15850D02*
X15108D01*
X15161Y43653D01*
X15280Y43447D01*
X15447Y43280D01*
X15653Y43161D01*
X15850Y43108D01*
Y43850D01*
D02*
G37*
G36*
X11892D02*
X11150D01*
Y43108D01*
X11347Y43161D01*
X11553Y43280D01*
X11720Y43447D01*
X11839Y43653D01*
X11892Y43850D01*
D02*
G37*
G36*
X10850D02*
X10108D01*
X10161Y43653D01*
X10280Y43447D01*
X10447Y43280D01*
X10653Y43161D01*
X10850Y43108D01*
Y43850D01*
D02*
G37*
G36*
X14392Y43850D02*
X13650D01*
Y43108D01*
X13847Y43161D01*
X14053Y43280D01*
X14220Y43447D01*
X14339Y43653D01*
X14392Y43850D01*
D02*
G37*
G36*
X13612Y42350D02*
X13388D01*
X13172Y42292D01*
X12978Y42180D01*
X12820Y42022D01*
X12708Y41828D01*
X12650Y41612D01*
Y41388D01*
X12708Y41172D01*
X12820Y40978D01*
X12978Y40820D01*
X13172Y40708D01*
X13388Y40650D01*
X13612D01*
X13828Y40708D01*
X14022Y40820D01*
X14180Y40978D01*
X14292Y41172D01*
X14350Y41388D01*
Y41612D01*
X14292Y41828D01*
X14180Y42022D01*
X14022Y42180D01*
X13828Y42292D01*
X13612Y42350D01*
D02*
G37*
G36*
X11112D02*
X10888D01*
X10672Y42292D01*
X10478Y42180D01*
X10320Y42022D01*
X10208Y41828D01*
X10150Y41612D01*
Y41388D01*
X10208Y41172D01*
X10320Y40978D01*
X10478Y40820D01*
X10672Y40708D01*
X10888Y40650D01*
X11112D01*
X11328Y40708D01*
X11522Y40820D01*
X11680Y40978D01*
X11792Y41172D01*
X11850Y41388D01*
Y41612D01*
X11792Y41828D01*
X11680Y42022D01*
X11522Y42180D01*
X11328Y42292D01*
X11112Y42350D01*
D02*
G37*
G36*
X32939Y35410D02*
X31900D01*
Y34371D01*
X32939D01*
Y35410D01*
D02*
G37*
G36*
X7648Y35000D02*
X7352D01*
X7062Y34942D01*
X6789Y34829D01*
X6544Y34665D01*
X6335Y34456D01*
X6171Y34211D01*
X6058Y33938D01*
X6000Y33648D01*
Y33352D01*
X6058Y33062D01*
X6171Y32789D01*
X6335Y32544D01*
X6544Y32335D01*
X6789Y32171D01*
X7062Y32058D01*
X7352Y32000D01*
X7648D01*
X7938Y32058D01*
X8211Y32171D01*
X8456Y32335D01*
X8665Y32544D01*
X8829Y32789D01*
X8942Y33062D01*
X9000Y33352D01*
Y33648D01*
X8942Y33938D01*
X8829Y34211D01*
X8665Y34456D01*
X8456Y34665D01*
X8211Y34829D01*
X7938Y34942D01*
X7648Y35000D01*
D02*
G37*
G36*
X7653Y30050D02*
X7650D01*
Y28650D01*
X9050D01*
Y28653D01*
X8990Y28952D01*
X8874Y29234D01*
X8704Y29488D01*
X8488Y29704D01*
X8234Y29874D01*
X7952Y29990D01*
X7653Y30050D01*
D02*
G37*
G36*
X7350D02*
X7347D01*
X7048Y29990D01*
X6766Y29874D01*
X6512Y29704D01*
X6296Y29488D01*
X6126Y29234D01*
X6010Y28952D01*
X5950Y28653D01*
Y28650D01*
X7350D01*
Y30050D01*
D02*
G37*
G36*
X63270Y29013D02*
X63005Y28942D01*
X62760Y28800D01*
X62560Y28600D01*
X62418Y28355D01*
X62347Y28090D01*
X63270D01*
Y29013D01*
D02*
G37*
G36*
X9050Y28350D02*
X7650D01*
Y26950D01*
X7653D01*
X7952Y27010D01*
X8234Y27126D01*
X8488Y27296D01*
X8704Y27512D01*
X8874Y27766D01*
X8990Y28048D01*
X9050Y28347D01*
Y28350D01*
D02*
G37*
G36*
X7350D02*
X5950D01*
Y28347D01*
X6010Y28048D01*
X6126Y27766D01*
X6296Y27512D01*
X6512Y27296D01*
X6766Y27126D01*
X7048Y27010D01*
X7347Y26950D01*
X7350D01*
Y28350D01*
D02*
G37*
G36*
X61015Y28965D02*
X60745D01*
X60484Y28895D01*
X60251Y28760D01*
X60060Y28569D01*
X59925Y28336D01*
X59855Y28075D01*
Y27805D01*
X59925Y27544D01*
X60060Y27311D01*
X60251Y27120D01*
X60484Y26985D01*
X60745Y26915D01*
X61015D01*
X61276Y26985D01*
X61509Y27120D01*
X61700Y27311D01*
X61835Y27544D01*
X61905Y27805D01*
Y28075D01*
X61835Y28336D01*
X61700Y28569D01*
X61509Y28760D01*
X61276Y28895D01*
X61015Y28965D01*
D02*
G37*
G36*
X58475D02*
X58205D01*
X57944Y28895D01*
X57711Y28760D01*
X57520Y28569D01*
X57385Y28336D01*
X57315Y28075D01*
Y27805D01*
X57385Y27544D01*
X57520Y27311D01*
X57711Y27120D01*
X57944Y26985D01*
X58205Y26915D01*
X58475D01*
X58736Y26985D01*
X58969Y27120D01*
X59160Y27311D01*
X59295Y27544D01*
X59365Y27805D01*
Y28075D01*
X59295Y28336D01*
X59160Y28569D01*
X58969Y28760D01*
X58736Y28895D01*
X58475Y28965D01*
D02*
G37*
G36*
X55935D02*
X55665D01*
X55404Y28895D01*
X55171Y28760D01*
X54980Y28569D01*
X54845Y28336D01*
X54775Y28075D01*
Y27805D01*
X54845Y27544D01*
X54980Y27311D01*
X55171Y27120D01*
X55404Y26985D01*
X55665Y26915D01*
X55935D01*
X56196Y26985D01*
X56429Y27120D01*
X56620Y27311D01*
X56755Y27544D01*
X56825Y27805D01*
Y28075D01*
X56755Y28336D01*
X56620Y28569D01*
X56429Y28760D01*
X56196Y28895D01*
X55935Y28965D01*
D02*
G37*
G36*
X63270Y27790D02*
X62347D01*
X62418Y27525D01*
X62560Y27280D01*
X62760Y27080D01*
X63005Y26938D01*
X63270Y26867D01*
Y27790D01*
D02*
G37*
G36*
X100351Y30350D02*
X100150D01*
Y25150D01*
X105350D01*
Y25351D01*
X105258Y26046D01*
X105077Y26723D01*
X104809Y27371D01*
X104458Y27979D01*
X104031Y28535D01*
X103535Y29031D01*
X102979Y29458D01*
X102371Y29809D01*
X101723Y30077D01*
X101046Y30258D01*
X100351Y30350D01*
D02*
G37*
G36*
X99850D02*
X99649D01*
X98954Y30258D01*
X98277Y30077D01*
X97629Y29809D01*
X97021Y29458D01*
X96465Y29031D01*
X95969Y28535D01*
X95542Y27979D01*
X95191Y27371D01*
X94923Y26723D01*
X94742Y26046D01*
X94650Y25351D01*
Y25150D01*
X99850D01*
Y30350D01*
D02*
G37*
G36*
X105350Y24850D02*
X100150D01*
Y19650D01*
X100351D01*
X101046Y19742D01*
X101723Y19923D01*
X102371Y20191D01*
X102979Y20542D01*
X103535Y20969D01*
X104031Y21465D01*
X104458Y22021D01*
X104809Y22629D01*
X105077Y23277D01*
X105258Y23954D01*
X105350Y24649D01*
Y24850D01*
D02*
G37*
G36*
X99850D02*
X94650D01*
Y24649D01*
X94742Y23954D01*
X94923Y23277D01*
X95191Y22629D01*
X95542Y22021D01*
X95969Y21465D01*
X96465Y20969D01*
X97021Y20542D01*
X97629Y20191D01*
X98277Y19923D01*
X98954Y19742D01*
X99649Y19650D01*
X99850D01*
Y24850D01*
D02*
G37*
G36*
X9450Y21806D02*
X9150D01*
Y19650D01*
X10206D01*
Y21050D01*
X10181Y21246D01*
X10105Y21428D01*
X9985Y21585D01*
X9828Y21705D01*
X9646Y21781D01*
X9450Y21806D01*
D02*
G37*
G36*
X8850D02*
X8550D01*
X8354Y21781D01*
X8172Y21705D01*
X8015Y21585D01*
X7895Y21428D01*
X7819Y21246D01*
X7794Y21050D01*
Y19650D01*
X8850D01*
Y21806D01*
D02*
G37*
G36*
X15250Y21756D02*
X14350D01*
X14167Y21732D01*
X13997Y21661D01*
X13851Y21549D01*
X13739Y21403D01*
X13668Y21233D01*
X13644Y21050D01*
Y17950D01*
X13668Y17767D01*
X13739Y17597D01*
X13851Y17451D01*
X13997Y17339D01*
X14167Y17268D01*
X14350Y17244D01*
X15250D01*
X15433Y17268D01*
X15603Y17339D01*
X15749Y17451D01*
X15861Y17597D01*
X15932Y17767D01*
X15956Y17950D01*
Y21050D01*
X15932Y21233D01*
X15861Y21403D01*
X15749Y21549D01*
X15603Y21661D01*
X15433Y21732D01*
X15250Y21756D01*
D02*
G37*
G36*
X10206Y19350D02*
X9150D01*
Y17194D01*
X9450D01*
X9646Y17219D01*
X9828Y17295D01*
X9985Y17415D01*
X10105Y17572D01*
X10181Y17754D01*
X10206Y17950D01*
Y19350D01*
D02*
G37*
G36*
X8850D02*
X7794D01*
Y17950D01*
X7819Y17754D01*
X7895Y17572D01*
X8015Y17415D01*
X8172Y17295D01*
X8354Y17219D01*
X8550Y17194D01*
X8850D01*
Y19350D01*
D02*
G37*
G36*
X154369Y25350D02*
X154131D01*
X153910Y25259D01*
X153741Y25090D01*
X153650Y24869D01*
Y24631D01*
X153741Y24410D01*
X153910Y24241D01*
X153919Y24238D01*
Y14104D01*
X153619Y13980D01*
X153590Y14009D01*
X153369Y14100D01*
X153131D01*
X152910Y14009D01*
X152741Y13840D01*
X152650Y13619D01*
Y13381D01*
X152741Y13160D01*
X152910Y12991D01*
X153131Y12900D01*
X153369D01*
X153590Y12991D01*
X153619Y13020D01*
X153919Y12896D01*
Y11304D01*
X153944Y11177D01*
X154016Y11070D01*
X154169Y10917D01*
Y8521D01*
X154101Y8503D01*
X153865Y8367D01*
X153672Y8174D01*
X153536Y7938D01*
X153466Y7675D01*
Y7403D01*
X153536Y7139D01*
X153672Y6903D01*
X153865Y6711D01*
X154101Y6574D01*
X154364Y6504D01*
X154637D01*
X154900Y6574D01*
X155136Y6711D01*
X155329Y6903D01*
X155465Y7139D01*
X155536Y7403D01*
Y7675D01*
X155465Y7938D01*
X155329Y8174D01*
X155136Y8367D01*
X154900Y8503D01*
X154831Y8522D01*
Y11054D01*
X154806Y11181D01*
X154734Y11288D01*
X154581Y11441D01*
Y14896D01*
X154881Y15020D01*
X154910Y14991D01*
X155131Y14900D01*
X155369D01*
X155590Y14991D01*
X155759Y15160D01*
X155850Y15381D01*
Y15619D01*
X155759Y15840D01*
X155590Y16009D01*
X155369Y16100D01*
X155131D01*
X154910Y16009D01*
X154881Y15980D01*
X154581Y16104D01*
Y24238D01*
X154590Y24241D01*
X154759Y24410D01*
X154850Y24631D01*
Y24869D01*
X154759Y25090D01*
X154590Y25259D01*
X154369Y25350D01*
D02*
G37*
G36*
X99590Y15600D02*
X97890D01*
Y13900D01*
X99590D01*
Y15600D01*
D02*
G37*
G36*
X13350Y15856D02*
X10250D01*
X10067Y15832D01*
X9897Y15761D01*
X9751Y15649D01*
X9639Y15503D01*
X9568Y15333D01*
X9544Y15150D01*
Y14250D01*
X9568Y14067D01*
X9639Y13897D01*
X9751Y13751D01*
X9897Y13639D01*
X10067Y13568D01*
X10250Y13544D01*
X13350D01*
X13533Y13568D01*
X13703Y13639D01*
X13849Y13751D01*
X13961Y13897D01*
X14032Y14067D01*
X14056Y14250D01*
Y15150D01*
X14032Y15333D01*
X13961Y15503D01*
X13849Y15649D01*
X13703Y15761D01*
X13533Y15832D01*
X13350Y15856D01*
D02*
G37*
G36*
X166849Y14750D02*
X166651D01*
X166461Y14699D01*
X166289Y14600D01*
X166150Y14461D01*
X166051Y14289D01*
X166000Y14099D01*
Y13901D01*
X166051Y13711D01*
X166150Y13539D01*
X166289Y13400D01*
X166461Y13301D01*
X166651Y13250D01*
X166849D01*
X167039Y13301D01*
X167211Y13400D01*
X167350Y13539D01*
X167449Y13711D01*
X167500Y13901D01*
Y14099D01*
X167449Y14289D01*
X167350Y14461D01*
X167211Y14600D01*
X167039Y14699D01*
X166849Y14750D01*
D02*
G37*
G36*
X162849D02*
X162651D01*
X162461Y14699D01*
X162289Y14600D01*
X162150Y14461D01*
X162051Y14289D01*
X162000Y14099D01*
Y13901D01*
X162051Y13711D01*
X162150Y13539D01*
X162289Y13400D01*
X162461Y13301D01*
X162651Y13250D01*
X162849D01*
X163039Y13301D01*
X163211Y13400D01*
X163350Y13539D01*
X163449Y13711D01*
X163500Y13901D01*
Y14099D01*
X163449Y14289D01*
X163350Y14461D01*
X163211Y14600D01*
X163039Y14699D01*
X162849Y14750D01*
D02*
G37*
G36*
X98852Y13060D02*
X98628D01*
X98412Y13002D01*
X98218Y12890D01*
X98060Y12732D01*
X97948Y12538D01*
X97890Y12322D01*
Y12098D01*
X97948Y11882D01*
X98060Y11688D01*
X98218Y11530D01*
X98412Y11418D01*
X98628Y11360D01*
X98852D01*
X99068Y11418D01*
X99262Y11530D01*
X99420Y11688D01*
X99532Y11882D01*
X99590Y12098D01*
Y12322D01*
X99532Y12538D01*
X99420Y12732D01*
X99262Y12890D01*
X99068Y13002D01*
X98852Y13060D01*
D02*
G37*
G36*
X98890Y10562D02*
Y9820D01*
X99632D01*
X99579Y10017D01*
X99460Y10223D01*
X99293Y10390D01*
X99087Y10509D01*
X98890Y10562D01*
D02*
G37*
G36*
X98590Y10562D02*
X98393Y10509D01*
X98187Y10390D01*
X98020Y10223D01*
X97901Y10017D01*
X97848Y9820D01*
X98590D01*
Y10562D01*
D02*
G37*
G36*
X99632Y9520D02*
X98890D01*
Y8778D01*
X99087Y8831D01*
X99293Y8950D01*
X99460Y9117D01*
X99579Y9323D01*
X99632Y9520D01*
D02*
G37*
G36*
X98590D02*
X97848D01*
X97901Y9323D01*
X98020Y9117D01*
X98187Y8950D01*
X98393Y8831D01*
X98590Y8778D01*
Y9520D01*
D02*
G37*
G36*
X12525Y10032D02*
X12479Y10026D01*
X12297Y9950D01*
X12140Y9830D01*
X12020Y9673D01*
X11944Y9491D01*
X11919Y9295D01*
Y8695D01*
X12525D01*
Y10032D01*
D02*
G37*
G36*
X82700Y8719D02*
Y7770D01*
X83649D01*
X83575Y8045D01*
X83430Y8295D01*
X83225Y8500D01*
X82975Y8645D01*
X82700Y8719D01*
D02*
G37*
G36*
X82400Y8719D02*
X82125Y8645D01*
X81875Y8500D01*
X81670Y8295D01*
X81525Y8045D01*
X81451Y7770D01*
X82400D01*
Y8719D01*
D02*
G37*
G36*
X167351Y8622D02*
Y7689D01*
X168284D01*
X168212Y7958D01*
X168069Y8205D01*
X167867Y8407D01*
X167619Y8550D01*
X167351Y8622D01*
D02*
G37*
G36*
X167051D02*
X166782Y8550D01*
X166534Y8407D01*
X166332Y8205D01*
X166189Y7958D01*
X166117Y7689D01*
X167051D01*
Y8622D01*
D02*
G37*
G36*
X121631D02*
Y7689D01*
X122564D01*
X122492Y7958D01*
X122349Y8205D01*
X122147Y8407D01*
X121899Y8550D01*
X121631Y8622D01*
D02*
G37*
G36*
X178369Y11359D02*
X178216D01*
Y7659D01*
X181916D01*
Y7812D01*
X181821Y8410D01*
X181633Y8987D01*
X181358Y9527D01*
X181002Y10017D01*
X180574Y10445D01*
X180083Y10802D01*
X179543Y11077D01*
X178967Y11264D01*
X178369Y11359D01*
D02*
G37*
G36*
X177916D02*
X177763D01*
X177164Y11264D01*
X176588Y11077D01*
X176048Y10802D01*
X175557Y10445D01*
X175129Y10017D01*
X174773Y9527D01*
X174498Y8987D01*
X174310Y8410D01*
X174216Y7812D01*
Y7659D01*
X177916D01*
Y11359D01*
D02*
G37*
G36*
X22081Y8395D02*
X21475D01*
Y7058D01*
X21521Y7064D01*
X21703Y7140D01*
X21860Y7260D01*
X21980Y7417D01*
X22056Y7599D01*
X22081Y7795D01*
Y8395D01*
D02*
G37*
G36*
X12525D02*
X11919D01*
Y7795D01*
X11944Y7599D01*
X12020Y7417D01*
X12140Y7260D01*
X12297Y7140D01*
X12479Y7064D01*
X12525Y7058D01*
Y8395D01*
D02*
G37*
G36*
X147119Y35350D02*
X146881D01*
X146660Y35259D01*
X146491Y35090D01*
X146400Y34869D01*
Y34631D01*
X146491Y34410D01*
X146609Y34293D01*
Y8537D01*
X146481Y8503D01*
X146245Y8367D01*
X146052Y8174D01*
X145916Y7938D01*
X145846Y7675D01*
Y7403D01*
X145916Y7139D01*
X145951Y7078D01*
X145548Y6675D01*
X145384Y6698D01*
X145348Y6732D01*
X145232Y7014D01*
X145305Y7139D01*
X145376Y7403D01*
Y7675D01*
X145305Y7938D01*
X145169Y8174D01*
X144976Y8367D01*
X144740Y8503D01*
X144627Y8534D01*
Y19778D01*
X144759Y19910D01*
X144850Y20131D01*
Y20369D01*
X144759Y20590D01*
X144590Y20759D01*
X144369Y20850D01*
X144131D01*
X143910Y20759D01*
X143741Y20590D01*
X143650Y20369D01*
Y20131D01*
X143741Y19910D01*
X143910Y19741D01*
X143964Y19719D01*
Y8509D01*
X143941Y8503D01*
X143705Y8367D01*
X143512Y8174D01*
X143376Y7938D01*
X143306Y7675D01*
Y7403D01*
X143376Y7139D01*
X143512Y6903D01*
X143534Y6881D01*
X143410Y6581D01*
X142731D01*
X142607Y6881D01*
X142629Y6903D01*
X142765Y7139D01*
X142836Y7403D01*
Y7675D01*
X142765Y7938D01*
X142629Y8174D01*
X142436Y8367D01*
X142200Y8503D01*
X142107Y8528D01*
Y22008D01*
X142259Y22160D01*
X142350Y22381D01*
Y22619D01*
X142259Y22840D01*
X142090Y23009D01*
X141869Y23100D01*
X141631D01*
X141410Y23009D01*
X141241Y22840D01*
X141150Y22619D01*
Y22381D01*
X141241Y22160D01*
X141410Y21991D01*
X141444Y21977D01*
Y8515D01*
X141401Y8503D01*
X141165Y8367D01*
X140972Y8174D01*
X140836Y7938D01*
X140766Y7675D01*
Y7403D01*
X140836Y7139D01*
X140972Y6903D01*
X140994Y6881D01*
X140870Y6581D01*
X140191D01*
X140067Y6881D01*
X140089Y6903D01*
X140225Y7139D01*
X140296Y7403D01*
Y7675D01*
X140225Y7938D01*
X140089Y8174D01*
X139896Y8367D01*
X139660Y8503D01*
X139587Y8523D01*
Y24240D01*
X139590Y24241D01*
X139759Y24410D01*
X139850Y24631D01*
Y24869D01*
X139759Y25090D01*
X139590Y25259D01*
X139369Y25350D01*
X139131D01*
X138910Y25259D01*
X138741Y25090D01*
X138650Y24869D01*
Y24631D01*
X138741Y24410D01*
X138910Y24241D01*
X138924Y24236D01*
Y8520D01*
X138861Y8503D01*
X138625Y8367D01*
X138432Y8174D01*
X138296Y7938D01*
X138226Y7675D01*
Y7403D01*
X138296Y7139D01*
X138432Y6903D01*
X138454Y6881D01*
X138330Y6581D01*
X137651D01*
X137527Y6881D01*
X137549Y6903D01*
X137685Y7139D01*
X137756Y7403D01*
Y7675D01*
X137685Y7938D01*
X137549Y8174D01*
X137356Y8367D01*
X137120Y8503D01*
X137067Y8518D01*
Y26482D01*
X137090Y26491D01*
X137259Y26660D01*
X137350Y26881D01*
Y27119D01*
X137259Y27340D01*
X137090Y27509D01*
X136869Y27600D01*
X136631D01*
X136410Y27509D01*
X136241Y27340D01*
X136150Y27119D01*
Y26881D01*
X136241Y26660D01*
X136404Y26498D01*
Y8525D01*
X136321Y8503D01*
X136085Y8367D01*
X135892Y8174D01*
X135756Y7938D01*
X135686Y7675D01*
Y7403D01*
X135756Y7139D01*
X135892Y6903D01*
X135914Y6881D01*
X135790Y6581D01*
X135111D01*
X134987Y6881D01*
X135009Y6903D01*
X135145Y7139D01*
X135216Y7403D01*
Y7675D01*
X135145Y7938D01*
X135009Y8174D01*
X134816Y8367D01*
X134580Y8503D01*
X134547Y8512D01*
Y28723D01*
X134590Y28741D01*
X134759Y28910D01*
X134850Y29131D01*
Y29369D01*
X134759Y29590D01*
X134590Y29759D01*
X134369Y29850D01*
X134131D01*
X133910Y29759D01*
X133741Y29590D01*
X133650Y29369D01*
Y29131D01*
X133741Y28910D01*
X133884Y28768D01*
Y8531D01*
X133781Y8503D01*
X133545Y8367D01*
X133352Y8174D01*
X133216Y7938D01*
X133146Y7675D01*
Y7403D01*
X133216Y7139D01*
X133352Y6903D01*
X133374Y6881D01*
X133250Y6581D01*
X132571D01*
X132447Y6881D01*
X132469Y6903D01*
X132605Y7139D01*
X132676Y7403D01*
Y7675D01*
X132605Y7938D01*
X132469Y8174D01*
X132276Y8367D01*
X132040Y8503D01*
X132027Y8507D01*
Y30965D01*
X132090Y30991D01*
X132259Y31160D01*
X132350Y31381D01*
Y31619D01*
X132259Y31840D01*
X132090Y32009D01*
X131869Y32100D01*
X131631D01*
X131410Y32009D01*
X131241Y31840D01*
X131150Y31619D01*
Y31381D01*
X131241Y31160D01*
X131364Y31038D01*
Y8536D01*
X131241Y8503D01*
X131005Y8367D01*
X130812Y8174D01*
X130676Y7938D01*
X130606Y7675D01*
Y7403D01*
X130676Y7139D01*
X130812Y6903D01*
X130834Y6881D01*
X130710Y6581D01*
X130342D01*
X130215Y6556D01*
X130107Y6484D01*
X129561Y5938D01*
X129500Y5973D01*
X129237Y6044D01*
X128964D01*
X128701Y5973D01*
X128465Y5837D01*
X128272Y5644D01*
X128136Y5408D01*
X128066Y5145D01*
Y4872D01*
X128136Y4609D01*
X128272Y4373D01*
X128465Y4181D01*
X128701Y4044D01*
X128964Y3974D01*
X129237D01*
X129500Y4044D01*
X129736Y4181D01*
X129929Y4373D01*
X130065Y4609D01*
X130136Y4872D01*
Y5145D01*
X130065Y5408D01*
X130030Y5469D01*
X130393Y5833D01*
X130594Y5811D01*
X130735Y5510D01*
X130676Y5408D01*
X130606Y5145D01*
Y4872D01*
X130676Y4609D01*
X130812Y4373D01*
X131005Y4181D01*
X131241Y4044D01*
X131504Y3974D01*
X131777D01*
X132040Y4044D01*
X132276Y4181D01*
X132469Y4373D01*
X132605Y4609D01*
X132676Y4872D01*
Y5145D01*
X132605Y5408D01*
X132484Y5619D01*
X132513Y5725D01*
X132619Y5919D01*
X133202D01*
X133308Y5725D01*
X133338Y5619D01*
X133216Y5408D01*
X133146Y5145D01*
Y4872D01*
X133216Y4609D01*
X133352Y4373D01*
X133545Y4181D01*
X133781Y4044D01*
X134044Y3974D01*
X134317D01*
X134580Y4044D01*
X134816Y4181D01*
X135009Y4373D01*
X135145Y4609D01*
X135216Y4872D01*
Y5145D01*
X135145Y5408D01*
X135024Y5619D01*
X135053Y5725D01*
X135159Y5919D01*
X135742D01*
X135848Y5725D01*
X135878Y5619D01*
X135756Y5408D01*
X135686Y5145D01*
Y4872D01*
X135756Y4609D01*
X135892Y4373D01*
X136085Y4181D01*
X136321Y4044D01*
X136584Y3974D01*
X136857D01*
X137120Y4044D01*
X137356Y4181D01*
X137549Y4373D01*
X137685Y4609D01*
X137756Y4872D01*
Y5145D01*
X137685Y5408D01*
X137564Y5619D01*
X137593Y5725D01*
X137699Y5919D01*
X138282D01*
X138388Y5725D01*
X138418Y5619D01*
X138296Y5408D01*
X138226Y5145D01*
Y4872D01*
X138296Y4609D01*
X138432Y4373D01*
X138625Y4181D01*
X138861Y4044D01*
X139124Y3974D01*
X139397D01*
X139660Y4044D01*
X139896Y4181D01*
X140089Y4373D01*
X140225Y4609D01*
X140296Y4872D01*
Y5145D01*
X140225Y5408D01*
X140104Y5619D01*
X140133Y5725D01*
X140239Y5919D01*
X140822D01*
X140928Y5725D01*
X140958Y5619D01*
X140836Y5408D01*
X140766Y5145D01*
Y4872D01*
X140836Y4609D01*
X140972Y4373D01*
X141165Y4181D01*
X141401Y4044D01*
X141664Y3974D01*
X141937D01*
X142200Y4044D01*
X142436Y4181D01*
X142629Y4373D01*
X142765Y4609D01*
X142836Y4872D01*
Y5145D01*
X142765Y5408D01*
X142644Y5619D01*
X142673Y5725D01*
X142779Y5919D01*
X143362D01*
X143468Y5725D01*
X143498Y5619D01*
X143376Y5408D01*
X143306Y5145D01*
Y4872D01*
X143376Y4609D01*
X143512Y4373D01*
X143705Y4181D01*
X143941Y4044D01*
X144204Y3974D01*
X144477D01*
X144740Y4044D01*
X144976Y4181D01*
X145169Y4373D01*
X145305Y4609D01*
X145376Y4872D01*
Y5145D01*
X145305Y5408D01*
X145184Y5619D01*
X145213Y5725D01*
X145319Y5919D01*
X145592D01*
X145719Y5944D01*
X145826Y6016D01*
X146420Y6610D01*
X146481Y6574D01*
X146744Y6504D01*
X147017D01*
X147280Y6574D01*
X147516Y6711D01*
X147709Y6903D01*
X147845Y7139D01*
X147916Y7403D01*
Y7675D01*
X147845Y7938D01*
X147709Y8174D01*
X147516Y8367D01*
X147280Y8503D01*
X147272Y8505D01*
Y34213D01*
X147340Y34241D01*
X147509Y34410D01*
X147600Y34631D01*
Y34869D01*
X147509Y35090D01*
X147340Y35259D01*
X147119Y35350D01*
D02*
G37*
G36*
X82400Y7470D02*
X81451D01*
X81525Y7195D01*
X81670Y6945D01*
X81875Y6740D01*
X82125Y6595D01*
X82400Y6521D01*
Y7470D01*
D02*
G37*
G36*
X83649D02*
X82700D01*
Y6521D01*
X82975Y6595D01*
X83225Y6740D01*
X83430Y6945D01*
X83575Y7195D01*
X83649Y7470D01*
D02*
G37*
G36*
X149619Y30100D02*
X149381D01*
X149160Y30009D01*
X148991Y29840D01*
X148900Y29619D01*
Y29381D01*
X148991Y29160D01*
X149129Y29023D01*
Y8532D01*
X149021Y8503D01*
X148785Y8367D01*
X148592Y8174D01*
X148456Y7938D01*
X148386Y7675D01*
Y7403D01*
X148456Y7139D01*
X148592Y6903D01*
X148785Y6711D01*
X149021Y6574D01*
X149284Y6504D01*
X149557D01*
X149820Y6574D01*
X150056Y6711D01*
X150249Y6903D01*
X150385Y7139D01*
X150456Y7403D01*
Y7675D01*
X150385Y7938D01*
X150249Y8174D01*
X150056Y8367D01*
X149820Y8503D01*
X149792Y8511D01*
Y28971D01*
X149840Y28991D01*
X150009Y29160D01*
X150100Y29381D01*
Y29619D01*
X150009Y29840D01*
X149840Y30009D01*
X149619Y30100D01*
D02*
G37*
G36*
X126619Y36350D02*
X126381D01*
X126160Y36259D01*
X125991Y36090D01*
X125900Y35869D01*
Y35631D01*
X125991Y35410D01*
X126160Y35241D01*
X126199Y35225D01*
Y8513D01*
X126161Y8503D01*
X125925Y8367D01*
X125732Y8174D01*
X125596Y7938D01*
X125526Y7675D01*
Y7403D01*
X125596Y7139D01*
X125732Y6903D01*
X125925Y6711D01*
X126161Y6574D01*
X126424Y6504D01*
X126697D01*
X126960Y6574D01*
X127196Y6711D01*
X127389Y6903D01*
X127525Y7139D01*
X127596Y7403D01*
Y7675D01*
X127525Y7938D01*
X127389Y8174D01*
X127196Y8367D01*
X126960Y8503D01*
X126862Y8530D01*
Y35263D01*
X127009Y35410D01*
X127100Y35631D01*
Y35869D01*
X127009Y36090D01*
X126840Y36259D01*
X126619Y36350D01*
D02*
G37*
G36*
X124157Y8574D02*
X123884D01*
X123621Y8503D01*
X123385Y8367D01*
X123192Y8174D01*
X123056Y7938D01*
X122986Y7675D01*
Y7403D01*
X123056Y7139D01*
X123192Y6903D01*
X123385Y6711D01*
X123621Y6574D01*
X123884Y6504D01*
X124157D01*
X124420Y6574D01*
X124656Y6711D01*
X124849Y6903D01*
X124985Y7139D01*
X125056Y7403D01*
Y7675D01*
X124985Y7938D01*
X124849Y8174D01*
X124656Y8367D01*
X124420Y8503D01*
X124157Y8574D01*
D02*
G37*
G36*
X129369Y34100D02*
X129131D01*
X128910Y34009D01*
X128741Y33840D01*
X128650Y33619D01*
Y33381D01*
X128741Y33160D01*
X128844Y33058D01*
Y8542D01*
X128701Y8503D01*
X128465Y8367D01*
X128272Y8174D01*
X128136Y7938D01*
X128066Y7675D01*
Y7403D01*
X128136Y7139D01*
X128272Y6903D01*
X128465Y6711D01*
X128701Y6574D01*
X128964Y6504D01*
X129237D01*
X129500Y6574D01*
X129736Y6711D01*
X129929Y6903D01*
X130065Y7139D01*
X130136Y7403D01*
Y7675D01*
X130065Y7938D01*
X129929Y8174D01*
X129736Y8367D01*
X129507Y8499D01*
Y32957D01*
X129590Y32991D01*
X129759Y33160D01*
X129850Y33381D01*
Y33619D01*
X129759Y33840D01*
X129590Y34009D01*
X129369Y34100D01*
D02*
G37*
G36*
X168284Y7389D02*
X167351D01*
Y6456D01*
X167619Y6528D01*
X167867Y6671D01*
X168069Y6873D01*
X168212Y7120D01*
X168284Y7389D01*
D02*
G37*
G36*
X167051D02*
X166117D01*
X166189Y7120D01*
X166332Y6873D01*
X166534Y6671D01*
X166782Y6528D01*
X167051Y6456D01*
Y7389D01*
D02*
G37*
G36*
X122564D02*
X121631D01*
Y6456D01*
X121899Y6528D01*
X122147Y6671D01*
X122349Y6873D01*
X122492Y7120D01*
X122564Y7389D01*
D02*
G37*
G36*
X6351Y11350D02*
X6150D01*
Y6150D01*
X11350D01*
Y6351D01*
X11258Y7046D01*
X11077Y7723D01*
X10809Y8371D01*
X10458Y8979D01*
X10031Y9535D01*
X9535Y10031D01*
X8979Y10458D01*
X8371Y10809D01*
X7723Y11077D01*
X7046Y11258D01*
X6351Y11350D01*
D02*
G37*
G36*
X157119Y23100D02*
X156881D01*
X156660Y23009D01*
X156491Y22840D01*
X156400Y22619D01*
Y22381D01*
X156491Y22160D01*
X156660Y21991D01*
X156689Y21979D01*
Y8516D01*
X156641Y8503D01*
X156405Y8367D01*
X156212Y8174D01*
X156076Y7938D01*
X156006Y7675D01*
Y7403D01*
X156076Y7139D01*
X156212Y6903D01*
X156234Y6881D01*
X156110Y6581D01*
X155742D01*
X155615Y6556D01*
X155507Y6484D01*
X154961Y5938D01*
X154900Y5973D01*
X154637Y6044D01*
X154364D01*
X154101Y5973D01*
X153881Y5846D01*
X153809Y5865D01*
X153581Y5978D01*
Y6249D01*
X153556Y6376D01*
X153484Y6484D01*
X152890Y7078D01*
X152925Y7139D01*
X152996Y7403D01*
Y7675D01*
X152925Y7938D01*
X152789Y8174D01*
X152596Y8367D01*
X152360Y8503D01*
X152097Y8574D01*
X151824D01*
X151561Y8503D01*
X151325Y8367D01*
X151132Y8174D01*
X150996Y7938D01*
X150926Y7675D01*
Y7403D01*
X150996Y7139D01*
X151132Y6903D01*
X151325Y6711D01*
X151561Y6574D01*
X151824Y6504D01*
X152097D01*
X152360Y6574D01*
X152421Y6610D01*
X152815Y6216D01*
X152792Y6056D01*
X152771Y6032D01*
X152471Y5909D01*
X152360Y5973D01*
X152097Y6044D01*
X151824D01*
X151561Y5973D01*
X151325Y5837D01*
X151132Y5644D01*
X150996Y5408D01*
X150926Y5145D01*
Y4872D01*
X150996Y4609D01*
X151132Y4373D01*
X151325Y4181D01*
X151561Y4044D01*
X151824Y3974D01*
X152097D01*
X152360Y4044D01*
X152458Y4101D01*
X152642Y3861D01*
X152363Y3581D01*
X128457D01*
X127490Y4548D01*
X127525Y4609D01*
X127596Y4872D01*
Y5145D01*
X127525Y5408D01*
X127389Y5644D01*
X127196Y5837D01*
X126960Y5973D01*
X126697Y6044D01*
X126424D01*
X126161Y5973D01*
X125925Y5837D01*
X125732Y5644D01*
X125596Y5408D01*
X125526Y5145D01*
Y4872D01*
X125596Y4609D01*
X125732Y4373D01*
X125925Y4181D01*
X126161Y4044D01*
X126424Y3974D01*
X126697D01*
X126960Y4044D01*
X127021Y4080D01*
X128041Y3060D01*
X128004Y2884D01*
X127928Y2760D01*
X122711D01*
X121990Y3481D01*
Y4108D01*
X122116Y4181D01*
X122309Y4373D01*
X122445Y4609D01*
X122516Y4872D01*
Y5145D01*
X122445Y5408D01*
X122309Y5644D01*
X122116Y5837D01*
X121880Y5973D01*
X121617Y6044D01*
X121344D01*
X121081Y5973D01*
X120845Y5837D01*
X120652Y5644D01*
X120516Y5408D01*
X120446Y5145D01*
Y4872D01*
X120516Y4609D01*
X120652Y4373D01*
X120845Y4181D01*
X120971Y4108D01*
Y3269D01*
X121010Y3074D01*
X121120Y2909D01*
X122140Y1890D01*
X122305Y1779D01*
X122500Y1740D01*
X161822D01*
X162017Y1779D01*
X162183Y1890D01*
X163745Y3451D01*
X163855Y3617D01*
X163894Y3812D01*
Y3910D01*
X164194Y4083D01*
X164261Y4044D01*
X164524Y3974D01*
X164797D01*
X165060Y4044D01*
X165296Y4181D01*
X165489Y4373D01*
X165625Y4609D01*
X165696Y4872D01*
Y5145D01*
X165625Y5408D01*
X165489Y5644D01*
X165296Y5837D01*
X165060Y5973D01*
X164797Y6044D01*
X164524D01*
X164261Y5973D01*
X164212Y5945D01*
X164028Y6185D01*
X164384Y6541D01*
X164524Y6504D01*
X164797D01*
X165060Y6574D01*
X165296Y6711D01*
X165489Y6903D01*
X165625Y7139D01*
X165696Y7403D01*
Y7675D01*
X165625Y7938D01*
X165489Y8174D01*
X165296Y8367D01*
X165060Y8503D01*
X164797Y8574D01*
X164524D01*
X164261Y8503D01*
X164025Y8367D01*
X163832Y8174D01*
X163696Y7938D01*
X163626Y7675D01*
Y7403D01*
X163663Y7262D01*
X163283Y6882D01*
X163043Y7066D01*
X163085Y7139D01*
X163156Y7403D01*
Y7675D01*
X163085Y7938D01*
X162949Y8174D01*
X162756Y8367D01*
X162520Y8503D01*
X162257Y8574D01*
X161984D01*
X161721Y8503D01*
X161485Y8367D01*
X161292Y8174D01*
X161156Y7938D01*
X161086Y7675D01*
Y7403D01*
X161156Y7139D01*
X161292Y6903D01*
X161485Y6711D01*
X161721Y6574D01*
X161984Y6504D01*
X162257D01*
X162520Y6574D01*
X162700Y6678D01*
X162926Y6477D01*
X162913Y6457D01*
X162874Y6262D01*
Y6115D01*
X162574Y5942D01*
X162520Y5973D01*
X162257Y6044D01*
X161984D01*
X161721Y5973D01*
X161485Y5837D01*
X161292Y5644D01*
X161156Y5408D01*
X161086Y5145D01*
Y4872D01*
X161156Y4609D01*
X161292Y4373D01*
X161485Y4181D01*
X161721Y4044D01*
X161984Y3974D01*
X162257D01*
X162453Y4026D01*
X162626Y3790D01*
X162631Y3779D01*
X161611Y2760D01*
X152891D01*
X152815Y2884D01*
X152778Y3060D01*
X153484Y3766D01*
X153556Y3873D01*
X153581Y4000D01*
Y4040D01*
X153809Y4153D01*
X153881Y4171D01*
X154101Y4044D01*
X154364Y3974D01*
X154637D01*
X154900Y4044D01*
X155136Y4181D01*
X155329Y4373D01*
X155465Y4609D01*
X155536Y4872D01*
Y5145D01*
X155465Y5408D01*
X155430Y5469D01*
X155793Y5833D01*
X155994Y5811D01*
X156135Y5510D01*
X156076Y5408D01*
X156006Y5145D01*
Y4872D01*
X156076Y4609D01*
X156212Y4373D01*
X156405Y4181D01*
X156641Y4044D01*
X156904Y3974D01*
X157177D01*
X157440Y4044D01*
X157676Y4181D01*
X157869Y4373D01*
X158005Y4609D01*
X158076Y4872D01*
Y5145D01*
X158005Y5408D01*
X157884Y5619D01*
X157913Y5725D01*
X158019Y5919D01*
X158292D01*
X158419Y5944D01*
X158526Y6016D01*
X159120Y6610D01*
X159181Y6574D01*
X159444Y6504D01*
X159717D01*
X159980Y6574D01*
X160216Y6711D01*
X160409Y6903D01*
X160545Y7139D01*
X160616Y7403D01*
Y7675D01*
X160545Y7938D01*
X160409Y8174D01*
X160216Y8367D01*
X159997Y8494D01*
Y19703D01*
X160090Y19741D01*
X160259Y19910D01*
X160350Y20131D01*
Y20369D01*
X160259Y20590D01*
X160090Y20759D01*
X159869Y20850D01*
X159631D01*
X159410Y20759D01*
X159241Y20590D01*
X159150Y20369D01*
Y20131D01*
X159241Y19910D01*
X159334Y19818D01*
Y8544D01*
X159181Y8503D01*
X158945Y8367D01*
X158752Y8174D01*
X158616Y7938D01*
X158546Y7675D01*
Y7403D01*
X158616Y7139D01*
X158651Y7078D01*
X158248Y6675D01*
X158084Y6698D01*
X158048Y6732D01*
X157932Y7014D01*
X158005Y7139D01*
X158076Y7403D01*
Y7675D01*
X158005Y7938D01*
X157869Y8174D01*
X157676Y8367D01*
X157440Y8503D01*
X157352Y8527D01*
Y22003D01*
X157509Y22160D01*
X157600Y22381D01*
Y22619D01*
X157509Y22840D01*
X157340Y23009D01*
X157119Y23100D01*
D02*
G37*
G36*
X21475Y6302D02*
Y5315D01*
X22081D01*
Y5565D01*
X22056Y5761D01*
X21980Y5943D01*
X21860Y6100D01*
X21703Y6220D01*
X21521Y6296D01*
X21475Y6302D01*
D02*
G37*
G36*
X21175D02*
X21129Y6296D01*
X20947Y6220D01*
X20790Y6100D01*
X20670Y5943D01*
X20594Y5761D01*
X20569Y5565D01*
Y5315D01*
X21175D01*
Y6302D01*
D02*
G37*
G36*
X12825D02*
Y5315D01*
X13431D01*
Y5565D01*
X13406Y5761D01*
X13330Y5943D01*
X13210Y6100D01*
X13053Y6220D01*
X12871Y6296D01*
X12825Y6302D01*
D02*
G37*
G36*
X12525D02*
X12479Y6296D01*
X12297Y6220D01*
X12140Y6100D01*
X12020Y5943D01*
X11944Y5761D01*
X11919Y5565D01*
Y5315D01*
X12525D01*
Y6302D01*
D02*
G37*
G36*
X82950Y6186D02*
X82700D01*
Y5230D01*
X83656D01*
Y5480D01*
X83632Y5663D01*
X83561Y5833D01*
X83449Y5979D01*
X83303Y6091D01*
X83133Y6162D01*
X82950Y6186D01*
D02*
G37*
G36*
X82400D02*
X82150D01*
X81967Y6162D01*
X81797Y6091D01*
X81651Y5979D01*
X81539Y5833D01*
X81468Y5663D01*
X81444Y5480D01*
Y5230D01*
X82400D01*
Y6186D01*
D02*
G37*
G36*
X29610D02*
X29360D01*
Y5230D01*
X30316D01*
Y5480D01*
X30292Y5663D01*
X30221Y5833D01*
X30109Y5979D01*
X29963Y6091D01*
X29793Y6162D01*
X29610Y6186D01*
D02*
G37*
G36*
X29060D02*
X28810D01*
X28627Y6162D01*
X28457Y6091D01*
X28311Y5979D01*
X28199Y5833D01*
X28128Y5663D01*
X28104Y5480D01*
Y5230D01*
X29060D01*
Y6186D01*
D02*
G37*
G36*
X195291Y8859D02*
X195138D01*
X194539Y8764D01*
X193963Y8577D01*
X193423Y8302D01*
X192932Y7945D01*
X192504Y7517D01*
X192148Y7027D01*
X191873Y6487D01*
X191685Y5910D01*
X191591Y5312D01*
Y5159D01*
X195291D01*
Y8859D01*
D02*
G37*
G36*
X168286Y6094D02*
X167351D01*
Y5159D01*
X168286D01*
Y6094D01*
D02*
G37*
G36*
X167051D02*
X166116D01*
Y5159D01*
X167051D01*
Y6094D01*
D02*
G37*
G36*
X22081Y5015D02*
X21475D01*
Y4028D01*
X21521Y4034D01*
X21703Y4110D01*
X21860Y4230D01*
X21980Y4387D01*
X22056Y4569D01*
X22081Y4765D01*
Y5015D01*
D02*
G37*
G36*
X21175D02*
X20569D01*
Y4765D01*
X20594Y4569D01*
X20670Y4387D01*
X20790Y4230D01*
X20947Y4110D01*
X21129Y4034D01*
X21175Y4028D01*
Y5015D01*
D02*
G37*
G36*
X13431D02*
X12825D01*
Y4028D01*
X12871Y4034D01*
X13053Y4110D01*
X13210Y4230D01*
X13330Y4387D01*
X13406Y4569D01*
X13431Y4765D01*
Y5015D01*
D02*
G37*
G36*
X12525D02*
X11919D01*
Y4765D01*
X11944Y4569D01*
X12020Y4387D01*
X12140Y4230D01*
X12297Y4110D01*
X12479Y4034D01*
X12525Y4028D01*
Y5015D01*
D02*
G37*
G36*
X83656Y4930D02*
X82700D01*
Y3974D01*
X82950D01*
X83133Y3998D01*
X83303Y4069D01*
X83449Y4181D01*
X83561Y4327D01*
X83632Y4497D01*
X83656Y4680D01*
Y4930D01*
D02*
G37*
G36*
X82400D02*
X81444D01*
Y4680D01*
X81468Y4497D01*
X81539Y4327D01*
X81651Y4181D01*
X81797Y4069D01*
X81967Y3998D01*
X82150Y3974D01*
X82400D01*
Y4930D01*
D02*
G37*
G36*
X30316Y4930D02*
X29360D01*
Y3974D01*
X29610D01*
X29793Y3998D01*
X29963Y4069D01*
X30109Y4181D01*
X30221Y4327D01*
X30292Y4497D01*
X30316Y4680D01*
Y4930D01*
D02*
G37*
G36*
X29060D02*
X28104D01*
Y4680D01*
X28128Y4497D01*
X28199Y4327D01*
X28311Y4181D01*
X28457Y4069D01*
X28627Y3998D01*
X28810Y3974D01*
X29060D01*
Y4930D01*
D02*
G37*
G36*
X147017Y6044D02*
X146744D01*
X146481Y5973D01*
X146245Y5837D01*
X146052Y5644D01*
X145916Y5408D01*
X145846Y5145D01*
Y4872D01*
X145916Y4609D01*
X146052Y4373D01*
X146245Y4181D01*
X146481Y4044D01*
X146744Y3974D01*
X147017D01*
X147280Y4044D01*
X147516Y4181D01*
X147709Y4373D01*
X147845Y4609D01*
X147916Y4872D01*
Y5145D01*
X147845Y5408D01*
X147709Y5644D01*
X147516Y5837D01*
X147280Y5973D01*
X147017Y6044D01*
D02*
G37*
G36*
X159717Y6044D02*
X159444D01*
X159181Y5973D01*
X158945Y5837D01*
X158752Y5644D01*
X158616Y5408D01*
X158546Y5145D01*
Y4872D01*
X158616Y4609D01*
X158752Y4373D01*
X158945Y4181D01*
X159181Y4044D01*
X159444Y3974D01*
X159717D01*
X159980Y4044D01*
X160216Y4181D01*
X160409Y4373D01*
X160545Y4609D01*
X160616Y4872D01*
Y5145D01*
X160545Y5408D01*
X160409Y5644D01*
X160216Y5837D01*
X159980Y5973D01*
X159717Y6044D01*
D02*
G37*
G36*
X149557D02*
X149284D01*
X149021Y5973D01*
X148785Y5837D01*
X148592Y5644D01*
X148456Y5408D01*
X148386Y5145D01*
Y4872D01*
X148456Y4609D01*
X148592Y4373D01*
X148785Y4181D01*
X149021Y4044D01*
X149284Y3974D01*
X149557D01*
X149820Y4044D01*
X150056Y4181D01*
X150249Y4373D01*
X150385Y4609D01*
X150456Y4872D01*
Y5145D01*
X150385Y5408D01*
X150249Y5644D01*
X150056Y5837D01*
X149820Y5973D01*
X149557Y6044D01*
D02*
G37*
G36*
X124157D02*
X123884D01*
X123621Y5973D01*
X123385Y5837D01*
X123192Y5644D01*
X123056Y5408D01*
X122986Y5145D01*
Y4872D01*
X123056Y4609D01*
X123192Y4373D01*
X123385Y4181D01*
X123621Y4044D01*
X123884Y3974D01*
X124157D01*
X124420Y4044D01*
X124656Y4181D01*
X124849Y4373D01*
X124985Y4609D01*
X125056Y4872D01*
Y5145D01*
X124985Y5408D01*
X124849Y5644D01*
X124656Y5837D01*
X124420Y5973D01*
X124157Y6044D01*
D02*
G37*
G36*
X120024Y4859D02*
X119091D01*
Y3926D01*
X119359Y3998D01*
X119607Y4141D01*
X119809Y4343D01*
X119952Y4590D01*
X120024Y4859D01*
D02*
G37*
G36*
X118791D02*
X117857D01*
X117929Y4590D01*
X118072Y4343D01*
X118274Y4141D01*
X118522Y3998D01*
X118791Y3926D01*
Y4859D01*
D02*
G37*
G36*
X168286D02*
X167351D01*
Y3924D01*
X168286D01*
Y4859D01*
D02*
G37*
G36*
X167051D02*
X166116D01*
Y3924D01*
X167051D01*
Y4859D01*
D02*
G37*
G36*
X181916Y7359D02*
X178216D01*
Y3659D01*
X178369D01*
X178967Y3754D01*
X179543Y3941D01*
X180083Y4216D01*
X180574Y4572D01*
X181002Y5001D01*
X181358Y5491D01*
X181633Y6031D01*
X181821Y6607D01*
X181916Y7206D01*
Y7359D01*
D02*
G37*
G36*
X177916D02*
X174216D01*
Y7206D01*
X174310Y6607D01*
X174498Y6031D01*
X174773Y5491D01*
X175129Y5001D01*
X175557Y4572D01*
X176048Y4216D01*
X176588Y3941D01*
X177164Y3754D01*
X177763Y3659D01*
X177916D01*
Y7359D01*
D02*
G37*
G36*
X103969Y7052D02*
X103675Y5888D01*
X103573Y5291D01*
X103565Y4685D01*
X103653Y4085D01*
X103833Y3507D01*
X104101Y2963D01*
X104452Y2469D01*
X104875Y2035D01*
X105361Y1673D01*
X105897Y1391D01*
X106329Y1245D01*
X107568Y6141D01*
X103969Y7052D01*
D02*
G37*
G36*
X195291Y4859D02*
X191591D01*
Y4706D01*
X191685Y4107D01*
X191873Y3531D01*
X192148Y2991D01*
X192504Y2501D01*
X192932Y2072D01*
X193423Y1716D01*
X193963Y1441D01*
X194539Y1254D01*
X195138Y1159D01*
X195291D01*
Y4859D01*
D02*
G37*
G36*
X107859Y6068D02*
X106620Y1172D01*
X107069Y1095D01*
X107675Y1087D01*
X108274Y1175D01*
X108853Y1355D01*
X109396Y1624D01*
X109891Y1974D01*
X110324Y2397D01*
X110687Y2883D01*
X110968Y3419D01*
X111163Y3993D01*
X111457Y5157D01*
X107859Y6068D01*
D02*
G37*
%LPD*%
G36*
X78992Y94818D02*
X79064Y94619D01*
X78949Y94420D01*
X78871Y94130D01*
Y93830D01*
X78949Y93540D01*
X79040Y93381D01*
X78903Y93081D01*
X73762D01*
X73759Y93090D01*
X73590Y93259D01*
X73369Y93350D01*
X73131D01*
X72910Y93259D01*
X72741Y93090D01*
X72650Y92869D01*
Y92631D01*
X72741Y92410D01*
X72910Y92241D01*
X73131Y92150D01*
X73369D01*
X73590Y92241D01*
X73759Y92410D01*
X73762Y92419D01*
X78954D01*
X79063Y92208D01*
X79087Y92119D01*
X78949Y91880D01*
X78928Y91801D01*
X70775D01*
X70759Y91840D01*
X70590Y92009D01*
X70369Y92100D01*
X70131D01*
X69910Y92009D01*
X69741Y91840D01*
X69650Y91619D01*
Y91381D01*
X69741Y91160D01*
X69910Y90991D01*
X70131Y90900D01*
X70369D01*
X70590Y90991D01*
X70737Y91139D01*
X78912D01*
X78949Y91000D01*
X79063Y90802D01*
X78991Y90602D01*
X78913Y90502D01*
X72920D01*
X72793Y90476D01*
X72686Y90404D01*
X68516Y86234D01*
X68444Y86127D01*
X68419Y86000D01*
Y69137D01*
X49158Y49876D01*
X32861D01*
X32795Y49951D01*
X32705Y50176D01*
X32811Y50360D01*
X32840Y50469D01*
X48300D01*
X48427Y50494D01*
X48534Y50566D01*
X66484Y68516D01*
X66556Y68623D01*
X66581Y68750D01*
Y89863D01*
X70109Y93390D01*
X70400Y93257D01*
Y93131D01*
X70491Y92910D01*
X70660Y92741D01*
X70881Y92650D01*
X71119D01*
X71340Y92741D01*
X71509Y92910D01*
X71600Y93131D01*
Y93369D01*
X71596Y93378D01*
X73137Y94919D01*
X78914D01*
X78992Y94818D01*
D02*
G37*
G36*
X89344Y98505D02*
X89243Y98205D01*
X89023Y98114D01*
X88854Y97945D01*
X88762Y97724D01*
Y97486D01*
X88854Y97265D01*
X89023Y97096D01*
X89031Y97093D01*
Y96816D01*
X89056Y96690D01*
X89128Y96582D01*
X90469Y95241D01*
X90465Y95233D01*
Y94994D01*
X90557Y94773D01*
X90726Y94605D01*
X90946Y94513D01*
X91185D01*
X91405Y94605D01*
X91574Y94773D01*
X91665Y94994D01*
Y95233D01*
X91574Y95453D01*
X91405Y95622D01*
X91185Y95713D01*
X90946D01*
X90938Y95710D01*
X89823Y96825D01*
X89808Y96859D01*
X89811Y97205D01*
X89871Y97265D01*
X89962Y97486D01*
X90262Y97587D01*
X97047Y90802D01*
X96923Y90502D01*
X83647D01*
X83569Y90602D01*
X83497Y90802D01*
X83611Y91000D01*
X83689Y91290D01*
Y91590D01*
X83611Y91880D01*
X83461Y92139D01*
X83249Y92351D01*
X82990Y92501D01*
X82791Y92555D01*
Y92865D01*
X82990Y92919D01*
X83249Y93069D01*
X83461Y93281D01*
X83611Y93540D01*
X83689Y93830D01*
Y94130D01*
X83611Y94420D01*
X83461Y94679D01*
X83249Y94891D01*
X82990Y95041D01*
X82887Y95069D01*
X82887Y95379D01*
X83009Y95412D01*
X83280Y95569D01*
X83501Y95790D01*
X83658Y96061D01*
X83739Y96363D01*
Y96370D01*
X82550D01*
Y96520D01*
X82400D01*
Y97709D01*
X82393D01*
X82091Y97628D01*
X81820Y97471D01*
X81599Y97250D01*
X81442Y96979D01*
X81435Y96954D01*
X81125D01*
X81118Y96979D01*
X80961Y97250D01*
X80740Y97471D01*
X80469Y97628D01*
X80167Y97709D01*
X80160D01*
Y96520D01*
X80010D01*
Y96370D01*
X78821D01*
Y96363D01*
X78902Y96061D01*
X79006Y95881D01*
X78875Y95581D01*
X73000D01*
X72873Y95556D01*
X72766Y95484D01*
X71263Y93981D01*
X71143Y94000D01*
X71039Y94321D01*
X76387Y99669D01*
X88180D01*
X89344Y98505D01*
D02*
G37*
G36*
X114778Y83795D02*
X114739Y83500D01*
X114782Y83174D01*
X114908Y82870D01*
X115108Y82608D01*
X115958Y81758D01*
X115958Y81758D01*
X116220Y81558D01*
X116524Y81432D01*
X116850Y81389D01*
X118308D01*
X118461Y81301D01*
X118651Y81250D01*
X118849D01*
X119039Y81301D01*
X119192Y81389D01*
X119802D01*
X119843Y81320D01*
X119879Y81011D01*
X119669Y80801D01*
X119521Y80544D01*
X119445Y80260D01*
X120570D01*
X121695D01*
X121624Y80525D01*
X121623Y80551D01*
X121803Y80825D01*
X134514D01*
X140130Y75208D01*
X140328Y75056D01*
X140266Y74783D01*
X140251Y74756D01*
X129899D01*
X128546Y76109D01*
X128439Y76181D01*
X128312Y76206D01*
X113642D01*
X107692Y82157D01*
X107725Y82214D01*
X107795Y82475D01*
Y82745D01*
X107725Y83006D01*
X107590Y83239D01*
X107399Y83430D01*
X107166Y83565D01*
X106905Y83635D01*
X106635D01*
X106374Y83565D01*
X106141Y83430D01*
X105950Y83239D01*
X105815Y83006D01*
X105745Y82745D01*
Y82475D01*
X105815Y82214D01*
X105950Y81981D01*
X106141Y81790D01*
X106374Y81655D01*
X106635Y81585D01*
X106905D01*
X107166Y81655D01*
X107223Y81688D01*
X107768Y81143D01*
X107653Y80866D01*
X106443D01*
X105152Y82157D01*
X105185Y82214D01*
X105255Y82475D01*
Y82745D01*
X105185Y83006D01*
X105050Y83239D01*
X104859Y83430D01*
X104626Y83565D01*
X104365Y83635D01*
X104095D01*
X103834Y83565D01*
X103601Y83430D01*
X103410Y83239D01*
X103275Y83006D01*
X103205Y82745D01*
Y82475D01*
X103275Y82214D01*
X103410Y81981D01*
X103601Y81790D01*
X103834Y81655D01*
X104095Y81585D01*
X104365D01*
X104626Y81655D01*
X104683Y81688D01*
X105780Y80591D01*
X105656Y80291D01*
X101012D01*
X101009Y80300D01*
X100840Y80469D01*
X100619Y80560D01*
X100381D01*
X100324Y80537D01*
X100154Y80791D01*
X100652Y81289D01*
X100724Y81397D01*
X100749Y81523D01*
Y81606D01*
X100965Y81716D01*
X101049Y81739D01*
X101275Y81608D01*
X101540Y81537D01*
Y82610D01*
Y83683D01*
X101527Y83679D01*
X101386Y83939D01*
X101539Y84130D01*
X109861D01*
X110825Y83166D01*
Y81585D01*
X112875D01*
Y83635D01*
X111294D01*
X110611Y84317D01*
X110726Y84594D01*
X113978D01*
X114778Y83795D01*
D02*
G37*
G36*
X95701Y85762D02*
X95650Y85711D01*
X95551Y85539D01*
X95500Y85349D01*
Y85151D01*
X95551Y84961D01*
X95650Y84789D01*
X95789Y84650D01*
X95961Y84551D01*
X96151Y84500D01*
X96333D01*
X98125Y82708D01*
Y82475D01*
X98195Y82214D01*
X98330Y81981D01*
X98521Y81790D01*
X98754Y81655D01*
X99015Y81585D01*
X99285D01*
X99518Y81648D01*
X99559Y81648D01*
X99856Y81488D01*
X99866Y81440D01*
X99383Y80957D01*
X97203D01*
X95675Y82484D01*
X95568Y82556D01*
X95441Y82581D01*
X92106D01*
X91979Y82556D01*
X91872Y82484D01*
X87219Y77831D01*
X83644D01*
X83514Y78131D01*
X83611Y78300D01*
X83640Y78409D01*
X84599D01*
X84726Y78434D01*
X84833Y78506D01*
X92389Y86062D01*
X95577D01*
X95701Y85762D01*
D02*
G37*
G36*
X92669Y64857D02*
Y63012D01*
X92660Y63009D01*
X92491Y62840D01*
X92400Y62619D01*
Y62381D01*
X92491Y62160D01*
X92660Y61991D01*
X92881Y61900D01*
X93119D01*
X93206Y61936D01*
X93436Y61706D01*
X93400Y61619D01*
Y61381D01*
X93491Y61160D01*
X93520Y61131D01*
X93396Y60831D01*
X85564D01*
X83901Y62494D01*
X83793Y62566D01*
X83723Y62580D01*
X83703Y62597D01*
X83624Y62726D01*
X83571Y62891D01*
X83658Y63041D01*
X83739Y63343D01*
Y63350D01*
X82550D01*
Y63650D01*
X83739D01*
Y63657D01*
X83658Y63959D01*
X83545Y64155D01*
X83633Y64379D01*
X83700Y64455D01*
X89576D01*
X91169Y62863D01*
Y62512D01*
X91160Y62509D01*
X90991Y62340D01*
X90900Y62119D01*
Y61881D01*
X90991Y61660D01*
X91160Y61491D01*
X91381Y61400D01*
X91619D01*
X91840Y61491D01*
X92009Y61660D01*
X92100Y61881D01*
Y62119D01*
X92009Y62340D01*
X91840Y62509D01*
X91831Y62512D01*
Y63000D01*
X91806Y63127D01*
X91734Y63234D01*
X89948Y65021D01*
X89840Y65093D01*
X89713Y65118D01*
X83663D01*
X83598Y65190D01*
X83506Y65418D01*
X83611Y65600D01*
X83689Y65890D01*
Y66190D01*
X83611Y66480D01*
X83527Y66626D01*
X83673Y66926D01*
X90600D01*
X92669Y64857D01*
D02*
G37*
G36*
X20887Y60798D02*
Y58662D01*
X20587Y58582D01*
X20565Y58620D01*
X20370Y58815D01*
X20130Y58953D01*
X19863Y59025D01*
X19587D01*
X19320Y58953D01*
X19080Y58815D01*
X18885Y58620D01*
X18747Y58380D01*
X18675Y58113D01*
Y57837D01*
X18747Y57570D01*
X18885Y57330D01*
X19080Y57135D01*
X19320Y56997D01*
X19587Y56925D01*
X19863D01*
X20130Y56997D01*
X20370Y57135D01*
X20565Y57330D01*
X20587Y57368D01*
X20887Y57288D01*
Y49236D01*
X20912Y49109D01*
X20984Y49002D01*
X26710Y43276D01*
X26570Y42992D01*
X26500Y43001D01*
X26174Y42958D01*
X25870Y42832D01*
X25608Y42632D01*
X25408Y42370D01*
X25282Y42066D01*
X25241Y41751D01*
X22532D01*
X19761Y44522D01*
Y45750D01*
Y46250D01*
X19718Y46576D01*
X19592Y46880D01*
X19392Y47142D01*
X15761Y50772D01*
Y60239D01*
X19500D01*
X19826Y60282D01*
X20130Y60408D01*
X20392Y60608D01*
X20587Y60863D01*
X20607Y60866D01*
X20887Y60798D01*
D02*
G37*
G36*
X79000Y51633D02*
X79066Y51443D01*
X78949Y51240D01*
X78871Y50950D01*
Y50650D01*
X78949Y50360D01*
X79055Y50177D01*
X78965Y49951D01*
X78898Y49877D01*
X67592D01*
X67096Y50372D01*
X67100Y50381D01*
Y50619D01*
X67009Y50840D01*
X66840Y51009D01*
X66619Y51100D01*
X66381D01*
X66160Y51009D01*
X65991Y50840D01*
X65900Y50619D01*
Y50381D01*
X65991Y50160D01*
X66160Y49991D01*
X66381Y49900D01*
X66619D01*
X66628Y49904D01*
X67220Y49311D01*
X67328Y49239D01*
X67455Y49214D01*
X78929D01*
X79019Y49079D01*
X79072Y48914D01*
X78949Y48700D01*
X78871Y48410D01*
Y48110D01*
X78949Y47820D01*
X79040Y47662D01*
X78902Y47362D01*
X67106D01*
X65096Y49372D01*
X65100Y49381D01*
Y49619D01*
X65009Y49840D01*
X64840Y50009D01*
X64619Y50100D01*
X64381D01*
X64160Y50009D01*
X63991Y49840D01*
X63900Y49619D01*
Y49381D01*
X63991Y49160D01*
X64160Y48991D01*
X64381Y48900D01*
X64619D01*
X64628Y48904D01*
X66735Y46797D01*
X66842Y46725D01*
X66969Y46700D01*
X78955D01*
X79065Y46485D01*
X79087Y46400D01*
X78949Y46160D01*
X78871Y45870D01*
Y45570D01*
X78949Y45280D01*
X79035Y45131D01*
X78890Y44831D01*
X66637D01*
X61596Y49872D01*
X61600Y49881D01*
Y50119D01*
X61509Y50340D01*
X61340Y50509D01*
X61119Y50600D01*
X60881D01*
X60660Y50509D01*
X60491Y50340D01*
X60400Y50119D01*
Y49881D01*
X60491Y49660D01*
X60660Y49491D01*
X60881Y49400D01*
X61119D01*
X61128Y49404D01*
X66266Y44266D01*
X66373Y44194D01*
X66500Y44169D01*
X78964D01*
X79080Y43918D01*
X79092Y43869D01*
X78949Y43620D01*
X78871Y43330D01*
Y43030D01*
X78949Y42740D01*
X79008Y42637D01*
X78835Y42337D01*
X66632D01*
X59596Y49372D01*
X59600Y49381D01*
Y49619D01*
X59509Y49840D01*
X59340Y50009D01*
X59119Y50100D01*
X58881D01*
X58660Y50009D01*
X58491Y49840D01*
X58400Y49619D01*
Y49381D01*
X58491Y49160D01*
X58660Y48991D01*
X58881Y48900D01*
X59119D01*
X59128Y48904D01*
X66260Y41771D01*
X66368Y41700D01*
X66494Y41674D01*
X79009D01*
X79133Y41374D01*
X79099Y41339D01*
X78949Y41080D01*
X78871Y40790D01*
Y40490D01*
X78949Y40200D01*
X79099Y39941D01*
X79311Y39729D01*
X79570Y39579D01*
X79769Y39525D01*
Y39215D01*
X79570Y39161D01*
X79311Y39011D01*
X79099Y38799D01*
X78949Y38540D01*
X78871Y38250D01*
Y37950D01*
X78949Y37660D01*
X79099Y37401D01*
X79311Y37189D01*
X79570Y37039D01*
X79673Y37011D01*
Y36701D01*
X79551Y36668D01*
X79280Y36511D01*
X79059Y36290D01*
X78902Y36019D01*
X78821Y35717D01*
Y35710D01*
X80010D01*
Y35410D01*
X78821D01*
Y35403D01*
X78902Y35101D01*
X79059Y34830D01*
X79280Y34609D01*
X79363Y34561D01*
X79282Y34261D01*
X77272D01*
X75012Y36522D01*
Y38544D01*
X74969Y38870D01*
X74843Y39174D01*
X74642Y39436D01*
X74381Y39636D01*
X74077Y39762D01*
X73751Y39805D01*
X73165D01*
X73165Y39805D01*
X72839Y39762D01*
X72535Y39636D01*
X72274Y39436D01*
X71996Y39158D01*
X59147D01*
X58821Y39115D01*
X58517Y38989D01*
X58255Y38789D01*
X58255Y38789D01*
X57978Y38511D01*
X52500D01*
X52500Y38511D01*
X52174Y38468D01*
X51870Y38342D01*
X51608Y38142D01*
X48228Y34761D01*
X40261D01*
Y36578D01*
X40261Y36578D01*
X40218Y36905D01*
X40092Y37209D01*
X39892Y37470D01*
X39892Y37470D01*
X39470Y37892D01*
X39209Y38092D01*
X38965Y38193D01*
X37767Y39392D01*
X37505Y39592D01*
X37201Y39718D01*
X36875Y39761D01*
X36022D01*
X34456Y41327D01*
X34580Y41627D01*
X47709D01*
X47836Y41653D01*
X47943Y41724D01*
X57962Y51743D01*
X78918D01*
X79000Y51633D01*
D02*
G37*
G36*
X72812Y89169D02*
X72750Y89019D01*
Y88781D01*
X72841Y88560D01*
X73010Y88391D01*
X73231Y88300D01*
X73469D01*
X73690Y88391D01*
X73859Y88560D01*
X73862Y88569D01*
X78920D01*
X78949Y88460D01*
X79062Y88264D01*
X78986Y88059D01*
X78910Y87964D01*
X72133D01*
X72006Y87939D01*
X71899Y87867D01*
X70766Y86734D01*
X70694Y86627D01*
X70669Y86500D01*
Y64500D01*
X70694Y64373D01*
X70766Y64266D01*
X78112Y56920D01*
X78219Y56848D01*
X78346Y56823D01*
X78918D01*
X78999Y56714D01*
X79066Y56523D01*
X78949Y56320D01*
X78920Y56211D01*
X58630D01*
X58503Y56186D01*
X58396Y56114D01*
X49636Y47354D01*
X32848D01*
X32716Y47654D01*
X32811Y47820D01*
X32889Y48110D01*
Y48410D01*
X32811Y48700D01*
X32688Y48914D01*
X32742Y49079D01*
X32831Y49214D01*
X49295D01*
X49422Y49239D01*
X49529Y49311D01*
X68984Y68766D01*
X69056Y68873D01*
X69081Y69000D01*
Y85863D01*
X72558Y89339D01*
X72812Y89169D01*
D02*
G37*
G36*
X95481Y56231D02*
X95589Y56159D01*
X95715Y56134D01*
X99952D01*
X99953Y56128D01*
X99954Y55831D01*
X99908Y55812D01*
X99861Y55799D01*
X99818Y55774D01*
X99772Y55755D01*
X99732Y55725D01*
X99689Y55700D01*
X99654Y55665D01*
X99615Y55635D01*
X98715Y54735D01*
X98595Y54578D01*
X98519Y54396D01*
X98494Y54200D01*
Y46250D01*
X98519Y46054D01*
X98595Y45872D01*
X98715Y45715D01*
X98824Y45607D01*
X98327Y45110D01*
X98127Y44849D01*
X98001Y44545D01*
X97958Y44218D01*
Y36729D01*
X96990Y35761D01*
X96489D01*
X96387Y36061D01*
X96417Y36083D01*
X96617Y36345D01*
X96743Y36649D01*
X96786Y36975D01*
Y39225D01*
X96743Y39551D01*
X96617Y39855D01*
X96417Y40117D01*
X94761Y41772D01*
Y42978D01*
X96392Y44608D01*
X96592Y44870D01*
X96718Y45174D01*
X96761Y45500D01*
Y46478D01*
X97642Y47358D01*
X97842Y47620D01*
X97968Y47924D01*
X98011Y48250D01*
Y53000D01*
X98011Y53000D01*
X97968Y53326D01*
X97842Y53630D01*
X97642Y53892D01*
X96073Y55460D01*
X95812Y55660D01*
X95508Y55786D01*
X95182Y55829D01*
X94855Y55786D01*
X94551Y55660D01*
X94400Y55544D01*
X94259Y55580D01*
X94087Y55656D01*
X94083Y55660D01*
X94009Y55840D01*
X93840Y56009D01*
X93619Y56100D01*
X93381D01*
X93160Y56009D01*
X92991Y55840D01*
X92957Y55756D01*
X92925D01*
X92798Y55731D01*
X92691Y55659D01*
X92266Y55234D01*
X92194Y55127D01*
X92169Y55000D01*
Y54151D01*
X92194Y54025D01*
X92266Y53917D01*
X92577Y53606D01*
X92565Y53276D01*
X92396Y53107D01*
X92393Y53099D01*
X89870D01*
X85580Y57388D01*
X85473Y57460D01*
X85346Y57486D01*
X83651D01*
X83576Y57579D01*
X83499Y57785D01*
X83611Y57980D01*
X83640Y58089D01*
X93623D01*
X95481Y56231D01*
D02*
G37*
G36*
X92741Y40158D02*
X92857Y40110D01*
X94264Y38703D01*
Y36975D01*
X94307Y36649D01*
X94433Y36345D01*
X94633Y36083D01*
X94663Y36061D01*
X94561Y35761D01*
X93772D01*
X93011Y36522D01*
Y37750D01*
X92968Y38076D01*
X92842Y38380D01*
X92642Y38642D01*
X92380Y38842D01*
X92076Y38968D01*
X91750Y39011D01*
X91424Y38968D01*
X91120Y38842D01*
X90858Y38642D01*
X90658Y38380D01*
X90532Y38076D01*
X90489Y37750D01*
Y36000D01*
X90532Y35674D01*
X90658Y35370D01*
X90858Y35108D01*
X92336Y33631D01*
X92326Y33539D01*
X92227Y33331D01*
X90750D01*
X90623Y33306D01*
X90516Y33234D01*
X88613Y31331D01*
X73637D01*
X72234Y32734D01*
X72127Y32806D01*
X72000Y32831D01*
X71377D01*
X71100Y32881D01*
Y33119D01*
X71009Y33340D01*
X70840Y33509D01*
X70619Y33600D01*
X70381D01*
X70160Y33509D01*
X69991Y33340D01*
X69900Y33119D01*
Y32881D01*
X69991Y32660D01*
X70160Y32491D01*
X70381Y32400D01*
X70619D01*
X70628Y32404D01*
X70766Y32266D01*
X70766Y32266D01*
X70873Y32194D01*
X71000Y32169D01*
X71863D01*
X73150Y30881D01*
X73026Y30581D01*
X71387D01*
X68831Y33137D01*
Y35113D01*
X69122Y35404D01*
X69131Y35400D01*
X69369D01*
X69590Y35491D01*
X69759Y35660D01*
X69850Y35881D01*
Y36119D01*
X69759Y36340D01*
X69887Y36636D01*
X72490D01*
Y36006D01*
X72489Y36000D01*
X72532Y35674D01*
X72658Y35370D01*
X72858Y35108D01*
X75858Y32109D01*
X75858Y32108D01*
X76120Y31908D01*
X76424Y31782D01*
X76750Y31739D01*
X85461D01*
X85788Y31782D01*
X86092Y31908D01*
X86353Y32108D01*
X89599Y35355D01*
X89800Y35616D01*
X89925Y35920D01*
X89968Y36246D01*
Y38185D01*
X92022Y40239D01*
X92635D01*
X92741Y40158D01*
D02*
G37*
G36*
X95277Y48787D02*
X95350Y48730D01*
X95341Y48624D01*
X94608Y47892D01*
X94408Y47630D01*
X94282Y47326D01*
X94239Y47000D01*
Y46022D01*
X92608Y44392D01*
X90608Y42392D01*
X87816Y39599D01*
X87616Y39338D01*
X87490Y39034D01*
X87447Y38708D01*
Y36768D01*
X84939Y34261D01*
X83993D01*
X83739Y34371D01*
X83739Y34561D01*
Y35410D01*
X82550D01*
Y35710D01*
X83739D01*
Y36749D01*
X83136D01*
X82999Y37020D01*
X83008Y37049D01*
X83249Y37189D01*
X83461Y37401D01*
X83611Y37660D01*
X83689Y37950D01*
Y38250D01*
X83611Y38540D01*
X83461Y38799D01*
X83249Y39011D01*
X82990Y39161D01*
X82887Y39189D01*
X82887Y39499D01*
X83009Y39532D01*
X83280Y39689D01*
X83501Y39910D01*
X83658Y40181D01*
X83739Y40483D01*
Y40490D01*
X82550D01*
Y40790D01*
X83739D01*
Y40797D01*
X83658Y41099D01*
X83501Y41370D01*
X83497Y41374D01*
X83621Y41674D01*
X87732D01*
X87859Y41700D01*
X87967Y41771D01*
X95012Y48816D01*
X95277Y48787D01*
D02*
G37*
G36*
X20750Y22739D02*
X30978D01*
X31739Y21978D01*
Y16737D01*
X30303Y15301D01*
X29986Y15408D01*
X29981Y15446D01*
X29906Y15629D01*
X29785Y15785D01*
X29629Y15906D01*
X29446Y15981D01*
X29250Y16007D01*
X27626D01*
X27626Y16007D01*
X27528Y15994D01*
X27430Y15981D01*
X27248Y15906D01*
X27091Y15785D01*
X26062Y14756D01*
X24250D01*
X24054Y14731D01*
X23872Y14655D01*
X23715Y14535D01*
X23715Y14535D01*
X23092Y13912D01*
X23061Y13924D01*
X22800Y13959D01*
X22794D01*
Y19714D01*
X22760Y19975D01*
X22659Y20219D01*
X22499Y20428D01*
X20450Y22476D01*
X20590Y22760D01*
X20750Y22739D01*
D02*
G37*
G36*
X18991Y12660D02*
X19160Y12491D01*
X19381Y12400D01*
X19394D01*
X19401Y12394D01*
X19533Y12100D01*
X19453Y11995D01*
X19352Y11752D01*
X19343Y11680D01*
X19257Y11622D01*
X19021Y11537D01*
X18869Y11600D01*
X18631D01*
X18410Y11509D01*
X18241Y11340D01*
X18150Y11119D01*
Y10881D01*
X18154Y10872D01*
X17953Y10672D01*
X16066D01*
X15939Y10646D01*
X15832Y10575D01*
X15491Y10234D01*
X15456Y10182D01*
X15325Y10095D01*
X15295Y10085D01*
X15104Y10052D01*
X14989Y10100D01*
X14761D01*
X14644Y10051D01*
X14404Y10161D01*
X14380Y10252D01*
X14376Y10499D01*
X16546Y12669D01*
X18988D01*
X18991Y12660D01*
D02*
G37*
%LPC*%
G36*
X82707Y97709D02*
X82700D01*
Y96670D01*
X83739D01*
Y96677D01*
X83658Y96979D01*
X83501Y97250D01*
X83280Y97471D01*
X83009Y97628D01*
X82707Y97709D01*
D02*
G37*
G36*
X79860Y97709D02*
X79853D01*
X79551Y97628D01*
X79280Y97471D01*
X79059Y97250D01*
X78902Y96979D01*
X78821Y96677D01*
Y96670D01*
X79860D01*
Y97709D01*
D02*
G37*
G36*
X101840Y83683D02*
Y82760D01*
X102763D01*
X102692Y83025D01*
X102550Y83270D01*
X102350Y83470D01*
X102105Y83612D01*
X101840Y83683D01*
D02*
G37*
G36*
X109445Y83635D02*
X109175D01*
X108914Y83565D01*
X108681Y83430D01*
X108490Y83239D01*
X108355Y83006D01*
X108285Y82745D01*
Y82475D01*
X108355Y82214D01*
X108490Y81981D01*
X108681Y81790D01*
X108914Y81655D01*
X109175Y81585D01*
X109445D01*
X109706Y81655D01*
X109939Y81790D01*
X110130Y81981D01*
X110265Y82214D01*
X110335Y82475D01*
Y82745D01*
X110265Y83006D01*
X110130Y83239D01*
X109939Y83430D01*
X109706Y83565D01*
X109445Y83635D01*
D02*
G37*
G36*
X102763Y82460D02*
X101840D01*
Y81537D01*
X102105Y81608D01*
X102350Y81750D01*
X102550Y81950D01*
X102692Y82195D01*
X102763Y82460D01*
D02*
G37*
G36*
X120420Y79960D02*
X119445D01*
X119521Y79676D01*
X119669Y79419D01*
X119879Y79209D01*
X120136Y79061D01*
X120420Y78985D01*
Y79960D01*
D02*
G37*
G36*
X121695D02*
X120720D01*
Y78985D01*
X121004Y79061D01*
X121261Y79209D01*
X121471Y79419D01*
X121619Y79676D01*
X121695Y79960D01*
D02*
G37*
G36*
X17585Y58910D02*
X16785D01*
X16580Y58870D01*
X16406Y58754D01*
X16290Y58580D01*
X16250Y58375D01*
Y57575D01*
X16290Y57370D01*
X16406Y57196D01*
X16580Y57080D01*
X16785Y57040D01*
X17585D01*
X17790Y57080D01*
X17963Y57196D01*
X18080Y57370D01*
X18120Y57575D01*
Y58375D01*
X18080Y58580D01*
X17963Y58754D01*
X17790Y58870D01*
X17585Y58910D01*
D02*
G37*
%LPD*%
D14*
X21750Y11500D02*
Y11684D01*
X21786Y11536D02*
Y12034D01*
X20869D02*
X21786D01*
X22502Y12750D01*
X21434Y12000D02*
X21750Y11684D01*
X21786Y12034D02*
X22284D01*
X22502Y12750D02*
X23000D01*
X20317Y11317D02*
X21786D01*
X20000Y11750D02*
X20327Y11423D01*
X21185D02*
X21214Y11394D01*
X20722Y11886D02*
X21185Y11423D01*
X22284Y12034D02*
X22502D01*
X21786Y11426D02*
Y11536D01*
X21731Y11481D02*
X21750Y11461D01*
X21434Y11777D02*
X21731Y11481D01*
X21750Y11461D02*
Y11500D01*
X20544Y12034D02*
X20869D01*
X20608Y12000D02*
X20722Y11886D01*
X20423Y11588D02*
Y11923D01*
Y11423D02*
Y11588D01*
X20836Y12000D02*
X21434D01*
X20608D02*
X20836D01*
X20500Y12000D02*
X20534Y12034D01*
X21460Y12950D02*
X21786D01*
X20000Y11750D02*
X20142D01*
X20392Y12000D02*
X20500D01*
X20142Y11750D02*
X20392Y12000D01*
X19125Y8175D02*
Y9525D01*
X20510Y12000D02*
X20608D01*
X20534Y12034D02*
X20544D01*
X21460Y12950D01*
X20510Y12000D02*
X20544Y12034D01*
X20500Y12000D02*
X20510D01*
X21786Y11317D02*
Y11426D01*
Y11317D02*
X22502Y12034D01*
X21750Y11353D02*
Y11461D01*
X21786Y11426D01*
X21709Y11394D02*
X21750Y11353D01*
X21786Y11317D01*
X20500Y12000D02*
X20608D01*
X20608Y12000D02*
X20608Y12000D01*
X21434Y11777D02*
Y12000D01*
X20500Y12000D02*
X20500Y12000D01*
X21214Y11394D02*
X21709D01*
X20423Y11923D02*
X20500Y12000D01*
X19125Y9525D02*
X19135Y9535D01*
D15*
X157730Y90270D02*
X160570D01*
X144309Y101691D02*
X158270Y87730D01*
X160570D01*
X146447Y103803D02*
X158000Y92250D01*
X136750Y102750D02*
X145250D01*
X157730Y90270D01*
X124270Y90270D02*
X136750Y102750D01*
X123287Y87730D02*
X137248Y101691D01*
X120570Y90270D02*
X124270D01*
X113500Y90769D02*
Y100500D01*
X98226Y90092D02*
X112823D01*
X113500Y90769D01*
Y89500D02*
X114090Y90090D01*
Y99806D01*
X119103Y104819D01*
X72920Y90170D02*
X97328D01*
X97998Y89500D01*
X113500D01*
X76250Y100000D02*
X88318D01*
X98226Y90092D01*
X89362Y96816D02*
X91065Y95113D01*
X89362Y96816D02*
Y97605D01*
X98000Y88750D02*
X115500D01*
X116500Y89750D01*
Y98053D01*
X122250Y103803D01*
X66250Y90000D02*
X76250Y100000D01*
X119000Y106000D02*
X148221D01*
X113500Y100500D02*
X119000Y106000D01*
X119103Y104819D02*
X147586D01*
X90746Y89496D02*
X97254D01*
X98000Y88750D01*
X68750Y86000D02*
X72920Y90170D01*
X87750Y86500D02*
X90746Y89496D01*
X122250Y103803D02*
X146447D01*
X137248Y101691D02*
X144309D01*
X139371Y100371D02*
X143826D01*
X124190Y85190D02*
X139371Y100371D01*
X143826D02*
X159006Y85190D01*
X91500Y62000D02*
Y63000D01*
X89713Y64787D02*
X91500Y63000D01*
X81263Y64787D02*
X89713D01*
X80010Y66040D02*
X81263Y64787D01*
X92840Y72335D02*
X99000Y66175D01*
Y61500D02*
Y66175D01*
X80010Y73660D02*
X81335Y72335D01*
X92840D01*
X106305Y80535D02*
X108421D01*
X128188Y75575D02*
X133263Y70500D01*
X113381Y75575D02*
X128188D01*
X133263Y70500D02*
X166500D01*
X108421Y80535D02*
X113381Y75575D01*
X51500Y75000D02*
X64000D01*
X29210Y91440D02*
X30468Y90182D01*
X36318D01*
X51500Y75000D01*
X166500Y70500D02*
X181190Y85190D01*
X183430D01*
X104230Y82610D02*
X106305Y80535D01*
X82550Y66040D02*
X82590Y66000D01*
X72000Y73250D02*
X75500Y76750D01*
X72000Y65000D02*
Y73250D01*
X78580Y58420D02*
X80010D01*
X72000Y65000D02*
X78580Y58420D01*
X73350Y88900D02*
X80010D01*
X21218Y49236D02*
Y74437D01*
X81285Y52075D02*
X82550Y53340D01*
X47709Y41959D02*
X57825Y52075D01*
X81285D01*
X17207Y78449D02*
X21218Y74437D01*
X11301Y78449D02*
X17207D01*
X10250Y79500D02*
X11301Y78449D01*
X10250Y79500D02*
Y82400D01*
X12620Y84770D01*
X28496Y41959D02*
X47709D01*
X21218Y49236D02*
X28496Y41959D01*
X81280Y95250D02*
X82550Y93980D01*
X73000Y95250D02*
X81280D01*
X71000Y93250D02*
X73000Y95250D01*
X71000Y93250D02*
Y93250D01*
X74000Y66500D02*
Y70000D01*
X78240Y62260D02*
X83666D01*
X74000Y66500D02*
X78240Y62260D01*
X102997Y60500D02*
X106747Y64250D01*
X85426Y60500D02*
X102997D01*
X29210Y76200D02*
X30515Y74895D01*
X183430Y95350D02*
X185150D01*
X83666Y62260D02*
X85426Y60500D01*
X44605Y74895D02*
X49500Y70000D01*
X30515Y74895D02*
X44605D01*
X49500Y70000D02*
X64000D01*
X185150Y95350D02*
X186500Y94000D01*
X171750Y64250D02*
X186500Y79000D01*
X106747Y64250D02*
X171750D01*
X186500Y79000D02*
Y94000D01*
X27000Y68250D02*
X29210Y66040D01*
X23250Y80500D02*
X27000Y76750D01*
Y68250D02*
Y76750D01*
X88750Y44500D02*
X92750Y48500D01*
X66500Y44500D02*
X88750D01*
X61000Y50000D02*
X66500Y44500D01*
X45920Y58420D02*
X48000Y60500D01*
X31750Y58420D02*
X45920D01*
X82550Y78740D02*
X84599D01*
X119500Y84000D02*
X132000D01*
X137000Y89000D01*
X147250D01*
X117107Y86393D02*
X119500Y84000D01*
X84599Y78740D02*
X92252Y86393D01*
X117107D01*
X181000Y100500D02*
X186500D01*
X178390Y97890D02*
X181000Y100500D01*
X163610Y97890D02*
X178390D01*
X163500Y98000D02*
X163610Y97890D01*
X160570D02*
X163610D01*
X191500Y80179D02*
Y95500D01*
X186500Y100500D02*
X191500Y95500D01*
X171321Y60000D02*
X191500Y80179D01*
X121750Y60000D02*
X171321D01*
X95715Y56465D02*
X101285D01*
X93761Y58420D02*
X95715Y56465D01*
X101285D02*
X102000Y55750D01*
X82550Y58420D02*
X93761D01*
X113731Y51981D02*
X121750Y60000D01*
X102000Y52481D02*
X102500Y51981D01*
X113731D01*
X102000Y52481D02*
Y55750D01*
X100500Y62500D02*
Y66549D01*
X93389Y73660D02*
X100500Y66549D01*
X82550Y73660D02*
X93389D01*
X96000Y63000D02*
Y65620D01*
X81309Y69821D02*
X91799D01*
X96000Y65620D01*
X80010Y71120D02*
X81309Y69821D01*
X94000Y61500D02*
Y65865D01*
X91285Y68580D02*
X94000Y65865D01*
X82550Y68580D02*
X91285D01*
X81273Y80437D02*
Y82227D01*
X81710Y80000D02*
X84359D01*
X81273Y80437D02*
X81710Y80000D01*
X80901Y82599D02*
X81273Y82227D01*
X72500Y86500D02*
X74649D01*
X78550Y82599D01*
X80901D01*
X84359Y80000D02*
X91648Y87289D01*
X109211D01*
X109250Y87250D01*
X66500Y50500D02*
X67455Y49545D01*
X89545D02*
X91500Y51500D01*
X67455Y49545D02*
X89545D01*
X91500Y51500D02*
X93000D01*
X22724Y51897D02*
X27598Y47023D01*
X22724Y51897D02*
Y76526D01*
X17020Y82230D02*
X22724Y76526D01*
X49773Y47023D02*
X58630Y55880D01*
X80010D01*
X27598Y47023D02*
X49773D01*
X12620Y82230D02*
X17020D01*
X79980Y91470D02*
X80010Y91440D01*
X70250Y91500D02*
X70280Y91470D01*
X79980D01*
X81240Y92750D02*
X82550Y91440D01*
X73250Y92750D02*
X81240D01*
X31750Y50800D02*
X48300D01*
X148221Y106000D02*
X158871Y95350D01*
X160570D01*
X48300Y50800D02*
X66250Y68750D01*
Y90000D01*
X26000Y66710D02*
X29210Y63500D01*
X26000Y66710D02*
Y76282D01*
X21282Y81000D02*
X26000Y76282D01*
X21250Y81000D02*
X21282D01*
X120570Y87730D02*
X123287D01*
X93000Y62500D02*
Y64994D01*
X81332Y67258D02*
X90737D01*
X93000Y64994D01*
X80010Y68580D02*
X81332Y67258D01*
X85346Y57154D02*
X89733Y52767D01*
X92905D01*
X71000Y64500D02*
Y86500D01*
X78346Y57154D02*
X85346D01*
X71000Y64500D02*
X78346Y57154D01*
X72133Y87633D02*
X81277D01*
X71000Y86500D02*
X72133Y87633D01*
X81277D02*
X82550Y86360D01*
X80010Y50800D02*
X80322Y51112D01*
X81095D01*
X81983Y52000D01*
X86750D02*
X87250Y52500D01*
X81983Y52000D02*
X86750D01*
X167925Y74425D02*
X181230Y87730D01*
X129762Y74425D02*
X167925D01*
X128312Y75875D02*
X129762Y74425D01*
X113505Y75875D02*
X128312D01*
X106770Y82610D02*
X113505Y75875D01*
X31750Y88900D02*
X34068D01*
X50468Y72500D02*
X64000D01*
X34068Y88900D02*
X50468Y72500D01*
X181230Y87730D02*
X183430D01*
X77307Y78693D02*
X78500Y77500D01*
X77307Y78693D02*
Y80139D01*
X78500Y77500D02*
X87356D01*
X92106Y82250D01*
X78448Y81280D02*
X80010D01*
X77307Y80139D02*
X78448Y81280D01*
X92106Y82250D02*
X95441D01*
X97065Y80625D01*
X99520D01*
X100418Y81523D01*
Y83491D01*
X101389Y84462D01*
X109998D01*
X111850Y82610D01*
X159006Y85190D02*
X160570D01*
X120570Y85190D02*
X124190D01*
X66969Y47031D02*
X89531D01*
X92500Y50000D01*
X64500Y49500D02*
X66969Y47031D01*
X102000Y61412D02*
Y67900D01*
X93700Y76200D02*
X102000Y67900D01*
X81304Y54634D02*
X82550Y55880D01*
X22086Y49922D02*
X27544Y44464D01*
X48714D01*
X58884Y54634D01*
X81304D01*
X22086Y49922D02*
Y75329D01*
X17724Y79690D02*
X22086Y75329D01*
X12620Y79690D02*
X17724D01*
X86346Y85096D02*
X87750Y86500D01*
X81286Y85096D02*
X86346D01*
X80010Y83820D02*
X81286Y85096D01*
X103300Y59500D02*
X106300Y62500D01*
X171624D01*
X84010Y59500D02*
X103300D01*
X171624Y62500D02*
X187000Y77876D01*
X183430Y97890D02*
X185610D01*
X187000Y96500D01*
Y77876D02*
Y96500D01*
X82550Y60960D02*
X84010Y59500D01*
X97000Y62500D02*
Y66457D01*
X96000Y61500D02*
X97000Y62500D01*
X92337Y71120D02*
X97000Y66457D01*
X82550Y71120D02*
X92337D01*
X73000Y72558D02*
X75388Y74946D01*
X73000Y66000D02*
X78040Y60960D01*
X73000Y66000D02*
Y72558D01*
X78040Y60960D02*
X80010D01*
X75388Y74946D02*
X86446D01*
X92425Y80925D01*
X93675D02*
X93750Y81000D01*
X92425Y80925D02*
X93675D01*
X82550Y50800D02*
X82575Y50775D01*
X87725D02*
X87750Y50750D01*
X82575Y50775D02*
X87725D01*
X29210Y50800D02*
X30465Y49545D01*
X49295D01*
X159595Y92810D02*
X160570D01*
X147586Y104819D02*
X159595Y92810D01*
X68750Y69000D02*
Y86000D01*
X49295Y49545D02*
X68750Y69000D01*
X93151Y53500D02*
X94000D01*
X95000Y52500D01*
X87732Y42006D02*
X95000Y49273D01*
Y52500D01*
X93425Y55425D02*
X93500Y55500D01*
X92925Y55425D02*
X93425D01*
X92500Y55000D02*
X92925Y55425D01*
X38782Y64468D02*
X42750Y60500D01*
X31750Y68580D02*
X34920D01*
X38782Y64468D02*
Y64718D01*
X34920Y68580D02*
X38782Y64718D01*
X92500Y54151D02*
X93151Y53500D01*
X92500Y54151D02*
Y55000D01*
X66494Y42006D02*
X87732D01*
X59000Y49500D02*
X66494Y42006D01*
X19750Y71000D02*
Y73750D01*
X16350Y77150D02*
X19750Y73750D01*
X12620Y77150D02*
X16350D01*
X118813Y65750D02*
X124500D01*
X97750Y78960D02*
X105603D01*
X120250Y66750D02*
X126000D01*
X105603Y78960D02*
X118813Y65750D01*
X107040Y79960D02*
X120250Y66750D01*
X100500Y79960D02*
X107040D01*
X88750Y31000D02*
X90750Y33000D01*
X104000D02*
X117750Y46750D01*
X90750Y33000D02*
X104000D01*
X92750Y32500D02*
X106000D01*
X90500Y30250D02*
X92750Y32500D01*
X106000D02*
X120500Y47000D01*
X72000Y32500D02*
X73500Y31000D01*
X71000Y32500D02*
X72000D01*
X73500Y31000D02*
X88750D01*
X70500Y33000D02*
X70500D01*
X71000Y32500D01*
X68500Y33000D02*
X71250Y30250D01*
X90500D01*
X148351Y93000D02*
X148500D01*
X148161Y92810D02*
X148351Y93000D01*
X143430Y92810D02*
X148161D01*
X143430Y90270D02*
X143555Y90395D01*
X148395D01*
X148500Y90500D01*
X24000Y5250D02*
X26500Y2750D01*
X24000Y5250D02*
Y8250D01*
X22016Y10234D02*
X24000Y8250D01*
X19516Y10234D02*
X22016D01*
X18750Y11000D02*
X19516Y10234D01*
X17750Y6250D02*
Y7000D01*
X21250Y2750D02*
X23750D01*
X17750Y6250D02*
X21250Y2750D01*
X68500Y33000D02*
Y35250D01*
X69250Y36000D01*
X117750Y46750D02*
Y53750D01*
X120500Y47000D02*
Y53750D01*
X146940Y34690D02*
X147000Y34750D01*
X146940Y7598D02*
Y34690D01*
X149421Y7539D02*
X149460Y7578D01*
Y29460D02*
X149500Y29500D01*
X149460Y7578D02*
Y29460D01*
X154250Y11304D02*
X154500Y11054D01*
X154250Y11304D02*
Y24750D01*
X154500Y7539D02*
Y11054D01*
X159665Y7623D02*
Y20165D01*
X159750Y20250D01*
X157020Y7559D02*
Y22480D01*
X157000Y22500D02*
X157020Y22480D01*
X126530Y7569D02*
Y35720D01*
X126500Y35750D02*
X126530Y35720D01*
Y7569D02*
X126561Y7539D01*
X134215Y7573D02*
Y29215D01*
X134250Y29250D01*
X134181Y7539D02*
X134215Y7573D01*
X154500Y7539D02*
X154501Y7539D01*
X144295Y7584D02*
Y20205D01*
X144250Y20250D02*
X144295Y20205D01*
Y7584D02*
X144341Y7539D01*
X136735Y7553D02*
Y26985D01*
X136750Y27000D01*
X136721Y7539D02*
X136735Y7553D01*
X129175Y7613D02*
Y33425D01*
X129250Y33500D01*
X129101Y7539D02*
X129175Y7613D01*
X139255Y7544D02*
X139261Y7539D01*
X139255Y7544D02*
Y24745D01*
X139250Y24750D02*
X139255Y24745D01*
X157020Y7559D02*
X157041Y7539D01*
X126561Y5009D02*
X128319Y3250D01*
X152500D01*
X153250Y4000D01*
Y6249D01*
X151961Y7539D02*
X153250Y6249D01*
X131695Y7593D02*
Y31445D01*
X131750Y31500D01*
X131641Y7539D02*
X131695Y7593D01*
X158292Y6250D02*
X159665Y7623D01*
X155742Y6250D02*
X158292D01*
X154501Y5009D02*
X155742Y6250D01*
X145592D02*
X146940Y7598D01*
X130342Y6250D02*
X145592D01*
X129101Y5009D02*
X130342Y6250D01*
X141775Y7564D02*
Y22475D01*
X141750Y22500D02*
X141775Y22475D01*
Y7564D02*
X141801Y7539D01*
X16409Y13000D02*
X19500D01*
X13401Y9992D02*
X16409Y13000D01*
X13401Y7599D02*
Y9992D01*
Y7599D02*
X14000Y7000D01*
X17750D01*
X18275Y7525D02*
Y8175D01*
X17750Y7000D02*
X18275Y7525D01*
X15725Y9999D02*
X16066Y10340D01*
X15725Y9525D02*
Y9999D01*
X16066Y10340D02*
X18090D01*
X18750Y11000D01*
D18*
X82550Y63500D02*
X88000D01*
X90250Y61250D01*
X163384Y6262D02*
X164661Y7539D01*
X163384Y3812D02*
Y6262D01*
X121481Y3269D02*
X122500Y2250D01*
X121481Y3269D02*
Y5009D01*
X161822Y2250D02*
X163384Y3812D01*
X122500Y2250D02*
X161822D01*
X2500Y110000D02*
G03*
X-0Y107500I0J-2500D01*
G01*
X200000D02*
G03*
X197500Y110000I-2500J0D01*
G01*
X197500Y-0D02*
G03*
X200000Y2500I0J2500D01*
G01*
X0Y2500D02*
G03*
X2500Y0I2500J0D01*
G01*
X2500Y110000D02*
X197500Y110000D01*
X2500Y0D02*
X197500D01*
X-0Y107500D02*
X0Y2500D01*
X200000Y2500D02*
X200000Y107500D01*
D19*
X93876Y54568D02*
X95182D01*
X93557Y54250D02*
X93876Y54568D01*
X93500Y54250D02*
X93557D01*
X19975Y8850D02*
X21048D01*
X21325Y8573D01*
X19975Y8850D02*
Y9525D01*
Y8175D02*
Y8850D01*
X21325Y8545D02*
Y8573D01*
X19975Y8175D02*
X19975Y8175D01*
X14025Y9525D02*
X14025Y9525D01*
Y8175D02*
Y9525D01*
D57*
X167201Y5009D02*
D03*
X118941Y7539D02*
D03*
D58*
X167201D02*
D03*
X121481D02*
D03*
X118941Y5009D02*
D03*
X164661D02*
D03*
X139261D02*
D03*
X136721D02*
D03*
X146881Y5009D02*
D03*
X159581Y5009D02*
D03*
X144341D02*
D03*
X134181Y5009D02*
D03*
X131641Y5009D02*
D03*
X129101D02*
D03*
X151961D02*
D03*
X141801D02*
D03*
X157041Y5009D02*
D03*
X149421Y5009D02*
D03*
X154501D02*
D03*
X121481Y5009D02*
D03*
X126561Y5009D02*
D03*
X162121D02*
D03*
X124021D02*
D03*
X146881Y7539D02*
D03*
X149421D02*
D03*
X139261Y7539D02*
D03*
X126561Y7539D02*
D03*
X141801D02*
D03*
X151961Y7539D02*
D03*
X154501Y7539D02*
D03*
X157041D02*
D03*
X134181D02*
D03*
X144341D02*
D03*
X129101Y7539D02*
D03*
X136721Y7539D02*
D03*
X131641D02*
D03*
X164661Y7539D02*
D03*
X159581Y7539D02*
D03*
X124021D02*
D03*
X162121D02*
D03*
D60*
X18500Y44000D02*
D03*
X98740Y9670D02*
D03*
X29250Y101750D02*
D03*
X13500Y44000D02*
D03*
X16000D02*
D03*
X11000D02*
D03*
X13500Y41500D02*
D03*
X31750Y101750D02*
D03*
X26500Y2750D02*
D03*
X23750D02*
D03*
X98740Y12210D02*
D03*
X16000Y41500D02*
D03*
X11000D02*
D03*
D63*
X19975Y9525D02*
D03*
X19975Y8175D02*
D03*
X14025Y9525D02*
D03*
X14025Y8175D02*
D03*
X14875Y9525D02*
D03*
X15725Y9525D02*
D03*
X16575D02*
D03*
X17425D02*
D03*
X18275D02*
D03*
X19125Y9525D02*
D03*
Y8175D02*
D03*
X18275D02*
D03*
X17425D02*
D03*
X16575D02*
D03*
X15725D02*
D03*
X14875D02*
D03*
D64*
X21325Y8545D02*
D03*
X12675D02*
D03*
D65*
X21325Y5165D02*
D03*
X12675D02*
D03*
D68*
X98740Y14750D02*
D03*
D70*
X91500Y41500D02*
X93500Y43500D01*
X91500Y41500D02*
X93121D01*
X93371Y41250D01*
X93500D01*
X88708Y38708D02*
X91500Y41500D01*
X92500Y102500D02*
X93250Y101750D01*
X92500Y102500D02*
Y102500D01*
X93250Y99250D02*
Y101750D01*
X99150Y91500D02*
Y93350D01*
X93250Y99250D02*
X99150Y93350D01*
X116850Y82650D02*
X120570D01*
X116000Y83500D02*
X116850Y82650D01*
X156000Y81379D02*
Y83500D01*
X152361Y77739D02*
X156000Y81379D01*
X148118Y77739D02*
X152361D01*
X141021Y76100D02*
X146479D01*
X135036Y82086D02*
X141021Y76100D01*
X146479D02*
X148118Y77739D01*
X121134Y82086D02*
X135036D01*
X120570Y82650D02*
X121134Y82086D01*
X95182Y54568D02*
X96750Y53000D01*
Y48250D02*
Y53000D01*
X95500Y45500D02*
Y47000D01*
X96750Y48250D01*
X93500Y43500D02*
X95500Y45500D01*
X93500Y41250D02*
Y43500D01*
X95525Y36975D02*
Y39225D01*
X93500Y41250D02*
X95525Y39225D01*
X88708Y36246D02*
Y38708D01*
X73165Y38544D02*
X73751D01*
X85461Y33000D02*
X88708Y36246D01*
X76750Y33000D02*
X85461D01*
X73751Y36001D02*
Y38544D01*
X73750Y36000D02*
X76750Y33000D01*
X72518Y37897D02*
X73165Y38544D01*
X59147Y37897D02*
X72518D01*
X58500Y37250D02*
X59147Y37897D01*
X52500Y37250D02*
X58500D01*
X48750Y33500D02*
X52500Y37250D01*
X73750Y36000D02*
X73751Y36001D01*
X41000Y33500D02*
X44500D01*
X46500D01*
X48750D01*
X26500Y40740D02*
Y41740D01*
X31750Y40640D02*
X33360D01*
X35500Y38500D01*
X26500Y40740D02*
X26750Y40490D01*
X31600D02*
X31750Y40640D01*
X38375Y37000D02*
X38578D01*
X39000Y36578D01*
X35500Y38500D02*
X36875D01*
X38375Y37000D01*
X39000Y33500D02*
X39000Y33500D01*
X39000Y33500D02*
X41000D01*
X39000Y33500D02*
Y36578D01*
X22010Y40490D02*
X24750D01*
X26750D02*
X31600D01*
X24750D02*
X26750D01*
X14500Y61875D02*
X14875Y61500D01*
X14500Y61875D02*
Y73500D01*
Y50250D02*
Y61875D01*
X14875Y61500D02*
X19500D01*
X14500Y50250D02*
X18500Y46250D01*
Y44000D02*
Y45750D01*
Y44000D02*
X22010Y40490D01*
X18500Y45750D02*
Y46250D01*
X100250Y45250D02*
Y45250D01*
X99218Y44218D02*
X100250Y45250D01*
X118941Y10691D02*
X119000Y10750D01*
X95500Y17500D02*
X101750D01*
X99218Y36206D02*
Y44218D01*
X97512Y34500D02*
X99218Y36206D01*
X111000Y12750D02*
X115500Y8250D01*
X118750Y10500D02*
X118941Y10691D01*
X101750Y17500D02*
X106500Y12750D01*
X111000D01*
X91750Y36000D02*
X93250Y34500D01*
X97512D01*
X91750Y36000D02*
Y37750D01*
X89750Y20000D02*
X93000D01*
X95500Y17500D01*
X84750Y25000D02*
X89750Y20000D01*
X118941Y7539D02*
Y10691D01*
X118229Y8250D02*
X118941Y7539D01*
X117000Y10500D02*
X118750D01*
X117000D02*
X117250Y10250D01*
Y8250D02*
Y10250D01*
X115500Y8250D02*
X117250D01*
X118229D01*
X117000Y9750D02*
Y10500D01*
X115500Y8250D02*
X117000Y9750D01*
X31600Y38250D02*
X31750Y38100D01*
X26500Y38250D02*
X31600D01*
X28709Y37599D02*
X29210Y38100D01*
X27766Y37000D02*
X28365Y37599D01*
X28709D01*
X26500Y37000D02*
X27766D01*
X24750Y38250D02*
X26500D01*
X24750D02*
X26000Y37000D01*
X26500D02*
Y38250D01*
X22500Y33000D02*
X26500Y37000D01*
X26000D02*
X26500D01*
X22000Y32500D02*
X22500Y33000D01*
X65960Y27940D02*
X66000Y27900D01*
Y26172D02*
Y27900D01*
X22500Y31500D02*
Y33000D01*
X19750Y31500D02*
X22500D01*
X18500Y32500D02*
X22000D01*
X16000D02*
X17250D01*
X16000D02*
X17000Y31500D01*
X17250Y32500D02*
X18500D01*
X17250Y27500D02*
Y31500D01*
Y32500D01*
Y31500D02*
X19750D01*
X17000D02*
X17250D01*
X64828Y25000D02*
X66000Y26172D01*
X64828Y25000D02*
X84750D01*
X40500Y24000D02*
X41500Y25000D01*
X64828D01*
X33000Y16215D02*
Y22500D01*
X32250Y10500D02*
X33250Y9500D01*
X31500Y24000D02*
X40500D01*
X31500D02*
X33000Y22500D01*
X29750Y12965D02*
X33000Y16215D01*
X20750Y24000D02*
X31500D01*
X31750Y9250D02*
Y10500D01*
X29910D02*
X31750D01*
X32250D01*
X29910D02*
X31250Y9160D01*
X32500Y8750D02*
X33250Y9500D01*
X31250Y8750D02*
Y9160D01*
Y8750D02*
X31750Y9250D01*
X31250Y8750D02*
X32500D01*
X29750Y11250D02*
Y12965D01*
X29000Y12000D02*
X29750Y11250D01*
X29000Y10500D02*
X29910D01*
X27500Y12000D02*
X29000D01*
X17250Y27500D02*
X20750Y24000D01*
X27500Y9000D02*
X29000Y10500D01*
X27500Y9000D02*
Y12000D01*
X27250Y8750D02*
X27500Y9000D01*
D71*
X156000Y83500D02*
X158500D01*
X160445Y82775D02*
X160570Y82650D01*
X159225Y82775D02*
X160445D01*
X158500Y83500D02*
X159225Y82775D01*
X8500Y88750D02*
X9000Y89250D01*
X9250Y71500D02*
X11000D01*
X12500D01*
X8500Y72250D02*
Y88750D01*
Y72250D02*
X9250Y71500D01*
X12500D02*
X14500Y73500D01*
X99250Y54200D02*
X100150Y55100D01*
X99250Y46250D02*
Y54200D01*
X100500Y45250D02*
X102500Y43250D01*
X100250Y45250D02*
X100500D01*
X99250Y46250D02*
X100250Y45250D01*
X80010Y38100D02*
X82550D01*
X82550Y38100D01*
X27626Y15250D02*
X29250D01*
X24250Y14000D02*
X26376D01*
X27626Y15250D01*
X23000Y12750D02*
X24250Y14000D01*
D72*
X114250Y85250D02*
X116000Y83500D01*
X96250Y85250D02*
X114250D01*
X96548Y85212D02*
X99150Y82610D01*
X96250Y85250D02*
X96288Y85212D01*
X96548D01*
X9325Y90575D02*
X9525Y90775D01*
X10450Y89850D01*
X9000Y91300D02*
X9525Y90775D01*
X9000Y89850D02*
X10450D01*
X9000Y90575D02*
X9325D01*
X11000Y89850D02*
X12620D01*
X10450D02*
X11000D01*
X10438Y89288D02*
X11000Y89850D01*
X9038Y89288D02*
X10438D01*
X9000Y89250D02*
X9038Y89288D01*
X9000Y91300D02*
X9000Y91300D01*
X8275Y90575D02*
X9000D01*
Y89850D02*
Y90575D01*
Y91300D01*
X8275Y90575D02*
X9000Y91300D01*
X7550Y89850D02*
X8275Y90575D01*
X8962Y89288D02*
X9000Y89250D01*
Y89850D01*
X7550D02*
X9000D01*
X5000D02*
X7550D01*
X8112Y89288D02*
X8962D01*
X7550Y89850D02*
X8112Y89288D01*
X18500Y43892D02*
Y44000D01*
X19462Y42788D02*
X19500Y42750D01*
X18500Y43892D02*
X19462Y42930D01*
Y42788D02*
Y42930D01*
D75*
X21786Y12034D02*
Y12950D01*
X20869Y12034D02*
X21786Y12950D01*
X21673Y11423D02*
X21731Y11481D01*
X20423Y11423D02*
X21185D01*
X20423Y11588D02*
X20722Y11886D01*
X22800Y12950D02*
X23000Y12750D01*
X21786Y12950D02*
X22800D01*
X21185Y11423D02*
X21673D01*
X20327D02*
X20423D01*
X22284Y12034D02*
X23000Y12750D01*
X21786Y11536D02*
X22284Y12034D01*
X21750Y11500D02*
X21786Y11536D01*
X21731Y11481D02*
X21750Y11500D01*
X20836Y12000D02*
X20869Y12034D01*
X20722Y11886D02*
X20836Y12000D01*
X20327Y11491D02*
X20423Y11588D01*
X20327Y11423D02*
Y11491D01*
X16000Y38500D02*
Y41500D01*
X13737Y27763D02*
Y36237D01*
X16000Y38500D01*
X21786Y12950D02*
Y19714D01*
X13737Y27763D02*
X21786Y19714D01*
D76*
X16575Y9425D02*
X17325Y8675D01*
Y8275D02*
X17425Y8175D01*
X17325Y8275D02*
Y8675D01*
X16575Y9425D02*
Y9525D01*
D78*
X82550Y38100D02*
D03*
X80010Y38100D02*
D03*
X80010Y40640D02*
D03*
Y43180D02*
D03*
X82550Y45720D02*
D03*
X80010Y48260D02*
D03*
X82550Y50800D02*
D03*
X80010Y50800D02*
D03*
X80010Y53340D02*
D03*
X80010Y63500D02*
D03*
X80010Y76200D02*
D03*
Y88900D02*
D03*
X82550Y91440D02*
D03*
X80010D02*
D03*
X82550Y93980D02*
D03*
X80010Y93980D02*
D03*
X82550Y55880D02*
D03*
Y53340D02*
D03*
X80010Y55880D02*
D03*
X80010Y58420D02*
D03*
X80010Y60960D02*
D03*
X80010Y73660D02*
D03*
X82550Y68580D02*
D03*
X80010Y71120D02*
D03*
Y86360D02*
D03*
X80010Y66040D02*
D03*
X82550Y86360D02*
D03*
X82550Y71120D02*
D03*
X82550Y76200D02*
D03*
Y88900D02*
D03*
X80010Y68580D02*
D03*
X82550Y73660D02*
D03*
Y58420D02*
D03*
X82550Y60960D02*
D03*
X80010Y83820D02*
D03*
X82550Y78740D02*
D03*
X80010Y45720D02*
D03*
X82550Y66040D02*
D03*
Y43180D02*
D03*
Y96520D02*
D03*
Y63500D02*
D03*
X80010Y96520D02*
D03*
X82550Y40640D02*
D03*
X80010Y35560D02*
D03*
X82550Y83820D02*
D03*
X82550Y81280D02*
D03*
X82550Y48260D02*
D03*
X80010Y78740D02*
D03*
X80010Y81280D02*
D03*
X31750Y43180D02*
D03*
X29210D02*
D03*
X31750Y45720D02*
D03*
Y48260D02*
D03*
X29210Y48260D02*
D03*
X29210Y53340D02*
D03*
X29210Y63500D02*
D03*
X31750Y66040D02*
D03*
Y78740D02*
D03*
X29210Y78740D02*
D03*
Y83820D02*
D03*
Y88900D02*
D03*
X31750Y93980D02*
D03*
X29210Y93980D02*
D03*
X31750Y55880D02*
D03*
X29210Y55880D02*
D03*
Y60960D02*
D03*
X29210Y81280D02*
D03*
X31750Y60960D02*
D03*
X31750Y83820D02*
D03*
X29210Y45720D02*
D03*
X31750Y81280D02*
D03*
Y58420D02*
D03*
X29210Y73660D02*
D03*
X31750Y68580D02*
D03*
X29210Y71120D02*
D03*
Y86360D02*
D03*
X29210Y66040D02*
D03*
X31750Y86360D02*
D03*
X31750Y71120D02*
D03*
X31750Y76200D02*
D03*
X29210Y68580D02*
D03*
X31750Y73660D02*
D03*
X29210Y76200D02*
D03*
X29210Y50800D02*
D03*
X31750Y50800D02*
D03*
X29210Y58420D02*
D03*
X31750Y96520D02*
D03*
X29210Y96520D02*
D03*
X29210Y35560D02*
D03*
X31750Y53340D02*
D03*
Y63500D02*
D03*
Y38100D02*
D03*
X29210Y38100D02*
D03*
X31750Y91440D02*
D03*
X29210Y40640D02*
D03*
X31750D02*
D03*
X29210Y91440D02*
D03*
X31750Y88900D02*
D03*
D79*
X82550Y35560D02*
D03*
X31750Y35560D02*
D03*
D80*
X82550Y7620D02*
D03*
X29210D02*
D03*
X19725Y57975D02*
D03*
D81*
X82550Y5080D02*
D03*
X29210D02*
D03*
D82*
X120570Y97890D02*
D03*
X143430D02*
D03*
X160570D02*
D03*
X183430D02*
D03*
D83*
X183430Y85190D02*
D03*
X160570Y82650D02*
D03*
X120570Y82650D02*
D03*
X143430Y87730D02*
D03*
X120570Y92810D02*
D03*
X143430Y95350D02*
D03*
X143430Y85190D02*
D03*
X183430Y80110D02*
D03*
X160570D02*
D03*
X143430Y80110D02*
D03*
X120570D02*
D03*
X183430Y95350D02*
D03*
X160570Y90270D02*
D03*
X120570Y90270D02*
D03*
X183430Y82650D02*
D03*
X143430Y82650D02*
D03*
X160570Y95350D02*
D03*
Y87730D02*
D03*
X120570Y87730D02*
D03*
X183430Y87730D02*
D03*
X120570Y95350D02*
D03*
X160570Y85190D02*
D03*
X120570Y85190D02*
D03*
X160570Y92810D02*
D03*
X143430Y90270D02*
D03*
Y92810D02*
D03*
X183430Y92810D02*
D03*
Y90270D02*
D03*
D84*
X104230Y82610D02*
D03*
X99150Y91500D02*
D03*
Y82610D02*
D03*
X59130Y103750D02*
D03*
X12620Y89850D02*
D03*
X5000D02*
D03*
X69290Y103750D02*
D03*
X101690Y91500D02*
D03*
X101690Y82610D02*
D03*
X61670Y103750D02*
D03*
X12620Y87310D02*
D03*
X5000D02*
D03*
X63420Y27940D02*
D03*
X12620Y84770D02*
D03*
X66750Y103750D02*
D03*
X109310Y82610D02*
D03*
X12620Y82230D02*
D03*
X64210Y103750D02*
D03*
X65960Y27940D02*
D03*
X5000Y79690D02*
D03*
X58340Y27940D02*
D03*
X106770Y82610D02*
D03*
X5000Y82230D02*
D03*
Y84770D02*
D03*
X12620Y79690D02*
D03*
X104230Y91500D02*
D03*
X106770D02*
D03*
X109310D02*
D03*
X60880Y27940D02*
D03*
X55800D02*
D03*
D85*
X111850Y91500D02*
D03*
X71830Y103750D02*
D03*
X111850Y82610D02*
D03*
X68500Y27940D02*
D03*
D86*
X194000Y104000D02*
D03*
X100000D02*
D03*
Y25000D02*
D03*
X6000Y104000D02*
D03*
Y6000D02*
D03*
D87*
X195441Y70009D02*
D03*
X107441D02*
D03*
X178066Y57209D02*
D03*
X195441Y5009D02*
D03*
X178066Y7509D02*
D03*
X108066Y57184D02*
D03*
D88*
X107750Y6250D02*
D03*
D89*
X7381Y60006D02*
D03*
X7500Y28500D02*
D03*
X7381Y55006D02*
D03*
Y50006D02*
D03*
X7500Y33500D02*
D03*
D90*
X9000Y19500D02*
D03*
X14800D02*
D03*
D91*
X5000Y77150D02*
D03*
X12620D02*
D03*
D92*
X17185Y57975D02*
D03*
D93*
X11800Y14700D02*
D03*
D94*
X67500Y31000D02*
D03*
X93250Y101750D02*
D03*
X92250Y102750D02*
D03*
X89362Y97605D02*
D03*
X91500Y62000D02*
D03*
X99000Y61500D02*
D03*
X64000Y75000D02*
D03*
X93500Y54250D02*
D03*
X95500Y47000D02*
D03*
X93500Y43500D02*
D03*
X95525Y36975D02*
D03*
X19500Y61500D02*
D03*
X18316Y61977D02*
D03*
X75500Y76750D02*
D03*
X73350Y88900D02*
D03*
X197500Y97500D02*
D03*
Y92500D02*
D03*
X192500Y95000D02*
D03*
Y90000D02*
D03*
X197500Y87500D02*
D03*
X190000Y90000D02*
D03*
X182500Y107500D02*
D03*
X187500D02*
D03*
X180000Y102500D02*
D03*
X185000D02*
D03*
X190000Y95000D02*
D03*
X180000Y97500D02*
D03*
X192500Y85000D02*
D03*
X197500Y82500D02*
D03*
X190000Y85000D02*
D03*
X192500Y80000D02*
D03*
X177500Y107500D02*
D03*
X175000Y102500D02*
D03*
X172500Y107500D02*
D03*
X170000Y102500D02*
D03*
X172500Y95000D02*
D03*
X177500D02*
D03*
X167500D02*
D03*
X162500Y107500D02*
D03*
X167500D02*
D03*
X160000Y102500D02*
D03*
X165000D02*
D03*
X162500Y90000D02*
D03*
Y95000D02*
D03*
X172500Y90000D02*
D03*
X167500Y85000D02*
D03*
Y90000D02*
D03*
X172500Y85000D02*
D03*
X167500Y80000D02*
D03*
X162500D02*
D03*
Y85000D02*
D03*
Y82500D02*
D03*
Y87500D02*
D03*
X197500Y77500D02*
D03*
X192500Y65000D02*
D03*
Y75000D02*
D03*
X197500Y65000D02*
D03*
Y60000D02*
D03*
X192500D02*
D03*
X190000Y75000D02*
D03*
X187500Y72500D02*
D03*
Y65000D02*
D03*
Y60000D02*
D03*
Y70000D02*
D03*
X162500Y77500D02*
D03*
X177500D02*
D03*
X180000D02*
D03*
X167500D02*
D03*
X180000Y75000D02*
D03*
X175000Y70000D02*
D03*
Y75000D02*
D03*
X182500Y65000D02*
D03*
Y60000D02*
D03*
X170000Y67500D02*
D03*
X165000Y75000D02*
D03*
X170000Y70000D02*
D03*
X162500Y75000D02*
D03*
X165000Y67500D02*
D03*
Y57500D02*
D03*
X160000Y67500D02*
D03*
X152500Y107500D02*
D03*
X157500D02*
D03*
X142500D02*
D03*
X147500D02*
D03*
X155000Y102500D02*
D03*
Y85000D02*
D03*
X152500Y87500D02*
D03*
X132500Y107500D02*
D03*
X137500D02*
D03*
X130000Y97500D02*
D03*
Y87500D02*
D03*
X137500Y82500D02*
D03*
X127500Y95000D02*
D03*
X152500Y80000D02*
D03*
X122500Y107500D02*
D03*
X127500D02*
D03*
X112500D02*
D03*
X117500D02*
D03*
X127500Y97500D02*
D03*
X117500Y90000D02*
D03*
X115000D02*
D03*
X107500Y107500D02*
D03*
X110000Y102500D02*
D03*
X107500Y100000D02*
D03*
X127500Y85000D02*
D03*
X95000Y80000D02*
D03*
X152500Y75000D02*
D03*
X157500D02*
D03*
X147500D02*
D03*
X155000Y67500D02*
D03*
X150000Y57500D02*
D03*
Y67500D02*
D03*
X140000Y75000D02*
D03*
X135000Y67500D02*
D03*
Y75000D02*
D03*
X140000Y67500D02*
D03*
X145000D02*
D03*
X135000Y57500D02*
D03*
X132500Y77500D02*
D03*
X130000Y75000D02*
D03*
Y67500D02*
D03*
X116250Y75000D02*
D03*
X125000Y57500D02*
D03*
X130000D02*
D03*
X122500D02*
D03*
X105250Y75000D02*
D03*
X108750D02*
D03*
X113250Y70250D02*
D03*
X115000Y60000D02*
D03*
X101250Y70500D02*
D03*
X197500Y55000D02*
D03*
X192500Y50000D02*
D03*
Y55000D02*
D03*
X187500Y50000D02*
D03*
X197500D02*
D03*
X192500Y45000D02*
D03*
X187500D02*
D03*
X182500Y55000D02*
D03*
X187500D02*
D03*
X177500Y50000D02*
D03*
X182500D02*
D03*
Y45000D02*
D03*
X177500D02*
D03*
X197500D02*
D03*
Y40000D02*
D03*
X192500D02*
D03*
Y35000D02*
D03*
X197500D02*
D03*
X192500Y30000D02*
D03*
X187500D02*
D03*
X182500Y40000D02*
D03*
X187500D02*
D03*
X177500D02*
D03*
X182500Y35000D02*
D03*
X187500D02*
D03*
X177500D02*
D03*
X172500Y55000D02*
D03*
X170000Y57500D02*
D03*
X165000Y52500D02*
D03*
X172500Y50000D02*
D03*
Y45000D02*
D03*
X165000Y47500D02*
D03*
X160000Y57500D02*
D03*
X155000Y52500D02*
D03*
Y57500D02*
D03*
X160000Y52500D02*
D03*
Y47500D02*
D03*
X155000D02*
D03*
X172500Y40000D02*
D03*
X165000Y37500D02*
D03*
Y42500D02*
D03*
X172500Y35000D02*
D03*
Y30000D02*
D03*
X165000Y32500D02*
D03*
X160000Y42500D02*
D03*
X155000Y37500D02*
D03*
Y42500D02*
D03*
X160000Y37500D02*
D03*
Y32500D02*
D03*
X155000D02*
D03*
X197500Y30000D02*
D03*
Y25000D02*
D03*
X187500D02*
D03*
X192500D02*
D03*
Y20000D02*
D03*
X197500D02*
D03*
X187500D02*
D03*
X182500Y30000D02*
D03*
X177500Y25000D02*
D03*
Y30000D02*
D03*
X182500Y25000D02*
D03*
Y20000D02*
D03*
X177500D02*
D03*
X197500Y15000D02*
D03*
X192500Y10000D02*
D03*
Y15000D02*
D03*
X187500Y10000D02*
D03*
X197500D02*
D03*
X190000Y2500D02*
D03*
X182500Y15000D02*
D03*
X187500D02*
D03*
X177500D02*
D03*
X182500Y10000D02*
D03*
X185000Y2500D02*
D03*
X180000D02*
D03*
X172500Y25000D02*
D03*
Y20000D02*
D03*
X165000Y27500D02*
D03*
Y22500D02*
D03*
Y17500D02*
D03*
X172500Y15000D02*
D03*
X162500Y17500D02*
D03*
X160000Y27500D02*
D03*
X157500Y25000D02*
D03*
X152500Y27500D02*
D03*
X160000Y22500D02*
D03*
X152500Y17500D02*
D03*
X172500Y10000D02*
D03*
Y5000D02*
D03*
X175000Y2500D02*
D03*
X170000D02*
D03*
X158000Y14500D02*
D03*
X167500Y10000D02*
D03*
X165000Y2500D02*
D03*
X140000Y57500D02*
D03*
X145000D02*
D03*
X115000D02*
D03*
X122500Y55000D02*
D03*
X132500D02*
D03*
X140000Y52500D02*
D03*
X127500Y55000D02*
D03*
X112500D02*
D03*
X150000Y52500D02*
D03*
X145000Y47500D02*
D03*
Y52500D02*
D03*
X135000Y50000D02*
D03*
X150000Y47500D02*
D03*
X101000Y47000D02*
D03*
X150000Y42500D02*
D03*
X145000Y40000D02*
D03*
X140000Y45000D02*
D03*
X135000Y32500D02*
D03*
X150000D02*
D03*
X145000Y22500D02*
D03*
X140000Y27500D02*
D03*
X125000Y42500D02*
D03*
Y37500D02*
D03*
X120000Y42500D02*
D03*
X130000Y37500D02*
D03*
X125000Y17500D02*
D03*
X117500Y20000D02*
D03*
Y2500D02*
D03*
X107500Y30000D02*
D03*
X101000Y37000D02*
D03*
X97500Y37500D02*
D03*
X112500Y25000D02*
D03*
Y20000D02*
D03*
X110000Y15000D02*
D03*
X112500Y2500D02*
D03*
X107500Y25000D02*
D03*
Y20000D02*
D03*
X102500Y2500D02*
D03*
X97500D02*
D03*
X87500Y107500D02*
D03*
X92500D02*
D03*
X77500D02*
D03*
X82500D02*
D03*
X85000Y102500D02*
D03*
X90000D02*
D03*
X80000D02*
D03*
X67500Y107500D02*
D03*
X72500D02*
D03*
X62500D02*
D03*
X71409Y100296D02*
D03*
X60000Y100000D02*
D03*
X69421Y97024D02*
D03*
X67500Y87500D02*
D03*
X62500Y97500D02*
D03*
X65000Y92500D02*
D03*
X60000D02*
D03*
X62500Y87500D02*
D03*
X65000Y80000D02*
D03*
X60000D02*
D03*
X57500Y107500D02*
D03*
X52500D02*
D03*
X50000Y102500D02*
D03*
X42500Y107500D02*
D03*
X47500D02*
D03*
X40000Y102500D02*
D03*
X45000D02*
D03*
X47500Y97500D02*
D03*
X42500D02*
D03*
X57500D02*
D03*
Y87500D02*
D03*
X55000Y92500D02*
D03*
Y80000D02*
D03*
X57500Y77500D02*
D03*
X52500D02*
D03*
Y97500D02*
D03*
X50000Y92500D02*
D03*
X45000D02*
D03*
X47500Y87500D02*
D03*
X52500D02*
D03*
X42500D02*
D03*
X90250Y61250D02*
D03*
X88490Y56428D02*
D03*
X72500Y57500D02*
D03*
X94000Y47000D02*
D03*
X90000Y42500D02*
D03*
X92500Y40000D02*
D03*
X90000Y35000D02*
D03*
X77500Y40000D02*
D03*
X72500D02*
D03*
X77500Y35000D02*
D03*
X72500D02*
D03*
X57500Y65000D02*
D03*
X67500D02*
D03*
X55000Y67500D02*
D03*
X52500Y65000D02*
D03*
X55000Y60000D02*
D03*
X65000Y57500D02*
D03*
X50000Y55000D02*
D03*
X45000Y70000D02*
D03*
X42500Y65000D02*
D03*
Y72500D02*
D03*
X47500Y65000D02*
D03*
X45000Y55000D02*
D03*
Y60000D02*
D03*
X60000Y45000D02*
D03*
X57500Y40000D02*
D03*
Y47500D02*
D03*
X62500Y40000D02*
D03*
X67500D02*
D03*
X57500Y35000D02*
D03*
X55000Y45000D02*
D03*
X47500Y40000D02*
D03*
X42500D02*
D03*
X52500D02*
D03*
Y35000D02*
D03*
X42473Y35488D02*
D03*
X37500Y107500D02*
D03*
X35000Y102500D02*
D03*
X27500Y107500D02*
D03*
X32500D02*
D03*
X37500Y97500D02*
D03*
X22500Y107500D02*
D03*
X20000Y102500D02*
D03*
X17500Y107500D02*
D03*
X25000Y102500D02*
D03*
X22500Y97500D02*
D03*
X17500D02*
D03*
X40000Y92500D02*
D03*
Y80000D02*
D03*
X35000Y82500D02*
D03*
X37500D02*
D03*
X40000Y77500D02*
D03*
X35000Y72500D02*
D03*
Y77500D02*
D03*
X20000Y92500D02*
D03*
X17500Y87500D02*
D03*
X22500D02*
D03*
X15000Y102500D02*
D03*
X12500Y97500D02*
D03*
Y107500D02*
D03*
X2500Y97500D02*
D03*
X10000Y75000D02*
D03*
X2500Y87500D02*
D03*
Y92500D02*
D03*
Y77500D02*
D03*
Y72500D02*
D03*
Y82500D02*
D03*
X37500Y70000D02*
D03*
X38727Y62271D02*
D03*
X35000Y65000D02*
D03*
Y60000D02*
D03*
Y55000D02*
D03*
X40000D02*
D03*
X25000Y52500D02*
D03*
Y57500D02*
D03*
X20000Y47500D02*
D03*
Y63500D02*
D03*
X22500Y42500D02*
D03*
X37500Y40000D02*
D03*
X12500Y62500D02*
D03*
X7500Y70000D02*
D03*
X2500Y67500D02*
D03*
Y57500D02*
D03*
Y62500D02*
D03*
X16500Y52000D02*
D03*
X12500Y51000D02*
D03*
Y57500D02*
D03*
X2500Y45000D02*
D03*
Y52500D02*
D03*
Y37500D02*
D03*
Y40000D02*
D03*
X47500Y35000D02*
D03*
X72500Y27500D02*
D03*
X77500D02*
D03*
X52500D02*
D03*
X82500D02*
D03*
X92500D02*
D03*
X67500Y22500D02*
D03*
X72500D02*
D03*
X82500D02*
D03*
X92500D02*
D03*
X77500D02*
D03*
X52500D02*
D03*
X57500D02*
D03*
X47500D02*
D03*
X62500D02*
D03*
Y17500D02*
D03*
X47500D02*
D03*
X37112Y34973D02*
D03*
X35000Y32500D02*
D03*
X32500Y30000D02*
D03*
X30000Y32500D02*
D03*
X35000Y20000D02*
D03*
X42500Y17500D02*
D03*
X29500Y18250D02*
D03*
X82500Y17500D02*
D03*
X92500D02*
D03*
X77500D02*
D03*
X72500Y12500D02*
D03*
X82500D02*
D03*
X92500D02*
D03*
X77500D02*
D03*
X67500Y17500D02*
D03*
X72500D02*
D03*
X62500Y12500D02*
D03*
X67500D02*
D03*
Y7500D02*
D03*
X62500D02*
D03*
X87500D02*
D03*
X92500D02*
D03*
X87500Y2500D02*
D03*
X92500D02*
D03*
X82500D02*
D03*
X72500Y7500D02*
D03*
X77500D02*
D03*
X62500Y2500D02*
D03*
X72500D02*
D03*
X77500D02*
D03*
X67500D02*
D03*
X52500Y17500D02*
D03*
X57500D02*
D03*
X42500Y12500D02*
D03*
X47500D02*
D03*
X52500D02*
D03*
X57500D02*
D03*
X37500Y7500D02*
D03*
X28750Y16500D02*
D03*
X37500Y12500D02*
D03*
X33750Y13200D02*
D03*
X52500Y7500D02*
D03*
X57500D02*
D03*
X47500D02*
D03*
X52500Y2500D02*
D03*
X57500D02*
D03*
X47500D02*
D03*
X42500Y7500D02*
D03*
X37500Y2500D02*
D03*
X42500D02*
D03*
X32500D02*
D03*
X25000Y32500D02*
D03*
Y18500D02*
D03*
X25250Y15250D02*
D03*
X2500Y32500D02*
D03*
Y27500D02*
D03*
X18750Y16250D02*
D03*
X2500Y17500D02*
D03*
Y22500D02*
D03*
X17500Y11000D02*
D03*
X2500Y12500D02*
D03*
X17500Y2500D02*
D03*
X12500D02*
D03*
X71000Y93250D02*
D03*
X74000Y70000D02*
D03*
X64000D02*
D03*
X23250Y80500D02*
D03*
X92750Y48500D02*
D03*
X61000Y50000D02*
D03*
X48000Y60500D02*
D03*
X147250Y89000D02*
D03*
X100500Y62500D02*
D03*
X96000Y63000D02*
D03*
X94000Y61500D02*
D03*
X72500Y86500D02*
D03*
X109250Y87250D02*
D03*
X93000Y51500D02*
D03*
X66500Y50500D02*
D03*
X70250Y91500D02*
D03*
X73250Y92750D02*
D03*
X102500Y43250D02*
D03*
X155250Y15500D02*
D03*
X153250Y13500D02*
D03*
X21250Y81000D02*
D03*
X93000Y62500D02*
D03*
X92905Y52767D02*
D03*
X87250Y52500D02*
D03*
X64000Y72500D02*
D03*
X91065Y95113D02*
D03*
X92500Y50000D02*
D03*
X64500Y49500D02*
D03*
X102000Y61412D02*
D03*
X93700Y76200D02*
D03*
X158000Y92250D02*
D03*
X96000Y61500D02*
D03*
X93750Y81000D02*
D03*
X87750Y50750D02*
D03*
X93500Y55500D02*
D03*
X42750Y60500D02*
D03*
X59000Y49500D02*
D03*
X19750Y71000D02*
D03*
X124500Y65750D02*
D03*
X126000Y66750D02*
D03*
X148500Y93000D02*
D03*
Y90500D02*
D03*
X100500Y79960D02*
D03*
X97750Y78960D02*
D03*
X69250Y36000D02*
D03*
X70500Y33000D02*
D03*
X117750Y53750D02*
D03*
X120500D02*
D03*
X149500Y29500D02*
D03*
X147000Y34750D02*
D03*
X154250Y24750D02*
D03*
X159750Y20250D02*
D03*
X157000Y22500D02*
D03*
X126500Y35750D02*
D03*
X134250Y29250D02*
D03*
X144250Y20250D02*
D03*
X136750Y27000D02*
D03*
X129250Y33500D02*
D03*
X139250Y24750D02*
D03*
X131750Y31500D02*
D03*
X141750Y22500D02*
D03*
X29250Y15250D02*
D03*
X19500Y13000D02*
D03*
X18750Y11000D02*
D03*
D95*
X24250Y62500D02*
D03*
X156000Y83500D02*
D03*
X118250D02*
D03*
X158500D02*
D03*
X116000D02*
D03*
X118750Y82000D02*
D03*
X96000Y88750D02*
D03*
X96250Y85250D02*
D03*
X54250Y105750D02*
D03*
X73751Y38544D02*
D03*
X73750Y36000D02*
D03*
X46500Y33500D02*
D03*
X44500D02*
D03*
X41000D02*
D03*
X9000Y91300D02*
D03*
X14500Y73500D02*
D03*
X9000Y89250D02*
D03*
X26500Y41740D02*
D03*
X24600Y63961D02*
D03*
X39000Y33500D02*
D03*
X24750Y40490D02*
D03*
X11000Y71500D02*
D03*
X19500Y42750D02*
D03*
X18500Y45750D02*
D03*
X185376Y80115D02*
D03*
X189000Y80000D02*
D03*
X158315Y80110D02*
D03*
X183500Y78000D02*
D03*
X160500D02*
D03*
X149000Y80000D02*
D03*
X118750D02*
D03*
X156000Y78500D02*
D03*
X143500Y77750D02*
D03*
X145500D02*
D03*
X120570Y78320D02*
D03*
X116000Y78500D02*
D03*
X103250Y55000D02*
D03*
X103000Y46500D02*
D03*
X117000Y14750D02*
D03*
X115500Y11750D02*
D03*
X94000Y88750D02*
D03*
Y85250D02*
D03*
X56250Y101250D02*
D03*
X9000Y96300D02*
D03*
X7000Y95500D02*
D03*
X10567Y94658D02*
D03*
X16500Y73500D02*
D03*
X20000Y67500D02*
D03*
X21000Y37500D02*
D03*
X11000Y65500D02*
D03*
X17199Y37402D02*
D03*
X45050Y30050D02*
D03*
X43000Y28500D02*
D03*
X31000Y28000D02*
D03*
Y20500D02*
D03*
X27500Y29500D02*
D03*
X25000D02*
D03*
X28000Y19500D02*
D03*
X23000Y28000D02*
D03*
X21500Y29500D02*
D03*
X21000Y26500D02*
D03*
X23500Y21000D02*
D03*
X25700Y7523D02*
D03*
X185500Y82750D02*
D03*
X189000Y82000D02*
D03*
X149000D02*
D03*
X147000Y83500D02*
D03*
X181500Y81500D02*
D03*
X100150Y55100D02*
D03*
X100250Y45250D02*
D03*
X166750Y14000D02*
D03*
X162750D02*
D03*
X119000Y10750D02*
D03*
X117000Y10500D02*
D03*
X24750Y38250D02*
D03*
X26500Y37000D02*
D03*
X22500Y33000D02*
D03*
Y31500D02*
D03*
X20500Y33000D02*
D03*
X13500Y38250D02*
D03*
X18500Y32500D02*
D03*
X19750Y31500D02*
D03*
X16000Y32500D02*
D03*
X31750Y10500D02*
D03*
X33250Y9500D02*
D03*
X31250Y8750D02*
D03*
X29910Y10500D02*
D03*
X27500Y12000D02*
D03*
X27250Y8750D02*
D03*
X23000Y12750D02*
D03*
X21786Y11317D02*
D03*
X20500Y12000D02*
D03*
D96*
X91750Y37750D02*
D03*
Y36250D02*
D03*
M02*
