G04*
G04 #@! TF.GenerationSoftware,Altium Limited,Altium Designer,25.5.2 (35)*
G04*
G04 Layer_Physical_Order=3*
G04 Layer_Color=128*
%FSLAX43Y43*%
%MOMM*%
G71*
G04*
G04 #@! TF.SameCoordinates,4F66119B-7B72-4549-9651-36E21DA7A037*
G04*
G04*
G04 #@! TF.FilePolarity,Negative*
G04*
G01*
G75*
%ADD19C,0.500*%
%ADD65C,1.700*%
%ADD97C,1.016*%
%ADD98C,1.610*%
G04:AMPARAMS|DCode=99|XSize=1.61mm|YSize=1.61mm|CornerRadius=0mm|HoleSize=0mm|Usage=FLASHONLY|Rotation=0.000|XOffset=0mm|YOffset=0mm|HoleType=Round|Shape=Relief|Width=0.5mm|Gap=0.25mm|Entries=4|*
%AMTHD99*
7,0,0,1.610,1.110,0.500,45*
%
%ADD99THD99*%
%ADD100O,4.000X1.800*%
%ADD101O,1.800X4.000*%
%ADD103C,2.300*%
%ADD105C,2.000*%
G04:AMPARAMS|DCode=107|XSize=2mm|YSize=2mm|CornerRadius=0mm|HoleSize=0mm|Usage=FLASHONLY|Rotation=0.000|XOffset=0mm|YOffset=0mm|HoleType=Round|Shape=Relief|Width=0.5mm|Gap=0.25mm|Entries=4|*
%AMTHD107*
7,0,0,2.000,1.500,0.500,45*
%
%ADD107THD107*%
%ADD114C,1.400*%
%ADD115C,1.500*%
%ADD116C,1.300*%
%ADD117C,4.700*%
%ADD118C,3.850*%
G04:AMPARAMS|DCode=119|XSize=6.403mm|YSize=3.85mm|CornerRadius=0mm|HoleSize=0mm|Usage=FLASHONLY|Rotation=75.800|XOffset=0mm|YOffset=0mm|HoleType=Round|Shape=Round|*
%AMOVALD119*
21,1,2.553,3.850,0.000,0.000,75.8*
1,1,3.850,-0.313,-1.238*
1,1,3.850,0.313,1.238*
%
%ADD119OVALD119*%

%ADD120O,1.600X2.400*%
%ADD121O,1.600X3.100*%
D19*
X13325Y8864D02*
X20456D01*
X183000Y86500D02*
X200000D01*
X168000Y71500D02*
X183000Y86500D01*
X155500Y71500D02*
X168000D01*
X151250Y75750D02*
X155500Y71500D01*
X151250Y75750D02*
Y83500D01*
X150250Y84500D02*
X151250Y83500D01*
X141500Y84500D02*
X150250D01*
X122000Y65000D02*
X141500Y84500D01*
X104500Y65000D02*
X122000D01*
X98500Y59000D02*
X104500Y65000D01*
X98500Y35000D02*
Y59000D01*
X94500Y31000D02*
X98500Y35000D01*
X49000Y31000D02*
X94500D01*
X38000D02*
X49000D01*
X36500Y32500D02*
X38000Y31000D01*
X36500Y32500D02*
Y36500D01*
X33500Y39500D02*
X36500Y36500D01*
X16000Y39500D02*
X33500D01*
X16000Y39000D02*
Y39500D01*
X0Y39000D02*
X16000D01*
X2500Y110000D02*
G03*
X-0Y107500I0J-2500D01*
G01*
X200000D02*
G03*
X197500Y110000I-2500J0D01*
G01*
X197500Y-0D02*
G03*
X200000Y2500I0J2500D01*
G01*
X0Y2500D02*
G03*
X2500Y0I2500J0D01*
G01*
X2500Y110000D02*
X197500Y110000D01*
X2500Y0D02*
X197500D01*
X-0Y107500D02*
X0Y2500D01*
X200000Y2500D02*
X200000Y107500D01*
D65*
X98740Y9670D02*
D03*
Y12210D02*
D03*
Y14750D02*
D03*
D97*
X197500Y-0D02*
G03*
X200000Y2500I0J2500D01*
G01*
X200000Y107500D02*
G03*
X197500Y110000I-2500J0D01*
G01*
X2500D02*
G03*
X-0Y107500I-0J-2500D01*
G01*
X0Y2500D02*
G03*
X2500Y0I2500J0D01*
G01*
X197500Y-0D01*
X200000Y2500D02*
X200000Y107500D01*
X2500Y110000D02*
X197500Y110000D01*
X-0Y107500D02*
X0Y2500D01*
D98*
X39000Y25033D02*
D03*
X21750Y25250D02*
D03*
X11000Y41500D02*
D03*
X13500D02*
D03*
X16000Y44000D02*
D03*
X13500D02*
D03*
X11000D02*
D03*
X16000Y41500D02*
D03*
X29250Y101750D02*
D03*
X26500Y2750D02*
D03*
X23750D02*
D03*
X31750Y101750D02*
D03*
D99*
X18500Y44000D02*
D03*
D100*
X11800Y14700D02*
D03*
D101*
X14800Y19500D02*
D03*
X9000D02*
D03*
D103*
X7500Y33500D02*
D03*
Y28500D02*
D03*
X7381Y60006D02*
D03*
Y55006D02*
D03*
Y50006D02*
D03*
D105*
X183430Y80110D02*
D03*
X160570D02*
D03*
X143430Y80110D02*
D03*
X120570Y80110D02*
D03*
X101690Y91500D02*
D03*
X101690Y82610D02*
D03*
X167201Y7539D02*
D03*
Y5009D02*
D03*
X121481Y7539D02*
D03*
X118941Y5009D02*
D03*
X61670Y103750D02*
D03*
X82550Y96520D02*
D03*
X80010Y96520D02*
D03*
X82550Y63500D02*
D03*
Y40640D02*
D03*
X80010Y35560D02*
D03*
X82550Y35560D02*
D03*
X63420Y27940D02*
D03*
X31750Y96520D02*
D03*
X29210Y96520D02*
D03*
X12620Y87310D02*
D03*
X5000D02*
D03*
X29210Y35560D02*
D03*
X31750Y35560D02*
D03*
X82550Y5080D02*
D03*
Y7620D02*
D03*
X29210D02*
D03*
Y5080D02*
D03*
X183430Y90270D02*
D03*
X120570Y85190D02*
D03*
Y92810D02*
D03*
Y87730D02*
D03*
Y97890D02*
D03*
Y90270D02*
D03*
Y95350D02*
D03*
X160570Y90270D02*
D03*
X82550Y81280D02*
D03*
X160570Y85190D02*
D03*
X82550Y83820D02*
D03*
X160570Y87730D02*
D03*
X80010Y45720D02*
D03*
X82550Y43180D02*
D03*
X80010Y78740D02*
D03*
X31750Y53340D02*
D03*
X143430Y85190D02*
D03*
Y92810D02*
D03*
Y87730D02*
D03*
Y97890D02*
D03*
Y90270D02*
D03*
Y95350D02*
D03*
X82550Y66040D02*
D03*
X29210Y58420D02*
D03*
X82550Y48260D02*
D03*
X31750Y63500D02*
D03*
X183430Y85190D02*
D03*
Y92810D02*
D03*
Y87730D02*
D03*
Y97890D02*
D03*
Y95350D02*
D03*
X82550Y60960D02*
D03*
X160570Y92810D02*
D03*
Y97890D02*
D03*
Y95350D02*
D03*
X31750Y58420D02*
D03*
X31750Y68580D02*
D03*
X82550Y86360D02*
D03*
X146881Y7539D02*
D03*
X131641Y5009D02*
D03*
X159581D02*
D03*
X157041Y7539D02*
D03*
X129101Y5009D02*
D03*
X149421Y7539D02*
D03*
X157041Y5009D02*
D03*
X154501Y7539D02*
D03*
X82550Y88900D02*
D03*
X154501Y5009D02*
D03*
X159581Y7539D02*
D03*
X80010Y86360D02*
D03*
X17185Y57975D02*
D03*
X109310Y82610D02*
D03*
X111850D02*
D03*
X104230D02*
D03*
X106770D02*
D03*
X80010Y81280D02*
D03*
X31750Y88900D02*
D03*
X29210Y91440D02*
D03*
X31750D02*
D03*
X82550Y78740D02*
D03*
X80010Y83820D02*
D03*
X31750Y50800D02*
D03*
X29210Y50800D02*
D03*
X29210Y76200D02*
D03*
X82550Y58420D02*
D03*
X12620Y82230D02*
D03*
Y77150D02*
D03*
Y84770D02*
D03*
Y79690D02*
D03*
X106770Y91500D02*
D03*
X111850D02*
D03*
X104230D02*
D03*
X109310D02*
D03*
X5000Y82230D02*
D03*
Y77150D02*
D03*
Y84770D02*
D03*
Y79690D02*
D03*
X66750Y103750D02*
D03*
X71830D02*
D03*
X64210D02*
D03*
X69290D02*
D03*
X19725Y57975D02*
D03*
X139261Y5009D02*
D03*
X136721D02*
D03*
X146881Y5009D02*
D03*
X144341Y5009D02*
D03*
X134181Y5009D02*
D03*
X151961Y5009D02*
D03*
X141801D02*
D03*
X149421D02*
D03*
X121481Y5009D02*
D03*
X126561Y5009D02*
D03*
X162121D02*
D03*
X124021D02*
D03*
X139261Y7539D02*
D03*
X126561Y7539D02*
D03*
X141801D02*
D03*
X151961Y7539D02*
D03*
X134181Y7539D02*
D03*
X144341D02*
D03*
X129101Y7539D02*
D03*
X136721Y7539D02*
D03*
X131641D02*
D03*
X164661Y7539D02*
D03*
X124021Y7539D02*
D03*
X162121D02*
D03*
X31750Y73660D02*
D03*
X29210Y68580D02*
D03*
X31750Y76200D02*
D03*
X31750Y71120D02*
D03*
X31750Y86360D02*
D03*
X29210Y66040D02*
D03*
X29210Y86360D02*
D03*
Y71120D02*
D03*
Y73660D02*
D03*
X31750Y81280D02*
D03*
X29210Y45720D02*
D03*
X31750Y83820D02*
D03*
X31750Y60960D02*
D03*
X29210Y81280D02*
D03*
X29210Y60960D02*
D03*
Y55880D02*
D03*
X31750Y55880D02*
D03*
X29210Y93980D02*
D03*
X31750Y93980D02*
D03*
X29210Y88900D02*
D03*
Y83820D02*
D03*
Y78740D02*
D03*
X31750Y78740D02*
D03*
Y66040D02*
D03*
X29210Y63500D02*
D03*
X29210Y53340D02*
D03*
X29210Y48260D02*
D03*
X31750Y48260D02*
D03*
Y45720D02*
D03*
X29210Y43180D02*
D03*
X31750D02*
D03*
X82550Y73660D02*
D03*
X80010Y68580D02*
D03*
X82550Y76200D02*
D03*
X82550Y71120D02*
D03*
X80010Y66040D02*
D03*
X80010Y71120D02*
D03*
X82550Y68580D02*
D03*
X80010Y73660D02*
D03*
X80010Y60960D02*
D03*
X80010Y58420D02*
D03*
X80010Y55880D02*
D03*
X82550Y53340D02*
D03*
Y55880D02*
D03*
X80010Y93980D02*
D03*
X82550Y93980D02*
D03*
X80010Y91440D02*
D03*
X82550D02*
D03*
X80010Y88900D02*
D03*
Y76200D02*
D03*
X80010Y63500D02*
D03*
X80010Y53340D02*
D03*
X80010Y50800D02*
D03*
X82550Y50800D02*
D03*
X80010Y48260D02*
D03*
X82550Y45720D02*
D03*
X80010Y43180D02*
D03*
Y40640D02*
D03*
X80010Y38100D02*
D03*
X82550Y38100D02*
D03*
X58340Y27940D02*
D03*
X68500D02*
D03*
X60880D02*
D03*
X55800D02*
D03*
D107*
X29210Y38100D02*
D03*
X31750Y38100D02*
D03*
X65960Y27940D02*
D03*
X118941Y7539D02*
D03*
X164661Y5009D02*
D03*
X143430Y82650D02*
D03*
X183430Y82650D02*
D03*
X120570Y82650D02*
D03*
X160570Y82650D02*
D03*
X99150Y82610D02*
D03*
X31750Y40640D02*
D03*
X29210D02*
D03*
X5000Y89850D02*
D03*
X12620D02*
D03*
X59130Y103750D02*
D03*
X99150Y91500D02*
D03*
D114*
X19975Y9525D02*
D03*
X14025D02*
D03*
X14025Y8175D02*
D03*
X19975D02*
D03*
X14875D02*
D03*
X19125D02*
D03*
Y9525D02*
D03*
X14875D02*
D03*
X15725Y9525D02*
D03*
X16575D02*
D03*
X17425D02*
D03*
X18275D02*
D03*
Y8175D02*
D03*
X17425D02*
D03*
X16575D02*
D03*
X15725D02*
D03*
D115*
X42250Y27750D02*
D03*
X44300Y29300D02*
D03*
X32000Y20750D02*
D03*
X35750Y20750D02*
D03*
X28500Y21000D02*
D03*
X25500D02*
D03*
X20750Y27000D02*
D03*
X21500Y29500D02*
D03*
X17199Y37402D02*
D03*
X21000Y37500D02*
D03*
X190500Y80500D02*
D03*
X156750Y80000D02*
D03*
X188750Y78500D02*
D03*
X183500Y78000D02*
D03*
X155000Y78500D02*
D03*
X160500Y78000D02*
D03*
X150000Y80000D02*
D03*
X94000Y88750D02*
D03*
X116750Y80000D02*
D03*
X94000Y85250D02*
D03*
X145500Y77750D02*
D03*
X143500D02*
D03*
X120570Y78320D02*
D03*
X115000Y78500D02*
D03*
X103250Y55000D02*
D03*
X103000Y46500D02*
D03*
X117000Y14750D02*
D03*
X115500Y11750D02*
D03*
X56250Y101250D02*
D03*
X20000Y67500D02*
D03*
X16500Y73500D02*
D03*
X9000Y96300D02*
D03*
X7000Y95500D02*
D03*
X10567Y94658D02*
D03*
X11000Y65500D02*
D03*
X25700Y7523D02*
D03*
X20500Y12000D02*
D03*
X21786Y11317D02*
D03*
X23000Y12750D02*
D03*
D116*
X122237Y69472D02*
D03*
X124047Y71280D02*
D03*
X125408Y72735D02*
D03*
X117875Y73064D02*
D03*
X122686Y72806D02*
D03*
X121301Y71268D02*
D03*
X119283Y69473D02*
D03*
X115915Y66070D02*
D03*
X156557Y96782D02*
D03*
X156250Y95000D02*
D03*
X147500Y101250D02*
D03*
X148500Y97500D02*
D03*
X143250Y102250D02*
D03*
X126250Y102500D02*
D03*
X120250D02*
D03*
X29250Y1250D02*
D03*
X25000Y5750D02*
D03*
X17500Y5000D02*
D03*
X19750Y6000D02*
D03*
X23500Y19500D02*
D03*
X23000Y22500D02*
D03*
X19297Y24947D02*
D03*
X16250Y35250D02*
D03*
X11750Y33500D02*
D03*
X15750Y29750D02*
D03*
X9000Y77000D02*
D03*
Y79750D02*
D03*
Y82250D02*
D03*
Y84750D02*
D03*
Y87500D02*
D03*
X19500Y82250D02*
D03*
X21250Y79750D02*
D03*
X18680Y79640D02*
D03*
X20837Y77537D02*
D03*
X17750Y76750D02*
D03*
X20250Y74250D02*
D03*
X24000Y76750D02*
D03*
Y74500D02*
D03*
X24500Y72250D02*
D03*
X70000Y85500D02*
D03*
X77500Y88250D02*
D03*
X76250Y94000D02*
D03*
X76500Y97500D02*
D03*
X85500Y99250D02*
D03*
X81000D02*
D03*
X74750Y100250D02*
D03*
X178000Y99000D02*
D03*
X180000Y93750D02*
D03*
Y91250D02*
D03*
X181000Y83000D02*
D03*
X180500Y85750D02*
D03*
X180250Y88250D02*
D03*
X188000Y87750D02*
D03*
Y92500D02*
D03*
X189250Y99500D02*
D03*
X187500Y98000D02*
D03*
X181500Y99500D02*
D03*
X156750Y99000D02*
D03*
X162500Y99750D02*
D03*
X146718Y91600D02*
D03*
X146708Y94146D02*
D03*
X137501Y100747D02*
D03*
X119750Y100250D02*
D03*
X116250Y97750D02*
D03*
X113500Y85500D02*
D03*
X115250Y87500D02*
D03*
X116656Y85403D02*
D03*
X123250Y80500D02*
D03*
X124500Y83250D02*
D03*
Y93000D02*
D03*
Y87750D02*
D03*
Y90500D02*
D03*
X123250Y97000D02*
D03*
X127250Y77500D02*
D03*
X131500Y81500D02*
D03*
X135250Y82500D02*
D03*
X135500Y85750D02*
D03*
X137750Y88000D02*
D03*
X135500Y89000D02*
D03*
X135750Y93500D02*
D03*
X137750Y95750D02*
D03*
X161000Y9750D02*
D03*
X158250D02*
D03*
X155750D02*
D03*
X152603Y9732D02*
D03*
X150500Y10500D02*
D03*
X145500Y19250D02*
D03*
X143000Y21500D02*
D03*
Y19250D02*
D03*
X140500Y19000D02*
D03*
X138000D02*
D03*
X135500D02*
D03*
X133000Y19250D02*
D03*
X130500D02*
D03*
X128000D02*
D03*
X125500D02*
D03*
Y21500D02*
D03*
Y23750D02*
D03*
Y26000D02*
D03*
Y28250D02*
D03*
Y30500D02*
D03*
Y32500D02*
D03*
Y34750D02*
D03*
X133000Y30750D02*
D03*
X135500Y28250D02*
D03*
X133000D02*
D03*
Y26000D02*
D03*
X135500D02*
D03*
X138000D02*
D03*
X140500Y23750D02*
D03*
X138000D02*
D03*
X135500D02*
D03*
X133000D02*
D03*
X130500D02*
D03*
Y26000D02*
D03*
Y28250D02*
D03*
Y30500D02*
D03*
Y32500D02*
D03*
X128000Y34750D02*
D03*
Y32500D02*
D03*
Y30500D02*
D03*
Y28250D02*
D03*
Y26000D02*
D03*
Y23750D02*
D03*
Y21500D02*
D03*
X130500D02*
D03*
X133000D02*
D03*
X135500D02*
D03*
X138000D02*
D03*
X140500D02*
D03*
X125250Y14250D02*
D03*
X122000Y17750D02*
D03*
X122750Y11000D02*
D03*
X127750Y11750D02*
D03*
X130500Y14250D02*
D03*
X133000D02*
D03*
X135500D02*
D03*
X138000D02*
D03*
X140500D02*
D03*
X143000D02*
D03*
X145500D02*
D03*
X148250Y13000D02*
D03*
X148000Y21250D02*
D03*
X160750Y14500D02*
D03*
Y19000D02*
D03*
X158250D02*
D03*
Y21500D02*
D03*
X155500Y23750D02*
D03*
Y21500D02*
D03*
Y19000D02*
D03*
X153000D02*
D03*
Y21500D02*
D03*
Y23750D02*
D03*
X148250Y29250D02*
D03*
Y26500D02*
D03*
Y24000D02*
D03*
X145750Y26250D02*
D03*
Y29000D02*
D03*
Y31750D02*
D03*
X145250Y35000D02*
D03*
X136250Y44250D02*
D03*
X134750Y42750D02*
D03*
X133000Y41750D02*
D03*
X130500Y41500D02*
D03*
X129750Y50500D02*
D03*
X129000Y48500D02*
D03*
X127000Y47750D02*
D03*
X125000Y47000D02*
D03*
X118500Y43500D02*
D03*
X117500Y41750D02*
D03*
X116250Y40250D02*
D03*
X114750Y38750D02*
D03*
X113500Y37500D02*
D03*
X112250Y36250D02*
D03*
X110750Y34750D02*
D03*
X109000Y33250D02*
D03*
X110250Y40500D02*
D03*
X108500Y39750D02*
D03*
X106218Y39108D02*
D03*
X103750Y38500D02*
D03*
X91750Y32750D02*
D03*
X95963Y34153D02*
D03*
X99068Y34125D02*
D03*
X105443Y34107D02*
D03*
X107276Y35065D02*
D03*
X108814Y36566D02*
D03*
X110353Y38031D02*
D03*
X115567Y43208D02*
D03*
X114222Y41891D02*
D03*
X111642Y39358D02*
D03*
X113000Y40750D02*
D03*
X117500Y45250D02*
D03*
X113500D02*
D03*
X109750D02*
D03*
X110500Y85500D02*
D03*
X103750D02*
D03*
X107250D02*
D03*
X110250Y88250D02*
D03*
X108400Y89258D02*
D03*
X99000Y88500D02*
D03*
X95000Y91500D02*
D03*
X93750Y97500D02*
D03*
X86250Y95500D02*
D03*
X88000Y80000D02*
D03*
X70000Y71250D02*
D03*
X67500D02*
D03*
X65250D02*
D03*
Y73750D02*
D03*
Y76000D02*
D03*
X70000Y78000D02*
D03*
Y76000D02*
D03*
Y73500D02*
D03*
X67500D02*
D03*
Y76000D02*
D03*
Y78000D02*
D03*
Y80000D02*
D03*
X70000D02*
D03*
Y83500D02*
D03*
X67500D02*
D03*
X65250D02*
D03*
X74250Y43000D02*
D03*
X68500D02*
D03*
X57250Y49750D02*
D03*
X58500Y51250D02*
D03*
X64500Y51000D02*
D03*
X62500Y50000D02*
D03*
X68500Y48250D02*
D03*
Y45500D02*
D03*
X74250D02*
D03*
Y48250D02*
D03*
Y50750D02*
D03*
X68500D02*
D03*
X71500Y62250D02*
D03*
X59250Y58250D02*
D03*
X61000Y59750D02*
D03*
Y57000D02*
D03*
X62750Y61500D02*
D03*
Y66500D02*
D03*
Y64000D02*
D03*
X70000Y69000D02*
D03*
X67500D02*
D03*
X65250D02*
D03*
X62750Y68750D02*
D03*
Y78000D02*
D03*
X65250D02*
D03*
X45250Y76250D02*
D03*
X42250Y79000D02*
D03*
X46000Y82500D02*
D03*
X47500Y81250D02*
D03*
X48750Y79500D02*
D03*
X47000Y77750D02*
D03*
X44000Y80750D02*
D03*
X45500Y79250D02*
D03*
X39750Y73250D02*
D03*
X43250Y77000D02*
D03*
X41500Y60000D02*
D03*
X48750Y57250D02*
D03*
X49000Y59500D02*
D03*
X52750Y57000D02*
D03*
X54500Y58750D02*
D03*
X56000Y57250D02*
D03*
X57250Y56000D02*
D03*
X53000Y54250D02*
D03*
X54250Y52750D02*
D03*
X48250Y48250D02*
D03*
X44500D02*
D03*
X37250D02*
D03*
X23500Y26000D02*
D03*
X30200Y22100D02*
D03*
X34750Y27750D02*
D03*
X26250Y27500D02*
D03*
X33750Y19250D02*
D03*
X197500Y92500D02*
D03*
Y97500D02*
D03*
X192500Y90000D02*
D03*
Y95000D02*
D03*
X197500Y87500D02*
D03*
Y82500D02*
D03*
X190000Y85000D02*
D03*
X192500D02*
D03*
X187500Y107500D02*
D03*
X185000Y102500D02*
D03*
X182500Y107500D02*
D03*
X180000Y102500D02*
D03*
X190000Y95000D02*
D03*
Y90000D02*
D03*
X180000Y97500D02*
D03*
X177500Y95000D02*
D03*
X192500Y80000D02*
D03*
X177500Y107500D02*
D03*
X175000Y102500D02*
D03*
X172500Y107500D02*
D03*
X170000Y102500D02*
D03*
X172500Y95000D02*
D03*
Y90000D02*
D03*
X167500Y95000D02*
D03*
Y90000D02*
D03*
X162500Y107500D02*
D03*
X167500D02*
D03*
X157500D02*
D03*
X160000Y102500D02*
D03*
X165000D02*
D03*
X162500Y87500D02*
D03*
Y95000D02*
D03*
Y90000D02*
D03*
X167500Y85000D02*
D03*
X172500D02*
D03*
X162500D02*
D03*
Y82500D02*
D03*
Y80000D02*
D03*
X167500D02*
D03*
X155250Y85250D02*
D03*
X197500Y77500D02*
D03*
X192500Y75000D02*
D03*
X190000D02*
D03*
X192500Y65000D02*
D03*
X187500Y72500D02*
D03*
Y70000D02*
D03*
X182500Y65000D02*
D03*
X180000Y77500D02*
D03*
Y75000D02*
D03*
X177500Y77500D02*
D03*
X175000Y75000D02*
D03*
X167500Y77500D02*
D03*
X165000Y75000D02*
D03*
X175000Y70000D02*
D03*
X170000Y67500D02*
D03*
Y70000D02*
D03*
X165000Y67500D02*
D03*
X162500Y77500D02*
D03*
Y75000D02*
D03*
X157500D02*
D03*
X160000Y67500D02*
D03*
X147500Y107500D02*
D03*
X142500D02*
D03*
X152500D02*
D03*
X132500D02*
D03*
X137500D02*
D03*
X155000Y102500D02*
D03*
X152500Y87500D02*
D03*
X137500Y82500D02*
D03*
X127500Y97500D02*
D03*
X130000D02*
D03*
X122500Y107500D02*
D03*
X127500D02*
D03*
X130000Y87500D02*
D03*
X127500Y85000D02*
D03*
Y95000D02*
D03*
X152500Y80000D02*
D03*
X112500Y107500D02*
D03*
X117500D02*
D03*
X107500D02*
D03*
X116500Y90250D02*
D03*
X112750Y88500D02*
D03*
X112500Y103250D02*
D03*
X108750Y99250D02*
D03*
X92500Y107500D02*
D03*
X87500D02*
D03*
X90000Y102500D02*
D03*
X95000Y80000D02*
D03*
X152500Y75000D02*
D03*
X155000Y67500D02*
D03*
X147500Y75000D02*
D03*
X150000Y67500D02*
D03*
X145000D02*
D03*
X140000Y75000D02*
D03*
Y67500D02*
D03*
X132500Y77500D02*
D03*
X135000Y75000D02*
D03*
Y67500D02*
D03*
X130000Y75000D02*
D03*
Y67500D02*
D03*
X105250Y75000D02*
D03*
X108750D02*
D03*
X116250D02*
D03*
X113250Y70250D02*
D03*
X101250Y70500D02*
D03*
X197500Y60000D02*
D03*
Y65000D02*
D03*
X192500Y55000D02*
D03*
Y60000D02*
D03*
X187500Y55000D02*
D03*
X197500D02*
D03*
Y50000D02*
D03*
X187500D02*
D03*
X192500D02*
D03*
X187500Y65000D02*
D03*
Y60000D02*
D03*
X182500D02*
D03*
Y55000D02*
D03*
X177500Y50000D02*
D03*
X172500Y55000D02*
D03*
Y50000D02*
D03*
X197500Y45000D02*
D03*
X192500Y40000D02*
D03*
Y45000D02*
D03*
X187500Y40000D02*
D03*
X197500D02*
D03*
Y35000D02*
D03*
X187500D02*
D03*
X192500D02*
D03*
X182500Y45000D02*
D03*
X187500D02*
D03*
X182500Y50000D02*
D03*
X177500Y45000D02*
D03*
Y40000D02*
D03*
X182500D02*
D03*
X172500D02*
D03*
Y35000D02*
D03*
X165000Y57500D02*
D03*
X170000D02*
D03*
X155000D02*
D03*
X160000D02*
D03*
Y52500D02*
D03*
X165000D02*
D03*
X150000D02*
D03*
X155000D02*
D03*
X140000Y57500D02*
D03*
X145000D02*
D03*
X130000D02*
D03*
X135000D02*
D03*
X150000D02*
D03*
X145000Y52500D02*
D03*
X132500Y55000D02*
D03*
X140000Y52500D02*
D03*
X165000Y47500D02*
D03*
X172500Y45000D02*
D03*
X160000Y47500D02*
D03*
Y42500D02*
D03*
X165000D02*
D03*
Y37500D02*
D03*
X155000D02*
D03*
X160000D02*
D03*
X150000Y47500D02*
D03*
X155000D02*
D03*
X135000Y50000D02*
D03*
X145000Y47500D02*
D03*
X150000Y42500D02*
D03*
X155000D02*
D03*
X140000Y45000D02*
D03*
X145000Y40000D02*
D03*
X197500Y30000D02*
D03*
X192500D02*
D03*
Y25000D02*
D03*
X187500Y30000D02*
D03*
Y25000D02*
D03*
X197500D02*
D03*
Y20000D02*
D03*
X187500D02*
D03*
X192500D02*
D03*
X182500Y35000D02*
D03*
Y30000D02*
D03*
X177500Y35000D02*
D03*
Y30000D02*
D03*
X182500Y25000D02*
D03*
X177500Y20000D02*
D03*
X172500Y25000D02*
D03*
X177500D02*
D03*
X192500Y15000D02*
D03*
X197500D02*
D03*
X187500D02*
D03*
Y10000D02*
D03*
X192500D02*
D03*
X197500D02*
D03*
X190000Y2500D02*
D03*
X182500Y20000D02*
D03*
Y15000D02*
D03*
X177500D02*
D03*
X182500Y10000D02*
D03*
X185000Y2500D02*
D03*
X175000D02*
D03*
X180000D02*
D03*
X165000Y32500D02*
D03*
X172500Y30000D02*
D03*
X160000Y32500D02*
D03*
Y27500D02*
D03*
X165000Y22500D02*
D03*
X172500Y20000D02*
D03*
X165000Y27500D02*
D03*
X160000Y22500D02*
D03*
X150000Y32500D02*
D03*
X155000D02*
D03*
X135000D02*
D03*
X140000Y27500D02*
D03*
X157500Y25000D02*
D03*
X152500Y17500D02*
D03*
Y27500D02*
D03*
X145000Y22500D02*
D03*
X172500Y15000D02*
D03*
Y10000D02*
D03*
X167500D02*
D03*
X172500Y5000D02*
D03*
X170000Y2500D02*
D03*
X165000D02*
D03*
X162500Y17500D02*
D03*
X165000D02*
D03*
X158000Y14500D02*
D03*
X122500Y57500D02*
D03*
X115000D02*
D03*
X125000D02*
D03*
X115000Y60000D02*
D03*
X122500Y55000D02*
D03*
X127500D02*
D03*
X112500D02*
D03*
X88490Y56428D02*
D03*
X101000Y47000D02*
D03*
X94000D02*
D03*
X125000Y37500D02*
D03*
Y42500D02*
D03*
X130000Y37500D02*
D03*
X120000Y42500D02*
D03*
X112500Y20000D02*
D03*
X117500D02*
D03*
X125000Y17500D02*
D03*
X107500Y30000D02*
D03*
X112500Y25000D02*
D03*
X110000Y15000D02*
D03*
X107500Y25000D02*
D03*
Y20000D02*
D03*
X117500Y2500D02*
D03*
X112500D02*
D03*
X97500Y37500D02*
D03*
X90000Y42500D02*
D03*
X92500Y40000D02*
D03*
X101000Y37000D02*
D03*
X102500Y2500D02*
D03*
X97500D02*
D03*
X92500Y22500D02*
D03*
X90000Y35000D02*
D03*
X92500Y27500D02*
D03*
Y7500D02*
D03*
Y2500D02*
D03*
Y17500D02*
D03*
Y12500D02*
D03*
X77500Y107500D02*
D03*
X72500D02*
D03*
X82500D02*
D03*
X62500D02*
D03*
X67500D02*
D03*
X80000Y102500D02*
D03*
X85000D02*
D03*
X71409Y100296D02*
D03*
X57500Y107500D02*
D03*
X60000Y100000D02*
D03*
X57500Y97500D02*
D03*
X62500D02*
D03*
X69421Y97024D02*
D03*
X67500Y87500D02*
D03*
X65000Y80000D02*
D03*
Y92500D02*
D03*
X62500Y87500D02*
D03*
X60000Y92500D02*
D03*
X57500Y87500D02*
D03*
X55000Y92500D02*
D03*
Y81250D02*
D03*
X60000D02*
D03*
X57500Y65000D02*
D03*
Y77500D02*
D03*
X55000Y67500D02*
D03*
X52500Y107500D02*
D03*
X47500D02*
D03*
X50000Y102500D02*
D03*
X52500Y97500D02*
D03*
X50000Y92500D02*
D03*
X47500Y97500D02*
D03*
X45000Y92500D02*
D03*
X42500Y107500D02*
D03*
X40000Y102500D02*
D03*
X37500Y107500D02*
D03*
X35000Y102500D02*
D03*
X45000D02*
D03*
X42500Y97500D02*
D03*
X37500D02*
D03*
X40000Y92500D02*
D03*
X52500Y87500D02*
D03*
Y77500D02*
D03*
X42500Y87500D02*
D03*
X47500D02*
D03*
X45000Y70000D02*
D03*
X52500Y65000D02*
D03*
X42500Y72500D02*
D03*
Y65000D02*
D03*
X37500Y82500D02*
D03*
X40000Y80000D02*
D03*
X35000Y82500D02*
D03*
Y77500D02*
D03*
X40000D02*
D03*
X37500Y70000D02*
D03*
X35000Y72500D02*
D03*
Y65000D02*
D03*
X72500Y57500D02*
D03*
X67500Y65000D02*
D03*
Y40000D02*
D03*
X72500D02*
D03*
X77500D02*
D03*
X65000Y57500D02*
D03*
X57500Y47500D02*
D03*
X55000Y60000D02*
D03*
X53500Y43250D02*
D03*
X62500Y40000D02*
D03*
X63446Y35382D02*
D03*
X63000Y43250D02*
D03*
X57500Y40000D02*
D03*
X72500Y35000D02*
D03*
X77500D02*
D03*
X69500Y32250D02*
D03*
X67000Y32000D02*
D03*
X77500Y27500D02*
D03*
X82500D02*
D03*
X72500D02*
D03*
X63250Y31000D02*
D03*
X52500Y27500D02*
D03*
X47500Y65000D02*
D03*
X50000Y55000D02*
D03*
X45000Y60000D02*
D03*
Y55000D02*
D03*
X52500Y40000D02*
D03*
Y35250D02*
D03*
X47500Y40000D02*
D03*
X48500Y32750D02*
D03*
X38727Y62271D02*
D03*
X40000Y55000D02*
D03*
X35000Y60000D02*
D03*
Y55000D02*
D03*
X42500Y40000D02*
D03*
X44250Y36000D02*
D03*
X37500Y40000D02*
D03*
X38000Y36000D02*
D03*
X48000Y29750D02*
D03*
X48750Y27250D02*
D03*
X35000Y32500D02*
D03*
X32500Y107500D02*
D03*
X27500D02*
D03*
X22500D02*
D03*
X25000Y102500D02*
D03*
X22500Y97500D02*
D03*
Y87500D02*
D03*
X17500Y107500D02*
D03*
X20000Y102500D02*
D03*
X12500Y107500D02*
D03*
X15000Y102500D02*
D03*
X20000Y92500D02*
D03*
X17500Y87500D02*
D03*
X12500Y97500D02*
D03*
X17500D02*
D03*
X2500D02*
D03*
X9000Y74250D02*
D03*
X2500Y82500D02*
D03*
Y92500D02*
D03*
Y87500D02*
D03*
X7500Y70000D02*
D03*
X2500Y67500D02*
D03*
Y77500D02*
D03*
Y72500D02*
D03*
X25000Y52500D02*
D03*
Y57500D02*
D03*
X22500Y42500D02*
D03*
X30000Y32500D02*
D03*
X25000D02*
D03*
X20000Y62500D02*
D03*
X16500Y52000D02*
D03*
X12500Y62500D02*
D03*
Y57500D02*
D03*
X20000Y47500D02*
D03*
X12500Y51000D02*
D03*
X2500Y62500D02*
D03*
Y57500D02*
D03*
Y40000D02*
D03*
Y52500D02*
D03*
Y45000D02*
D03*
Y37500D02*
D03*
Y32500D02*
D03*
Y27500D02*
D03*
X57500Y22500D02*
D03*
X52500D02*
D03*
X62500D02*
D03*
X41000D02*
D03*
X48250D02*
D03*
X77500D02*
D03*
X82500D02*
D03*
X67500D02*
D03*
X72500D02*
D03*
X43250Y18500D02*
D03*
X82500Y17500D02*
D03*
X72500D02*
D03*
X67500D02*
D03*
X77500D02*
D03*
X62500D02*
D03*
Y12500D02*
D03*
X77500D02*
D03*
X82500D02*
D03*
X67500D02*
D03*
X72500D02*
D03*
X57500Y17500D02*
D03*
X52500Y12500D02*
D03*
X47500Y17500D02*
D03*
X52500D02*
D03*
X57500Y12500D02*
D03*
Y7500D02*
D03*
X47500D02*
D03*
X52500D02*
D03*
X87500D02*
D03*
X77500D02*
D03*
X82500Y2500D02*
D03*
X87500D02*
D03*
X72500D02*
D03*
X77500D02*
D03*
X67500Y7500D02*
D03*
X72500D02*
D03*
X62500D02*
D03*
X47500Y2500D02*
D03*
X62500D02*
D03*
X67500D02*
D03*
X52500D02*
D03*
X57500D02*
D03*
X40250Y16750D02*
D03*
X39500Y15000D02*
D03*
X34500Y16500D02*
D03*
X32500Y15000D02*
D03*
X36000Y13750D02*
D03*
X47500Y12500D02*
D03*
X44500Y11700D02*
D03*
X42500Y2500D02*
D03*
X39250Y11250D02*
D03*
X37500Y7500D02*
D03*
X33250Y12250D02*
D03*
X42500Y7500D02*
D03*
X37500Y2500D02*
D03*
X32500D02*
D03*
X28750Y15000D02*
D03*
Y17250D02*
D03*
X20000Y19000D02*
D03*
X25000Y17250D02*
D03*
X18750Y16250D02*
D03*
X13000Y25250D02*
D03*
X16750Y22000D02*
D03*
X2500Y22500D02*
D03*
X16750Y18250D02*
D03*
X2500Y17500D02*
D03*
X25000Y15000D02*
D03*
X15500Y14000D02*
D03*
X2500Y12500D02*
D03*
X25750Y12250D02*
D03*
X25000Y1250D02*
D03*
X17500Y11000D02*
D03*
X15612Y11154D02*
D03*
X17500Y2500D02*
D03*
X12500D02*
D03*
X40000Y13750D02*
D03*
X24130Y24370D02*
D03*
X27000Y19750D02*
D03*
X31250Y18250D02*
D03*
X35750Y25750D02*
D03*
X148500Y88750D02*
D03*
X149500Y89500D02*
D03*
X148811Y93433D02*
D03*
X156000Y92000D02*
D03*
X90000Y98000D02*
D03*
X91065Y95113D02*
D03*
X92750Y48500D02*
D03*
X61000Y50000D02*
D03*
X48000Y60500D02*
D03*
X93500Y55500D02*
D03*
X59000Y49500D02*
D03*
X42750Y60500D02*
D03*
X92905Y52767D02*
D03*
X149500Y29500D02*
D03*
X157000Y22500D02*
D03*
X154250Y24750D02*
D03*
X92500Y50000D02*
D03*
X64500Y49500D02*
D03*
X159750Y20250D02*
D03*
X93000Y51500D02*
D03*
X66500Y50500D02*
D03*
X109250Y87250D02*
D03*
X64000Y72500D02*
D03*
Y75000D02*
D03*
X72500Y86500D02*
D03*
X93750Y81000D02*
D03*
X100500Y79960D02*
D03*
X97750Y78960D02*
D03*
X64000Y70000D02*
D03*
X74000D02*
D03*
X71000Y93250D02*
D03*
X70250Y91500D02*
D03*
X73250Y92750D02*
D03*
X73350Y88900D02*
D03*
X21250Y81000D02*
D03*
X23250Y80500D02*
D03*
X120500Y67250D02*
D03*
X119250Y66250D02*
D03*
X69250Y36000D02*
D03*
X70500Y33000D02*
D03*
X117750Y53750D02*
D03*
X120500D02*
D03*
X147000Y34750D02*
D03*
X126500Y35750D02*
D03*
X134250Y29250D02*
D03*
X144250Y20250D02*
D03*
X136750Y27000D02*
D03*
X129250Y33500D02*
D03*
X139250Y24750D02*
D03*
X131750Y31500D02*
D03*
X141750Y22500D02*
D03*
X19500Y13000D02*
D03*
X18750Y11000D02*
D03*
X19750Y71000D02*
D03*
X87250Y52500D02*
D03*
X87750Y50750D02*
D03*
X75500Y76750D02*
D03*
X93700Y76200D02*
D03*
X102000Y61412D02*
D03*
X96000Y63000D02*
D03*
X94000Y61500D02*
D03*
X100500Y62500D02*
D03*
X93000D02*
D03*
X96000Y61500D02*
D03*
X99000D02*
D03*
X91500Y62000D02*
D03*
D117*
X194000Y104000D02*
D03*
X100000D02*
D03*
Y25000D02*
D03*
X6000Y104000D02*
D03*
Y6000D02*
D03*
D118*
X195441Y70009D02*
D03*
X107441D02*
D03*
X178066Y57209D02*
D03*
X195441Y5009D02*
D03*
X178066Y7509D02*
D03*
X108066Y57184D02*
D03*
D119*
X107750Y6250D02*
D03*
D120*
X21325Y5165D02*
D03*
X12675D02*
D03*
D121*
X21325Y8545D02*
D03*
X12675D02*
D03*
M02*
