G04*
G04 #@! TF.GenerationSoftware,Altium Limited,Altium Designer,25.5.2 (35)*
G04*
G04 Layer_Color=16711935*
%FSLAX43Y43*%
%MOMM*%
G71*
G04*
G04 #@! TF.SameCoordinates,4F66119B-7B72-4549-9651-36E21DA7A037*
G04*
G04*
G04 #@! TF.FilePolarity,Negative*
G04*
G01*
G75*
%ADD19C,0.500*%
%ADD40R,1.600X1.400*%
%ADD51C,1.300*%
G04:AMPARAMS|DCode=52|XSize=4.1mm|YSize=1.9mm|CornerRadius=0.5mm|HoleSize=0mm|Usage=FLASHONLY|Rotation=180.000|XOffset=0mm|YOffset=0mm|HoleType=Round|Shape=RoundedRectangle|*
%AMROUNDEDRECTD52*
21,1,4.100,0.900,0,0,180.0*
21,1,3.100,1.900,0,0,180.0*
1,1,1.000,-1.550,0.450*
1,1,1.000,1.550,0.450*
1,1,1.000,1.550,-0.450*
1,1,1.000,-1.550,-0.450*
%
%ADD52ROUNDEDRECTD52*%
G04:AMPARAMS|DCode=53|XSize=4.1mm|YSize=1.9mm|CornerRadius=0.5mm|HoleSize=0mm|Usage=FLASHONLY|Rotation=90.000|XOffset=0mm|YOffset=0mm|HoleType=Round|Shape=RoundedRectangle|*
%AMROUNDEDRECTD53*
21,1,4.100,0.900,0,0,90.0*
21,1,3.100,1.900,0,0,90.0*
1,1,1.000,0.450,1.550*
1,1,1.000,0.450,-1.550*
1,1,1.000,-0.450,-1.550*
1,1,1.000,-0.450,1.550*
%
%ADD53ROUNDEDRECTD53*%
%ADD54C,2.600*%
%ADD55C,1.878*%
%ADD56C,1.650*%
%ADD57R,1.570X1.570*%
%ADD58C,1.570*%
%ADD59C,10.200*%
%ADD60C,7.200*%
G04:AMPARAMS|DCode=61|XSize=9.901mm|YSize=7.2mm|CornerRadius=0mm|HoleSize=0mm|Usage=FLASHONLY|Rotation=75.800|XOffset=0mm|YOffset=0mm|HoleType=Round|Shape=Round|*
%AMOVALD61*
21,1,2.701,7.200,0.000,0.000,75.8*
1,1,7.200,-0.331,-1.309*
1,1,7.200,0.331,1.309*
%
%ADD61OVALD61*%

%ADD62C,1.200*%
%ADD63R,1.878X1.878*%
G04:AMPARAMS|DCode=64|XSize=1.7mm|YSize=1.7mm|CornerRadius=0.45mm|HoleSize=0mm|Usage=FLASHONLY|Rotation=90.000|XOffset=0mm|YOffset=0mm|HoleType=Round|Shape=RoundedRectangle|*
%AMROUNDEDRECTD64*
21,1,1.700,0.800,0,0,90.0*
21,1,0.800,1.700,0,0,90.0*
1,1,0.900,0.400,0.400*
1,1,0.900,0.400,-0.400*
1,1,0.900,-0.400,-0.400*
1,1,0.900,-0.400,0.400*
%
%ADD64ROUNDEDRECTD64*%
%ADD65C,1.700*%
%ADD66C,0.650*%
G04:AMPARAMS|DCode=67|XSize=0.9mm|YSize=1.7mm|CornerRadius=0.45mm|HoleSize=0mm|Usage=FLASHONLY|Rotation=0.000|XOffset=0mm|YOffset=0mm|HoleType=Round|Shape=RoundedRectangle|*
%AMROUNDEDRECTD67*
21,1,0.900,0.800,0,0,0.0*
21,1,0.000,1.700,0,0,0.0*
1,1,0.900,0.000,-0.400*
1,1,0.900,0.000,-0.400*
1,1,0.900,0.000,0.400*
1,1,0.900,0.000,0.400*
%
%ADD67ROUNDEDRECTD67*%
G04:AMPARAMS|DCode=68|XSize=0.9mm|YSize=2.4mm|CornerRadius=0.45mm|HoleSize=0mm|Usage=FLASHONLY|Rotation=0.000|XOffset=0mm|YOffset=0mm|HoleType=Round|Shape=RoundedRectangle|*
%AMROUNDEDRECTD68*
21,1,0.900,1.500,0,0,0.0*
21,1,0.000,2.400,0,0,0.0*
1,1,0.900,0.000,-0.750*
1,1,0.900,0.000,-0.750*
1,1,0.900,0.000,0.750*
1,1,0.900,0.000,0.750*
%
%ADD68ROUNDEDRECTD68*%
%ADD69R,1.650X1.650*%
G04:AMPARAMS|DCode=70|XSize=1.7mm|YSize=1.7mm|CornerRadius=0.45mm|HoleSize=0mm|Usage=FLASHONLY|Rotation=0.000|XOffset=0mm|YOffset=0mm|HoleType=Round|Shape=RoundedRectangle|*
%AMROUNDEDRECTD70*
21,1,1.700,0.800,0,0,0.0*
21,1,0.800,1.700,0,0,0.0*
1,1,0.900,0.400,-0.400*
1,1,0.900,-0.400,-0.400*
1,1,0.900,-0.400,0.400*
1,1,0.900,0.400,0.400*
%
%ADD70ROUNDEDRECTD70*%
%ADD71R,1.650X1.650*%
%ADD72R,1.200X1.200*%
G04:AMPARAMS|DCode=122|XSize=1.604mm|YSize=0.952mm|CornerRadius=0.476mm|HoleSize=0mm|Usage=FLASHONLY|Rotation=0.000|XOffset=0mm|YOffset=0mm|HoleType=Round|Shape=RoundedRectangle|*
%AMROUNDEDRECTD122*
21,1,1.604,0.000,0,0,0.0*
21,1,0.652,0.952,0,0,0.0*
1,1,0.952,0.326,0.000*
1,1,0.952,-0.326,0.000*
1,1,0.952,-0.326,0.000*
1,1,0.952,0.326,0.000*
%
%ADD122ROUNDEDRECTD122*%
G04:AMPARAMS|DCode=123|XSize=1.604mm|YSize=3.262mm|CornerRadius=0.473mm|HoleSize=0mm|Usage=FLASHONLY|Rotation=0.000|XOffset=0mm|YOffset=0mm|HoleType=Round|Shape=RoundedRectangle|*
%AMROUNDEDRECTD123*
21,1,1.604,2.316,0,0,0.0*
21,1,0.658,3.262,0,0,0.0*
1,1,0.947,0.329,-1.158*
1,1,0.947,-0.329,-1.158*
1,1,0.947,-0.329,1.158*
1,1,0.947,0.329,1.158*
%
%ADD123ROUNDEDRECTD123*%
%ADD124R,1.604X0.952*%
D19*
X2500Y110000D02*
G03*
X-0Y107500I0J-2500D01*
G01*
X200000D02*
G03*
X197500Y110000I-2500J0D01*
G01*
X197500Y-0D02*
G03*
X200000Y2500I0J2500D01*
G01*
X0Y2500D02*
G03*
X2500Y0I2500J0D01*
G01*
X2500Y110000D02*
X197500Y110000D01*
X2500Y0D02*
X197500D01*
X-0Y107500D02*
X0Y2500D01*
X200000Y2500D02*
X200000Y107500D01*
D40*
X25000Y28750D02*
D03*
Y26850D02*
D03*
X39000Y27800D02*
D03*
Y29700D02*
D03*
D51*
Y25033D02*
D03*
X21750Y25250D02*
D03*
X18500Y44000D02*
D03*
X11000Y41500D02*
D03*
X13500D02*
D03*
X16000Y44000D02*
D03*
X13500D02*
D03*
X11000D02*
D03*
X16000Y41500D02*
D03*
X29250Y101750D02*
D03*
X26500Y2750D02*
D03*
X23750D02*
D03*
X31750Y101750D02*
D03*
D52*
X11800Y14700D02*
D03*
D53*
X14800Y19500D02*
D03*
X9000D02*
D03*
D54*
X7500Y33500D02*
D03*
Y28500D02*
D03*
X7381Y60006D02*
D03*
Y55006D02*
D03*
Y50006D02*
D03*
D55*
X29210Y38100D02*
D03*
X31750Y38100D02*
D03*
X82550Y96520D02*
D03*
X80010Y96520D02*
D03*
X82550Y63500D02*
D03*
Y40640D02*
D03*
X80010Y35560D02*
D03*
X31750Y96520D02*
D03*
X29210Y96520D02*
D03*
X29210Y35560D02*
D03*
X82550Y81280D02*
D03*
X82550Y83820D02*
D03*
X80010Y45720D02*
D03*
X82550Y43180D02*
D03*
X80010Y78740D02*
D03*
X31750Y53340D02*
D03*
X82550Y66040D02*
D03*
X29210Y58420D02*
D03*
X82550Y48260D02*
D03*
X31750Y63500D02*
D03*
X82550Y60960D02*
D03*
X31750Y40640D02*
D03*
X29210D02*
D03*
X31750Y58420D02*
D03*
X31750Y68580D02*
D03*
X82550Y86360D02*
D03*
Y88900D02*
D03*
X80010Y86360D02*
D03*
X80010Y81280D02*
D03*
X31750Y88900D02*
D03*
X29210Y91440D02*
D03*
X31750D02*
D03*
X82550Y78740D02*
D03*
X80010Y83820D02*
D03*
X31750Y50800D02*
D03*
X29210Y50800D02*
D03*
X29210Y76200D02*
D03*
X82550Y58420D02*
D03*
X31750Y73660D02*
D03*
X29210Y68580D02*
D03*
X31750Y76200D02*
D03*
X31750Y71120D02*
D03*
X31750Y86360D02*
D03*
X29210Y66040D02*
D03*
X29210Y86360D02*
D03*
Y71120D02*
D03*
Y73660D02*
D03*
X31750Y81280D02*
D03*
X29210Y45720D02*
D03*
X31750Y83820D02*
D03*
X31750Y60960D02*
D03*
X29210Y81280D02*
D03*
X29210Y60960D02*
D03*
Y55880D02*
D03*
X31750Y55880D02*
D03*
X29210Y93980D02*
D03*
X31750Y93980D02*
D03*
X29210Y88900D02*
D03*
Y83820D02*
D03*
Y78740D02*
D03*
X31750Y78740D02*
D03*
Y66040D02*
D03*
X29210Y63500D02*
D03*
X29210Y53340D02*
D03*
X29210Y48260D02*
D03*
X31750Y48260D02*
D03*
Y45720D02*
D03*
X29210Y43180D02*
D03*
X31750D02*
D03*
X82550Y73660D02*
D03*
X80010Y68580D02*
D03*
X82550Y76200D02*
D03*
X82550Y71120D02*
D03*
X80010Y66040D02*
D03*
X80010Y71120D02*
D03*
X82550Y68580D02*
D03*
X80010Y73660D02*
D03*
X80010Y60960D02*
D03*
X80010Y58420D02*
D03*
X80010Y55880D02*
D03*
X82550Y53340D02*
D03*
Y55880D02*
D03*
X80010Y93980D02*
D03*
X82550Y93980D02*
D03*
X80010Y91440D02*
D03*
X82550D02*
D03*
X80010Y88900D02*
D03*
Y76200D02*
D03*
X80010Y63500D02*
D03*
X80010Y53340D02*
D03*
X80010Y50800D02*
D03*
X82550Y50800D02*
D03*
X80010Y48260D02*
D03*
X82550Y45720D02*
D03*
X80010Y43180D02*
D03*
Y40640D02*
D03*
X80010Y38100D02*
D03*
X82550Y38100D02*
D03*
D56*
X65960Y27940D02*
D03*
X143430Y82650D02*
D03*
X183430Y82650D02*
D03*
Y80110D02*
D03*
X160570D02*
D03*
X143430Y80110D02*
D03*
X120570Y80110D02*
D03*
X101690Y91500D02*
D03*
X101690Y82610D02*
D03*
X61670Y103750D02*
D03*
X63420Y27940D02*
D03*
X12620Y87310D02*
D03*
X5000D02*
D03*
X183430Y90270D02*
D03*
X120570Y85190D02*
D03*
Y92810D02*
D03*
Y87730D02*
D03*
Y90270D02*
D03*
Y95350D02*
D03*
Y82650D02*
D03*
X160570Y90270D02*
D03*
Y85190D02*
D03*
Y87730D02*
D03*
X143430Y85190D02*
D03*
Y92810D02*
D03*
Y87730D02*
D03*
Y90270D02*
D03*
Y95350D02*
D03*
X183430Y85190D02*
D03*
Y92810D02*
D03*
Y87730D02*
D03*
Y95350D02*
D03*
X160570Y92810D02*
D03*
Y95350D02*
D03*
Y82650D02*
D03*
X99150Y82610D02*
D03*
X5000Y89850D02*
D03*
X12620D02*
D03*
X59130Y103750D02*
D03*
X99150Y91500D02*
D03*
X109310Y82610D02*
D03*
X104230D02*
D03*
X106770D02*
D03*
X12620Y82230D02*
D03*
Y84770D02*
D03*
Y79690D02*
D03*
X106770Y91500D02*
D03*
X104230D02*
D03*
X109310D02*
D03*
X5000Y82230D02*
D03*
Y84770D02*
D03*
Y79690D02*
D03*
X66750Y103750D02*
D03*
X64210D02*
D03*
X69290D02*
D03*
X58340Y27940D02*
D03*
X60880D02*
D03*
X55800D02*
D03*
D57*
X118941Y7539D02*
D03*
X167201Y5009D02*
D03*
D58*
X164661D02*
D03*
X167201Y7539D02*
D03*
X121481D02*
D03*
X118941Y5009D02*
D03*
X146881Y7539D02*
D03*
X131641Y5009D02*
D03*
X159581D02*
D03*
X157041Y7539D02*
D03*
X129101Y5009D02*
D03*
X149421Y7539D02*
D03*
X157041Y5009D02*
D03*
X154501Y7539D02*
D03*
Y5009D02*
D03*
X159581Y7539D02*
D03*
X139261Y5009D02*
D03*
X136721D02*
D03*
X146881Y5009D02*
D03*
X144341Y5009D02*
D03*
X134181Y5009D02*
D03*
X151961Y5009D02*
D03*
X141801D02*
D03*
X149421D02*
D03*
X121481Y5009D02*
D03*
X126561Y5009D02*
D03*
X162121D02*
D03*
X124021D02*
D03*
X139261Y7539D02*
D03*
X126561Y7539D02*
D03*
X141801D02*
D03*
X151961Y7539D02*
D03*
X134181Y7539D02*
D03*
X144341D02*
D03*
X129101Y7539D02*
D03*
X136721Y7539D02*
D03*
X131641D02*
D03*
X164661Y7539D02*
D03*
X124021Y7539D02*
D03*
X162121D02*
D03*
D59*
X194000Y104000D02*
D03*
X100000D02*
D03*
Y25000D02*
D03*
X6000Y104000D02*
D03*
Y6000D02*
D03*
D60*
X195441Y70009D02*
D03*
X107441D02*
D03*
X178066Y57209D02*
D03*
X195441Y5009D02*
D03*
X178066Y7509D02*
D03*
X108066Y57184D02*
D03*
D61*
X107750Y6250D02*
D03*
D62*
X98740Y9670D02*
D03*
Y12210D02*
D03*
D63*
X82550Y35560D02*
D03*
X31750Y35560D02*
D03*
D64*
X82550Y5080D02*
D03*
X29210D02*
D03*
D65*
X82550Y7620D02*
D03*
X29210D02*
D03*
X19725Y57975D02*
D03*
D66*
X19975Y9525D02*
D03*
X14025D02*
D03*
X14025Y8175D02*
D03*
X19975D02*
D03*
X14875D02*
D03*
X19125D02*
D03*
Y9525D02*
D03*
X14875D02*
D03*
X15725Y9525D02*
D03*
X16575D02*
D03*
X17425D02*
D03*
X18275D02*
D03*
Y8175D02*
D03*
X17425D02*
D03*
X16575D02*
D03*
X15725D02*
D03*
D67*
X21325Y5165D02*
D03*
X12675D02*
D03*
D68*
X21325Y8545D02*
D03*
X12675D02*
D03*
D69*
X120570Y97890D02*
D03*
X143430Y97890D02*
D03*
X183430Y97890D02*
D03*
X160570D02*
D03*
X12620Y77150D02*
D03*
X5000D02*
D03*
D70*
X17185Y57975D02*
D03*
D71*
X111850Y82610D02*
D03*
X111850Y91500D02*
D03*
X71830Y103750D02*
D03*
X68500Y27940D02*
D03*
D72*
X98740Y14750D02*
D03*
D122*
X29355Y28750D02*
D03*
Y31040D02*
D03*
D123*
X36145Y28750D02*
D03*
D124*
X29355Y26460D02*
D03*
M02*
