M48
;Layer_Color=9474304
;FILE_FORMAT=4:3
METRIC,LZ
;TYPE=PLATED
T01F00S00C0.300
T02F00S00C0.400
T03F00S00C0.500
T05F00S00C0.610
T06F00S00C0.700
T08F00S00C1.000
T09F00S00C1.300
T10F00S00C2.850
T12F00S00C3.700
%
T01
X017Y00025
X0175
X018
X0185
X019
X01875Y001
Y0015
Y002
Y0025
X01925
Y003
Y0035
X01975
Y003
Y0025
Y002
X01925
Y0015
X01975
Y001
X01925
X01825
Y0015
Y002
Y0025
Y003
X01875
Y0035
X01825
X01775
X01725
Y003
X01775
Y0025
Y002
Y0015
X01725
Y002
Y0025
Y001
Y0005
X01675Y001
X0161Y000975
X015825
X015575
X0152603Y0009732
X01505Y00105
X014825Y0013
X01455Y001425
X0143
X01405
X0138
X01355
X0133
X01305
Y001925
Y00215
Y002375
Y0026
Y002825
Y00305
Y00325
X012925Y00335
X013175Y00315
X0133Y003075
Y002825
Y0026
Y002375
Y00215
Y001925
X01355Y0019
X0138
X01405
Y00215
Y002375
X013925Y002475
X0138Y002375
Y0026
X013675Y0027
X01355Y0026
Y002375
Y00215
X0138
X014175Y00225
X0143Y00215
Y001925
X014425Y002025
X01455Y001925
X0145Y00225
X0148Y002125
X014825Y0024
Y00265
Y002925
X01495Y00295
X015Y00325
X014575Y003175
Y0029
Y002625
X014Y00275
X01355Y002825
X013425Y002925
X0135Y00325
X013Y00375
X014525Y0035
X0147Y003475
X0155Y00325
Y00375
X016
X0165
Y00325
X016
Y00275
X0165
Y00225
X016
X015975Y002025
X016075Y0019
X015825
Y00215
X0157Y00225
X01555Y00215
Y002375
X015425Y002475
X0153Y002375
Y00215
Y0019
X01525Y00175
X01555Y0019
X015525Y00155
X0158Y00145
X016075
X01625Y00175
X0165
X01575Y0025
X01525Y00275
X015325Y00135
X0165Y00025
X012775Y001175
X012525Y001425
X0125Y00175
X01255Y001925
Y00215
Y002375
Y0026
Y002825
Y00305
Y00325
Y003475
X01265Y003575
X0128Y003475
Y00325
Y00305
Y002825
Y0026
Y002375
Y00215
Y001925
X0122Y001775
X01175Y002
X01125
Y0025
X01075
Y003
X0109Y003325
X011075Y003475
X011225Y003625
X01135Y00375
X011475Y003875
X0111642Y0039358
X0110353Y0038031
X0108814Y0036566
X0107276Y0035065
X0105443Y0034107
X0106218Y0039108
X010375Y00385
X0101Y0037
X00975Y00375
X0095525Y0036975
X0095963Y0034153
X0099068Y0034125
X009175Y003275
X009Y0035
X00925Y00275
Y00225
Y00175
Y00125
Y00075
Y00025
X00975
X01025
X01125
X01175
X012275Y0011
X011Y0015
X01075Y002
X0125Y00375
X00775Y0035
X00725
X00705Y0033
X00695Y003225
X0067Y0032
X006325Y0031
X0063446Y0035382
X006925Y0036
X00725Y00275
X00775
X00825
Y00225
X00775
X00725
X00675
X00625
X00575
X00525
Y00275
Y003525
Y00175
X00575
X00625
X00675
X00725
X00775
X00825
Y00125
X00775
X00725
X00675
X00625
X00575
X00525
Y00075
X00575
X00625
X00675
X00725
X00775
Y00025
X00825
X00875
Y00075
X00725Y00025
X00675
X00625
X00575
X00525
X00475
Y00075
Y00125
X00445Y00117
X003925Y001125
X004Y001375
X00395Y0015
X004025Y001675
X004325Y00185
X00475Y00175
X004825Y00225
X004875Y002725
X0048Y002975
X00485Y003275
X0045Y003425
X0043
X0041
X0039
X0038Y0036
X004425
X0035Y00325
X003
X0025
X002625Y00275
X00235Y0026
X002413Y002437
X0023Y00225
X00235Y00195
X0027Y001975
X002875Y001725
Y0015
X00325
X00345Y00165
X003375Y001925
X003125Y001825
X00302Y00221
X003575Y002575
X003475Y002775
X0041Y00225
X0036Y001375
X003325Y001225
X002575
X0025Y0015
Y001725
X002Y0019
X001875Y001625
X001675Y001825
Y0022
X0019297Y0024947
X0013Y002525
X001575Y002975
X001625Y003525
X001175Y00335
X00155Y0014
X0015612Y0011154
X00175Y0011
X001875
X00195Y0013
X001975Y0006
X00175Y0005
Y00025
X00125
X0025Y000125
X002925
X00325Y00025
X00375
X00425
Y00075
X00375
X0025Y000575
X00025Y00125
Y00175
Y00225
Y00275
Y00325
Y00375
Y004
Y0045
Y00525
Y00575
Y00625
Y00675
Y00725
Y00775
X0009Y0077
Y007425
X00075Y007
X00125Y00625
Y00575
Y0051
X00165Y0052
X002Y00475
X00225Y00425
X0025Y00525
Y00575
X002Y00625
X001975Y0071
X002025Y007425
X0020837Y0077537
X001775Y007675
X0024
Y00745
X00245Y007225
X0035Y00725
Y00775
X004
X004225Y0079
X004325Y0077
X004525Y007625
X0047Y007775
X0045Y007
X00425Y00725
X003975Y007325
X00375Y007
X0035Y0065
Y006
Y0055
X004
X0045
Y006
X004275Y00605
X00415Y006
X0038727Y0062271
X00425Y0065
X00475
X0048Y00605
X0049Y00595
X004875Y005725
X004825Y004825
X00445
X003725
X00375Y004
X00425
X00475
X00525
X00535Y004325
X00575Y004
X00625
X0063Y004325
X00685Y0043
Y00455
Y004825
Y005075
X00665Y00505
X00645Y0051
Y00495
X00625Y005
X0061
X0059Y00495
X005725Y004975
X00575Y00475
X00585Y005125
X005425Y005275
X0053Y005425
X005275Y0057
X00545Y005875
X0055Y006
X0056Y005725
X005725Y0056
X005925Y005825
X0061Y0057
Y005975
X006275Y00615
Y0064
Y00665
Y006875
X0064Y007
X006525Y0069
Y007125
X00675
Y00735
X006525Y007375
Y0076
Y0078
X00675
Y0076
X007
Y0078
Y00735
Y007125
Y0069
X00675
Y0065
X00715Y006225
X00725Y00575
X0065
X00575Y0065
X0055Y00675
X00525Y0065
Y00775
X00575
X006275Y0078
X0064Y0075
Y00725
X0074Y007
X00755Y007675
X007425Y005075
Y004825
Y00455
Y0043
X00725Y004
X00675
X00775
X008775Y005075
X008725Y00525
X008849Y0056428
X005Y0055
X00935Y00555
Y0054
X0092905Y0052767
X0093Y00515
X00925Y005
X009275Y00485
X0094Y0047
X00955
X00935Y00435
X009Y00425
X00925Y004
X01025Y004325
X0101Y0047
X010975Y004525
X01135
X01175
X01185Y00435
X012Y00425
X01175Y004175
X011625Y004025
X0115567Y0043208
X0114222Y0041891
X0113Y004075
X011025Y00405
X01085Y003975
X0125Y00425
Y0047
X0127Y004775
X01275Y0055
X0125Y00575
X01225
Y0055
X01205Y005375
X011775
X0115Y00575
Y006
X0115915Y006607
X011925Y006625
X01205Y006725
X0119283Y0069473
X0122237Y0069472
X0121301Y0071268
X0124047Y007128
X0125408Y0072735
X0122686Y0072806
X0117875Y0073064
X011625Y0075
X010875
X010525
X010125Y00705
X01005Y00625
X0099Y00615
X0096
Y0063
X0094Y00615
X0093Y00625
X00915Y0062
X0102Y0061412
X01125Y0055
X011325Y007025
X012725Y00775
X009775Y007896
X00937Y00762
X013Y0075
X01325Y00775
X0135Y0075
X014
X01475
X01525
X01575
X01625
X0165
X01675Y00775
X01625
X0165Y00675
X016
X0155
X015
X0145
X014
X0135
X013
Y00575
X0135
X014
X0145
X015
X0155
X016
X0165
Y00525
X016
X0155
X015
X0145
X014
X0135Y005
X012975Y00505
X0129Y00485
X01305Y00415
X0133Y004175
X013475Y004275
X013625Y004425
X014Y0045
X0145Y00475
X015
X0155
X016
X0165
Y00425
X016
X0155
X015
X0145Y004
X01325Y0055
X01725
Y005
X01775
X01825
X01875
Y0055
X01925
Y006
Y0065
X01975
Y006
Y0055
Y005
X01925
Y0045
X01975
Y004
X01925
X01875
Y0045
X01825
X01775
Y004
X01825
X01725
Y0045
X017Y00575
Y00675
Y007
X0175
Y0075
X018
Y00775
X01775
X019Y0075
X01925
X01975Y00775
X01875Y00725
Y007
Y0065
X01825
Y006
X01875
X01825Y0055
X0181Y0083
X01805Y008575
X018025Y008825
X018Y009125
Y009375
Y00975
X01815Y00995
X0178Y0099
X01775Y0095
X01725
Y009
Y0085
X019
X01925
Y009
X019
X0188Y008775
Y00925
X019Y0095
X01925
X01975Y00925
Y00975
Y00875
Y00825
X01925Y008
X018925Y00995
X01875Y0098
X0185Y01025
X018
X0175
X017
X01725Y01075
X01775
X01825
X01875
X01675
X01625
X01575
X01525
X01475
X01425
X01375
X01325
X0137501Y0100747
X013775Y009575
X013575Y00935
X01355Y0089
Y008575
X013525Y00825
X01375
X013775Y0088
X013Y00875
X01315Y00815
X013Y00975
X014325Y010225
X01475Y010125
X01485Y00975
X0148811Y0093433
X0146708Y0094146
X0146718Y00916
X01485Y008875
X01495Y00895
X01525Y00875
X015525Y008525
X01625Y0085
Y00875
Y009
X01675
Y0095
X01625
Y009975
X016Y01025
X0165
X0155
X015675Y0099
X0156557Y0096782
X015625Y0095
X0156Y0092
X01525Y008
X01625
Y00825
X01675Y0085
Y008
X012325Y00805
X01245Y008325
Y008775
Y00905
Y0093
X01275Y0095
Y00975
X012325Y0097
X011975Y010025
X012025Y01025
X012625
X01275Y01075
X01225
X01175
X01125
Y010325
X010875Y009925
X011625Y009775
X01165Y009025
X011525Y00875
X011275Y00885
X011025Y008825
X010925Y008725
X01084Y0089258
X010725Y00855
X01105
X01135
X0116656Y0085403
X01275Y0085
X010375Y00855
X0099Y00885
X0095Y00915
X009375Y00975
X009Y0098
X0091065Y0095113
X009Y01025
X00925Y01075
X01075
X01005Y007996
X0095Y008
X009375Y0081
X0088Y008
X008625Y00955
X00855Y009925
X0085Y01025
X008
X0081Y009925
X00765Y00975
X007625Y0094
X007325Y009275
X0071Y009325
X007025Y00915
X007335Y00889
X00725Y00865
X007Y00855
Y00835
X00675
X006525
X0065Y008
X00675
X007
X00675Y00875
X00625
X00575
X00525
X0055Y00925
X006
X0065
X00625Y00975
X006Y01
X00575Y00975
X00525
X005Y01025
X00525Y01075
X00575
X00625
X00675
X00725
X00775
X00825
X00875
X007475Y010025
X0071409Y0100296
X0069421Y0097024
X00775Y008825
X006Y008125
X0055
X005Y00925
X0045
X004
X00375Y00975
X00425
X00475
X0045Y01025
X004
X0035
X00375Y01075
X00425
X00475
X00325
X00275
X00225
X00175
X00125
X0015Y01025
X002
X0025
X00225Y00975
X00175
X00125
X002Y00925
X00225Y00875
X00175
X00195Y008225
X002125Y0081
Y007975
X001868Y007964
X002325Y00805
X0035Y00825
X00375
X004Y008
X0044Y008075
X00455Y007925
X004875Y00795
X00475Y008125
X0046Y00825
X00475Y00875
X00425
X0009
Y008475
Y008225
Y007975
X00025Y00825
Y00875
Y00925
Y00975
T02
X0014025Y0008175
X0014875
X0015725
X0016575
X0017425
X0018275
X0019125
X0019975
X0019975Y0009525
X0019125Y0009525
X0018275Y0009525
X0017425
X0016575
X0015725
X0014875Y0009525
X0014025Y0009525
T03
X016275Y0014
X016675
X0117Y001475
Y00105
X0119Y001075
X01155Y001175
X007375Y0036
X0073751Y0038544
X004575Y003275
X004375
X004025
X003825
X004225Y002775
X00443Y00293
X003575Y002075
X0032Y002075
X00285Y0021
X00255
X0023Y001275
X0021786Y0011317
X00205Y0012
X00275Y0012
X002725Y000875
X00257Y0007523
X003125Y000875
X003175Y00105
X002991
X003325Y00095
X002075Y0027
X00215Y00295
X00225Y00315
Y0033
X00205
X001975Y00315
X00185Y00325
X0016
X0017199Y0037402
X0021Y00375
X002475Y003825
X00265Y0037
X00135Y003825
X00195Y004275
X00185Y004575
X002475Y004049
X00265Y004174
X0025598Y0065007
X0024Y00635
X002Y00675
X00165Y00735
X00145Y00735
X0011Y00715
Y00655
X010015Y00551
X010325Y0055
X0103Y00465
X010025Y004525
X0115Y00785
X012057Y007832
X01435Y007775
X01455
X0155Y00785
X01605Y0078
X01835
X018875Y00785
X01905Y00805
Y00825
X01885Y008425
X01815Y00815
X015675Y008
X01565Y00835
X0154
X015Y0082
Y008
X0148Y00835
X011675Y0084
Y0082
Y008
X0115Y00835
X009625Y008525
X0094
Y008875
X0096Y008875
X005625Y010125
X005425Y010575
X0010567Y0094658
X0009Y00963
X0007Y00955
X0009Y00913
X0009Y008925
T05
X002375Y000275
X00265
X002175Y002525
X0039Y0025033
X00185Y0044
X0016
X00135
Y00415
X0011
Y0044
X0016Y00415
X002925Y010175
X003175
T06
X009874Y000967
Y001221
Y001475
T08
X0129101Y0005009
Y0007539
X0131641Y0007539
Y0005009
X0134181Y0005009
Y0007539
X0136721
Y0005009
X0139261
X0139261Y0007539
X0141801Y0007539
X0141801Y0005009
X0144341
X0144341Y0007539
X0146881
X0146881Y0005009
X0149421Y0005009
Y0007539
X0151961Y0007539
Y0005009
X0154501
Y0007539
X0157041
Y0005009
X0159581Y0005009
Y0007539
X0162121
X0162121Y0005009
X0164661
Y0007539
X0167201Y0007539
Y0005009
X0126561
Y0007539
X0124021
X0124021Y0005009
X0121481Y0005009
Y0007539
X0118941
Y0005009
X008255Y000508
Y000762
X008255Y003556
X008001Y003556
X008001Y00381
X008255Y00381
X00685Y002794
X006596
X006342
X006088
X005834
X00558
X003175Y003556
X003175Y00381
X002921Y00381
X002921Y003556
X002921Y000762
Y000508
X0005Y007715
X001262
X002921Y00762
Y007874
X003175Y007874
Y00762
Y007366
X002921
Y007112
X003175Y007112
Y006858
X002921Y006858
X002921Y006604
X002921Y00635
X003175
Y006604
X003175Y006096
X002921
X002921Y005842
X003175
Y005588
Y005334
Y00508
X002921Y00508
Y004826
X003175Y004826
Y004572
X002921Y004572
X002921Y004318
Y004064
X003175
Y004318
X002921Y005334
Y005588
X0019725Y0057975
X0017185
X008001Y005842
X008255
Y005588
Y005334
Y00508
X008255Y004826
X008001Y004826
Y00508
X008001Y005334
Y005588
Y006096
X008255
X008255Y00635
Y006604
X008001Y006604
X008001Y00635
X008001Y006858
X008255Y006858
Y007112
X008001Y007112
Y007366
X008255
Y00762
Y007874
X008001Y007874
Y00762
X008001Y004572
X008255Y004572
X008255Y004318
Y004064
X008001
Y004318
X018343Y008011
Y008265
Y008519
Y008773
Y009027
Y009281
Y009535
Y009789
X016057
Y009535
Y009281
Y009027
Y008773
Y008519
Y008265
Y008011
X014343Y008011
Y008265
Y008519
Y008773
Y009027
Y009281
Y009535
Y009789
X012057Y009789
Y009535
Y009281
Y009027
Y008773
Y008519
Y008265
Y008011
X011185Y008261
X010931
X010677
X010423
X010169
X009915
Y00915
X010169
X010423
X010677
X010931
X011185
X008255Y009144
X008001
Y00889
X008001Y008636
X008255
Y00889
X008255Y008382
X008255Y008128
X008001
X008001Y008382
X008001Y009398
X008001Y009652
X008255Y009652
X008255Y009398
X007183Y010375
X006929
X006675
X006421
X006167
X005913
X003175Y009652
X002921Y009652
X002921Y009398
X003175Y009398
X003175Y009144
X002921
Y00889
X002921Y008636
X003175
Y00889
X003175Y008382
X003175Y008128
X002921
X002921Y008382
X001262Y008477
Y008731
Y008985
Y008223
Y007969
X0005
Y008223
Y008477
Y008731
Y008985
T09
X00075Y00285
Y00335
X0007381Y0050006
Y0055006
Y0060006
T10
X0178066Y0007509
X0195441Y0005009
X0108066Y0057184
X0107441Y0070009
X0178066Y0057209
X0195441Y0070009
T12
X01Y0025
X0006Y0006
X0194Y0104
X01
X0006
M30
