M48
;Layer_Color=9474304
;FILE_FORMAT=4:3
METRIC,LZ
;TYPE=PLATED
T01F00S00C0.300
T02F00S00C0.400
T03F00S00C0.500
T04F00S00C0.520
T06F00S00C0.610
T07F00S00C0.700
T09F00S00C1.000
T10F00S00C1.300
T11F00S00C2.850
T13F00S00C3.700
%
T01
X017Y00025
X01725Y0005
Y001
Y0015
X01775
Y002
Y0025
Y003
Y0035
X01825
X01875
X01925
X01975
Y003
X01925
X01875
Y0025
X01925
X01975
Y002
X01925
X01875
X01825
Y0025
Y003
X01725
Y0035
Y0025
Y002
X01825Y0015
X01875
X01925
X01975
Y001
X01925
X01875
X01825
X0185Y00025
X019
X018
X0175
X0165
X01675Y001
X0165Y00175
X01625
X015975Y002025
X016Y00225
X0157
X01575Y0025
X015425Y002475
X01525Y00275
X01495Y00295
X015Y00325
X0155
Y00375
X016
X0165
Y00325
X016
Y00275
X0165
Y00225
X0158Y00145
X015525Y00155
X015325Y00135
X01525Y00175
X014425Y002025
X0145Y00225
X014175
X013925Y002475
X014Y00275
X013675Y0027
X013425Y002925
X0135Y00325
X013175Y00315
X012925Y00335
X013Y00375
X0147Y003475
X01265Y003575
X0125Y00375
Y00175
X01175Y002
X01125
Y0025
X01075
Y003
Y002
X011Y0015
X01125Y00025
X01175
X01025
X00975
X00925
Y00075
Y00125
Y00175
Y00225
Y00275
X009Y0035
X0095525Y0036975
X00975Y00375
X0101Y0037
X00775Y0035
X00725
X00705Y0033
X006925Y0036
X00675Y0031
X00725Y00275
X00775
X00825
Y00225
X00775
X00725
X00675
X00625
X00575
X00525
Y00275
Y0035
X00575
Y00175
X00625
X00675
X00725
X00775
X00825
Y00125
X00775
X00725
X00675
X00625
Y00075
X00675
X00725
X00775
Y00025
X00825
X00875
Y00075
X00725Y00025
X00675
X00625
X00575
Y00075
Y00125
X00525
Y00175
Y00075
Y00025
X00475
Y00075
Y00125
Y00175
Y00225
X00425Y00175
Y00125
X00375
X003375Y00132
X002925Y001525
X002875Y00165
X00295Y001825
X0025Y00185
X002525Y001525
X001875Y001625
X00195Y0013
X001875Y0011
X00175
Y00025
X00125
X00325
X00375
X00425
Y00075
X00375
X0035Y002
Y00325
X0037112Y0034973
X0042473Y0035488
X00475Y0035
X00325Y003
X003Y00325
X0025
X00025
Y00375
Y00275
Y00225
Y00175
Y00125
Y004
Y0045
Y00525
Y00575
Y00625
Y00675
Y00725
Y00775
X00075Y007
X001Y0075
X001975Y0071
X002Y00635
X00195Y00615
X0018316Y0061977
X00125Y00625
Y00575
Y0051
X00165Y0052
X002Y00475
X00225Y00425
X0025Y00525
Y00575
X0035Y006
Y0065
X0038727Y0062271
X004275Y00605
X0045Y006
X0048Y00605
X00475Y0065
X00425
X0045Y007
X00425Y00725
X0035
Y00775
X004
X00375Y007
X004Y0055
X0035
X0045
X00475Y004
X00425
X00375
X00525
X00575
X00625
X00675
X00725
X00775
X008775Y005075
X008725Y00525
X008849Y0056428
X00725Y00575
X0065
X00665Y00505
X00645Y00495
X0061Y005
X0059Y00495
X00575Y00475
X006Y0045
X0055
Y006
X00575Y0065
X0055Y00675
X00525Y0065
Y00775
X00575
X0064Y0075
Y00725
Y007
X00675Y0065
X0074Y007
X00755Y007675
X005Y0055
X00935Y00555
Y005425
X0092905Y0052767
X0093Y00515
X00925Y005
X009275Y00485
X0094Y0047
X00955
X00935Y00435
X009Y00425
X00925Y004
X01025Y004325
X0101Y0047
X0102Y0061412
X01005Y00625
X0099Y00615
X0096
Y0063
X0094Y00615
X0093Y00625
X00915Y0062
X009025Y006125
X00937Y00762
X009775Y007896
X010525Y0075
X010875
X011625
X011325Y007025
X0115Y006
Y00575
X01125Y0055
X011775Y005375
X01205
X01225Y0055
Y00575
X0125
X01275Y0055
X0126Y006675
X01245Y006575
X0125Y00425
X012
X010125Y00705
X013Y00675
X0135
X014
X0145
X015
X0155
X016
X0165
Y0075
X01625
Y00775
X01675
X01575Y0075
X01525
X01475
X014
X0135
X01325Y00775
X013Y0075
Y00575
X0135
X014
X0145
X015
X0155
X016
X0165
Y00525
Y00475
X016
Y00525
X0155
Y00475
Y00425
X016
X0165
X015
Y00475
Y00525
X0145
X014
X0135Y005
X01325Y0055
X014Y0045
X0145Y00475
Y004
X01725
X01775
Y0045
Y005
X01825
X01875
X01925
Y0055
Y006
Y0065
X01975
Y006
Y0055
Y005
Y0045
X01925
X01875
X01825
Y004
X01875
X01925
X01975
X01875Y0055
Y006
Y0065
Y007
Y00725
X019Y0075
X01925
X01975Y00775
X018
X01775
X018Y0075
X0175
Y007
X017
Y00675
Y00575
X01725Y0055
Y005
Y0045
X01825Y0055
Y006
Y0065
X01925Y008
Y0085
X019
Y009
X01925
Y0095
X019
X01975Y00975
Y00925
Y00875
Y00825
X01725Y0085
Y009
Y0095
X01775
X018Y00975
Y01025
X0185
X01825Y01075
X01875
X01775
X01725
X0175Y01025
X017
X0165
X016
X0155
X01525Y01075
X01575
X01625
X01675
Y0095
X01625
Y009
Y00875
Y0085
Y00825
Y008
X01675
Y0085
Y009
X0158Y009225
X01485Y0093
Y00905
X014725Y0089
X01525Y00875
X0155Y0085
X01525Y008
X01375Y00825
X013Y00875
Y00975
X01325Y01075
X01375
X01425
X01475
X01275
X01225
X01175
X01125
X01075
X011Y01025
X01075Y01
X010925Y008725
X0115Y009
X01175
X01275Y0095
Y00975
Y0085
X01005Y007996
X0095Y008
X009375Y0081
X0091065Y0095113
X0089362Y0097605
X009Y01025
X009225Y010275
X009325Y010175
X00925Y01075
X00875
X00825
X00775
X00725
X00675
X00625
X00575
X00525
X005Y01025
X00525Y00975
X00575
X006Y01
X00625Y00975
X0069421Y0097024
X0071409Y0100296
X0071Y009325
X007025Y00915
X007325Y009275
X007335Y00889
X00725Y00865
X00675Y00875
X00625
X00575
X00525
X0055Y00925
X006
X0065
Y008
X006
X0055
X005Y00925
X008Y01025
X0085
X0045
X004
X0035
X00375Y01075
X00425
X00475
Y00975
X00425
X00375
X004Y00925
X0045
X00475Y00875
X00425
X00375Y00825
X0035
X004Y008
X002325Y00805
X002125Y0081
X00225Y00875
X00175
X002Y00925
X00225Y00975
X00175
X00125
X0015Y01025
X002
X0025
X00275Y01075
X00325
X00225
X00175
X00125
X00025Y00975
Y00925
Y00875
Y00825
T02
X0014025Y0008175
X0014875
X0015725
X0016575
X0017425
X0018275
X0019125
X0019975
X0019975Y0009525
X0019125Y0009525
X0018275Y0009525
X0017425
X0016575
X0015725
X0014875Y0009525
X0014025Y0009525
T03
X016275Y0014
X016675
X0117Y001475
Y00105
X0119Y001075
X01155Y001175
X007375Y0036
X0073751Y0038544
X00465Y00335
X00445
X0041
X0039
X0043Y00285
X004505Y003005
X0031Y0028
X00275Y00295
X0025
X0023Y0028
X00215Y00295
X00225Y00315
Y0033
X00205
X001975Y00315
X00185Y00325
X0016
X0017199Y0037402
X0021Y00375
X002475Y003825
X00265Y0037
X00135Y003825
X0021Y00265
X00235Y0021
X0028Y00195
X0031Y00205
X003175Y00105
X002991
X003125Y000875
X003325Y00095
X002725Y000875
X00257Y0007523
X00275Y0012
X0023Y001275
X0021786Y0011317
X00205Y0012
X00195Y004275
X00185Y004575
X002475Y004049
X00265Y004174
X002425Y00625
X00246Y0063961
X002Y00675
X00165Y00735
X00145Y00735
X0011Y00715
Y00655
X010015Y00551
X010325Y0055
X0103Y00465
X010025Y004525
X0116Y00785
X012057Y007832
X01435Y007775
X01455
X0156Y00785
X01605Y0078
X01835
X0185376Y0080115
X01855Y008275
X0189Y0082
Y008
X01815Y00815
X0158315Y008011
X01585Y00835
X0156
X0149Y0082
Y008
X0147Y00835
X011825
X011875Y0082
Y008
X0116Y00835
X009625Y008525
X0094
Y008875
X0096Y008875
X005625Y010125
X005425Y010575
X0010567Y0094658
X0009Y00963
X0007Y00955
X0009Y00913
X0009Y008925
T04
X009175Y003625
Y003775
T06
X002375Y000275
X00265
X00185Y0044
X0016
X00135
X0011
Y00415
X00135
X0016
X002925Y010175
X003175
T07
X009874Y000967
Y001221
Y001475
T09
X0129101Y0005009
Y0007539
X0131641Y0007539
Y0005009
X0134181Y0005009
Y0007539
X0136721
Y0005009
X0139261
X0139261Y0007539
X0141801Y0007539
X0141801Y0005009
X0144341
X0144341Y0007539
X0146881
X0146881Y0005009
X0149421Y0005009
Y0007539
X0151961Y0007539
Y0005009
X0154501
Y0007539
X0157041
Y0005009
X0159581Y0005009
Y0007539
X0162121
X0162121Y0005009
X0164661
Y0007539
X0167201Y0007539
Y0005009
X0126561
Y0007539
X0124021
X0124021Y0005009
X0121481Y0005009
Y0007539
X0118941
Y0005009
X008255Y000508
Y000762
X008255Y003556
X008255Y00381
X008001Y00381
X008001Y003556
X00685Y002794
X006596
X006342
X006088
X005834
X00558
X003175Y003556
X002921Y003556
X002921Y00381
X003175Y00381
X002921Y000762
Y000508
X0005Y007715
X001262
X002921Y00762
Y007874
X003175Y007874
Y00762
Y007366
X002921
Y007112
X003175Y007112
Y006858
X002921Y006858
X002921Y006604
X002921Y00635
X003175
Y006604
X003175Y006096
X002921
X002921Y005842
X003175
Y005588
Y005334
Y00508
X003175Y004826
X002921Y004826
Y00508
X002921Y005334
Y005588
X002921Y004572
X003175Y004572
X003175Y004318
X002921
Y004064
X003175
X0019725Y0057975
X0017185
X008001Y005842
X008255
Y005588
Y005334
Y00508
X008001Y00508
Y004826
X008255Y004826
Y004572
X008001Y004572
X008001Y004318
Y004064
X008255
Y004318
X008001Y005334
Y005588
Y006096
X008255
X008255Y00635
Y006604
X008255Y006858
X008001Y006858
X008001Y006604
X008001Y00635
Y007112
Y007366
X008255
Y00762
Y007874
X008001Y007874
Y00762
X008255Y007112
X018343Y008011
Y008265
X018343Y008519
X018343Y008773
Y009027
Y009281
Y009535
Y009789
X016057
Y009535
Y009281
Y009027
Y008773
Y008519
Y008265
Y008011
X014343Y008011
Y008265
X014343Y008519
X014343Y008773
Y009027
Y009281
Y009535
Y009789
X012057
Y009535
X012057Y009281
X012057Y009027
Y008773
Y008519
Y008265
Y008011
X011185Y008261
X010931
X010677
X010423
X010169
X009915
Y00915
X010169
X010423
X010677
X010931
X011185
X008255Y009144
X008001
Y00889
X008001Y008636
X008255
Y00889
X008255Y008382
X008255Y008128
X008001
X008001Y008382
X008001Y009398
X008255Y009398
X008255Y009652
X008001Y009652
X007183Y010375
X006929
X006675
X006421
X006167
X005913
X003175Y009652
X002921Y009652
X002921Y009398
X003175Y009398
X003175Y009144
X002921
Y00889
X002921Y008636
X003175
Y00889
X003175Y008382
X003175Y008128
X002921
X002921Y008382
X001262Y008477
Y008731
Y008985
Y008223
Y007969
X0005
Y008223
Y008477
Y008731
Y008985
T10
X00075Y00285
Y00335
X0007381Y0050006
Y0055006
Y0060006
T11
X0178066Y0007509
X0195441Y0005009
X0108066Y0057184
X0107441Y0070009
X0178066Y0057209
X0195441Y0070009
T13
X01Y0025
X0006Y0006
X0194Y0104
X01
X0006
M30
